# Blender 4.3.2
# www.blender.org
o egg_1
v -0.058915 0.828909 -0.337572
v -0.007230 0.459080 -0.414484
v 0.059168 0.016122 -0.253706
v 0.068407 -0.039923 -0.186147
v -0.066509 0.995559 -0.196936
v -0.048407 0.958025 -0.248139
v -0.028372 0.904958 -0.293654
v -0.006851 0.837834 -0.332738
v 0.015587 0.758617 -0.364548
v 0.038259 0.669716 -0.388116
v 0.060393 0.573903 -0.402385
v 0.081154 0.474231 -0.406278
v 0.099696 0.373913 -0.398811
v 0.115208 0.276212 -0.379226
v 0.126973 0.184307 -0.347134
v 0.134418 0.101178 -0.302644
v 0.137156 0.029490 -0.246465
v 0.135017 -0.028505 -0.179963
v 0.128067 -0.071045 -0.105157
v 0.116603 -0.096911 -0.024663
v 0.101133 -0.105457 0.058431
v -0.082345 1.016609 -0.140733
v -0.053737 0.998506 -0.192757
v -0.023034 0.963878 -0.239837
v 0.009236 0.913633 -0.281348
v 0.042394 0.849193 -0.316625
v 0.075594 0.772459 -0.344914
v 0.107826 0.685762 -0.365354
v 0.137951 0.591794 -0.377008
v 0.164752 0.493514 -0.378924
v 0.187009 0.394054 -0.370242
v 0.203584 0.296597 -0.350309
v 0.213511 0.204268 -0.318819
v 0.216083 0.120016 -0.275923
v 0.210921 0.046506 -0.222329
v 0.198020 -0.013972 -0.159348
v 0.177773 -0.059579 -0.088893
v 0.150956 -0.088987 -0.013423
v 0.118684 -0.101409 0.064173
v -0.042336 1.001936 -0.185862
v -0.000386 0.970691 -0.226140
v 0.042804 0.923733 -0.261047
v 0.086350 0.862418 -0.290041
v 0.129156 0.788574 -0.312520
v 0.169921 0.704444 -0.327800
v 0.207179 0.612621 -0.335140
v 0.239371 0.515964 -0.333796
v 0.264945 0.417501 -0.323107
v 0.282468 0.320330 -0.302601
v 0.290754 0.227507 -0.272103
v 0.288977 0.141946 -0.231838
v 0.276763 0.066314 -0.182509
v 0.254256 0.002947 -0.125337
v 0.222141 -0.046231 -0.062060
v 0.181619 -0.079762 0.005122
v 0.134350 -0.096695 0.073648
v -0.032878 1.005678 -0.176596
v 0.018401 0.978124 -0.207735
v 0.070650 0.934750 -0.233767
v 0.122813 0.876844 -0.254319
v 0.173587 0.806153 -0.268992
v 0.221430 0.724823 -0.277337
v 0.264606 0.635342 -0.278880
v 0.301271 0.540454 -0.273154
v 0.329595 0.443080 -0.259771
v 0.347905 0.346220 -0.238494
v 0.354830 0.252858 -0.209329
v 0.349445 0.165870 -0.172599
v 0.331382 0.087924 -0.129000
v 0.300906 0.021404 -0.079635
v 0.258945 -0.031670 -0.026004
v 0.207056 -0.069698 0.030041
v 0.147345 -0.091554 0.086379
v -0.025838 1.009544 -0.165426
v 0.032385 0.985804 -0.185544
v 0.091377 0.946132 -0.200876
v 0.149955 0.891749 -0.211251
v 0.206660 0.824315 -0.216511
v 0.259772 0.745879 -0.216496
v 0.307352 0.658816 -0.211050
v 0.347346 0.565756 -0.200042
v 0.377718 0.469506 -0.183408
v 0.396614 0.372968 -0.161202
v 0.402526 0.279051 -0.133645
v 0.394455 0.190587 -0.101176
v 0.372037 0.110250 -0.064487
v 0.335631 0.040472 -0.024534
v 0.286341 -0.016626 0.017468
v 0.225989 -0.059301 0.060085
v 0.157019 -0.086242 0.101728
v -0.021569 1.013340 -0.152909
v 0.040866 0.993345 -0.160681
v 0.103947 0.957309 -0.164024
v 0.166414 0.906385 -0.162995
v 0.226717 0.842149 -0.157709
v 0.283023 0.766554 -0.148327
v 0.333274 0.681867 -0.135050
v 0.375287 0.590602 -0.118123
v 0.406901 0.495457 -0.097849
v 0.426152 0.399234 -0.074602
v 0.431449 0.304770 -0.048846
v 0.421750 0.214858 -0.021152
v 0.396692 0.132173 0.007796
v 0.356688 0.059197 0.037203
v 0.302954 -0.001853 0.066175
v 0.237471 -0.049091 0.093748
v 0.162885 -0.081026 0.118927
v -0.020285 1.016876 -0.139675
v 0.043417 1.000369 -0.134392
v 0.107728 0.967721 -0.125059
v 0.171365 0.920018 -0.111972
v 0.232750 0.858762 -0.095536
v 0.290018 0.785813 -0.076249
v 0.341072 0.703338 -0.054692
v 0.383692 0.613746 -0.031507
v 0.415680 0.519629 -0.007383
v 0.435038 0.423700 0.016965
v 0.440150 0.328728 0.040816
v 0.429961 0.237467 0.063461
v 0.404109 0.152595 0.084224
v 0.363023 0.076639 0.102481
v 0.307952 0.011908 0.117676
v 0.240925 -0.039581 0.129341
v 0.164649 -0.076167 0.137111
v -0.022050 1.019974 -0.126387
v 0.039911 1.006525 -0.107995
v 0.102532 0.976844 -0.085934
v 0.164561 0.931965 -0.060740
v 0.224458 0.873320 -0.033108
v 0.280405 0.802690 -0.003876
v 0.330356 0.722153 0.025995
v 0.372141 0.634026 0.055464
v 0.403615 0.540811 0.083453
v 0.422826 0.445140 0.108907
v 0.428193 0.349722 0.130845
v 0.418677 0.257279 0.148421
v 0.393916 0.170490 0.160965
v 0.354317 0.091924 0.168025
v 0.301083 0.023967 0.169387
v 0.236178 -0.031247 0.165080
v 0.162224 -0.071909 0.155370
v -0.026776 1.022480 -0.113711
v 0.030523 1.011503 -0.082814
v 0.088618 0.984222 -0.048612
v 0.146341 0.941626 -0.011869
v 0.202257 0.885092 0.026444
v 0.254668 0.816338 0.065163
v 0.301661 0.737369 0.102965
v 0.341212 0.650427 0.138428
v 0.371311 0.557941 0.170104
v 0.390129 0.462479 0.196612
v 0.396176 0.366699 0.216727
v 0.388462 0.273300 0.229466
v 0.366625 0.184962 0.234171
v 0.331008 0.104284 0.230551
v 0.282693 0.033719 0.218716
v 0.223468 -0.024507 0.199172
v 0.155731 -0.068466 0.172788
v -0.034225 1.024268 -0.102283
v 0.015725 1.015053 -0.060112
v 0.066685 0.989485 -0.014963
v 0.117620 0.948518 0.032192
v 0.167260 0.893490 0.080134
v 0.214095 0.826074 0.127406
v 0.256428 0.748223 0.172358
v 0.292456 0.662126 0.213225
v 0.320388 0.570160 0.248226
v 0.338586 0.474846 0.275685
v 0.345705 0.378810 0.294154
v 0.340834 0.284729 0.302534
v 0.323603 0.195285 0.300170
v 0.294263 0.113101 0.286921
v 0.253704 0.040675 0.263189
v 0.203433 -0.019700 0.229909
v 0.145495 -0.066010 0.188491
v -0.044025 1.025247 -0.092676
v -0.003741 1.016999 -0.041028
v 0.037831 0.992369 0.013324
v 0.079839 0.952294 0.069233
v 0.121221 0.898091 0.125269
v 0.160722 0.831408 0.179731
v 0.196924 0.754170 0.230695
v 0.228318 0.668536 0.276105
v 0.253400 0.576855 0.313900
v 0.270783 0.481623 0.342158
v 0.279312 0.385445 0.359245
v 0.278179 0.290991 0.363960
v 0.267010 0.200941 0.355654
v 0.245926 0.117932 0.334310
v 0.215568 0.044486 0.300577
v 0.177077 -0.017066 0.255748
v 0.132029 -0.064664 0.201692
v -0.055683 1.025369 -0.085371
v -0.026900 1.017242 -0.026517
v 0.003505 0.992729 0.034831
v 0.034890 0.952765 0.097396
v 0.066450 0.898665 0.159587
v 0.097226 0.832073 0.219516
v 0.126133 0.754912 0.275050
v 0.152014 0.669336 0.323914
v 0.173705 0.577690 0.363835
v 0.190118 0.482468 0.392700
v 0.200325 0.386273 0.408736
v 0.203640 0.291772 0.410664
v 0.199681 0.201647 0.397840
v 0.188420 0.118535 0.370341
v 0.170199 0.044961 0.329003
v 0.145722 -0.016737 0.275394
v 0.116010 -0.064496 0.211730
v -0.068615 1.024628 -0.080735
v -0.052591 1.015769 -0.017308
v -0.034573 0.990547 0.048481
v -0.014970 0.949907 0.115269
v 0.005693 0.895183 0.181367
v 0.026789 0.828037 0.244765
v 0.047605 0.750412 0.303199
v 0.067371 0.664485 0.354256
v 0.085299 0.572624 0.395525
v 0.100636 0.477340 0.424776
v 0.112705 0.381252 0.440144
v 0.120954 0.287034 0.440304
v 0.124994 0.197367 0.424612
v 0.124629 0.114879 0.393208
v 0.119872 0.042077 0.347044
v 0.110939 -0.018730 0.287863
v 0.098240 -0.065514 0.218100
v -0.082174 1.023061 -0.079001
v -0.079524 1.012656 -0.013862
v -0.074493 0.985932 0.053588
v -0.067244 0.943865 0.121956
v -0.058004 0.887820 0.189515
v -0.047055 0.819501 0.254212
v -0.034722 0.740895 0.313731
v -0.021368 0.654228 0.365608
v -0.007383 0.561910 0.407381
v 0.006826 0.466496 0.436777
v 0.020846 0.370634 0.451896
v 0.034267 0.277013 0.451394
v 0.046693 0.188316 0.434629
v 0.057752 0.107149 0.401763
v 0.067109 0.035978 0.353794
v 0.074474 -0.022945 0.292528
v 0.079610 -0.067668 0.220483
v -0.095678 1.020746 -0.080255
v -0.106350 1.008058 -0.016353
v -0.114253 0.979116 0.049896
v -0.119308 0.934940 0.117122
v -0.121447 0.876945 0.183625
v -0.120604 0.806893 0.247383
v -0.116720 0.726840 0.306118
v -0.109752 0.639077 0.357401
v -0.099696 0.546087 0.398810
v -0.086610 0.450480 0.428102
v -0.070646 0.354950 0.443401
v -0.052074 0.262213 0.443377
v -0.031296 0.174947 0.427388
v -0.008858 0.095731 0.395579
v 0.014558 0.026970 0.348914
v 0.038154 -0.029171 0.289155
v 0.061054 -0.070849 0.218760
v -0.108450 1.017800 -0.084434
v -0.131723 1.002205 -0.024655
v -0.151861 0.970442 0.037591
v -0.168553 0.923581 0.101009
v -0.181454 0.863103 0.163990
v -0.190170 0.790847 0.224621
v -0.194278 0.708949 0.280741
v -0.193350 0.619794 0.330048
v -0.187009 0.525946 0.370241
v -0.174986 0.430094 0.399185
v -0.157184 0.334989 0.415086
v -0.133738 0.243375 0.416656
v -0.105060 0.157932 0.403252
v -0.071861 0.081198 0.374964
v -0.035148 0.015504 0.332650
v 0.003801 -0.037095 0.277915
v 0.043503 -0.074897 0.213018
v -0.119851 1.014370 -0.091329
v -0.154371 0.995391 -0.038352
v -0.185429 0.960342 0.017289
v -0.212509 0.910357 0.074425
v -0.235016 0.846989 0.131597
v -0.252265 0.772165 0.187067
v -0.263506 0.688122 0.238873
v -0.267969 0.597344 0.284919
v -0.264945 0.502499 0.323107
v -0.253870 0.406362 0.351477
v -0.234427 0.311750 0.368370
v -0.206632 0.221445 0.372571
v -0.170903 0.138123 0.363432
v -0.128097 0.064279 0.340953
v -0.079516 0.002156 0.305818
v -0.026862 -0.046320 0.259370
v 0.027837 -0.079610 0.203543
v -0.129309 1.010628 -0.100594
v -0.173158 0.987958 -0.056758
v -0.213275 0.949325 -0.009991
v -0.248972 0.895930 0.038703
v -0.279447 0.829410 0.088068
v -0.303775 0.751786 0.136604
v -0.320933 0.665401 0.182613
v -0.329868 0.572855 0.224278
v -0.329595 0.476920 0.259771
v -0.319307 0.380472 0.287370
v -0.298503 0.286399 0.305596
v -0.267100 0.197521 0.313332
v -0.225521 0.116513 0.309923
v -0.174747 0.045822 0.295251
v -0.116320 -0.012405 0.269761
v -0.052298 -0.056384 0.234451
v 0.014842 -0.084752 0.190812
v -0.136349 1.006762 -0.111765
v -0.187142 0.980279 -0.078948
v -0.234002 0.937943 -0.042881
v -0.276114 0.881025 -0.004365
v -0.312521 0.811248 0.035587
v -0.342117 0.730730 0.075763
v -0.363679 0.641927 0.114782
v -0.375944 0.547552 0.151165
v -0.377718 0.450494 0.183408
v -0.368016 0.353724 0.210078
v -0.346199 0.260207 0.229912
v -0.312110 0.172804 0.241910
v -0.266177 0.094187 0.245410
v -0.209471 0.026753 0.240150
v -0.143716 -0.027449 0.226290
v -0.071232 -0.066782 0.204407
v 0.005169 -0.090064 0.175462
v -0.140618 1.002966 -0.124281
v -0.195623 0.972738 -0.103812
v -0.246572 0.926766 -0.079733
v -0.292573 0.866390 -0.052621
v -0.332577 0.793413 -0.023214
v -0.365368 0.710055 0.007594
v -0.389601 0.618876 0.038783
v -0.403885 0.522706 0.069247
v -0.406901 0.424543 0.097849
v -0.397554 0.327458 0.123478
v -0.375122 0.234487 0.145113
v -0.339405 0.148533 0.161886
v -0.290832 0.072264 0.173127
v -0.230529 0.008028 0.178413
v -0.160329 -0.042222 0.177582
v -0.082714 -0.076991 0.170744
v -0.000698 -0.095280 0.158264
v -0.141902 0.999430 -0.137515
v -0.198174 0.965713 -0.130101
v -0.250353 0.916354 -0.118699
v -0.297524 0.852756 -0.103644
v -0.338610 0.776801 -0.085388
v -0.372363 0.690796 -0.064484
v -0.397399 0.597405 -0.041575
v -0.412290 0.499563 -0.017369
v -0.415680 0.400371 0.007383
v -0.406440 0.302991 0.031911
v -0.383823 0.210529 0.055451
v -0.347616 0.125924 0.077272
v -0.298248 0.051843 0.096699
v -0.236863 -0.009414 0.113135
v -0.165327 -0.055983 0.126082
v -0.086168 -0.086502 0.135151
v -0.002462 -0.100139 0.140079
v -0.140137 0.996331 -0.150803
v -0.194668 0.959558 -0.156497
v -0.245157 0.907231 -0.157823
v -0.290720 0.840810 -0.154876
v -0.330318 0.762243 -0.147815
v -0.362750 0.673919 -0.136857
v -0.386683 0.578589 -0.122262
v -0.400739 0.479282 -0.104340
v -0.403615 0.379189 -0.083453
v -0.394228 0.281551 -0.060030
v -0.371866 0.189535 -0.034578
v -0.336332 0.106112 -0.007687
v -0.288056 0.033947 0.019958
v -0.228158 -0.024698 0.047591
v -0.158458 -0.068042 0.074370
v -0.081421 -0.094836 0.099412
v -0.000037 -0.104397 0.121820
v -0.135411 0.993825 -0.163479
v -0.185281 0.954580 -0.181678
v -0.231243 0.899853 -0.195146
v -0.272500 0.831148 -0.203747
v -0.308117 0.750470 -0.207367
v -0.337012 0.660271 -0.205896
v -0.357988 0.563373 -0.199232
v -0.369810 0.462881 -0.187304
v -0.371311 0.362059 -0.170104
v -0.361531 0.264213 -0.147736
v -0.339849 0.172558 -0.120459
v -0.306118 0.090091 -0.088733
v -0.260764 0.019475 -0.053247
v -0.204848 -0.037059 -0.014934
v -0.140068 -0.077793 0.025041
v -0.068711 -0.101576 0.065320
v 0.006456 -0.107840 0.104403
v -0.127962 0.992038 -0.174907
v -0.170483 0.951029 -0.204380
v -0.209309 0.894590 -0.228794
v -0.243780 0.824257 -0.247808
v -0.273120 0.742073 -0.261057
v -0.296440 0.650535 -0.268139
v -0.312755 0.552520 -0.268625
v -0.321054 0.451182 -0.262101
v -0.320388 0.349840 -0.248226
v -0.309988 0.251846 -0.226808
v -0.289378 0.160447 -0.197887
v -0.258489 0.078662 -0.161801
v -0.217743 0.009153 -0.119247
v -0.168104 -0.045875 -0.071305
v -0.111079 -0.084749 -0.019432
v -0.048676 -0.106383 0.034583
v 0.016692 -0.110296 0.088700
v -0.118163 0.991059 -0.184515
v -0.151016 0.949084 -0.223465
v -0.180456 0.891706 -0.257081
v -0.205998 0.820481 -0.284849
v -0.227081 0.737472 -0.306193
v -0.243067 0.645201 -0.320465
v -0.253251 0.546573 -0.326962
v -0.256916 0.444772 -0.324981
v -0.253400 0.343145 -0.313900
v -0.242185 0.245069 -0.293282
v -0.222985 0.153812 -0.262978
v -0.195834 0.072400 -0.223227
v -0.161149 0.003496 -0.174730
v -0.119767 -0.050706 -0.118694
v -0.072943 -0.088561 -0.056819
v -0.022320 -0.109017 0.008744
v 0.030158 -0.111642 0.075498
v -0.106504 0.990936 -0.191819
v -0.127857 0.948841 -0.237975
v -0.146130 0.891346 -0.278589
v -0.161050 0.820010 -0.313012
v -0.172310 0.736898 -0.340510
v -0.179570 0.644536 -0.360250
v -0.182460 0.545831 -0.371317
v -0.180612 0.443972 -0.372790
v -0.173705 0.342310 -0.363835
v -0.161520 0.244224 -0.343824
v -0.143998 0.152984 -0.312469
v -0.121295 0.071619 -0.269931
v -0.093821 0.002791 -0.216916
v -0.062261 -0.051309 -0.154725
v -0.027574 -0.089036 -0.085246
v 0.009036 -0.109346 -0.010902
v 0.046177 -0.111810 0.065461
v -0.093572 0.991677 -0.196455
v -0.102166 0.950313 -0.247184
v -0.108052 0.893528 -0.292238
v -0.111189 0.822867 -0.330885
v -0.111553 0.740379 -0.362290
v -0.109134 0.648572 -0.385498
v -0.103932 0.550331 -0.399466
v -0.095969 0.448823 -0.403132
v -0.085299 0.347376 -0.395525
v -0.072038 0.249351 -0.375900
v -0.056378 0.158005 -0.343877
v -0.038609 0.076358 -0.299571
v -0.019133 0.007071 -0.243689
v 0.001530 -0.047653 -0.177592
v 0.022753 -0.086152 -0.103286
v 0.043818 -0.107352 -0.023370
v 0.063948 -0.110791 0.059091
v -0.080014 0.993245 -0.198190
v -0.075233 0.953426 -0.250630
v -0.068132 0.898143 -0.297345
v -0.047856 0.747742 -0.370439
v -0.035290 0.657108 -0.394945
v -0.021605 0.559848 -0.409998
v 0.007383 0.358090 -0.407381
v 0.021772 0.260195 -0.387901
v 0.035481 0.168624 -0.355629
v 0.048078 0.086378 -0.310660
v 0.075516 -0.080053 -0.110036
v 0.080283 -0.103137 -0.028035
v 0.082578 -0.108638 0.056708
v 0.082345 -0.096609 0.140733
vn -0.0773 0.4273 -0.9008
vn -0.0155 -0.0160 -0.9998
vn 0.0864 -0.6909 -0.7177
vn 0.1074 -0.8184 -0.5646
vn -0.0698 0.8638 -0.4990
vn -0.0040 0.7280 -0.6856
vn 0.0498 0.5862 -0.8086
vn 0.0916 0.4563 -0.8851
vn 0.1246 0.3403 -0.9320
vn 0.1519 0.2332 -0.9605
vn 0.1760 0.1287 -0.9759
vn 0.1985 0.0207 -0.9799
vn 0.2199 -0.0958 -0.9708
vn 0.2401 -0.2238 -0.9446
vn 0.2579 -0.3638 -0.8950
vn 0.2710 -0.5118 -0.8153
vn 0.2766 -0.6583 -0.7001
vn 0.2718 -0.7902 -0.5493
vn 0.2553 -0.8936 -0.3693
vn 0.2273 -0.9587 -0.1711
vn 0.1895 -0.9813 0.0337
vn -0.1420 0.9597 -0.2426
vn -0.0115 0.8772 -0.4800
vn 0.1001 0.7520 -0.6515
vn 0.1869 0.6178 -0.7638
vn 0.2514 0.4932 -0.8328
vn 0.3002 0.3808 -0.8746
vn 0.3391 0.2764 -0.8993
vn 0.3719 0.1738 -0.9119
vn 0.4008 0.0673 -0.9137
vn 0.4265 -0.0481 -0.9032
vn 0.4480 -0.1759 -0.8766
vn 0.4628 -0.3166 -0.8280
vn 0.4671 -0.4665 -0.7511
vn 0.4565 -0.6168 -0.6412
vn 0.4273 -0.7543 -0.4984
vn 0.3788 -0.8651 -0.3289
vn 0.3132 -0.9389 -0.1430
vn 0.2340 -0.9710 0.0482
vn 0.0405 0.8929 -0.4485
vn 0.1930 0.7800 -0.5953
vn 0.3093 0.6546 -0.6898
vn 0.3941 0.5361 -0.7465
vn 0.4570 0.4279 -0.7798
vn 0.5061 0.3266 -0.7982
vn 0.5467 0.2264 -0.8061
vn 0.5814 0.1217 -0.8044
vn 0.6109 0.0073 -0.7917
vn 0.6335 -0.1201 -0.7644
vn 0.6457 -0.2615 -0.7174
vn 0.6422 -0.4139 -0.6452
vn 0.6170 -0.5685 -0.5441
vn 0.5661 -0.7126 -0.4145
vn 0.4891 -0.8319 -0.2622
vn 0.3898 -0.9158 -0.0967
vn 0.2738 -0.9591 0.0723
vn 0.0836 0.9099 -0.4063
vn 0.2701 0.8105 -0.5198
vn 0.4108 0.6948 -0.5903
vn 0.5124 0.5829 -0.6306
vn 0.5870 0.4794 -0.6524
vn 0.6447 0.3815 -0.6625
vn 0.6917 0.2838 -0.6641
vn 0.7312 0.1810 -0.6577
vn 0.7638 0.0679 -0.6419
vn 0.7874 -0.0592 -0.6136
vn 0.7975 -0.2015 -0.5687
vn 0.7874 -0.3564 -0.5030
vn 0.7502 -0.5158 -0.4136
vn 0.6813 -0.6670 -0.3017
vn 0.5806 -0.7957 -0.1725
vn 0.4533 -0.8907 -0.0344
vn 0.3067 -0.9460 0.1046
vn 0.1157 0.9276 -0.3553
vn 0.3275 0.8420 -0.4287
vn 0.4864 0.7363 -0.4704
vn 0.6005 0.6313 -0.4909
vn 0.6838 0.5326 -0.4988
vn 0.7479 0.4381 -0.4988
vn 0.7997 0.3431 -0.4928
vn 0.8428 0.2422 -0.4807
vn 0.8777 0.1304 -0.4612
vn 0.9020 0.0037 -0.4318
vn 0.9104 -0.1395 -0.3895
vn 0.8955 -0.2971 -0.3314
vn 0.8494 -0.4614 -0.2563
vn 0.7670 -0.6199 -0.1656
vn 0.6487 -0.7583 -0.0644
vn 0.5007 -0.8647 0.0407
vn 0.3313 -0.9326 0.1435
vn 0.1352 0.9449 -0.2982
vn 0.3623 0.8729 -0.3267
vn 0.5322 0.7770 -0.3360
vn 0.6539 0.6787 -0.3343
vn 0.7425 0.5848 -0.3266
vn 0.8104 0.4937 -0.3154
vn 0.8651 0.4013 -0.3008
vn 0.9104 0.3023 -0.2824
vn 0.9467 0.1918 -0.2588
vn 0.9714 0.0655 -0.2281
vn 0.9789 -0.0786 -0.1887
vn 0.9610 -0.2388 -0.1393
vn 0.9095 -0.4079 -0.0800
vn 0.8190 -0.5737 -0.0133
vn 0.6900 -0.7215 0.0566
vn 0.5293 -0.8392 0.1248
vn 0.3462 -0.9193 0.1871
vn 0.1411 0.9610 -0.2378
vn 0.3728 0.9017 -0.2188
vn 0.5460 0.8150 -0.1940
vn 0.6699 0.7230 -0.1687
vn 0.7602 0.6334 -0.1447
vn 0.8292 0.5455 -0.1214
vn 0.8848 0.4555 -0.0979
vn 0.9307 0.3583 -0.0728
vn 0.9675 0.2490 -0.0448
vn 0.9923 0.1230 -0.0128
vn 0.9995 -0.0219 0.0236
vn 0.9808 -0.1845 0.0639
vn 0.9276 -0.3581 0.1064
vn 0.8346 -0.5307 0.1479
vn 0.7025 -0.6873 0.1847
vn 0.5380 -0.8154 0.2137
vn 0.3506 -0.9070 0.2333
vn 0.1330 0.9751 -0.1772
vn 0.3584 0.9270 -0.1105
vn 0.5271 0.8483 -0.0513
vn 0.6479 0.7618 -0.0025
vn 0.7359 0.6760 0.0381
vn 0.8034 0.5909 0.0733
vn 0.8578 0.5030 0.1058
vn 0.9028 0.4074 0.1377
vn 0.9389 0.2991 0.1702
vn 0.9636 0.1735 0.2034
vn 0.9712 0.0278 0.2368
vn 0.9537 -0.1369 0.2679
vn 0.9027 -0.3145 0.2936
vn 0.8131 -0.4929 0.3097
vn 0.6854 -0.6574 0.3132
vn 0.5261 -0.7946 0.3030
vn 0.3445 -0.8962 0.2796
vn 0.1115 0.9866 -0.1194
vn 0.3199 0.9474 -0.0072
vn 0.4763 0.8752 0.0847
vn 0.5887 0.7931 0.1561
vn 0.6710 0.7104 0.2124
vn 0.7341 0.6277 0.2590
vn 0.7853 0.5415 0.3002
vn 0.8279 0.4471 0.3385
vn 0.8625 0.3396 0.3752
vn 0.8867 0.2142 0.4097
vn 0.8954 0.0681 0.4401
vn 0.8811 -0.0984 0.4626
vn 0.8362 -0.2792 0.4721
vn 0.7556 -0.4624 0.4640
vn 0.6397 -0.6331 0.4359
vn 0.4944 -0.7778 0.3882
vn 0.3280 -0.8875 0.3237
vn 0.0775 0.9947 -0.0673
vn 0.2592 0.9620 0.0860
vn 0.3964 0.8944 0.2074
vn 0.4955 0.8155 0.2991
vn 0.5685 0.7350 0.3695
vn 0.6250 0.6539 0.4265
vn 0.6711 0.5689 0.4754
vn 0.7099 0.4755 0.5196
vn 0.7420 0.3685 0.5600
vn 0.7655 0.2433 0.5957
vn 0.7758 0.0967 0.6235
vn 0.7667 -0.0710 0.6380
vn 0.7313 -0.2540 0.6330
vn 0.6649 -0.4406 0.6031
vn 0.5676 -0.6158 0.5464
vn 0.4443 -0.7657 0.4650
vn 0.3020 -0.8812 0.3636
vn 0.0328 0.9992 -0.0235
vn 0.1793 0.9700 0.1643
vn 0.2912 0.9049 0.3105
vn 0.3729 0.8277 0.4193
vn 0.4338 0.7485 0.5016
vn 0.4814 0.6682 0.5672
vn 0.5208 0.5839 0.6228
vn 0.5547 0.4910 0.6718
vn 0.5835 0.3844 0.7154
vn 0.6060 0.2593 0.7520
vn 0.6186 0.1124 0.7776
vn 0.6163 -0.0559 0.7856
vn 0.5932 -0.2402 0.7683
vn 0.5456 -0.4287 0.7201
vn 0.4728 -0.6063 0.6394
vn 0.3784 -0.7592 0.5296
vn 0.2679 -0.8778 0.3971
vn -0.0204 0.9997 0.0098
vn 0.0842 0.9710 0.2238
vn 0.1660 0.9062 0.3889
vn 0.2271 0.8292 0.5107
vn 0.2735 0.7502 0.6021
vn 0.3105 0.6700 0.6743
vn 0.3420 0.5858 0.7348
vn 0.3700 0.4929 0.7875
vn 0.3950 0.3863 0.8335
vn 0.4163 0.2613 0.8709
vn 0.4316 0.1144 0.8948
vn 0.4373 -0.0541 0.8977
vn 0.4290 -0.2385 0.8712
vn 0.4036 -0.4272 0.8091
vn 0.3600 -0.6052 0.7100
vn 0.3001 -0.7583 0.5787
vn 0.2272 -0.8774 0.4225
vn -0.0794 0.9964 0.0310
vn -0.0212 0.9649 0.2616
vn 0.0272 0.8982 0.4387
vn 0.0653 0.8200 0.5687
vn 0.0956 0.7400 0.6658
vn 0.1210 0.6591 0.7422
vn 0.1437 0.5744 0.8059
vn 0.1651 0.4812 0.8609
vn 0.1858 0.3743 0.9085
vn 0.2059 0.2492 0.9463
vn 0.2241 0.1025 0.9692
vn 0.2387 -0.0654 0.9689
vn 0.2469 -0.2489 0.9365
vn 0.2461 -0.4363 0.8655
vn 0.2349 -0.6123 0.7549
vn 0.2132 -0.7633 0.6098
vn 0.1822 -0.8800 0.4387
vn -0.1412 0.9892 0.0389
vn -0.1317 0.9522 0.2758
vn -0.1183 0.8814 0.4573
vn -0.1043 0.8004 0.5904
vn -0.0908 0.7184 0.6896
vn -0.0776 0.6362 0.7676
vn -0.0642 0.5504 0.8325
vn -0.0497 0.4563 0.8884
vn -0.0334 0.3490 0.9365
vn -0.0148 0.2237 0.9745
vn 0.0066 0.0774 0.9970
vn 0.0305 -0.0895 0.9955
vn 0.0559 -0.2710 0.9609
vn 0.0811 -0.4553 0.8866
vn 0.1037 -0.6275 0.7717
vn 0.1220 -0.7738 0.6215
vn 0.1349 -0.8854 0.4447
vn -0.2028 0.9787 0.0332
vn -0.2418 0.9333 0.2655
vn -0.2633 0.8566 0.4439
vn -0.2733 0.7714 0.5747
vn -0.2765 0.6866 0.6724
vn -0.2755 0.6023 0.7493
vn -0.2712 0.5149 0.8132
vn -0.2636 0.4197 0.8686
vn -0.2518 0.3116 0.9162
vn -0.2345 0.1860 0.9541
vn -0.2100 0.0402 0.9769
vn -0.1768 -0.1251 0.9763
vn -0.1343 -0.3036 0.9433
vn -0.0834 -0.4835 0.8714
vn -0.0269 -0.6499 0.7596
vn 0.0313 -0.7894 0.6131
vn 0.0878 -0.8935 0.4404
vn -0.2611 0.9652 0.0141
vn -0.3459 0.9093 0.2315
vn -0.4004 0.8249 0.3990
vn -0.4331 0.7345 0.5224
vn -0.4521 0.6461 0.6149
vn -0.4627 0.5591 0.6880
vn -0.4671 0.4697 0.7491
vn -0.4660 0.3730 0.8024
vn -0.4584 0.2639 0.8487
vn -0.4424 0.1381 0.8861
vn -0.4149 -0.0070 0.9098
vn -0.3729 -0.1703 0.9121
vn -0.3141 -0.3451 0.8844
vn -0.2389 -0.5194 0.8205
vn -0.1505 -0.6784 0.7191
vn -0.0545 -0.8092 0.5850
vn 0.0433 -0.9038 0.4258
vn -0.3131 0.9496 -0.0173
vn -0.4388 0.8813 0.1753
vn -0.5228 0.7881 0.3250
vn -0.5757 0.6916 0.4361
vn -0.6089 0.5989 0.5201
vn -0.6297 0.5088 0.5870
vn -0.6419 0.4171 0.6434
vn -0.6466 0.3186 0.6931
vn -0.6428 0.2084 0.7371
vn -0.6279 0.0823 0.7739
vn -0.5979 -0.0621 0.7992
vn -0.5480 -0.2230 0.8062
vn -0.4747 -0.3934 0.7873
vn -0.3777 -0.5612 0.7365
vn -0.2608 -0.7116 0.6524
vn -0.1312 -0.8323 0.5386
vn 0.0036 -0.9157 0.4018
vn -0.3562 0.9325 -0.0596
vn -0.5159 0.8508 0.0997
vn -0.6243 0.7479 0.2255
vn -0.6940 0.6448 0.3202
vn -0.7390 0.5475 0.3927
vn -0.7683 0.4540 0.4512
vn -0.7869 0.3597 0.5013
vn -0.7964 0.2594 0.5463
vn -0.7957 0.1479 0.5873
vn -0.7818 0.0214 0.6232
vn -0.7496 -0.1221 0.6506
vn -0.6932 -0.2804 0.6640
vn -0.6079 -0.4461 0.6568
vn -0.4928 -0.6067 0.6237
vn -0.3523 -0.7478 0.5628
vn -0.1947 -0.8574 0.4764
vn -0.0294 -0.9288 0.3695
vn -0.3883 0.9149 -0.1105
vn -0.5733 0.8193 0.0087
vn -0.6998 0.7064 0.1056
vn -0.7821 0.5965 0.1805
vn -0.8358 0.4943 0.2391
vn -0.8715 0.3973 0.2875
vn -0.8949 0.3004 0.3301
vn -0.9079 0.1981 0.3694
vn -0.9096 0.0854 0.4066
vn -0.8964 -0.0415 0.4414
vn -0.8625 -0.1841 0.4713
vn -0.8013 -0.3398 0.4925
vn -0.7071 -0.5006 0.4995
vn -0.5785 -0.6538 0.4877
vn -0.4204 -0.7852 0.4547
vn -0.2420 -0.8834 0.4013
vn -0.0539 -0.9423 0.3305
vn -0.4078 0.8976 -0.1676
vn -0.6081 0.7884 -0.0933
vn -0.7457 0.6657 -0.0287
vn -0.8355 0.5490 0.0239
vn -0.8945 0.4421 0.0670
vn -0.9340 0.3417 0.1041
vn -0.9603 0.2422 0.1381
vn -0.9755 0.1380 0.1711
vn -0.9786 0.0240 0.2042
vn -0.9658 -0.1033 0.2377
vn -0.9310 -0.2450 0.2706
vn -0.8668 -0.3980 0.3003
vn -0.7672 -0.5540 0.3232
vn -0.6305 -0.7000 0.3353
vn -0.4617 -0.8219 0.3336
vn -0.2707 -0.9089 0.3172
vn -0.0688 -0.9555 0.2869
vn -0.4136 0.8814 -0.2280
vn -0.6186 0.7595 -0.2012
vn -0.7595 0.6277 -0.1708
vn -0.8516 0.5047 -0.1417
vn -0.9121 0.3935 -0.1150
vn -0.9528 0.2899 -0.0898
vn -0.9800 0.1880 -0.0648
vn -0.9959 0.0820 -0.0386
vn -0.9994 -0.0332 -0.0098
vn -0.9867 -0.1608 0.0224
vn -0.9516 -0.3017 0.0582
vn -0.8865 -0.4523 0.0971
vn -0.7853 -0.6038 0.1368
vn -0.6462 -0.7431 0.1742
vn -0.4741 -0.8561 0.2056
vn -0.2794 -0.9327 0.2283
vn -0.0733 -0.9678 0.2408
vn -0.4056 0.8673 -0.2886
vn -0.6042 0.7343 -0.3095
vn -0.7405 0.5945 -0.3134
vn -0.8295 0.4660 -0.3079
vn -0.8878 0.3509 -0.2977
vn -0.9270 0.2445 -0.2845
vn -0.9530 0.1405 -0.2686
vn -0.9679 0.0329 -0.2491
vn -0.9709 -0.0833 -0.2247
vn -0.9580 -0.2113 -0.1939
vn -0.9233 -0.3515 -0.1549
vn -0.8594 -0.4999 -0.1069
vn -0.7604 -0.6475 -0.0503
vn -0.6247 -0.7808 0.0124
vn -0.4571 -0.8861 0.0770
vn -0.2675 -0.9535 0.1389
vn -0.0671 -0.9786 0.1945
vn -0.3840 0.8559 -0.3464
vn -0.5656 0.7139 -0.4129
vn -0.6898 0.5676 -0.4495
vn -0.7704 0.4346 -0.4665
vn -0.8229 0.3164 -0.4720
vn -0.8577 0.2078 -0.4702
vn -0.8805 0.1021 -0.4629
vn -0.8931 -0.0068 -0.4499
vn -0.8944 -0.1238 -0.4297
vn -0.8811 -0.2521 -0.4002
vn -0.8475 -0.3917 -0.3583
vn -0.7869 -0.5384 -0.3016
vn -0.6939 -0.6828 -0.2289
vn -0.5671 -0.8113 -0.1420
vn -0.4113 -0.9103 -0.0456
vn -0.2357 -0.9703 0.0538
vn -0.0506 -0.9873 0.1503
vn -0.3501 0.8477 -0.3985
vn -0.5049 0.6993 -0.5060
vn -0.6098 0.5484 -0.5722
vn -0.6772 0.4122 -0.6095
vn -0.7204 0.2918 -0.6291
vn -0.7486 0.1816 -0.6377
vn -0.7663 0.0747 -0.6382
vn -0.7751 -0.0351 -0.6309
vn -0.7740 -0.1527 -0.6145
vn -0.7599 -0.2811 -0.5861
vn -0.7280 -0.4203 -0.5416
vn -0.6725 -0.5658 -0.4770
vn -0.5889 -0.7079 -0.3898
vn -0.4764 -0.8331 -0.2811
vn -0.3393 -0.9276 -0.1562
vn -0.1857 -0.9823 -0.0230
vn -0.0247 -0.9936 0.1104
vn -0.3054 0.8432 -0.4424
vn -0.4250 0.6913 -0.5843
vn -0.5046 0.5379 -0.6753
vn -0.5546 0.4000 -0.7297
vn -0.5857 0.2784 -0.7612
vn -0.6050 0.1672 -0.7785
vn -0.6160 0.0596 -0.7855
vn -0.6198 -0.0506 -0.7831
vn -0.6155 -0.1686 -0.7699
vn -0.6004 -0.2971 -0.7425
vn -0.5708 -0.4360 -0.6958
vn -0.5221 -0.5809 -0.6245
vn -0.4509 -0.7217 -0.5251
vn -0.3571 -0.8450 -0.3981
vn -0.2445 -0.9371 -0.2491
vn -0.1198 -0.9889 -0.0876
vn 0.0095 -0.9970 0.0770
vn -0.2522 0.8427 -0.4757
vn -0.3300 0.6903 -0.6439
vn -0.3795 0.5366 -0.7537
vn -0.4087 0.3985 -0.8211
vn -0.4254 0.2767 -0.8617
vn -0.4341 0.1654 -0.8855
vn -0.4372 0.0578 -0.8975
vn -0.4351 -0.0526 -0.8988
vn -0.4269 -0.1705 -0.8881
vn -0.4107 -0.2991 -0.8613
vn -0.3837 -0.4380 -0.8130
vn -0.3431 -0.5827 -0.7367
vn -0.2867 -0.7235 -0.6280
vn -0.2152 -0.8465 -0.4870
vn -0.1317 -0.9383 -0.3198
vn -0.0415 -0.9897 -0.1367
vn 0.0501 -0.9974 0.0515
vn -0.1932 0.8461 -0.4968
vn -0.2246 0.6963 -0.6817
vn -0.2407 0.5445 -0.8035
vn -0.2469 0.4077 -0.8791
vn -0.2475 0.2869 -0.9254
vn -0.2446 0.1763 -0.9534
vn -0.2389 0.0691 -0.9686
vn -0.2303 -0.0408 -0.9723
vn -0.2178 -0.1586 -0.9630
vn -0.2003 -0.2870 -0.9368
vn -0.1763 -0.4261 -0.8873
vn -0.1445 -0.5714 -0.8079
vn -0.1046 -0.7130 -0.6933
vn -0.0577 -0.8375 -0.5435
vn -0.0066 -0.9311 -0.3647
vn 0.0454 -0.9848 -0.1679
vn 0.0952 -0.9948 0.0353
vn -0.1314 0.8532 -0.5047
vn -0.1141 0.7091 -0.6958
vn -0.0951 0.5613 -0.8221
vn -0.0611 0.3084 -0.9493
vn -0.0460 0.1993 -0.9789
vn -0.0310 0.0932 -0.9952
vn 0.0015 -0.1332 -0.9911
vn 0.0204 -0.2615 -0.9650
vn 0.0413 -0.4010 -0.9152
vn 0.0637 -0.5473 -0.8345
vn 0.1246 -0.9160 -0.3814
vn 0.1366 -0.9742 -0.1795
vn 0.1424 -0.9894 0.0293
vn 0.1420 -0.9597 0.2426
vt 0.166978 0.673781
vt 0.134143 0.706960
vt 0.127660 0.698953
vt 0.957730 0.352122
vt 0.995228 0.397303
vt 0.955143 0.403853
vt 0.902648 0.040740
vt 0.903686 0.001333
vt 0.925459 0.037013
vt 0.948284 0.450946
vt 0.986112 0.444765
vt 0.917797 0.084167
vt 0.945593 0.079625
vt 0.971332 0.486323
vt 0.937163 0.491906
vt 0.931253 0.133141
vt 0.963477 0.127875
vt 0.049108 0.802793
vt 0.001725 0.795777
vt 0.025835 0.774049
vt 0.942502 0.186138
vt 0.978428 0.180268
vt 0.055623 0.750093
vt 0.073985 0.772770
vt 0.989728 0.235158
vt 0.951005 0.241485
vt 0.401371 0.643470
vt 0.431378 0.628323
vt 0.405388 0.649838
vt 0.090019 0.724739
vt 0.102709 0.740411
vt 0.956235 0.297413
vt 0.996680 0.290804
vt 0.372477 0.659115
vt 0.380456 0.671765
vt 0.998667 0.345434
vt 0.345123 0.675002
vt 0.356948 0.693752
vt 0.042846 0.723960
vt 0.676927 0.688779
vt 0.724153 0.634687
vt 0.715651 0.688081
vt 0.410725 0.655145
vt 0.081188 0.706678
vt 0.669976 0.744005
vt 0.710421 0.743277
vt 0.391058 0.682307
vt 0.123148 0.689726
vt 0.708925 0.798606
vt 0.667988 0.799343
vt 0.372663 0.709377
vt 0.711512 0.852399
vt 0.671427 0.853121
vt 0.355867 0.735825
vt 0.335289 0.715364
vt 0.680543 0.903713
vt 0.718372 0.903032
vt 0.741197 0.501292
vt 0.748859 0.539648
vt 0.721062 0.540148
vt 0.729492 0.948972
vt 0.695323 0.949587
vt 0.735402 0.584705
vt 0.703178 0.585285
vt 0.744641 0.988828
vt 0.715457 0.989353
vt 0.688227 0.635334
vt 0.009639 0.740926
vt 0.036293 0.695683
vt 0.760275 0.687596
vt 0.417116 0.659124
vt 0.076659 0.687135
vt 0.757028 0.742770
vt 0.403754 0.690213
vt 0.120834 0.679741
vt 0.756100 0.798093
vt 0.391480 0.721095
vt 0.757706 0.851897
vt 0.380507 0.751169
vt 0.761964 0.902558
vt 0.790295 0.500595
vt 0.780890 0.539300
vt 0.768868 0.948544
vt 0.772537 0.584301
vt 0.778272 0.988462
vt 0.765553 0.634236
vt 0.001333 0.668320
vt 0.036293 0.666678
vt 0.808563 0.687347
vt 0.424240 0.661577
vt 0.076659 0.667089
vt 0.807462 0.742510
vt 0.417905 0.695086
vt 0.120834 0.669500
vt 0.807148 0.797830
vt 0.412455 0.728318
vt 0.807692 0.851640
vt 0.407973 0.760626
vt 0.809136 0.902315
vt 0.815551 0.539121
vt 0.811476 0.948324
vt 0.812720 0.584094
vt 0.814664 0.988274
vt 0.810352 0.634006
vt 0.009639 0.632478
vt 0.042846 0.638400
vt 0.858092 0.687347
vt 0.431740 0.662381
vt 0.081188 0.647546
vt 0.859193 0.742510
vt 0.432803 0.696681
vt 0.123148 0.659515
vt 0.859508 0.797830
vt 0.434537 0.730683
vt 0.858963 0.851640
vt 0.436888 0.763723
vt 0.857520 0.902315
vt 0.847916 0.500449
vt 0.851104 0.539121
vt 0.855180 0.948324
vt 0.853936 0.584094
vt 0.851991 0.988274
vt 0.856303 0.634006
vt 0.025835 0.599355
vt 0.055623 0.612268
vt 0.901102 0.634236
vt 0.906380 0.687596
vt 0.439239 0.661494
vt 0.090018 0.629485
vt 0.909627 0.742770
vt 0.447701 0.694920
vt 0.127660 0.650288
vt 0.910555 0.798093
vt 0.456618 0.728072
vt 0.908949 0.851897
vt 0.465802 0.760305
vt 0.904691 0.902558
vt 0.885765 0.539300
vt 0.897788 0.948544
vt 0.894119 0.584301
vt 0.888383 0.988462
vt 0.073985 0.589591
vt 0.951005 0.688081
vt 0.446362 0.658962
vt 0.102708 0.613812
vt 0.956235 0.743277
vt 0.461851 0.689889
vt 0.134143 0.642281
vt 0.957731 0.798606
vt 0.477591 0.720616
vt 0.955143 0.852399
vt 0.493265 0.750542
vt 0.948284 0.903032
vt 0.902648 0.500881
vt 0.917797 0.539648
vt 0.937163 0.948972
vt 0.931253 0.584705
vt 0.922014 0.988828
vt 0.942502 0.634687
vt 0.049108 0.570611
vt 0.097009 0.571507
vt 0.978428 0.635333
vt 0.989728 0.688779
vt 0.452752 0.654911
vt 0.118621 0.601314
vt 0.996680 0.744005
vt 0.474544 0.681842
vt 0.142273 0.635895
vt 0.998667 0.799343
vt 0.496404 0.708689
vt 0.995228 0.853121
vt 0.517900 0.734923
vt 0.986112 0.903713
vt 0.508482 0.778934
vt 0.538500 0.759903
vt 0.971332 0.949587
vt 0.963477 0.585285
vt 0.951198 0.989353
vt 0.078292 0.547689
vt 0.123542 0.558922
vt 0.355300 0.135885
vt 0.382590 0.188703
vt 0.343864 0.189301
vt 0.458087 0.649544
vt 0.136959 0.592616
vt 0.377219 0.243884
vt 0.336773 0.244510
vt 0.485143 0.671182
vt 0.151641 0.631452
vt 0.334644 0.299843
vt 0.375583 0.299210
vt 0.512114 0.692889
vt 0.378034 0.353010
vt 0.337946 0.353629
vt 0.538471 0.714234
vt 0.384764 0.403659
vt 0.346934 0.404244
vt 0.563568 0.734691
vt 0.361597 0.450156
vt 0.395767 0.449627
vt 0.388378 0.040784
vt 0.402604 0.085377
vt 0.370379 0.085875
vt 0.410815 0.489522
vt 0.381630 0.489973
vt 0.391228 0.135330
vt 0.455983 0.521909
vt 0.429450 0.522129
vt 0.427215 0.188331
vt 0.462102 0.643132
vt 0.156802 0.588156
vt 0.423828 0.243496
vt 0.493118 0.658444
vt 0.161779 0.629173
vt 0.422759 0.298817
vt 0.523934 0.674007
vt 0.424228 0.352625
vt 0.553948 0.689510
vt 0.428358 0.403296
vt 0.416175 0.040354
vt 0.457710 0.001407
vt 0.448208 0.040087
vt 0.435144 0.449300
vt 0.439740 0.085068
vt 0.444447 0.489242
vt 0.432629 0.134985
vt 0.484695 0.521834
vt 0.475504 0.188205
vt 0.464593 0.635994
vt 0.152253 0.552468
vt 0.177155 0.588156
vt 0.474263 0.243365
vt 0.498067 0.644265
vt 0.172177 0.629173
vt 0.473807 0.298684
vt 0.531270 0.652992
vt 0.474215 0.352494
vt 0.563554 0.661991
vt 0.475529 0.403173
vt 0.482869 0.039997
vt 0.477753 0.449188
vt 0.479923 0.084963
vt 0.480839 0.489147
vt 0.477428 0.134868
vt 0.518166 0.489242
vt 0.514144 0.521909
vt 0.523379 0.134985
vt 0.525033 0.188331
vt 0.465437 0.628490
vt 0.181703 0.552468
vt 0.196998 0.592616
vt 0.525993 0.243496
vt 0.499743 0.629358
vt 0.182315 0.631452
vt 0.526167 0.298817
vt 0.533754 0.630897
vt 0.525486 0.352625
vt 0.566808 0.633059
vt 0.523913 0.403296
vt 0.486155 0.001333
vt 0.518421 0.040087
vt 0.521456 0.449300
vt 0.521139 0.085067
vt 0.542855 0.522129
vt 0.568177 0.135330
vt 0.573320 0.188703
vt 0.464591 0.620995
vt 0.210414 0.558922
vt 0.215335 0.601314
vt 0.576426 0.243885
vt 0.498062 0.614469
vt 0.191684 0.635895
vt 0.577214 0.299210
vt 0.531263 0.608829
vt 0.575471 0.353010
vt 0.563545 0.604162
vt 0.571084 0.403659
vt 0.515332 0.001407
vt 0.553082 0.040354
vt 0.564063 0.449628
vt 0.561321 0.085377
vt 0.554557 0.489522
vt 0.236947 0.571507
vt 0.284848 0.570611
vt 0.259971 0.589591
vt 0.617943 0.189301
vt 0.462097 0.613885
vt 0.231248 0.613812
vt 0.623033 0.244510
vt 0.493109 0.600345
vt 0.199813 0.642281
vt 0.624388 0.299843
vt 0.523920 0.587895
vt 0.621663 0.353629
vt 0.553931 0.576750
vt 0.614675 0.404244
vt 0.543776 0.001626
vt 0.585113 0.040784
vt 0.603438 0.450156
vt 0.598454 0.085875
vt 0.588187 0.489973
vt 0.609576 0.135885
vt 0.278333 0.612268
vt 0.656665 0.190097
vt 0.458081 0.607517
vt 0.243938 0.629485
vt 0.663475 0.245341
vt 0.485130 0.587695
vt 0.206297 0.650288
vt 0.665322 0.300684
vt 0.512095 0.569146
vt 0.661747 0.354453
vt 0.538446 0.552199
vt 0.652502 0.405021
vt 0.592872 0.002447
vt 0.612907 0.041355
vt 0.637605 0.450858
vt 0.630677 0.086537
vt 0.617370 0.490573
vt 0.645501 0.136623
vt 0.324317 0.632477
vt 0.291110 0.638400
vt 0.023929 0.173520
vt 0.050516 0.232517
vt 0.011851 0.228065
vt 0.452744 0.602210
vt 0.252769 0.647545
vt 0.004106 0.283792
vt 0.044489 0.288442
vt 0.474528 0.577153
vt 0.210809 0.659515
vt 0.001333 0.338962
vt 0.042207 0.343669
vt 0.496380 0.553520
vt 0.044043 0.396464
vt 0.004019 0.391855
vt 0.517868 0.531738
vt 0.012439 0.440823
vt 0.050210 0.445172
vt 0.058175 0.074667
vt 0.101674 0.036030
vt 0.085928 0.077863
vt 0.026601 0.484349
vt 0.060718 0.488277
vt 0.071792 0.125559
vt 0.039617 0.121854
vt 0.075353 0.524449
vt 0.046214 0.521094
vt 0.059800 0.177650
vt 0.297664 0.666678
vt 0.095097 0.235867
vt 0.446353 0.598230
vt 0.257298 0.667089
vt 0.091052 0.291941
vt 0.461832 0.569247
vt 0.213122 0.669499
vt 0.089336 0.347210
vt 0.477563 0.541802
vt 0.090192 0.399932
vt 0.138607 0.002840
vt 0.127936 0.038004
vt 0.093760 0.448445
vt 0.117929 0.080267
vt 0.100055 0.491233
vt 0.108890 0.128347
vt 0.108952 0.526974
vt 0.101160 0.180758
vt 0.332624 0.668320
vt 0.297664 0.695682
vt 0.143360 0.237947
vt 0.439229 0.595777
vt 0.257298 0.687135
vt 0.141460 0.294113
vt 0.447681 0.564374
vt 0.213122 0.679741
vt 0.140358 0.349409
vt 0.456588 0.534580
vt 0.140152 0.402084
vt 0.156366 0.039229
vt 0.140907 0.450476
vt 0.152572 0.081760
vt 0.142641 0.493068
vt 0.149053 0.130077
vt 0.145325 0.528542
vt 0.145936 0.182688
vt 0.332624 0.705084
vt 0.291111 0.723960
vt 0.191882 0.183342
vt 0.192884 0.238652
vt 0.431729 0.594974
vt 0.252769 0.706678
vt 0.193185 0.294849
vt 0.432783 0.562779
vt 0.210809 0.689725
vt 0.192713 0.350154
vt 0.434506 0.532215
vt 0.191418 0.402814
vt 0.182598 0.004092
vt 0.185540 0.039644
vt 0.189287 0.451165
vt 0.188121 0.082266
vt 0.186341 0.493690
vt 0.190265 0.130664
vt 0.182649 0.529073
vt 0.324318 0.740926
vt 0.278333 0.750093
vt 0.236695 0.182688
vt 0.241187 0.237947
vt 0.424230 0.595861
vt 0.243938 0.724738
vt 0.243635 0.294113
vt 0.417885 0.564540
vt 0.206297 0.698953
vt 0.243776 0.349409
vt 0.412425 0.534826
vt 0.241420 0.402084
vt 0.213993 0.039229
vt 0.236472 0.450476
vt 0.222793 0.081760
vt 0.228962 0.493068
vt 0.230460 0.130077
vt 0.219051 0.528542
vt 0.308122 0.774049
vt 0.259972 0.772769
vt 0.278127 0.180758
vt 0.285846 0.235867
vt 0.417107 0.598393
vt 0.231248 0.740411
vt 0.290278 0.291941
vt 0.403735 0.569571
vt 0.199814 0.706960
vt 0.290987 0.347210
vt 0.391452 0.542282
vt 0.287649 0.399932
vt 0.204327 0.003775
vt 0.240300 0.038004
vt 0.280098 0.448445
vt 0.254849 0.080267
vt 0.268368 0.491233
vt 0.267623 0.128347
vt 0.304983 0.829430
vt 0.284848 0.802792
vt 0.236947 0.790854
vt 0.314101 0.177650
vt 0.324621 0.232517
vt 0.410717 0.602444
vt 0.215335 0.752909
vt 0.330777 0.288442
vt 0.391042 0.577618
vt 0.191684 0.713345
vt 0.331979 0.343669
vt 0.372639 0.554209
vt 0.327788 0.396464
vt 0.224418 0.002840
vt 0.263142 0.036030
vt 0.317977 0.445172
vt 0.282683 0.077863
vt 0.302582 0.488277
vt 0.299890 0.125559
vt 0.255665 0.825714
vt 0.210414 0.803438
vt 0.676927 0.235158
vt 0.724153 0.186138
vt 0.715651 0.241485
vt 0.405381 0.607810
vt 0.196998 0.761607
vt 0.669976 0.290804
vt 0.710420 0.297413
vt 0.380443 0.588278
vt 0.182315 0.717789
vt 0.708925 0.352122
vt 0.667988 0.345434
vt 0.356929 0.570009
vt 0.711512 0.403853
vt 0.671427 0.397303
vt 0.741197 0.037013
vt 0.780389 0.004179
vt 0.764008 0.040740
vt 0.718372 0.450946
vt 0.680543 0.444765
vt 0.748858 0.084167
vt 0.721062 0.079625
vt 0.695323 0.486323
vt 0.729492 0.491906
vt 0.735402 0.133141
vt 0.703178 0.127875
vt 0.270814 0.856267
vt 0.222034 0.841666
vt 0.688227 0.180268
vt 0.185642 0.849846
vt 0.181703 0.809892
vt 0.760275 0.245888
vt 0.401367 0.614223
vt 0.177155 0.766068
vt 0.757028 0.302011
vt 0.372468 0.601017
vt 0.172177 0.720068
vt 0.756100 0.356777
vt 0.345109 0.588890
vt 0.757706 0.408411
vt 0.790295 0.043334
vt 0.761964 0.455247
vt 0.780890 0.087328
vt 0.768868 0.495791
vt 0.772537 0.136805
vt 0.188830 0.884521
vt 0.765553 0.190223
vt 0.152254 0.809893
vt 0.810352 0.192318
vt 0.808563 0.248146
vt 0.398875 0.621361
vt 0.156802 0.766068
vt 0.807462 0.304370
vt 0.367519 0.615195
vt 0.161779 0.720068
vt 0.807147 0.359164
vt 0.337774 0.609905
vt 0.807692 0.410749
vt 0.800464 0.006160
vt 0.818739 0.044664
vt 0.809135 0.457453
vt 0.815551 0.088949
vt 0.811476 0.497783
vt 0.812720 0.138684
vt 0.145127 0.884521
vt 0.148315 0.849846
vt 0.123543 0.803438
vt 0.858092 0.248146
vt 0.398032 0.628865
vt 0.136959 0.761607
vt 0.859193 0.304370
vt 0.365843 0.630103
vt 0.151641 0.717789
vt 0.859508 0.359164
vt 0.335289 0.632001
vt 0.858963 0.410749
vt 0.844468 0.007176
vt 0.847916 0.044664
vt 0.857520 0.457453
vt 0.851104 0.088948
vt 0.855179 0.497783
vt 0.853936 0.138684
vt 0.102519 0.874943
vt 0.111923 0.841666
vt 0.856303 0.192318
vt 0.097009 0.790854
vt 0.906380 0.245888
vt 0.398878 0.636360
vt 0.118621 0.752910
vt 0.909627 0.302011
vt 0.367524 0.644991
vt 0.142273 0.713345
vt 0.910555 0.356777
vt 0.337780 0.654069
vt 0.908949 0.408411
vt 0.876361 0.043334
vt 0.904691 0.455247
vt 0.885765 0.087328
vt 0.897787 0.495791
vt 0.894119 0.136805
vt 0.063143 0.856267
vt 0.078292 0.825714
vt 0.901102 0.190223
vt 0.886266 0.004179
vt 0.028974 0.829430
vt 0.764008 0.500881
vt 0.001333 0.705084
vt 0.818739 0.500449
vt 0.876361 0.500595
vt 0.945593 0.540148
vt 0.111923 0.531738
vt 0.431423 0.001626
vt 0.255664 0.547689
vt 0.570062 0.001978
vt 0.308122 0.599354
vt 0.078899 0.033407
vt 0.118552 0.001333
vt 0.160319 0.003775
vt 0.332231 0.795777
vt 0.241861 0.001333
vt 0.762969 0.001333
vt 0.231438 0.874943
vt 0.822187 0.007176
vt 0.866191 0.006160
s 1
f 478/1/478 477/2/477 21/3/21
f 472/4/472 15/5/15 473/6/473
f 1/7/1 7/8/7 8/9/8
f 474/10/474 15/5/15 16/11/16
f 468/12/468 8/9/8 9/13/9
f 474/10/474 17/14/17 3/15/3
f 469/16/469 9/13/9 10/17/10
f 4/18/4 17/19/17 18/20/18
f 470/21/470 10/17/10 11/22/11
f 4/18/4 19/23/19 475/24/475
f 470/21/470 12/25/12 2/26/2
f 465/27/465 22/28/22 5/29/5
f 475/24/475 20/30/20 476/31/476
f 471/32/471 12/25/12 13/33/13
f 466/34/466 5/29/5 6/35/6
f 476/31/476 21/3/21 477/2/477
f 471/32/471 14/36/14 472/4/472
f 467/37/467 6/35/6 7/38/7
f 18/20/18 37/39/37 19/23/19
f 12/40/12 29/41/29 30/42/30
f 5/29/5 22/28/22 23/43/23
f 19/23/19 38/44/38 20/30/20
f 13/45/13 30/42/30 31/46/31
f 5/29/5 24/47/24 6/35/6
f 21/3/21 38/44/38 39/48/39
f 13/45/13 32/49/32 14/50/14
f 6/35/6 25/51/25 7/38/7
f 478/1/478 21/3/21 39/48/39
f 14/50/14 33/52/33 15/53/15
f 7/38/7 26/54/26 8/55/8
f 16/56/16 33/52/33 34/57/34
f 8/58/8 27/59/27 9/60/9
f 16/56/16 35/61/35 17/62/17
f 9/60/9 28/63/28 10/64/10
f 17/62/17 36/65/36 18/66/18
f 11/67/11 28/63/28 29/41/29
f 36/68/36 54/69/54 37/39/37
f 29/41/29 47/70/47 30/42/30
f 23/43/23 22/28/22 40/71/40
f 37/39/37 55/72/55 38/44/38
f 30/42/30 48/73/48 31/46/31
f 23/43/23 41/74/41 24/47/24
f 38/44/38 56/75/56 39/48/39
f 32/49/32 48/73/48 49/76/49
f 24/47/24 42/77/42 25/51/25
f 478/1/478 39/48/39 56/75/56
f 32/49/32 50/78/50 33/52/33
f 25/51/25 43/79/43 26/54/26
f 33/52/33 51/80/51 34/57/34
f 27/59/27 43/81/43 44/82/44
f 34/57/34 52/83/52 35/61/35
f 28/63/28 44/82/44 45/84/45
f 35/61/35 53/85/53 36/65/36
f 28/63/28 46/86/46 29/41/29
f 54/69/54 70/87/70 71/88/71
f 46/86/46 64/89/64 47/70/47
f 40/71/40 22/28/22 57/90/57
f 55/72/55 71/88/71 72/91/72
f 47/70/47 65/92/65 48/73/48
f 41/74/41 57/90/57 58/93/58
f 55/72/55 73/94/73 56/75/56
f 48/73/48 66/95/66 49/76/49
f 42/77/42 58/93/58 59/96/59
f 478/1/478 56/75/56 73/94/73
f 49/76/49 67/97/67 50/78/50
f 42/77/42 60/98/60 43/79/43
f 50/78/50 68/99/68 51/80/51
f 43/81/43 61/100/61 44/82/44
f 52/83/52 68/99/68 69/101/69
f 44/82/44 62/102/62 45/84/45
f 52/83/52 70/103/70 53/85/53
f 45/84/45 63/104/63 46/86/46
f 71/88/71 87/105/87 88/106/88
f 63/104/63 81/107/81 64/89/64
f 57/90/57 22/28/22 74/108/74
f 72/91/72 88/106/88 89/109/89
f 64/89/64 82/110/82 65/92/65
f 57/90/57 75/111/75 58/93/58
f 72/91/72 90/112/90 73/94/73
f 65/92/65 83/113/83 66/95/66
f 58/93/58 76/114/76 59/96/59
f 478/1/478 73/94/73 90/112/90
f 66/95/66 84/115/84 67/97/67
f 59/96/59 77/116/77 60/98/60
f 68/99/68 84/115/84 85/117/85
f 61/100/61 77/118/77 78/119/78
f 69/101/69 85/117/85 86/120/86
f 62/102/62 78/119/78 79/121/79
f 69/101/69 87/122/87 70/103/70
f 62/102/62 80/123/80 63/104/63
f 88/106/88 104/124/104 105/125/105
f 81/107/81 97/126/97 98/127/98
f 74/108/74 22/28/22 91/128/91
f 88/106/88 106/129/106 89/109/89
f 82/110/82 98/127/98 99/130/99
f 74/108/74 92/131/92 75/111/75
f 89/109/89 107/132/107 90/112/90
f 83/113/83 99/130/99 100/133/100
f 76/114/76 92/131/92 93/134/93
f 478/1/478 90/112/90 107/132/107
f 83/113/83 101/135/101 84/115/84
f 76/114/76 94/136/94 77/116/77
f 84/115/84 102/137/102 85/117/85
f 77/118/77 95/138/95 78/119/78
f 85/117/85 103/139/103 86/120/86
f 79/121/79 95/138/95 96/140/96
f 86/120/86 104/141/104 87/122/87
f 80/123/80 96/140/96 97/126/97
f 104/124/104 122/142/122 105/125/105
f 97/126/97 115/143/115 98/127/98
f 91/128/91 22/28/22 108/144/108
f 105/125/105 123/145/123 106/129/106
f 98/127/98 116/146/116 99/130/99
f 91/128/91 109/147/109 92/131/92
f 107/132/107 123/145/123 124/148/124
f 100/133/100 116/146/116 117/149/117
f 92/131/92 110/150/110 93/134/93
f 478/1/478 107/132/107 124/148/124
f 100/133/100 118/151/118 101/135/101
f 94/136/94 110/150/110 111/152/111
f 102/137/102 118/151/118 119/153/119
f 95/138/95 111/154/111 112/155/112
f 103/139/103 119/153/119 120/156/120
f 96/140/96 112/155/112 113/157/113
f 104/141/104 120/156/120 121/158/121
f 96/140/96 114/159/114 97/126/97
f 121/160/121 139/161/139 122/142/122
f 115/143/115 131/162/131 132/163/132
f 108/144/108 22/28/22 125/164/125
f 123/145/123 139/161/139 140/165/140
f 115/143/115 133/166/133 116/146/116
f 109/147/109 125/164/125 126/167/126
f 123/145/123 141/168/141 124/148/124
f 117/149/117 133/166/133 134/169/134
f 109/147/109 127/170/127 110/150/110
f 478/1/478 124/148/124 141/168/141
f 117/149/117 135/171/135 118/151/118
f 110/150/110 128/172/128 111/152/111
f 118/151/118 136/173/136 119/153/119
f 112/174/112 128/172/128 129/175/129
f 120/156/120 136/173/136 137/176/137
f 112/155/112 130/177/130 113/157/113
f 120/156/120 138/178/138 121/158/121
f 113/157/113 131/162/131 114/159/114
f 138/179/138 156/180/156 139/161/139
f 131/181/131 149/182/149 132/183/132
f 125/164/125 22/28/22 142/184/142
f 140/165/140 156/180/156 157/185/157
f 132/183/132 150/186/150 133/187/133
f 125/164/125 143/188/143 126/167/126
f 141/168/141 157/185/157 158/189/158
f 134/190/134 150/186/150 151/191/151
f 126/167/126 144/192/144 127/170/127
f 478/1/478 141/168/141 158/189/158
f 134/190/134 152/193/152 135/194/135
f 127/170/127 145/195/145 128/172/128
f 135/194/135 153/196/153 136/197/136
f 128/172/128 146/198/146 129/175/129
f 137/199/137 153/196/153 154/200/154
f 129/201/129 147/202/147 130/203/130
f 137/199/137 155/204/155 138/205/138
f 130/203/130 148/206/148 131/181/131
f 155/204/155 173/207/173 156/208/156
f 148/206/148 166/209/166 149/182/149
f 142/184/142 22/28/22 159/210/159
f 156/180/156 174/211/174 157/185/157
f 149/182/149 167/212/167 150/186/150
f 142/184/142 160/213/160 143/188/143
f 158/189/158 174/211/174 175/214/175
f 150/186/150 168/215/168 151/191/151
f 143/188/143 161/216/161 144/192/144
f 478/1/478 158/189/158 175/214/175
f 151/191/151 169/217/169 152/193/152
f 144/192/144 162/218/162 145/195/145
f 152/193/152 170/219/170 153/196/153
f 146/220/146 162/221/162 163/222/163
f 154/200/154 170/219/170 171/223/171
f 147/202/147 163/222/163 164/224/164
f 154/200/154 172/225/172 155/204/155
f 148/206/148 164/224/164 165/226/165
f 172/225/172 190/227/190 173/207/173
f 165/226/165 183/228/183 166/209/166
f 159/210/159 22/28/22 176/229/176
f 173/230/173 191/231/191 174/211/174
f 166/209/166 184/232/184 167/212/167
f 160/213/160 176/229/176 177/233/177
f 175/214/175 191/231/191 192/234/192
f 168/215/168 184/232/184 185/235/185
f 160/213/160 178/236/178 161/216/161
f 478/1/478 175/214/175 192/234/192
f 169/217/169 185/235/185 186/237/186
f 161/216/161 179/238/179 162/218/162
f 169/217/169 187/239/187 170/219/170
f 162/221/162 180/240/180 163/222/163
f 171/223/171 187/239/187 188/241/188
f 163/222/163 181/242/181 164/224/164
f 171/223/171 189/243/189 172/225/172
f 165/226/165 181/242/181 182/244/182
f 190/227/190 206/245/206 207/246/207
f 183/228/183 199/247/199 200/248/200
f 176/229/176 22/28/22 193/249/193
f 190/250/190 208/251/208 191/231/191
f 184/232/184 200/248/200 201/252/201
f 176/229/176 194/253/194 177/233/177
f 191/231/191 209/254/209 192/234/192
f 184/232/184 202/255/202 185/235/185
f 178/236/178 194/253/194 195/256/195
f 478/1/478 192/234/192 209/254/209
f 185/235/185 203/257/203 186/237/186
f 178/236/178 196/258/196 179/238/179
f 186/237/186 204/259/204 187/239/187
f 179/260/179 197/261/197 180/240/180
f 187/239/187 205/262/205 188/241/188
f 181/242/181 197/261/197 198/263/198
f 188/241/188 206/245/206 189/243/189
f 181/242/181 199/247/199 182/244/182
f 206/245/206 224/264/224 207/246/207
f 200/248/200 216/265/216 217/266/217
f 193/249/193 22/28/22 210/267/210
f 207/268/207 225/269/225 208/251/208
f 200/248/200 218/270/218 201/252/201
f 194/253/194 210/267/210 211/271/211
f 209/254/209 225/269/225 226/272/226
f 202/255/202 218/270/218 219/273/219
f 194/253/194 212/274/212 195/256/195
f 478/1/478 209/254/209 226/272/226
f 202/255/202 220/275/220 203/257/203
f 196/258/196 212/274/212 213/276/213
f 204/259/204 220/275/220 221/277/221
f 196/278/196 214/279/214 197/261/197
f 205/262/205 221/277/221 222/280/222
f 197/261/197 215/281/215 198/263/198
f 206/245/206 222/280/222 223/282/223
f 199/247/199 215/281/215 216/265/216
f 224/283/224 240/284/240 241/285/241
f 216/265/216 234/286/234 217/266/217
f 210/267/210 22/28/22 227/287/227
f 225/269/225 241/285/241 242/288/242
f 217/266/217 235/289/235 218/270/218
f 211/271/211 227/287/227 228/290/228
f 225/269/225 243/291/243 226/272/226
f 218/270/218 236/292/236 219/273/219
f 211/271/211 229/293/229 212/274/212
f 478/1/478 226/272/226 243/291/243
f 219/273/219 237/294/237 220/275/220
f 212/274/212 230/295/230 213/276/213
f 220/275/220 238/296/238 221/277/221
f 213/297/213 231/298/231 214/279/214
f 222/280/222 238/296/238 239/299/239
f 215/281/215 231/298/231 232/300/232
f 223/282/223 239/299/239 240/301/240
f 215/281/215 233/302/233 216/265/216
f 240/284/240 258/303/258 241/285/241
f 233/302/233 251/304/251 234/286/234
f 227/287/227 22/28/22 244/305/244
f 242/288/242 258/303/258 259/306/259
f 235/289/235 251/304/251 252/307/252
f 227/287/227 245/308/245 228/290/228
f 243/291/243 259/306/259 260/309/260
f 235/289/235 253/310/253 236/292/236
f 229/293/229 245/308/245 246/311/246
f 478/1/478 243/291/243 260/309/260
f 236/292/236 254/312/254 237/294/237
f 230/295/230 246/311/246 247/313/247
f 238/296/238 254/312/254 255/314/255
f 231/298/231 247/315/247 248/316/248
f 238/296/238 256/317/256 239/299/239
f 232/300/232 248/316/248 249/318/249
f 239/299/239 257/319/257 240/301/240
f 232/300/232 250/320/250 233/302/233
f 258/303/258 274/321/274 275/322/275
f 250/323/250 268/324/268 251/325/251
f 244/305/244 22/28/22 261/326/261
f 259/306/259 275/322/275 276/327/276
f 252/328/252 268/324/268 269/329/269
f 245/308/245 261/326/261 262/330/262
f 259/306/259 277/331/277 260/309/260
f 253/332/253 269/329/269 270/333/270
f 245/308/245 263/334/263 246/311/246
f 478/1/478 260/309/260 277/331/277
f 253/332/253 271/335/271 254/336/254
f 246/311/246 264/337/264 247/313/247
f 255/338/255 271/335/271 272/339/272
f 248/340/248 264/341/264 265/342/265
f 256/343/256 272/339/272 273/344/273
f 248/340/248 266/345/266 249/346/249
f 256/343/256 274/347/274 257/348/257
f 249/346/249 267/349/267 250/323/250
f 274/321/274 292/350/292 275/322/275
f 267/349/267 285/351/285 268/324/268
f 261/326/261 22/28/22 278/352/278
f 276/327/276 292/350/292 293/353/293
f 268/324/268 286/354/286 269/329/269
f 261/326/261 279/355/279 262/330/262
f 277/331/277 293/353/293 294/356/294
f 270/333/270 286/354/286 287/357/287
f 262/330/262 280/358/280 263/334/263
f 478/1/478 277/331/277 294/356/294
f 271/335/271 287/357/287 288/359/288
f 264/341/264 280/360/280 281/361/281
f 271/335/271 289/362/289 272/339/272
f 265/342/265 281/361/281 282/363/282
f 273/344/273 289/362/289 290/364/290
f 265/342/265 283/365/283 266/345/266
f 273/344/273 291/366/291 274/347/274
f 266/345/266 284/367/284 267/349/267
f 291/368/291 309/369/309 292/350/292
f 284/367/284 302/370/302 285/351/285
f 278/352/278 22/28/22 295/371/295
f 292/350/292 310/372/310 293/353/293
f 285/351/285 303/373/303 286/354/286
f 279/355/279 295/371/295 296/374/296
f 294/356/294 310/372/310 311/375/311
f 286/354/286 304/376/304 287/357/287
f 279/355/279 297/377/297 280/358/280
f 478/1/478 294/356/294 311/375/311
f 288/359/288 304/376/304 305/378/305
f 280/360/280 298/379/298 281/361/281
f 289/362/289 305/378/305 306/380/306
f 282/363/282 298/379/298 299/381/299
f 290/364/290 306/380/306 307/382/307
f 282/363/282 300/383/300 283/365/283
f 290/364/290 308/384/308 291/366/291
f 284/367/284 300/383/300 301/385/301
f 308/386/308 326/387/326 309/369/309
f 302/370/302 318/388/318 319/389/319
f 295/371/295 22/28/22 312/390/312
f 309/369/309 327/391/327 310/372/310
f 302/370/302 320/392/320 303/373/303
f 295/371/295 313/393/313 296/374/296
f 310/372/310 328/394/328 311/375/311
f 304/376/304 320/392/320 321/395/321
f 297/377/297 313/393/313 314/396/314
f 478/1/478 311/375/311 328/394/328
f 304/376/304 322/397/322 305/378/305
f 298/379/298 314/398/314 315/399/315
f 306/380/306 322/397/322 323/400/323
f 298/379/298 316/401/316 299/381/299
f 307/382/307 323/400/323 324/402/324
f 299/381/299 317/403/317 300/383/300
f 307/382/307 325/404/325 308/384/308
f 300/383/300 318/388/318 301/385/301
f 325/405/325 343/406/343 326/387/326
f 319/389/319 335/407/335 336/408/336
f 312/390/312 22/28/22 329/409/329
f 327/391/327 343/406/343 344/410/344
f 320/392/320 336/408/336 337/411/337
f 313/393/313 329/409/329 330/412/330
f 327/391/327 345/413/345 328/394/328
f 320/392/320 338/414/338 321/395/321
f 313/393/313 331/415/331 314/396/314
f 478/1/478 328/394/328 345/413/345
f 321/395/321 339/416/339 322/397/322
f 314/398/314 332/417/332 315/399/315
f 323/400/323 339/416/339 340/418/340
f 316/401/316 332/417/332 333/419/333
f 324/402/324 340/418/340 341/420/341
f 317/403/317 333/419/333 334/421/334
f 324/402/324 342/422/342 325/404/325
f 317/403/317 335/407/335 318/388/318
f 342/423/342 360/424/360 343/406/343
f 336/408/336 352/425/352 353/426/353
f 329/409/329 22/28/22 346/427/346
f 344/410/344 360/424/360 361/428/361
f 336/408/336 354/429/354 337/411/337
f 329/409/329 347/430/347 330/412/330
f 344/410/344 362/431/362 345/413/345
f 337/411/337 355/432/355 338/414/338
f 330/412/330 348/433/348 331/415/331
f 478/1/478 345/413/345 362/431/362
f 338/414/338 356/434/356 339/416/339
f 331/435/331 349/436/349 332/417/332
f 340/418/340 356/434/356 357/437/357
f 332/417/332 350/438/350 333/419/333
f 341/420/341 357/437/357 358/439/358
f 333/419/333 351/440/351 334/421/334
f 342/423/342 358/441/358 359/442/359
f 334/421/334 352/425/352 335/407/335
f 359/442/359 377/443/377 360/424/360
f 353/426/353 369/444/369 370/445/370
f 346/427/346 22/28/22 363/446/363
f 361/428/361 377/443/377 378/447/378
f 354/429/354 370/445/370 371/448/371
f 347/430/347 363/446/363 364/449/364
f 362/431/362 378/447/378 379/450/379
f 354/429/354 372/451/372 355/432/355
f 347/430/347 365/452/365 348/433/348
f 478/1/478 362/431/362 379/450/379
f 355/432/355 373/453/373 356/434/356
f 348/454/348 366/455/366 349/436/349
f 357/437/357 373/453/373 374/456/374
f 350/438/350 366/455/366 367/457/367
f 358/439/358 374/456/374 375/458/375
f 350/438/350 368/459/368 351/440/351
f 358/441/358 376/460/376 359/442/359
f 351/440/351 369/444/369 352/425/352
f 376/460/376 394/461/394 377/443/377
f 370/462/370 386/463/386 387/464/387
f 363/446/363 22/28/22 380/465/380
f 377/443/377 395/466/395 378/447/378
f 371/467/371 387/464/387 388/468/388
f 363/446/363 381/469/381 364/449/364
f 378/447/378 396/470/396 379/450/379
f 371/467/371 389/471/389 372/472/372
f 365/452/365 381/469/381 382/473/382
f 478/1/478 379/450/379 396/470/396
f 372/472/372 390/474/390 373/475/373
f 366/476/366 382/477/382 383/478/383
f 373/475/373 391/479/391 374/480/374
f 366/476/366 384/481/384 367/482/367
f 375/483/375 391/479/391 392/484/392
f 367/482/367 385/485/385 368/486/368
f 375/487/375 393/488/393 376/460/376
f 369/489/369 385/485/385 386/463/386
f 394/461/394 410/490/410 411/491/411
f 386/463/386 404/492/404 387/464/387
f 380/465/380 22/28/22 397/493/397
f 395/466/395 411/491/411 412/494/412
f 387/464/387 405/495/405 388/468/388
f 380/465/380 398/496/398 381/469/381
f 395/466/395 413/497/413 396/470/396
f 388/468/388 406/498/406 389/471/389
f 382/473/382 398/496/398 399/499/399
f 478/1/478 396/470/396 413/497/413
f 390/474/390 406/498/406 407/500/407
f 382/477/382 400/501/400 383/478/383
f 390/474/390 408/502/408 391/479/391
f 383/478/383 401/503/401 384/481/384
f 392/484/392 408/502/408 409/504/409
f 385/485/385 401/503/401 402/505/402
f 393/488/393 409/506/409 410/490/410
f 385/485/385 403/507/403 386/463/386
f 410/490/410 428/508/428 411/491/411
f 404/492/404 420/509/420 421/510/421
f 397/493/397 22/28/22 414/511/414
f 412/494/412 428/508/428 429/512/429
f 404/492/404 422/513/422 405/495/405
f 397/493/397 415/514/415 398/496/398
f 412/494/412 430/515/430 413/497/413
f 405/495/405 423/516/423 406/498/406
f 398/496/398 416/517/416 399/499/399
f 478/1/478 413/497/413 430/515/430
f 407/500/407 423/516/423 424/518/424
f 399/519/399 417/520/417 400/501/400
f 407/500/407 425/521/425 408/502/408
f 400/501/400 418/522/418 401/503/401
f 409/504/409 425/521/425 426/523/426
f 401/503/401 419/524/419 402/505/402
f 410/490/410 426/525/426 427/526/427
f 403/507/403 419/524/419 420/509/420
f 427/526/427 445/527/445 428/508/428
f 420/509/420 438/528/438 421/510/421
f 414/511/414 22/28/22 431/529/431
f 428/508/428 446/530/446 429/512/429
f 421/510/421 439/531/439 422/513/422
f 415/514/415 431/529/431 432/532/432
f 429/512/429 447/533/447 430/515/430
f 422/513/422 440/534/440 423/516/423
f 416/517/416 432/532/432 433/535/433
f 478/1/478 430/515/430 447/533/447
f 423/516/423 441/536/441 424/518/424
f 417/520/417 433/537/433 434/538/434
f 424/518/424 442/539/442 425/521/425
f 418/522/418 434/538/434 435/540/435
f 426/523/426 442/539/442 443/541/443
f 418/522/418 436/542/436 419/524/419
f 427/526/427 443/543/443 444/544/444
f 420/509/420 436/542/436 437/545/437
f 444/544/444 462/546/462 445/527/445
f 437/545/437 455/547/455 438/528/438
f 431/529/431 22/28/22 448/548/448
f 446/530/446 462/546/462 463/549/463
f 439/531/439 455/547/455 456/550/456
f 432/532/432 448/548/448 449/551/449
f 446/530/446 464/552/464 447/533/447
f 439/531/439 457/553/457 440/534/440
f 432/532/432 450/554/450 433/535/433
f 478/1/478 447/533/447 464/552/464
f 440/534/440 458/555/458 441/536/441
f 433/537/433 451/556/451 434/538/434
f 442/539/442 458/555/458 459/557/459
f 434/538/434 452/558/452 435/540/435
f 443/541/443 459/557/459 460/559/460
f 435/540/435 453/560/453 436/542/436
f 444/544/444 460/561/460 461/562/461
f 437/545/437 453/560/453 454/563/454
f 461/562/461 475/24/475 462/546/462
f 454/563/454 2/26/2 455/547/455
f 448/548/448 22/28/22 465/27/465
f 462/546/462 476/31/476 463/549/463
f 456/550/456 2/26/2 471/32/471
f 448/548/448 466/34/466 449/551/449
f 464/552/464 476/31/476 477/2/477
f 457/553/457 471/32/471 472/4/472
f 450/554/450 466/34/466 467/37/467
f 478/1/478 464/552/464 477/2/477
f 457/553/457 473/6/473 458/555/458
f 451/556/451 467/564/467 1/7/1
f 458/555/458 474/10/474 459/557/459
f 451/556/451 468/12/468 452/558/452
f 459/557/459 3/15/3 460/559/460
f 452/558/452 469/16/469 453/560/453
f 460/561/460 4/18/4 461/562/461
f 453/560/453 470/21/470 454/563/454
f 472/4/472 14/36/14 15/5/15
f 1/7/1 467/564/467 7/8/7
f 474/10/474 473/6/473 15/5/15
f 468/12/468 1/7/1 8/9/8
f 474/10/474 16/11/16 17/14/17
f 469/16/469 468/12/468 9/13/9
f 4/18/4 3/565/3 17/19/17
f 470/21/470 469/16/469 10/17/10
f 4/18/4 18/20/18 19/23/19
f 470/21/470 11/22/11 12/25/12
f 475/24/475 19/23/19 20/30/20
f 471/32/471 2/26/2 12/25/12
f 466/34/466 465/27/465 5/29/5
f 476/31/476 20/30/20 21/3/21
f 471/32/471 13/33/13 14/36/14
f 467/37/467 466/34/466 6/35/6
f 18/20/18 36/68/36 37/39/37
f 12/40/12 11/67/11 29/41/29
f 19/23/19 37/39/37 38/44/38
f 13/45/13 12/40/12 30/42/30
f 5/29/5 23/43/23 24/47/24
f 21/3/21 20/30/20 38/44/38
f 13/45/13 31/46/31 32/49/32
f 6/35/6 24/47/24 25/51/25
f 14/50/14 32/49/32 33/52/33
f 7/38/7 25/51/25 26/54/26
f 16/56/16 15/53/15 33/52/33
f 8/58/8 26/566/26 27/59/27
f 16/56/16 34/57/34 35/61/35
f 9/60/9 27/59/27 28/63/28
f 17/62/17 35/61/35 36/65/36
f 11/67/11 10/64/10 28/63/28
f 36/68/36 53/567/53 54/69/54
f 29/41/29 46/86/46 47/70/47
f 37/39/37 54/69/54 55/72/55
f 30/42/30 47/70/47 48/73/48
f 23/43/23 40/71/40 41/74/41
f 38/44/38 55/72/55 56/75/56
f 32/49/32 31/46/31 48/73/48
f 24/47/24 41/74/41 42/77/42
f 32/49/32 49/76/49 50/78/50
f 25/51/25 42/77/42 43/79/43
f 33/52/33 50/78/50 51/80/51
f 27/59/27 26/566/26 43/81/43
f 34/57/34 51/80/51 52/83/52
f 28/63/28 27/59/27 44/82/44
f 35/61/35 52/83/52 53/85/53
f 28/63/28 45/84/45 46/86/46
f 54/69/54 53/567/53 70/87/70
f 46/86/46 63/104/63 64/89/64
f 55/72/55 54/69/54 71/88/71
f 47/70/47 64/89/64 65/92/65
f 41/74/41 40/71/40 57/90/57
f 55/72/55 72/91/72 73/94/73
f 48/73/48 65/92/65 66/95/66
f 42/77/42 41/74/41 58/93/58
f 49/76/49 66/95/66 67/97/67
f 42/77/42 59/96/59 60/98/60
f 50/78/50 67/97/67 68/99/68
f 43/81/43 60/568/60 61/100/61
f 52/83/52 51/80/51 68/99/68
f 44/82/44 61/100/61 62/102/62
f 52/83/52 69/101/69 70/103/70
f 45/84/45 62/102/62 63/104/63
f 71/88/71 70/87/70 87/105/87
f 63/104/63 80/123/80 81/107/81
f 72/91/72 71/88/71 88/106/88
f 64/89/64 81/107/81 82/110/82
f 57/90/57 74/108/74 75/111/75
f 72/91/72 89/109/89 90/112/90
f 65/92/65 82/110/82 83/113/83
f 58/93/58 75/111/75 76/114/76
f 66/95/66 83/113/83 84/115/84
f 59/96/59 76/114/76 77/116/77
f 68/99/68 67/97/67 84/115/84
f 61/100/61 60/568/60 77/118/77
f 69/101/69 68/99/68 85/117/85
f 62/102/62 61/100/61 78/119/78
f 69/101/69 86/120/86 87/122/87
f 62/102/62 79/121/79 80/123/80
f 88/106/88 87/105/87 104/124/104
f 81/107/81 80/123/80 97/126/97
f 88/106/88 105/125/105 106/129/106
f 82/110/82 81/107/81 98/127/98
f 74/108/74 91/128/91 92/131/92
f 89/109/89 106/129/106 107/132/107
f 83/113/83 82/110/82 99/130/99
f 76/114/76 75/111/75 92/131/92
f 83/113/83 100/133/100 101/135/101
f 76/114/76 93/134/93 94/136/94
f 84/115/84 101/135/101 102/137/102
f 77/118/77 94/569/94 95/138/95
f 85/117/85 102/137/102 103/139/103
f 79/121/79 78/119/78 95/138/95
f 86/120/86 103/139/103 104/141/104
f 80/123/80 79/121/79 96/140/96
f 104/124/104 121/160/121 122/142/122
f 97/126/97 114/159/114 115/143/115
f 105/125/105 122/142/122 123/145/123
f 98/127/98 115/143/115 116/146/116
f 91/128/91 108/144/108 109/147/109
f 107/132/107 106/129/106 123/145/123
f 100/133/100 99/130/99 116/146/116
f 92/131/92 109/147/109 110/150/110
f 100/133/100 117/149/117 118/151/118
f 94/136/94 93/134/93 110/150/110
f 102/137/102 101/135/101 118/151/118
f 95/138/95 94/569/94 111/154/111
f 103/139/103 102/137/102 119/153/119
f 96/140/96 95/138/95 112/155/112
f 104/141/104 103/139/103 120/156/120
f 96/140/96 113/157/113 114/159/114
f 121/160/121 138/179/138 139/161/139
f 115/143/115 114/159/114 131/162/131
f 123/145/123 122/142/122 139/161/139
f 115/143/115 132/163/132 133/166/133
f 109/147/109 108/144/108 125/164/125
f 123/145/123 140/165/140 141/168/141
f 117/149/117 116/146/116 133/166/133
f 109/147/109 126/167/126 127/170/127
f 117/149/117 134/169/134 135/171/135
f 110/150/110 127/170/127 128/172/128
f 118/151/118 135/171/135 136/173/136
f 112/174/112 111/152/111 128/172/128
f 120/156/120 119/153/119 136/173/136
f 112/155/112 129/570/129 130/177/130
f 120/156/120 137/176/137 138/178/138
f 113/157/113 130/177/130 131/162/131
f 138/179/138 155/571/155 156/180/156
f 131/181/131 148/206/148 149/182/149
f 140/165/140 139/161/139 156/180/156
f 132/183/132 149/182/149 150/186/150
f 125/164/125 142/184/142 143/188/143
f 141/168/141 140/165/140 157/185/157
f 134/190/134 133/187/133 150/186/150
f 126/167/126 143/188/143 144/192/144
f 134/190/134 151/191/151 152/193/152
f 127/170/127 144/192/144 145/195/145
f 135/194/135 152/193/152 153/196/153
f 128/172/128 145/195/145 146/198/146
f 137/199/137 136/197/136 153/196/153
f 129/201/129 146/220/146 147/202/147
f 137/199/137 154/200/154 155/204/155
f 130/203/130 147/202/147 148/206/148
f 155/204/155 172/225/172 173/207/173
f 148/206/148 165/226/165 166/209/166
f 156/180/156 173/230/173 174/211/174
f 149/182/149 166/209/166 167/212/167
f 142/184/142 159/210/159 160/213/160
f 158/189/158 157/185/157 174/211/174
f 150/186/150 167/212/167 168/215/168
f 143/188/143 160/213/160 161/216/161
f 151/191/151 168/215/168 169/217/169
f 144/192/144 161/216/161 162/218/162
f 152/193/152 169/217/169 170/219/170
f 146/220/146 145/572/145 162/221/162
f 154/200/154 153/196/153 170/219/170
f 147/202/147 146/220/146 163/222/163
f 154/200/154 171/223/171 172/225/172
f 148/206/148 147/202/147 164/224/164
f 172/225/172 189/243/189 190/227/190
f 165/226/165 182/244/182 183/228/183
f 173/230/173 190/250/190 191/231/191
f 166/209/166 183/228/183 184/232/184
f 160/213/160 159/210/159 176/229/176
f 175/214/175 174/211/174 191/231/191
f 168/215/168 167/212/167 184/232/184
f 160/213/160 177/233/177 178/236/178
f 169/217/169 168/215/168 185/235/185
f 161/216/161 178/236/178 179/238/179
f 169/217/169 186/237/186 187/239/187
f 162/221/162 179/260/179 180/240/180
f 171/223/171 170/219/170 187/239/187
f 163/222/163 180/240/180 181/242/181
f 171/223/171 188/241/188 189/243/189
f 165/226/165 164/224/164 181/242/181
f 190/227/190 189/243/189 206/245/206
f 183/228/183 182/244/182 199/247/199
f 190/250/190 207/268/207 208/251/208
f 184/232/184 183/228/183 200/248/200
f 176/229/176 193/249/193 194/253/194
f 191/231/191 208/251/208 209/254/209
f 184/232/184 201/252/201 202/255/202
f 178/236/178 177/233/177 194/253/194
f 185/235/185 202/255/202 203/257/203
f 178/236/178 195/256/195 196/258/196
f 186/237/186 203/257/203 204/259/204
f 179/260/179 196/278/196 197/261/197
f 187/239/187 204/259/204 205/262/205
f 181/242/181 180/240/180 197/261/197
f 188/241/188 205/262/205 206/245/206
f 181/242/181 198/263/198 199/247/199
f 206/245/206 223/282/223 224/264/224
f 200/248/200 199/247/199 216/265/216
f 207/268/207 224/283/224 225/269/225
f 200/248/200 217/266/217 218/270/218
f 194/253/194 193/249/193 210/267/210
f 209/254/209 208/251/208 225/269/225
f 202/255/202 201/252/201 218/270/218
f 194/253/194 211/271/211 212/274/212
f 202/255/202 219/273/219 220/275/220
f 196/258/196 195/256/195 212/274/212
f 204/259/204 203/257/203 220/275/220
f 196/278/196 213/297/213 214/279/214
f 205/262/205 204/259/204 221/277/221
f 197/261/197 214/279/214 215/281/215
f 206/245/206 205/262/205 222/280/222
f 199/247/199 198/263/198 215/281/215
f 224/283/224 223/573/223 240/284/240
f 216/265/216 233/302/233 234/286/234
f 225/269/225 224/283/224 241/285/241
f 217/266/217 234/286/234 235/289/235
f 211/271/211 210/267/210 227/287/227
f 225/269/225 242/288/242 243/291/243
f 218/270/218 235/289/235 236/292/236
f 211/271/211 228/290/228 229/293/229
f 219/273/219 236/292/236 237/294/237
f 212/274/212 229/293/229 230/295/230
f 220/275/220 237/294/237 238/296/238
f 213/297/213 230/574/230 231/298/231
f 222/280/222 221/277/221 238/296/238
f 215/281/215 214/279/214 231/298/231
f 223/282/223 222/280/222 239/299/239
f 215/281/215 232/300/232 233/302/233
f 240/284/240 257/575/257 258/303/258
f 233/302/233 250/320/250 251/304/251
f 242/288/242 241/285/241 258/303/258
f 235/289/235 234/286/234 251/304/251
f 227/287/227 244/305/244 245/308/245
f 243/291/243 242/288/242 259/306/259
f 235/289/235 252/307/252 253/310/253
f 229/293/229 228/290/228 245/308/245
f 236/292/236 253/310/253 254/312/254
f 230/295/230 229/293/229 246/311/246
f 238/296/238 237/294/237 254/312/254
f 231/298/231 230/574/230 247/315/247
f 238/296/238 255/314/255 256/317/256
f 232/300/232 231/298/231 248/316/248
f 239/299/239 256/317/256 257/319/257
f 232/300/232 249/318/249 250/320/250
f 258/303/258 257/575/257 274/321/274
f 250/323/250 267/349/267 268/324/268
f 259/306/259 258/303/258 275/322/275
f 252/328/252 251/325/251 268/324/268
f 245/308/245 244/305/244 261/326/261
f 259/306/259 276/327/276 277/331/277
f 253/332/253 252/328/252 269/329/269
f 245/308/245 262/330/262 263/334/263
f 253/332/253 270/333/270 271/335/271
f 246/311/246 263/334/263 264/337/264
f 255/338/255 254/336/254 271/335/271
f 248/340/248 247/576/247 264/341/264
f 256/343/256 255/338/255 272/339/272
f 248/340/248 265/342/265 266/345/266
f 256/343/256 273/344/273 274/347/274
f 249/346/249 266/345/266 267/349/267
f 274/321/274 291/368/291 292/350/292
f 267/349/267 284/367/284 285/351/285
f 276/327/276 275/322/275 292/350/292
f 268/324/268 285/351/285 286/354/286
f 261/326/261 278/352/278 279/355/279
f 277/331/277 276/327/276 293/353/293
f 270/333/270 269/329/269 286/354/286
f 262/330/262 279/355/279 280/358/280
f 271/335/271 270/333/270 287/357/287
f 264/341/264 263/577/263 280/360/280
f 271/335/271 288/359/288 289/362/289
f 265/342/265 264/341/264 281/361/281
f 273/344/273 272/339/272 289/362/289
f 265/342/265 282/363/282 283/365/283
f 273/344/273 290/364/290 291/366/291
f 266/345/266 283/365/283 284/367/284
f 291/368/291 308/386/308 309/369/309
f 284/367/284 301/385/301 302/370/302
f 292/350/292 309/369/309 310/372/310
f 285/351/285 302/370/302 303/373/303
f 279/355/279 278/352/278 295/371/295
f 294/356/294 293/353/293 310/372/310
f 286/354/286 303/373/303 304/376/304
f 279/355/279 296/374/296 297/377/297
f 288/359/288 287/357/287 304/376/304
f 280/360/280 297/578/297 298/379/298
f 289/362/289 288/359/288 305/378/305
f 282/363/282 281/361/281 298/379/298
f 290/364/290 289/362/289 306/380/306
f 282/363/282 299/381/299 300/383/300
f 290/364/290 307/382/307 308/384/308
f 284/367/284 283/365/283 300/383/300
f 308/386/308 325/405/325 326/387/326
f 302/370/302 301/385/301 318/388/318
f 309/369/309 326/387/326 327/391/327
f 302/370/302 319/389/319 320/392/320
f 295/371/295 312/390/312 313/393/313
f 310/372/310 327/391/327 328/394/328
f 304/376/304 303/373/303 320/392/320
f 297/377/297 296/374/296 313/393/313
f 304/376/304 321/395/321 322/397/322
f 298/379/298 297/578/297 314/398/314
f 306/380/306 305/378/305 322/397/322
f 298/379/298 315/399/315 316/401/316
f 307/382/307 306/380/306 323/400/323
f 299/381/299 316/401/316 317/403/317
f 307/382/307 324/402/324 325/404/325
f 300/383/300 317/403/317 318/388/318
f 325/405/325 342/423/342 343/406/343
f 319/389/319 318/388/318 335/407/335
f 327/391/327 326/387/326 343/406/343
f 320/392/320 319/389/319 336/408/336
f 313/393/313 312/390/312 329/409/329
f 327/391/327 344/410/344 345/413/345
f 320/392/320 337/411/337 338/414/338
f 313/393/313 330/412/330 331/415/331
f 321/395/321 338/414/338 339/416/339
f 314/398/314 331/435/331 332/417/332
f 323/400/323 322/397/322 339/416/339
f 316/401/316 315/399/315 332/417/332
f 324/402/324 323/400/323 340/418/340
f 317/403/317 316/401/316 333/419/333
f 324/402/324 341/420/341 342/422/342
f 317/403/317 334/421/334 335/407/335
f 342/423/342 359/442/359 360/424/360
f 336/408/336 335/407/335 352/425/352
f 344/410/344 343/406/343 360/424/360
f 336/408/336 353/426/353 354/429/354
f 329/409/329 346/427/346 347/430/347
f 344/410/344 361/428/361 362/431/362
f 337/411/337 354/429/354 355/432/355
f 330/412/330 347/430/347 348/433/348
f 338/414/338 355/432/355 356/434/356
f 331/435/331 348/454/348 349/436/349
f 340/418/340 339/416/339 356/434/356
f 332/417/332 349/436/349 350/438/350
f 341/420/341 340/418/340 357/437/357
f 333/419/333 350/438/350 351/440/351
f 342/423/342 341/579/341 358/441/358
f 334/421/334 351/440/351 352/425/352
f 359/442/359 376/460/376 377/443/377
f 353/426/353 352/425/352 369/444/369
f 361/428/361 360/424/360 377/443/377
f 354/429/354 353/426/353 370/445/370
f 347/430/347 346/427/346 363/446/363
f 362/431/362 361/428/361 378/447/378
f 354/429/354 371/448/371 372/451/372
f 347/430/347 364/449/364 365/452/365
f 355/432/355 372/451/372 373/453/373
f 348/454/348 365/580/365 366/455/366
f 357/437/357 356/434/356 373/453/373
f 350/438/350 349/436/349 366/455/366
f 358/439/358 357/437/357 374/456/374
f 350/438/350 367/457/367 368/459/368
f 358/441/358 375/487/375 376/460/376
f 351/440/351 368/459/368 369/444/369
f 376/460/376 393/488/393 394/461/394
f 370/462/370 369/489/369 386/463/386
f 377/443/377 394/461/394 395/466/395
f 371/467/371 370/462/370 387/464/387
f 363/446/363 380/465/380 381/469/381
f 378/447/378 395/466/395 396/470/396
f 371/467/371 388/468/388 389/471/389
f 365/452/365 364/449/364 381/469/381
f 372/472/372 389/471/389 390/474/390
f 366/476/366 365/581/365 382/477/382
f 373/475/373 390/474/390 391/479/391
f 366/476/366 383/478/383 384/481/384
f 375/483/375 374/480/374 391/479/391
f 367/482/367 384/481/384 385/485/385
f 375/487/375 392/582/392 393/488/393
f 369/489/369 368/486/368 385/485/385
f 394/461/394 393/488/393 410/490/410
f 386/463/386 403/507/403 404/492/404
f 395/466/395 394/461/394 411/491/411
f 387/464/387 404/492/404 405/495/405
f 380/465/380 397/493/397 398/496/398
f 395/466/395 412/494/412 413/497/413
f 388/468/388 405/495/405 406/498/406
f 382/473/382 381/469/381 398/496/398
f 390/474/390 389/471/389 406/498/406
f 382/477/382 399/519/399 400/501/400
f 390/474/390 407/500/407 408/502/408
f 383/478/383 400/501/400 401/503/401
f 392/484/392 391/479/391 408/502/408
f 385/485/385 384/481/384 401/503/401
f 393/488/393 392/582/392 409/506/409
f 385/485/385 402/505/402 403/507/403
f 410/490/410 427/526/427 428/508/428
f 404/492/404 403/507/403 420/509/420
f 412/494/412 411/491/411 428/508/428
f 404/492/404 421/510/421 422/513/422
f 397/493/397 414/511/414 415/514/415
f 412/494/412 429/512/429 430/515/430
f 405/495/405 422/513/422 423/516/423
f 398/496/398 415/514/415 416/517/416
f 407/500/407 406/498/406 423/516/423
f 399/519/399 416/583/416 417/520/417
f 407/500/407 424/518/424 425/521/425
f 400/501/400 417/520/417 418/522/418
f 409/504/409 408/502/408 425/521/425
f 401/503/401 418/522/418 419/524/419
f 410/490/410 409/506/409 426/525/426
f 403/507/403 402/505/402 419/524/419
f 427/526/427 444/544/444 445/527/445
f 420/509/420 437/545/437 438/528/438
f 428/508/428 445/527/445 446/530/446
f 421/510/421 438/528/438 439/531/439
f 415/514/415 414/511/414 431/529/431
f 429/512/429 446/530/446 447/533/447
f 422/513/422 439/531/439 440/534/440
f 416/517/416 415/514/415 432/532/432
f 423/516/423 440/534/440 441/536/441
f 417/520/417 416/583/416 433/537/433
f 424/518/424 441/536/441 442/539/442
f 418/522/418 417/520/417 434/538/434
f 426/523/426 425/521/425 442/539/442
f 418/522/418 435/540/435 436/542/436
f 427/526/427 426/525/426 443/543/443
f 420/509/420 419/524/419 436/542/436
f 444/544/444 461/562/461 462/546/462
f 437/545/437 454/563/454 455/547/455
f 446/530/446 445/527/445 462/546/462
f 439/531/439 438/528/438 455/547/455
f 432/532/432 431/529/431 448/548/448
f 446/530/446 463/549/463 464/552/464
f 439/531/439 456/550/456 457/553/457
f 432/532/432 449/551/449 450/554/450
f 440/534/440 457/553/457 458/555/458
f 433/537/433 450/584/450 451/556/451
f 442/539/442 441/536/441 458/555/458
f 434/538/434 451/556/451 452/558/452
f 443/541/443 442/539/442 459/557/459
f 435/540/435 452/558/452 453/560/453
f 444/544/444 443/543/443 460/561/460
f 437/545/437 436/542/436 453/560/453
f 461/562/461 4/18/4 475/24/475
f 454/563/454 470/21/470 2/26/2
f 462/546/462 475/24/475 476/31/476
f 456/550/456 455/547/455 2/26/2
f 448/548/448 465/27/465 466/34/466
f 464/552/464 463/549/463 476/31/476
f 457/553/457 456/550/456 471/32/471
f 450/554/450 449/551/449 466/34/466
f 457/553/457 472/4/472 473/6/473
f 451/556/451 450/584/450 467/564/467
f 458/555/458 473/6/473 474/10/474
f 451/556/451 1/7/1 468/12/468
f 459/557/459 474/10/474 3/15/3
f 452/558/452 468/12/468 469/16/469
f 460/561/460 3/565/3 4/18/4
f 453/560/453 469/16/469 470/21/470
