# Blender 4.3.2
# www.blender.org
o geyser_3
v 0.369229 -0.174373 0.030095
v 0.358323 -0.200000 0.003216
v 0.362847 -0.174086 -0.028385
v 0.276677 -0.200000 -0.225476
v 0.264606 -0.174253 -0.251787
v 0.299580 -0.174086 -0.205597
v 0.115154 -0.200000 -0.338833
v 0.087466 -0.173916 -0.351215
v 0.142954 -0.174253 -0.337163
v -0.115748 -0.200000 -0.314810
v -0.146310 -0.173952 -0.313961
v -0.090465 -0.173916 -0.332703
v -0.268939 -0.200000 -0.221951
v -0.294352 -0.174146 -0.207190
v -0.253368 -0.173952 -0.249067
v -0.397138 -0.200000 0.003275
v -0.403263 -0.174667 0.029255
v -0.397036 -0.174146 -0.026788
v -0.316179 -0.200000 0.249580
v -0.303071 -0.174748 0.275455
v -0.337581 -0.174667 0.229080
v -0.119928 -0.200000 0.385545
v -0.090391 -0.174031 0.393469
v -0.145921 -0.174748 0.384330
v 0.103620 -0.200000 0.328505
v 0.136310 -0.173957 0.328155
v 0.080688 -0.174031 0.349816
v 0.330816 -0.200000 0.206989
v 0.348065 -0.174373 0.186882
v 0.316145 -0.173957 0.231970
v 0.185339 0.124373 0.033264
v 0.179310 0.124086 -0.025223
v 0.142884 0.150000 0.006928
v 0.121818 0.124253 -0.133908
v 0.109257 0.150000 -0.087262
v 0.156951 0.124086 -0.087850
v 0.028549 0.123916 -0.174967
v 0.045918 0.150000 -0.131713
v 0.083904 0.124253 -0.160516
v -0.088792 0.123952 -0.149786
v -0.048171 0.150000 -0.121924
v -0.032961 0.123916 -0.168568
v -0.159130 0.124146 -0.089857
v -0.110277 0.150000 -0.084278
v -0.118322 0.123952 -0.131887
v -0.202356 0.124667 0.032429
v -0.162225 0.150000 0.006986
v -0.196829 0.124146 -0.023625
v -0.143592 0.124748 0.152261
v -0.129807 0.150000 0.105612
v -0.178189 0.124667 0.105954
v -0.032738 0.124031 0.200848
v -0.052229 0.150000 0.159359
v -0.087991 0.124748 0.190782
v 0.081425 0.123957 0.164337
v 0.039138 0.150000 0.136046
v 0.025775 0.124031 0.185917
v 0.178510 0.124373 0.083855
v 0.132171 0.150000 0.086287
v 0.147062 0.123957 0.129231
v 0.000000 0.099437 -0.099998
v -0.050000 0.099540 -0.086601
v -0.086603 0.099767 -0.049999
v -0.100000 0.100055 -0.000000
v -0.086603 0.100329 0.049999
v -0.050000 0.100515 0.086601
v -0.000000 0.100563 0.099998
v 0.050000 0.100460 0.086601
v 0.086603 0.100233 0.049999
v 0.100000 0.099945 0.000000
v 0.086603 0.099671 -0.049999
v 0.050000 0.099485 -0.086601
v 0.000106 0.291283 -0.153383
v -0.076047 0.291597 -0.132980
v -0.131795 0.292286 -0.077236
v -0.152200 0.293166 -0.001087
v -0.131794 0.294000 0.075062
v -0.076046 0.294566 0.130807
v 0.000108 0.294711 0.151211
v 0.076261 0.294397 0.130808
v 0.132009 0.293708 0.075063
v 0.152414 0.292828 -0.001085
v 0.132008 0.291994 -0.077234
v 0.076260 0.291428 -0.132979
v 0.000423 0.482598 -0.155210
v -0.075028 0.483221 -0.134999
v -0.130261 0.484586 -0.079779
v -0.150476 0.486329 -0.004347
v -0.130256 0.487982 0.071086
v -0.075020 0.489102 0.126308
v 0.000433 0.489390 0.146522
v 0.075884 0.488768 0.126311
v 0.131117 0.487402 0.071091
v 0.151332 0.485660 -0.004341
v 0.131112 0.484007 -0.079775
v 0.075876 0.482886 -0.134996
v 0.000950 0.672679 -0.196730
v -0.092579 0.673836 -0.171686
v -0.161043 0.676374 -0.103259
v -0.186098 0.679613 -0.009782
v -0.161030 0.682686 0.083696
v -0.092556 0.684769 0.152130
v 0.000976 0.685303 0.177181
v 0.094504 0.684147 0.152138
v 0.162969 0.681609 0.083711
v 0.188024 0.678369 -0.009766
v 0.162956 0.675297 -0.103245
v 0.094482 0.673214 -0.171678
v 0.001685 0.861928 -0.240863
v -0.110167 0.863771 -0.210931
v -0.192041 0.867817 -0.129136
v -0.221999 0.872980 -0.017394
v -0.192015 0.877877 0.094352
v -0.110121 0.881197 0.176160
v 0.001738 0.882049 0.206111
v 0.113590 0.880206 0.176178
v 0.195465 0.876160 0.094383
v 0.225423 0.870997 -0.017358
v 0.195438 0.866100 -0.129104
v 0.113544 0.862780 -0.210913
v 0.002638 1.053506 -0.231157
v -0.099520 1.055610 -0.203839
v -0.174295 1.060225 -0.129177
v -0.201651 1.066117 -0.027177
v -0.174258 1.071705 0.074829
v -0.099456 1.075493 0.149511
v 0.002712 1.076465 0.176856
v 0.104870 1.074361 0.149537
v 0.179644 1.069746 0.074876
v 0.207001 1.063854 -0.027124
v 0.179608 1.058266 -0.129131
v 0.104806 1.054478 -0.203812
v 0.003790 1.241697 -0.280280
v -0.117065 1.244681 -0.247991
v -0.205521 1.251230 -0.159729
v -0.237876 1.259587 -0.039143
v -0.205459 1.267515 0.081454
v -0.116959 1.272889 0.169751
v 0.003913 1.274268 0.202086
v 0.124768 1.271284 0.169797
v 0.213224 1.264736 0.081535
v 0.245579 1.256378 -0.039050
v 0.213162 1.248450 -0.159648
v 0.124662 1.243076 -0.247944
v 0.005147 1.429091 -0.331068
v -0.134193 1.433102 -0.293880
v -0.236171 1.441904 -0.192206
v -0.273463 1.453137 -0.053289
v -0.236076 1.463792 0.085647
v -0.134028 1.471014 0.187375
v 0.005337 1.472868 0.224637
v 0.144677 1.468857 0.187450
v 0.246655 1.460056 0.085776
v 0.283947 1.448823 -0.053141
v 0.246560 1.438167 -0.192077
v 0.144512 1.430945 -0.293805
v 0.006738 1.621723 -0.316692
v -0.117336 1.625801 -0.283619
v -0.208135 1.634749 -0.193175
v -0.241330 1.646170 -0.069593
v -0.208026 1.657004 0.054012
v -0.117147 1.664346 0.144521
v 0.006956 1.666231 0.177681
v 0.131030 1.662153 0.144608
v 0.221829 1.653205 0.054164
v 0.255024 1.641784 -0.069418
v 0.221720 1.630950 -0.193023
v 0.130841 1.623608 -0.283531
v 0.008507 1.807890 -0.375120
v -0.135775 1.813220 -0.336714
v -0.241355 1.824915 -0.231657
v -0.279941 1.839841 -0.088098
v -0.241196 1.853998 0.055495
v -0.135500 1.863594 0.160648
v 0.008825 1.866058 0.199184
v 0.153107 1.860728 0.160779
v 0.258686 1.849033 0.055721
v 0.297273 1.834108 -0.087837
v 0.258527 1.819950 -0.231431
v 0.152832 1.810354 -0.336584
v 0.010478 1.993434 -0.433277
v -0.152844 2.000129 -0.389871
v -0.272346 2.014821 -0.271099
v -0.316006 2.033572 -0.108786
v -0.272126 2.051359 0.053576
v -0.152463 2.063414 0.172483
v 0.010919 2.066509 0.216073
v 0.174242 2.059813 0.172667
v 0.293743 2.045121 0.053895
v 0.337403 2.026370 -0.108418
v 0.293523 2.008584 -0.270781
v 0.173860 1.996528 -0.389687
v 0.012713 2.187690 -0.416401
v -0.130829 2.194155 -0.378317
v -0.235847 2.208341 -0.274075
v -0.274201 2.226446 -0.131605
v -0.235615 2.243619 0.010917
v -0.130427 2.255259 0.115303
v 0.013177 2.258246 0.153583
v 0.156719 2.251781 0.115500
v 0.261737 2.237596 0.011258
v 0.300091 2.219491 -0.131212
v 0.261505 2.202317 -0.273734
v 0.156317 2.190677 -0.378120
v 0.015090 2.371651 -0.484548
v -0.150423 2.379772 -0.440718
v -0.271502 2.397591 -0.320702
v -0.315705 2.420334 -0.156658
v -0.271187 2.441906 0.007459
v -0.149876 2.456527 0.127673
v 0.015722 2.460280 0.171774
v 0.181235 2.452158 0.127944
v 0.302314 2.434339 0.007928
v 0.346517 2.411597 -0.156116
v 0.301998 2.390025 -0.320233
v 0.180688 2.375404 -0.440447
v 0.017669 2.555344 -0.550063
v -0.167470 2.565170 -0.501137
v -0.302891 2.586731 -0.367110
v -0.352308 2.614249 -0.183895
v -0.302480 2.640350 -0.000584
v -0.166757 2.658041 0.133704
v 0.018492 2.662581 0.182988
v 0.203631 2.652755 0.134061
v 0.339053 2.631194 0.000035
v 0.388469 2.603677 -0.183180
v 0.338641 2.577575 -0.366491
v 0.202918 2.559884 -0.500779
v 0.020604 2.757562 -0.494676
v -0.121976 2.765699 -0.457080
v -0.226254 2.783552 -0.354045
v -0.264289 2.806337 -0.213180
v -0.225889 2.827949 -0.072229
v -0.121344 2.842597 0.031040
v 0.021334 2.846357 0.068956
v 0.163914 2.838220 0.031360
v 0.268192 2.820367 -0.071675
v 0.306227 2.797582 -0.212540
v 0.267827 2.775970 -0.353491
v 0.163282 2.761322 -0.456760
v 0.023752 2.958451 -0.460637
v -0.085862 2.965141 -0.431802
v -0.166018 2.979821 -0.352741
v -0.195241 2.998556 -0.244638
v -0.165698 3.016327 -0.136458
v -0.085307 3.028372 -0.057190
v 0.024392 3.031463 -0.028072
v 0.134005 3.024772 -0.056907
v 0.214162 3.010093 -0.135969
v 0.243384 2.991357 -0.244072
v 0.213842 2.973586 -0.352251
v 0.133451 2.961542 -0.431520
v 0.027197 3.166764 -0.399510
v -0.034430 3.170648 -0.383319
v -0.079492 3.179168 -0.338913
v -0.095916 3.190043 -0.278192
v -0.079301 3.200358 -0.217425
v -0.034098 3.207349 -0.172894
v 0.027580 3.209143 -0.156533
v 0.089206 3.205260 -0.172724
v 0.134269 3.196739 -0.217130
v 0.150693 3.185864 -0.277851
v 0.134078 3.175550 -0.338618
v 0.088875 3.168559 -0.383148
vn 0.9982 0.0430 0.0416
vn 0.5987 -0.7986 -0.0624
vn 0.9681 0.0352 -0.2483
vn 0.4986 -0.7791 -0.3800
vn 0.6680 0.0480 -0.7426
vn 0.8939 0.0435 -0.4461
vn 0.1620 -0.7662 -0.6219
vn 0.0365 0.0442 -0.9984
vn 0.4524 0.0534 -0.8902
vn -0.1878 -0.8080 -0.5584
vn -0.4432 0.0226 -0.8961
vn -0.1881 0.0216 -0.9819
vn -0.4333 -0.7967 -0.4212
vn -0.8154 0.0350 -0.5779
vn -0.5998 0.0297 -0.7996
vn -0.6668 -0.7423 -0.0663
vn -0.9854 0.0804 0.1503
vn -0.9357 0.0670 -0.3464
vn -0.5160 -0.7650 0.3853
vn -0.6659 0.0747 0.7423
vn -0.9013 0.0726 0.4270
vn -0.1199 -0.7397 0.6622
vn 0.0829 0.0652 0.9944
vn -0.4196 0.0837 0.9039
vn 0.1991 -0.8350 0.5130
vn 0.4305 0.0115 0.9025
vn 0.2916 0.0136 0.9564
vn 0.5599 -0.7320 0.3881
vn 0.9451 0.0764 0.3179
vn 0.6262 0.0654 0.7769
vn 0.7085 0.7055 0.0185
vn 0.6946 0.6989 -0.1707
vn 0.2952 0.9549 -0.0327
vn 0.4859 0.7008 -0.5223
vn 0.2451 0.9516 -0.1853
vn 0.6374 0.6968 -0.3289
vn 0.0357 0.6913 -0.7217
vn 0.0767 0.9492 -0.3050
vn 0.3113 0.6994 -0.6434
vn -0.3122 0.6925 -0.6504
vn -0.0953 0.9540 -0.2842
vn -0.1438 0.6916 -0.7078
vn -0.5783 0.6976 -0.4229
vn -0.2160 0.9531 -0.2119
vn -0.4390 0.6930 -0.5719
vn -0.6950 0.7135 0.0893
vn -0.3115 0.9496 -0.0351
vn -0.6717 0.7014 -0.2385
vn -0.4737 0.7183 0.5095
vn -0.2399 0.9542 0.1785
vn -0.6254 0.7166 0.3089
vn 0.0512 0.6985 0.7138
vn -0.0504 0.9492 0.3107
vn -0.2779 0.7152 0.6413
vn 0.3044 0.6976 0.6486
vn 0.1025 0.9594 0.2629
vn 0.2137 0.6993 0.6821
vn 0.6667 0.7052 0.2410
vn 0.2622 0.9469 0.1862
vn 0.4589 0.6952 0.5533
vn -0.0004 -0.7518 -0.6594
vn -0.3323 -0.7511 -0.5705
vn -0.5753 -0.7494 -0.3276
vn -0.6644 -0.7473 0.0043
vn -0.5756 -0.7453 0.3364
vn -0.3325 -0.7440 0.5796
vn -0.0004 -0.7436 0.6686
vn 0.3317 -0.7444 0.5796
vn 0.5747 -0.7460 0.3364
vn 0.6635 -0.7482 0.0043
vn 0.5744 -0.7501 -0.3276
vn 0.3314 -0.7515 -0.5705
vn -0.0002 -0.1373 -0.9905
vn -0.4966 -0.1351 -0.8574
vn -0.8597 -0.1304 -0.4939
vn -0.9922 -0.1243 0.0022
vn -0.8590 -0.1186 0.4980
vn -0.4959 -0.1148 0.8608
vn -0.0002 -0.1138 0.9935
vn 0.4955 -0.1159 0.8608
vn 0.8587 -0.1206 0.4981
vn 0.9919 -0.1267 0.0022
vn 0.8593 -0.1324 -0.4940
vn 0.4961 -0.1363 -0.8575
vn -0.0004 -0.1135 -0.9935
vn -0.4987 -0.1092 -0.8598
vn -0.8632 -0.0997 -0.4949
vn -0.9961 -0.0877 0.0031
vn -0.8623 -0.0764 0.5006
vn -0.4978 -0.0688 0.8645
vn -0.0003 -0.0668 0.9978
vn 0.4973 -0.0711 0.8647
vn 0.8619 -0.0804 0.5007
vn 0.9957 -0.0923 0.0031
vn 0.8627 -0.1037 -0.4950
vn 0.4981 -0.1115 -0.8599
vn -0.0008 -0.2204 -0.9754
vn -0.4924 -0.2139 -0.8437
vn -0.8520 -0.1997 -0.4839
vn -0.9833 -0.1816 0.0072
vn -0.8514 -0.1645 0.4980
vn -0.4918 -0.1529 0.8572
vn -0.0006 -0.1500 0.9887
vn 0.4905 -0.1564 0.8573
vn 0.8502 -0.1705 0.4981
vn 0.9820 -0.1886 0.0073
vn 0.8506 -0.2057 -0.4839
vn 0.4909 -0.2174 -0.8437
vn -0.0004 -0.0881 -0.9961
vn -0.5002 -0.0798 -0.8622
vn -0.8658 -0.0616 -0.4966
vn -0.9993 -0.0383 0.0025
vn -0.8651 -0.0162 0.5013
vn -0.4994 -0.0012 0.8664
vn -0.0001 0.0027 1.0000
vn 0.4992 -0.0057 0.8665
vn 0.8648 -0.0239 0.5015
vn 0.9989 -0.0472 0.0027
vn 0.8653 -0.0693 -0.4965
vn 0.4995 -0.0843 -0.8622
vn -0.0006 -0.1033 -0.9946
vn -0.5005 -0.0928 -0.8607
vn -0.8660 -0.0700 -0.4951
vn -0.9992 -0.0408 0.0037
vn -0.8648 -0.0132 0.5020
vn -0.4992 0.0054 0.8665
vn -0.0002 0.0102 0.9999
vn 0.4988 -0.0002 0.8667
vn 0.8644 -0.0229 0.5023
vn 0.9986 -0.0520 0.0040
vn 0.8652 -0.0797 -0.4950
vn 0.4995 -0.0985 -0.8607
vn -0.0017 -0.2571 -0.9664
vn -0.4928 -0.2444 -0.8351
vn -0.8521 -0.2168 -0.4764
vn -0.9833 -0.1815 0.0135
vn -0.8514 -0.1480 0.5031
vn -0.4920 -0.1254 0.8615
vn -0.0010 -0.1196 0.9928
vn 0.4898 -0.1321 0.8618
vn 0.8491 -0.1597 0.5035
vn 0.9807 -0.1950 0.0139
vn 0.8492 -0.2285 -0.4760
vn 0.4897 -0.2512 -0.8349
vn -0.0006 -0.0945 -0.9955
vn -0.5007 -0.0801 -0.8619
vn -0.8665 -0.0484 -0.4969
vn -1.0000 -0.0080 0.0015
vn -0.8656 0.0303 0.4997
vn -0.4996 0.0563 0.8644
vn 0.0002 0.0630 0.9980
vn 0.4999 0.0485 0.8647
vn 0.8657 0.0169 0.5003
vn 0.9997 -0.0235 0.0021
vn 0.8658 -0.0618 -0.4965
vn 0.4998 -0.0878 -0.8617
vn -0.0008 -0.1153 -0.9933
vn -0.5012 -0.0988 -0.8597
vn -0.8668 -0.0625 -0.4947
vn -0.9999 -0.0162 0.0033
vn -0.8652 0.0275 0.5007
vn -0.4993 0.0572 0.8646
vn 0.0001 0.0648 0.9979
vn 0.4994 0.0483 0.8650
vn 0.8651 0.0122 0.5014
vn 0.9994 -0.0340 0.0040
vn 0.8659 -0.0779 -0.4942
vn 0.4998 -0.1077 -0.8594
vn -0.0027 -0.2991 -0.9542
vn -0.4928 -0.2804 -0.8237
vn -0.8513 -0.2393 -0.4669
vn -0.9821 -0.1870 0.0204
vn -0.8505 -0.1374 0.5078
vn -0.4916 -0.1038 0.8646
vn -0.0014 -0.0952 0.9955
vn 0.4884 -0.1139 0.8651
vn 0.8469 -0.1548 0.5087
vn 0.9781 -0.2071 0.0214
vn 0.8466 -0.2568 -0.4661
vn 0.4877 -0.2905 -0.8233
vn -0.0007 -0.1084 -0.9941
vn -0.5008 -0.0879 -0.8611
vn -0.8665 -0.0429 -0.4973
vn -0.9999 0.0144 -0.0005
vn -0.8654 0.0688 0.4963
vn -0.4993 0.1057 0.8600
vn 0.0007 0.1151 0.9933
vn 0.5004 0.0947 0.8606
vn 0.8662 0.0497 0.4973
vn 1.0000 -0.0076 0.0006
vn 0.8659 -0.0620 -0.4964
vn 0.4997 -0.0989 -0.8605
vn -0.0011 -0.1340 -0.9910
vn -0.5016 -0.1114 -0.8579
vn -0.8672 -0.0618 -0.4942
vn -1.0000 0.0013 0.0021
vn -0.8651 0.0611 0.4979
vn -0.4989 0.1016 0.8607
vn 0.0006 0.1120 0.9937
vn 0.4999 0.0895 0.8615
vn 0.8655 0.0402 0.4992
vn 0.9997 -0.0229 0.0035
vn 0.8660 -0.0829 -0.4931
vn 0.4998 -0.1236 -0.8573
vn -0.0039 -0.3413 -0.9400
vn -0.4928 -0.3166 -0.8105
vn -0.8503 -0.2624 -0.4562
vn -0.9807 -0.1933 0.0280
vn -0.8492 -0.1278 0.5124
vn -0.4910 -0.0834 0.8672
vn -0.0018 -0.0720 0.9974
vn 0.4870 -0.0967 0.8680
vn 0.8445 -0.1508 0.5139
vn 0.9751 -0.2198 0.0297
vn 0.8437 -0.2854 -0.4547
vn 0.4854 -0.3298 -0.8097
vn 0.0003 -0.0426 -0.9991
vn -0.4970 -0.0164 -0.8676
vn -0.8607 0.0411 -0.5075
vn -0.9933 0.1143 -0.0154
vn -0.8595 0.1837 0.4769
vn -0.4951 0.2307 0.8376
vn 0.0026 0.2428 0.9701
vn 0.4998 0.2167 0.8386
vn 0.8635 0.1594 0.4786
vn 0.9962 0.0862 -0.0135
vn 0.8624 0.0167 -0.5059
vn 0.4980 -0.0305 -0.8666
vn 0.0043 0.2185 -0.9758
vn -0.4613 0.2440 -0.8531
vn -0.8020 0.3000 -0.5166
vn -0.9267 0.3716 -0.0562
vn -0.8017 0.4398 0.4049
vn -0.4602 0.4861 0.7430
vn 0.0066 0.4980 0.8672
vn 0.4729 0.4722 0.7439
vn 0.8135 0.4158 0.4065
vn 0.9374 0.3441 -0.0542
vn 0.8116 0.2762 -0.5148
vn 0.4702 0.2303 -0.8520
vn 0.0047 0.2208 -0.9753
vn -0.4581 0.2483 -0.8535
vn -0.7967 0.3087 -0.5195
vn -0.9203 0.3862 -0.0627
vn -0.7956 0.4597 0.3945
vn -0.4561 0.5097 0.7295
vn 0.0074 0.5226 0.8526
vn 0.4705 0.4948 0.7306
vn 0.8091 0.4339 0.3964
vn 0.9324 0.3564 -0.0605
vn 0.8075 0.2830 -0.5175
vn 0.4680 0.2335 -0.8523
vn 0.0128 0.6977 -0.7163
vn -0.2801 0.7160 -0.6395
vn -0.4945 0.7562 -0.4285
vn -0.5729 0.8076 -0.1397
vn -0.4942 0.8564 0.1497
vn -0.2791 0.8894 0.3620
vn 0.0146 0.8979 0.4400
vn 0.3080 0.8795 0.3627
vn 0.5223 0.8393 0.1510
vn 0.6002 0.7879 -0.1381
vn 0.5208 0.7392 -0.4271
vn 0.3058 0.7061 -0.6386
vt 0.457177 0.218967
vt 0.382400 0.114370
vt 0.453049 0.092481
vt 0.088488 0.511273
vt 0.088959 0.571929
vt 0.062834 0.515852
vt 0.098046 0.510413
vt 0.113372 0.569408
vt 0.107387 0.569500
vt 0.130034 0.510686
vt 0.136348 0.571929
vt 0.123655 0.570093
vt 0.055568 0.673419
vt 0.078296 0.725523
vt 0.064680 0.725414
vt 0.102030 0.673697
vt 0.096817 0.725430
vt 0.087746 0.725533
vt 0.542264 0.534087
vt 0.530113 0.587955
vt 0.511158 0.534087
vt 0.552736 0.534158
vt 0.564039 0.588143
vt 0.551224 0.587999
vt 0.656942 0.846153
vt 0.640442 0.799406
vt 0.675343 0.801250
vt 0.718410 0.790098
vt 0.781092 0.782962
vt 0.779374 0.793225
vt 0.568301 0.237379
vt 0.518508 0.247468
vt 0.518523 0.239436
vt 0.570939 0.189110
vt 0.575198 0.193904
vt 0.570219 0.197223
vt 0.573047 0.232663
vt 0.568552 0.227258
vt 0.572985 0.266883
vt 0.568481 0.271789
vt 0.568254 0.263151
vt 0.094102 0.506937
vt 0.125148 0.506460
vt 0.119742 0.510079
vt 0.051460 0.668863
vt 0.046301 0.673336
vt 0.097073 0.669227
vt 0.092573 0.673714
vt 0.506535 0.529636
vt 0.502180 0.534143
vt 0.547181 0.529636
vt 0.715681 0.832121
vt 0.718724 0.827929
vt 0.720838 0.836651
vt 0.687299 0.807024
vt 0.689583 0.817129
vt 0.681596 0.813901
vt 0.686097 0.838510
vt 0.681279 0.831520
vt 0.689373 0.828844
vt 0.672834 0.850605
vt 0.673203 0.842502
vt 0.681263 0.845083
vt 0.651824 0.852992
vt 0.662203 0.852992
vt 0.636707 0.846935
vt 0.644454 0.843355
vt 0.645886 0.851661
vt 0.622609 0.828944
vt 0.630647 0.831032
vt 0.626687 0.837992
vt 0.625680 0.805630
vt 0.630512 0.812740
vt 0.622508 0.815307
vt 0.641460 0.791286
vt 0.632797 0.796074
vt 0.662576 0.790970
vt 0.657010 0.798166
vt 0.652070 0.790492
vt 0.683313 0.798958
vt 0.675511 0.793145
vt 0.778832 0.803221
vt 0.570186 0.291530
vt 0.164606 0.515689
vt 0.129093 0.668863
vt 0.521226 0.588270
vt 0.540752 0.587955
vt 0.591538 0.530134
vt 0.779146 0.812204
vt 0.717750 0.800088
vt 0.904961 0.565982
vt 0.915087 0.533009
vt 0.912835 0.563651
vt 0.895907 0.567027
vt 0.903090 0.536533
vt 0.694277 0.195992
vt 0.682061 0.230834
vt 0.686371 0.196377
vt 0.703381 0.195409
vt 0.694108 0.230324
vt 0.711243 0.194786
vt 0.707978 0.229510
vt 0.063676 0.645763
vt 0.097835 0.659954
vt 0.063924 0.653598
vt 0.097332 0.634128
vt 0.097470 0.648021
vt 0.063603 0.636642
vt 0.097456 0.621999
vt 0.511468 0.927035
vt 0.482499 0.933242
vt 0.484216 0.919490
vt 0.126713 0.737165
vt 0.161722 0.732480
vt 0.160941 0.744539
vt 0.127274 0.729248
vt 0.162028 0.718589
vt 0.127508 0.720129
vt 0.161777 0.706588
vt 0.911056 0.501221
vt 0.889294 0.538067
vt 0.899163 0.504660
vt 0.684036 0.264649
vt 0.695980 0.264297
vt 0.719956 0.228611
vt 0.709731 0.263637
vt 0.132114 0.659380
vt 0.131778 0.647557
vt 0.131585 0.633793
vt 0.452936 0.914902
vt 0.194831 0.745004
vt 0.195460 0.733053
vt 0.195665 0.719289
vt 0.897196 0.474768
vt 0.911945 0.470568
vt 0.880219 0.476372
vt 0.695814 0.298586
vt 0.681000 0.298832
vt 0.712867 0.297947
vt 0.727590 0.297087
vt 0.166036 0.648752
vt 0.166421 0.663409
vt 0.131588 0.621777
vt 0.165730 0.631691
vt 0.451375 0.928548
vt 0.424237 0.908872
vt 0.228984 0.749884
vt 0.229583 0.735068
vt 0.195391 0.707398
vt 0.229715 0.718003
vt 0.895552 0.445051
vt 0.913199 0.440105
vt 0.875232 0.446802
vt 0.695267 0.332915
vt 0.677543 0.332982
vt 0.715668 0.332366
vt 0.733280 0.331483
vt 0.200453 0.649826
vt 0.200876 0.667356
vt 0.165584 0.616798
vt 0.200005 0.629424
vt 0.422476 0.925811
vt 0.395443 0.903189
vt 0.263157 0.754580
vt 0.263658 0.736860
vt 0.229345 0.703263
vt 0.263670 0.716452
vt 0.907827 0.407965
vt 0.891703 0.412413
vt 0.680670 0.366672
vt 0.696863 0.366818
vt 0.715500 0.366514
vt 0.235248 0.664084
vt 0.234414 0.629440
vt 0.234896 0.648072
vt 0.233930 0.613180
vt 0.361100 0.919150
vt 0.362643 0.900602
vt 0.393545 0.923473
vt 0.356185 0.935391
vt 0.297166 0.717256
vt 0.297288 0.735896
vt 0.296693 0.701155
vt 0.890686 0.382954
vt 0.909769 0.377774
vt 0.868697 0.384487
vt 0.695562 0.401214
vt 0.676402 0.400796
vt 0.717614 0.401086
vt 0.736649 0.400446
vt 0.269526 0.648893
vt 0.269902 0.667838
vt 0.268867 0.626853
vt 0.333681 0.895631
vt 0.331251 0.756380
vt 0.297027 0.752080
vt 0.331327 0.737235
vt 0.331025 0.715185
vt 0.889949 0.353623
vt 0.911959 0.347744
vt 0.864580 0.355183
vt 0.693920 0.435642
vt 0.671829 0.434879
vt 0.719345 0.435762
vt 0.741293 0.435206
vt 0.304315 0.649547
vt 0.304702 0.671391
vt 0.268103 0.607621
vt 0.303455 0.624138
vt 0.332081 0.917597
vt 0.304558 0.891053
vt 0.365489 0.760383
vt 0.365310 0.738314
vt 0.330425 0.696137
vt 0.364780 0.712894
vt 0.906070 0.315284
vt 0.886465 0.320436
vt 0.675264 0.468581
vt 0.694932 0.469511
vt 0.717570 0.469855
vt 0.339008 0.666288
vt 0.337849 0.624212
vt 0.338705 0.646835
vt 0.336672 0.604481
vt 0.269610 0.912736
vt 0.270789 0.890146
vt 0.302974 0.916402
vt 0.264299 0.932521
vt 0.398367 0.713488
vt 0.399000 0.736120
vt 0.397668 0.693933
vt 0.886470 0.291511
vt 0.909275 0.285617
vt 0.860173 0.292702
vt 0.692415 0.504029
vt 0.669548 0.502657
vt 0.718736 0.504705
vt 0.741458 0.504503
vt 0.373716 0.647362
vt 0.374021 0.669987
vt 0.372618 0.621058
vt 0.241684 0.886152
vt 0.433702 0.759708
vt 0.399398 0.755766
vt 0.432963 0.736870
vt 0.432040 0.710557
vt 0.886665 0.262600
vt 0.912486 0.256037
vt 0.856884 0.263710
vt 0.689642 0.538562
vt 0.663766 0.536681
vt 0.719427 0.539638
vt 0.745142 0.539621
vt 0.408872 0.647629
vt 0.409163 0.673243
vt 0.371021 0.598121
vt 0.407512 0.617857
vt 0.240582 0.912440
vt 0.212291 0.882647
vt 0.468010 0.763117
vt 0.466863 0.737276
vt 0.431179 0.687818
vt 0.465607 0.707497
vt 0.906335 0.223213
vt 0.883636 0.228887
vt 0.831123 0.259068
vt 0.857453 0.229653
vt 0.689976 0.572403
vt 0.716145 0.573621
vt 0.443299 0.666579
vt 0.441792 0.617902
vt 0.443090 0.644064
vt 0.207510 0.857156
vt 0.177746 0.883320
vt 0.173335 0.860907
vt 0.177183 0.909500
vt 0.211347 0.912421
vt 0.171799 0.932431
vt 0.499411 0.707780
vt 0.500701 0.733945
vt 0.498460 0.685160
vt 0.884679 0.200545
vt 0.910857 0.194111
vt 0.854479 0.201189
vt 0.667246 0.570462
vt 0.686219 0.607050
vt 0.660025 0.604481
vt 0.716378 0.608768
vt 0.742420 0.609175
vt 0.478513 0.644315
vt 0.478699 0.670281
vt 0.439752 0.595102
vt 0.476898 0.614153
vt 0.148521 0.880284
vt 0.536366 0.760294
vt 0.501982 0.756645
vt 0.534574 0.734134
vt 0.532875 0.703974
vt 0.885801 0.172056
vt 0.915087 0.164981
vt 0.852012 0.172510
vt 0.682311 0.641689
vt 0.653032 0.638448
vt 0.716025 0.643960
vt 0.745142 0.644652
vt 0.514035 0.644193
vt 0.514183 0.673243
vt 0.474287 0.587876
vt 0.512097 0.610459
vt 0.148180 0.910480
vt 0.118860 0.877854
vt 0.570746 0.763117
vt 0.568392 0.733875
vt 0.531723 0.677893
vt 0.566253 0.700150
vt 0.904122 0.129882
vt 0.881566 0.135238
vt 0.822774 0.166221
vt 0.855540 0.135384
vt 0.683602 0.675125
vt 0.709549 0.677141
vt 0.547304 0.660438
vt 0.545644 0.612087
vt 0.547237 0.638062
vt 0.112632 0.848930
vt 0.081303 0.881898
vt 0.076300 0.859621
vt 0.081537 0.907919
vt 0.118821 0.911639
vt 0.076939 0.930712
vt 0.600736 0.701788
vt 0.602565 0.727750
vt 0.599650 0.679325
vt 0.895832 0.095500
vt 0.878489 0.099547
vt 0.833019 0.130280
vt 0.858479 0.099503
vt 0.683678 0.708744
vt 0.731960 0.677856
vt 0.703610 0.710500
vt 0.580561 0.649915
vt 0.579243 0.612744
vt 0.580545 0.632709
vt 0.044981 0.885380
vt 0.040976 0.868253
vt 0.045363 0.905384
vt 0.042020 0.922906
vt 0.635333 0.702289
vt 0.636878 0.722239
vt 0.634462 0.685021
vt 0.874339 0.061480
vt 0.884090 0.059224
vt 0.863089 0.061411
vt 0.853354 0.059038
vt 0.695943 0.743082
vt 0.684742 0.742038
vt 0.705621 0.743508
vt 0.612781 0.625832
vt 0.612781 0.635506
vt 0.004600 0.881081
vt 0.006897 0.890709
vt 0.007168 0.901956
vt 0.671609 0.715101
vt 0.670701 0.703888
vt 0.124531 0.310404
vt 0.116631 0.339889
vt 0.095046 0.318305
vt 0.117621 0.069084
vt 0.143799 0.095867
vt 0.108039 0.105351
vt 0.485652 0.108300
vt 0.493493 0.153026
vt 0.490741 0.193592
vt 0.411485 0.218967
vt 0.380831 0.185109
vt 0.373715 0.154351
vt 0.410267 0.093566
vt 0.097827 0.570346
vt 0.127670 0.673405
vt 0.587847 0.534552
vt 0.723271 0.761056
vt 0.518830 0.229313
vt 0.518848 0.256141
vt 0.575198 0.292501
vt 0.168311 0.512706
vt 0.055381 0.725150
vt 0.781092 0.820970
vt 0.714415 0.795937
vt 0.063725 0.628678
vt 0.510294 0.936056
vt 0.127351 0.712250
vt 0.885481 0.506067
vt 0.721603 0.262844
vt 0.199654 0.611617
vt 0.263190 0.698823
vt 0.873129 0.413860
vt 0.731589 0.365840
vt 0.387966 0.941232
vt 0.302353 0.601972
vt 0.364041 0.690933
vt 0.863862 0.321642
vt 0.737112 0.469521
vt 0.296763 0.938601
vt 0.405447 0.591904
vt 0.464578 0.681758
vt 0.834800 0.225307
vt 0.738738 0.573790
vt 0.204933 0.938499
vt 0.508888 0.581081
vt 0.564904 0.670979
vt 0.112527 0.941232
vt 0.841164 0.095380
vt 0.720829 0.711188
vt 0.612028 0.614608
vt 0.005342 0.911806
vt 0.670201 0.694180
vt 0.099608 0.310404
vt 0.107508 0.305843
vt 0.116631 0.305843
vt 0.129093 0.318305
vt 0.129093 0.327428
vt 0.124531 0.335328
vt 0.107508 0.339889
vt 0.099608 0.335328
vt 0.095046 0.327428
vt 0.102506 0.095576
vt 0.102506 0.084334
vt 0.108039 0.074637
vt 0.128685 0.069162
vt 0.138267 0.074850
vt 0.143799 0.084625
vt 0.138267 0.105564
vt 0.128685 0.111118
vt 0.117621 0.111040
s 1
f 19/1/19 7/2/7 2/3/2
f 12/4/12 37/5/37 8/6/8
f 11/7/11 45/8/45 40/9/40
f 14/10/14 48/11/48 43/12/43
f 17/13/17 51/14/51 46/15/46
f 20/16/20 54/17/54 49/18/49
f 27/19/27 52/20/52 23/21/23
f 26/22/26 60/23/60 55/24/55
f 41/25/41 53/26/53 59/27/59
f 3/28/3 36/29/36 32/30/32
f 5/31/5 39/32/39 34/33/34
f 1/34/1 2/35/2 3/36/3
f 4/37/4 5/31/5 6/38/6
f 7/39/7 8/40/8 9/41/9
f 10/42/10 11/7/11 12/4/12
f 13/43/13 14/10/14 15/44/15
f 16/45/16 17/13/17 18/46/18
f 19/47/19 20/16/20 21/48/21
f 22/49/22 23/21/23 24/50/24
f 25/51/25 26/22/26 27/19/27
f 28/52/28 29/53/29 30/54/30
f 31/55/31 32/56/32 33/57/33
f 34/58/34 35/59/35 36/60/36
f 37/61/37 38/62/38 39/63/39
f 40/64/40 41/25/41 42/65/42
f 43/66/43 44/67/44 45/68/45
f 46/69/46 47/70/47 48/71/48
f 49/72/49 50/73/50 51/74/51
f 52/75/52 53/26/53 54/76/54
f 55/77/55 56/78/56 57/79/57
f 58/80/58 59/27/59 60/81/60
f 31/82/31 3/28/3 32/30/32
f 4/37/4 3/36/3 2/35/2
f 34/33/34 6/38/6 5/31/5
f 35/59/35 32/56/32 36/60/36
f 7/39/7 5/31/5 4/37/4
f 8/40/8 39/32/39 9/41/9
f 38/62/38 34/58/34 39/63/39
f 7/39/7 12/83/12 8/40/8
f 40/9/40 12/4/12 11/7/11
f 38/62/38 42/65/42 41/25/41
f 10/42/10 15/44/15 11/7/11
f 43/12/43 15/44/15 14/10/14
f 44/67/44 40/64/40 45/68/45
f 13/43/13 18/84/18 14/10/14
f 46/15/46 18/46/18 17/13/17
f 47/70/47 43/66/43 48/71/48
f 16/45/16 21/48/21 17/13/17
f 49/18/49 21/48/21 20/16/20
f 47/70/47 51/74/51 50/73/50
f 22/85/22 20/16/20 19/47/19
f 23/21/23 54/86/54 24/50/24
f 53/26/53 49/72/49 54/76/54
f 22/49/22 27/19/27 23/21/23
f 26/22/26 57/87/57 27/19/27
f 53/26/53 57/79/57 56/78/56
f 28/88/28 26/22/26 25/51/25
f 58/89/58 30/54/30 29/53/29
f 59/27/59 55/77/55 60/81/60
f 28/52/28 1/90/1 29/53/29
f 59/27/59 31/55/31 33/57/33
f 1/90/1 58/89/58 29/53/29
f 62/91/62 73/92/73 61/93/61
f 63/94/63 74/95/74 62/91/62
f 64/96/64 75/97/75 63/98/63
f 65/99/65 76/100/76 64/96/64
f 66/101/66 77/102/77 65/99/65
f 67/103/67 78/104/78 66/105/66
f 67/103/67 80/106/80 79/107/79
f 68/108/68 81/109/81 80/106/80
f 69/110/69 82/111/82 81/112/81
f 70/113/70 83/114/83 82/115/82
f 71/116/71 84/117/84 83/114/83
f 72/118/72 73/119/73 84/117/84
f 74/95/74 85/120/85 73/92/73
f 75/121/75 86/122/86 74/95/74
f 76/100/76 87/123/87 75/97/75
f 77/102/77 88/124/88 76/100/76
f 78/125/78 89/126/89 77/102/77
f 79/107/79 90/127/90 78/104/78
f 80/106/80 91/128/91 79/107/79
f 81/109/81 92/129/92 80/106/80
f 82/111/82 93/130/93 81/112/81
f 83/114/83 94/131/94 82/115/82
f 84/117/84 95/132/95 83/114/83
f 73/119/73 96/133/96 84/117/84
f 85/120/85 98/134/98 97/135/97
f 86/122/86 99/136/99 98/134/98
f 87/123/87 100/137/100 99/138/99
f 88/124/88 101/139/101 100/137/100
f 89/126/89 102/140/102 101/139/101
f 90/127/90 103/141/103 102/142/102
f 92/129/92 103/141/103 91/128/91
f 93/143/93 104/144/104 92/129/92
f 94/145/94 105/146/105 93/130/93
f 95/132/95 106/147/106 94/131/94
f 96/133/96 107/148/107 95/132/95
f 85/149/85 108/150/108 96/133/96
f 97/135/97 110/151/110 109/152/109
f 98/134/98 111/153/111 110/151/110
f 99/138/99 112/154/112 111/155/111
f 100/137/100 113/156/113 112/154/112
f 101/139/101 114/157/114 113/156/113
f 102/142/102 115/158/115 114/159/114
f 104/144/104 115/158/115 103/141/103
f 105/160/105 116/161/116 104/144/104
f 106/162/106 117/163/117 105/146/105
f 107/148/107 118/164/118 106/147/106
f 108/150/108 119/165/119 107/148/107
f 97/166/97 120/167/120 108/150/108
f 110/151/110 121/168/121 109/152/109
f 111/153/111 122/169/122 110/151/110
f 112/154/112 123/170/123 111/155/111
f 113/156/113 124/171/124 112/154/112
f 114/157/114 125/172/125 113/156/113
f 115/158/115 126/173/126 114/159/114
f 115/158/115 128/174/128 127/175/127
f 116/161/116 129/176/129 128/174/128
f 117/163/117 130/177/130 129/178/129
f 118/179/118 131/180/131 130/177/130
f 119/165/119 132/181/132 131/182/131
f 120/167/120 121/183/121 132/181/132
f 121/168/121 134/184/134 133/185/133
f 122/169/122 135/186/135 134/184/134
f 123/170/123 136/187/136 135/188/135
f 124/171/124 137/189/137 136/187/136
f 125/172/125 138/190/138 137/189/137
f 126/173/126 139/191/139 138/192/138
f 128/174/128 139/191/139 127/175/127
f 129/176/129 140/193/140 128/174/128
f 130/177/130 141/194/141 129/178/129
f 131/182/131 142/195/142 130/196/130
f 132/181/132 143/197/143 131/182/131
f 121/183/121 144/198/144 132/181/132
f 133/185/133 146/199/146 145/200/145
f 134/184/134 147/201/147 146/199/146
f 135/188/135 148/202/148 147/203/147
f 136/187/136 149/204/149 148/202/148
f 137/189/137 150/205/150 149/204/149
f 138/192/138 151/206/151 150/207/150
f 140/193/140 151/206/151 139/191/139
f 141/208/141 152/209/152 140/193/140
f 142/210/142 153/211/153 141/194/141
f 143/197/143 154/212/154 142/195/142
f 144/198/144 155/213/155 143/197/143
f 133/214/133 156/215/156 144/198/144
f 146/199/146 157/216/157 145/200/145
f 147/201/147 158/217/158 146/199/146
f 148/202/148 159/218/159 147/203/147
f 149/204/149 160/219/160 148/202/148
f 150/205/150 161/220/161 149/204/149
f 151/206/151 162/221/162 150/207/150
f 151/206/151 164/222/164 163/223/163
f 152/209/152 165/224/165 164/222/164
f 153/211/153 166/225/166 165/226/165
f 154/227/154 167/228/167 166/225/166
f 155/213/155 168/229/168 167/230/167
f 156/215/156 157/231/157 168/229/168
f 157/216/157 170/232/170 169/233/169
f 158/217/158 171/234/171 170/232/170
f 159/218/159 172/235/172 171/236/171
f 160/219/160 173/237/173 172/235/172
f 161/220/161 174/238/174 173/237/173
f 162/221/162 175/239/175 174/240/174
f 164/222/164 175/239/175 163/223/163
f 165/224/165 176/241/176 164/222/164
f 166/225/166 177/242/177 165/226/165
f 167/230/167 178/243/178 166/244/166
f 168/229/168 179/245/179 167/230/167
f 157/231/157 180/246/180 168/229/168
f 169/233/169 182/247/182 181/248/181
f 170/232/170 183/249/183 182/247/182
f 171/236/171 184/250/184 183/251/183
f 172/235/172 185/252/185 184/250/184
f 173/237/173 186/253/186 185/252/185
f 174/240/174 187/254/187 186/255/186
f 176/241/176 187/254/187 175/239/175
f 177/256/177 188/257/188 176/241/176
f 178/258/178 189/259/189 177/242/177
f 179/245/179 190/260/190 178/243/178
f 180/246/180 191/261/191 179/245/179
f 169/262/169 192/263/192 180/246/180
f 182/247/182 193/264/193 181/248/181
f 183/249/183 194/265/194 182/247/182
f 184/266/184 195/267/195 183/249/183
f 185/252/185 196/268/196 184/250/184
f 186/253/186 197/269/197 185/252/185
f 187/254/187 198/270/198 186/255/186
f 187/254/187 200/271/200 199/272/199
f 188/273/188 201/274/201 200/275/200
f 189/259/189 202/276/202 201/274/201
f 190/277/190 203/278/203 202/276/202
f 191/261/191 204/279/204 203/280/203
f 192/263/192 193/281/193 204/279/204
f 193/264/193 206/282/206 205/283/205
f 194/265/194 207/284/207 206/282/206
f 195/285/195 208/286/208 207/287/207
f 196/268/196 209/288/209 208/286/208
f 197/269/197 210/289/210 209/288/209
f 198/270/198 211/290/211 210/291/210
f 200/271/200 211/290/211 199/272/199
f 201/292/201 212/293/212 200/271/200
f 202/276/202 213/294/213 201/274/201
f 203/280/203 214/295/214 202/296/202
f 204/279/204 215/297/215 203/280/203
f 193/281/193 216/298/216 204/279/204
f 205/283/205 218/299/218 217/300/217
f 206/282/206 219/301/219 218/299/218
f 207/287/207 220/302/220 219/303/219
f 208/286/208 221/304/221 220/302/220
f 209/288/209 222/305/222 221/304/221
f 210/291/210 223/306/223 222/307/222
f 212/293/212 223/306/223 211/290/211
f 213/308/213 224/309/224 212/293/212
f 214/310/214 225/311/225 213/294/213
f 215/297/215 226/312/226 214/295/214
f 216/298/216 227/313/227 215/297/215
f 205/314/205 228/315/228 216/298/216
f 218/299/218 229/316/229 217/300/217
f 219/301/219 230/317/230 218/299/218
f 220/318/220 231/319/231 219/301/219
f 221/304/221 232/320/232 220/302/220
f 222/305/222 233/321/233 221/304/221
f 223/306/223 234/322/234 222/307/222
f 223/306/223 236/323/236 235/324/235
f 224/325/224 237/326/237 236/327/236
f 225/311/225 238/328/238 237/326/237
f 226/329/226 239/330/239 238/328/238
f 227/313/227 240/331/240 239/332/239
f 228/315/228 229/333/229 240/331/240
f 230/317/230 241/334/241 229/316/229
f 231/319/231 242/335/242 230/317/230
f 232/336/232 243/337/243 231/319/231
f 233/321/233 244/338/244 232/320/232
f 234/339/234 245/340/245 233/321/233
f 235/324/235 246/341/246 234/322/234
f 235/324/235 248/342/248 247/343/247
f 236/327/236 249/344/249 248/345/248
f 237/326/237 250/346/250 249/344/249
f 238/328/238 251/347/251 250/346/250
f 239/332/239 252/348/252 251/349/251
f 240/331/240 241/350/241 252/348/252
f 241/334/241 254/351/254 253/352/253
f 242/335/242 255/353/255 254/351/254
f 243/337/243 256/354/256 255/353/255
f 244/338/244 257/355/257 256/356/256
f 245/340/245 258/357/258 257/355/257
f 246/341/246 259/358/259 258/359/258
f 248/342/248 259/358/259 247/343/247
f 249/344/249 260/360/260 248/345/248
f 250/346/250 261/361/261 249/344/249
f 251/347/251 262/362/262 250/346/250
f 252/348/252 263/363/263 251/349/251
f 241/350/241 264/364/264 252/348/252
f 69/365/69 65/366/65 61/367/61
f 256/368/256 260/369/260 264/370/264
f 2/3/2 28/371/28 25/372/25
f 25/372/25 22/373/22 19/1/19
f 19/1/19 16/374/16 13/375/13
f 13/375/13 10/376/10 7/2/7
f 7/2/7 4/377/4 2/3/2
f 2/3/2 25/372/25 19/1/19
f 19/1/19 13/375/13 7/2/7
f 12/4/12 42/378/42 37/5/37
f 11/7/11 15/44/15 45/8/45
f 14/10/14 18/84/18 48/11/48
f 17/13/17 21/48/21 51/14/51
f 20/16/20 24/379/24 54/17/54
f 27/19/27 57/87/57 52/20/52
f 26/22/26 30/380/30 60/23/60
f 59/27/59 33/57/33 35/59/35
f 35/59/35 38/62/38 41/25/41
f 41/25/41 44/67/44 47/70/47
f 47/70/47 50/73/50 53/26/53
f 53/26/53 56/78/56 59/27/59
f 59/27/59 35/59/35 41/25/41
f 41/25/41 47/70/47 53/26/53
f 3/28/3 6/381/6 36/29/36
f 5/31/5 9/41/9 39/32/39
f 31/82/31 1/90/1 3/28/3
f 4/37/4 6/38/6 3/36/3
f 34/33/34 36/382/36 6/38/6
f 35/59/35 33/57/33 32/56/32
f 7/39/7 9/41/9 5/31/5
f 8/40/8 37/383/37 39/32/39
f 38/62/38 35/59/35 34/58/34
f 7/39/7 10/384/10 12/83/12
f 40/9/40 42/378/42 12/4/12
f 38/62/38 37/61/37 42/65/42
f 10/42/10 13/43/13 15/44/15
f 43/12/43 45/8/45 15/44/15
f 44/67/44 41/25/41 40/64/40
f 13/43/13 16/385/16 18/84/18
f 46/15/46 48/386/48 18/46/18
f 47/70/47 44/67/44 43/66/43
f 16/45/16 19/47/19 21/48/21
f 49/18/49 51/14/51 21/48/21
f 47/70/47 46/69/46 51/74/51
f 22/85/22 24/379/24 20/16/20
f 23/21/23 52/20/52 54/86/54
f 53/26/53 50/73/50 49/72/49
f 22/49/22 25/51/25 27/19/27
f 26/22/26 55/24/55 57/87/57
f 53/26/53 52/75/52 57/79/57
f 28/88/28 30/380/30 26/22/26
f 58/89/58 60/387/60 30/54/30
f 59/27/59 56/78/56 55/77/55
f 28/52/28 2/388/2 1/90/1
f 59/27/59 58/80/58 31/55/31
f 1/90/1 31/82/31 58/89/58
f 62/91/62 74/95/74 73/92/73
f 63/94/63 75/121/75 74/95/74
f 64/96/64 76/100/76 75/97/75
f 65/99/65 77/102/77 76/100/76
f 66/101/66 78/125/78 77/102/77
f 67/103/67 79/107/79 78/104/78
f 67/103/67 68/108/68 80/106/80
f 68/108/68 69/389/69 81/109/81
f 69/110/69 70/390/70 82/111/82
f 70/113/70 71/116/71 83/114/83
f 71/116/71 72/118/72 84/117/84
f 72/118/72 61/391/61 73/119/73
f 74/95/74 86/122/86 85/120/85
f 75/121/75 87/392/87 86/122/86
f 76/100/76 88/124/88 87/123/87
f 77/102/77 89/126/89 88/124/88
f 78/125/78 90/393/90 89/126/89
f 79/107/79 91/128/91 90/127/90
f 80/106/80 92/129/92 91/128/91
f 81/109/81 93/143/93 92/129/92
f 82/111/82 94/145/94 93/130/93
f 83/114/83 95/132/95 94/131/94
f 84/117/84 96/133/96 95/132/95
f 73/119/73 85/149/85 96/133/96
f 85/120/85 86/122/86 98/134/98
f 86/122/86 87/392/87 99/136/99
f 87/123/87 88/124/88 100/137/100
f 88/124/88 89/126/89 101/139/101
f 89/126/89 90/393/90 102/140/102
f 90/127/90 91/128/91 103/141/103
f 92/129/92 104/144/104 103/141/103
f 93/143/93 105/160/105 104/144/104
f 94/145/94 106/162/106 105/146/105
f 95/132/95 107/148/107 106/147/106
f 96/133/96 108/150/108 107/148/107
f 85/149/85 97/166/97 108/150/108
f 97/135/97 98/134/98 110/151/110
f 98/134/98 99/136/99 111/153/111
f 99/138/99 100/137/100 112/154/112
f 100/137/100 101/139/101 113/156/113
f 101/139/101 102/140/102 114/157/114
f 102/142/102 103/141/103 115/158/115
f 104/144/104 116/161/116 115/158/115
f 105/160/105 117/394/117 116/161/116
f 106/162/106 118/179/118 117/163/117
f 107/148/107 119/165/119 118/164/118
f 108/150/108 120/167/120 119/165/119
f 97/166/97 109/395/109 120/167/120
f 110/151/110 122/169/122 121/168/121
f 111/153/111 123/396/123 122/169/122
f 112/154/112 124/171/124 123/170/123
f 113/156/113 125/172/125 124/171/124
f 114/157/114 126/397/126 125/172/125
f 115/158/115 127/175/127 126/173/126
f 115/158/115 116/161/116 128/174/128
f 116/161/116 117/394/117 129/176/129
f 117/163/117 118/179/118 130/177/130
f 118/179/118 119/398/119 131/180/131
f 119/165/119 120/167/120 132/181/132
f 120/167/120 109/395/109 121/183/121
f 121/168/121 122/169/122 134/184/134
f 122/169/122 123/396/123 135/186/135
f 123/170/123 124/171/124 136/187/136
f 124/171/124 125/172/125 137/189/137
f 125/172/125 126/397/126 138/190/138
f 126/173/126 127/175/127 139/191/139
f 128/174/128 140/193/140 139/191/139
f 129/176/129 141/208/141 140/193/140
f 130/177/130 142/210/142 141/194/141
f 131/182/131 143/197/143 142/195/142
f 132/181/132 144/198/144 143/197/143
f 121/183/121 133/214/133 144/198/144
f 133/185/133 134/184/134 146/199/146
f 134/184/134 135/186/135 147/201/147
f 135/188/135 136/187/136 148/202/148
f 136/187/136 137/189/137 149/204/149
f 137/189/137 138/190/138 150/205/150
f 138/192/138 139/191/139 151/206/151
f 140/193/140 152/209/152 151/206/151
f 141/208/141 153/399/153 152/209/152
f 142/210/142 154/227/154 153/211/153
f 143/197/143 155/213/155 154/212/154
f 144/198/144 156/215/156 155/213/155
f 133/214/133 145/400/145 156/215/156
f 146/199/146 158/217/158 157/216/157
f 147/201/147 159/401/159 158/217/158
f 148/202/148 160/219/160 159/218/159
f 149/204/149 161/220/161 160/219/160
f 150/205/150 162/402/162 161/220/161
f 151/206/151 163/223/163 162/221/162
f 151/206/151 152/209/152 164/222/164
f 152/209/152 153/399/153 165/224/165
f 153/211/153 154/227/154 166/225/166
f 154/227/154 155/403/155 167/228/167
f 155/213/155 156/215/156 168/229/168
f 156/215/156 145/400/145 157/231/157
f 157/216/157 158/217/158 170/232/170
f 158/217/158 159/401/159 171/234/171
f 159/218/159 160/219/160 172/235/172
f 160/219/160 161/220/161 173/237/173
f 161/220/161 162/402/162 174/238/174
f 162/221/162 163/223/163 175/239/175
f 164/222/164 176/241/176 175/239/175
f 165/224/165 177/256/177 176/241/176
f 166/225/166 178/258/178 177/242/177
f 167/230/167 179/245/179 178/243/178
f 168/229/168 180/246/180 179/245/179
f 157/231/157 169/262/169 180/246/180
f 169/233/169 170/232/170 182/247/182
f 170/232/170 171/234/171 183/249/183
f 171/236/171 172/235/172 184/250/184
f 172/235/172 173/237/173 185/252/185
f 173/237/173 174/238/174 186/253/186
f 174/240/174 175/239/175 187/254/187
f 176/241/176 188/257/188 187/254/187
f 177/256/177 189/404/189 188/257/188
f 178/258/178 190/277/190 189/259/189
f 179/245/179 191/261/191 190/260/190
f 180/246/180 192/263/192 191/261/191
f 169/262/169 181/405/181 192/263/192
f 182/247/182 194/265/194 193/264/193
f 183/249/183 195/267/195 194/265/194
f 184/266/184 196/406/196 195/267/195
f 185/252/185 197/269/197 196/268/196
f 186/253/186 198/407/198 197/269/197
f 187/254/187 199/272/199 198/270/198
f 187/254/187 188/257/188 200/271/200
f 188/273/188 189/259/189 201/274/201
f 189/259/189 190/277/190 202/276/202
f 190/277/190 191/408/191 203/278/203
f 191/261/191 192/263/192 204/279/204
f 192/263/192 181/405/181 193/281/193
f 193/264/193 194/265/194 206/282/206
f 194/265/194 195/267/195 207/284/207
f 195/285/195 196/268/196 208/286/208
f 196/268/196 197/269/197 209/288/209
f 197/269/197 198/407/198 210/289/210
f 198/270/198 199/272/199 211/290/211
f 200/271/200 212/293/212 211/290/211
f 201/292/201 213/308/213 212/293/212
f 202/276/202 214/310/214 213/294/213
f 203/280/203 215/297/215 214/295/214
f 204/279/204 216/298/216 215/297/215
f 193/281/193 205/314/205 216/298/216
f 205/283/205 206/282/206 218/299/218
f 206/282/206 207/284/207 219/301/219
f 207/287/207 208/286/208 220/302/220
f 208/286/208 209/288/209 221/304/221
f 209/288/209 210/289/210 222/305/222
f 210/291/210 211/290/211 223/306/223
f 212/293/212 224/309/224 223/306/223
f 213/308/213 225/409/225 224/309/224
f 214/310/214 226/329/226 225/311/225
f 215/297/215 227/313/227 226/312/226
f 216/298/216 228/315/228 227/313/227
f 205/314/205 217/410/217 228/315/228
f 218/299/218 230/317/230 229/316/229
f 219/301/219 231/319/231 230/317/230
f 220/318/220 232/336/232 231/319/231
f 221/304/221 233/321/233 232/320/232
f 222/305/222 234/339/234 233/321/233
f 223/306/223 235/324/235 234/322/234
f 223/306/223 224/309/224 236/323/236
f 224/325/224 225/311/225 237/326/237
f 225/311/225 226/329/226 238/328/238
f 226/329/226 227/411/227 239/330/239
f 227/313/227 228/315/228 240/331/240
f 228/315/228 217/410/217 229/333/229
f 230/317/230 242/335/242 241/334/241
f 231/319/231 243/337/243 242/335/242
f 232/336/232 244/412/244 243/337/243
f 233/321/233 245/340/245 244/338/244
f 234/339/234 246/413/246 245/340/245
f 235/324/235 247/343/247 246/341/246
f 235/324/235 236/323/236 248/342/248
f 236/327/236 237/326/237 249/344/249
f 237/326/237 238/328/238 250/346/250
f 238/328/238 239/330/239 251/347/251
f 239/332/239 240/331/240 252/348/252
f 240/331/240 229/333/229 241/350/241
f 241/334/241 242/335/242 254/351/254
f 242/335/242 243/337/243 255/353/255
f 243/337/243 244/412/244 256/354/256
f 244/338/244 245/340/245 257/355/257
f 245/340/245 246/413/246 258/357/258
f 246/341/246 247/343/247 259/358/259
f 248/342/248 260/414/260 259/358/259
f 249/344/249 261/361/261 260/360/260
f 250/346/250 262/362/262 261/361/261
f 251/347/251 263/415/263 262/362/262
f 252/348/252 264/364/264 263/363/263
f 241/350/241 253/416/253 264/364/264
f 61/367/61 72/417/72 71/418/71
f 71/418/71 70/419/70 69/365/69
f 69/365/69 68/420/68 67/421/67
f 67/421/67 66/422/66 65/366/65
f 65/366/65 64/423/64 63/424/63
f 63/424/63 62/425/62 61/367/61
f 61/367/61 71/418/71 69/365/69
f 69/365/69 67/421/67 65/366/65
f 65/366/65 63/424/63 61/367/61
f 264/370/264 253/426/253 254/427/254
f 254/427/254 255/428/255 256/368/256
f 256/368/256 257/429/257 258/430/258
f 258/430/258 259/431/259 260/369/260
f 260/369/260 261/432/261 262/433/262
f 262/433/262 263/434/263 264/370/264
f 264/370/264 254/427/254 256/368/256
f 256/368/256 258/430/258 260/369/260
f 260/369/260 262/433/262 264/370/264
