# Blender 4.3.2
# www.blender.org
o geyser_2
v 0.393841 -0.174271 0.027454
v 0.392421 -0.200000 -0.002313
v 0.398273 -0.174615 -0.029152
v 0.315614 -0.200000 -0.233599
v 0.300145 -0.174338 -0.259230
v 0.336534 -0.174615 -0.215064
v 0.117649 -0.200000 -0.347906
v 0.088412 -0.173834 -0.359908
v 0.145196 -0.174338 -0.348699
v -0.100992 -0.200000 -0.322273
v -0.132168 -0.173674 -0.319343
v -0.077497 -0.173834 -0.340458
v -0.273060 -0.200000 -0.200537
v -0.299515 -0.174000 -0.188028
v -0.257877 -0.173674 -0.230406
v -0.407933 -0.200000 0.001083
v -0.409636 -0.174351 0.026808
v -0.407529 -0.174000 -0.026560
v -0.294911 -0.200000 0.194715
v -0.280117 -0.173994 0.224222
v -0.319978 -0.174351 0.180411
v -0.131077 -0.200000 0.314882
v -0.104410 -0.173702 0.330327
v -0.159435 -0.173994 0.312738
v 0.120388 -0.200000 0.313775
v 0.149305 -0.174019 0.315200
v 0.092332 -0.173702 0.329461
v 0.276726 -0.200000 0.229297
v 0.300775 -0.174271 0.213762
v 0.260265 -0.174019 0.255242
v 0.194921 0.124271 0.025077
v 0.198894 0.124615 -0.031534
v 0.159214 0.150000 -0.005100
v 0.140706 0.124338 -0.142452
v 0.128778 0.150000 -0.096754
v 0.176798 0.124615 -0.098069
v 0.030761 0.123834 -0.185061
v 0.049863 0.150000 -0.142320
v 0.087350 0.124338 -0.173260
v -0.079430 0.123674 -0.157619
v -0.038916 0.150000 -0.131912
v -0.024703 0.123834 -0.178559
v -0.161043 0.124000 -0.086523
v -0.110425 0.150000 -0.081320
v -0.119707 0.123674 -0.129123
v -0.201185 0.124351 0.024430
v -0.163684 0.150000 -0.001704
v -0.199568 0.124000 -0.028933
v -0.130989 0.123994 0.121069
v -0.119754 0.150000 0.073557
v -0.170493 0.124351 0.077011
v -0.038220 0.123702 0.166758
v -0.053181 0.150000 0.122386
v -0.093116 0.123994 0.148848
v 0.089709 0.124019 0.151838
v 0.050401 0.150000 0.121930
v 0.032862 0.123702 0.166445
v 0.160719 0.124271 0.093545
v 0.112529 0.150000 0.088359
v 0.120446 0.124019 0.135229
v 0.000000 0.099690 -0.100000
v -0.049999 0.100078 -0.086603
v -0.086600 0.100445 -0.050002
v -0.099998 0.100693 -0.000002
v -0.086600 0.100755 0.049998
v -0.049999 0.100614 0.086601
v -0.000000 0.100310 0.100000
v 0.049999 0.099922 0.086603
v 0.086600 0.099555 0.050002
v 0.099998 0.099307 0.000002
v 0.086600 0.099245 -0.049998
v 0.049999 0.099386 -0.086601
v 0.001471 0.312407 -0.152964
v -0.074674 0.313588 -0.132563
v -0.130415 0.314706 -0.076818
v -0.150815 0.315460 -0.000667
v -0.130408 0.315648 0.075486
v -0.074663 0.315221 0.131236
v 0.001484 0.314293 0.151644
v 0.077630 0.313112 0.131242
v 0.133370 0.311994 0.075497
v 0.153770 0.311240 -0.000654
v 0.133364 0.311052 -0.076807
v 0.077618 0.311479 -0.132556
v 0.005878 0.524833 -0.153534
v -0.069540 0.527172 -0.133328
v -0.124742 0.529385 -0.078105
v -0.144935 0.530879 -0.002661
v -0.124710 0.531253 0.072788
v -0.069484 0.530407 0.128026
v 0.005943 0.528567 0.148251
v 0.081362 0.526228 0.128045
v 0.136564 0.524015 0.072822
v 0.156757 0.522521 -0.002622
v 0.136531 0.522147 -0.078071
v 0.081306 0.522993 -0.133309
v 0.013211 0.736580 -0.192973
v -0.080227 0.740928 -0.167944
v -0.148605 0.745041 -0.099507
v -0.173601 0.747816 -0.005999
v -0.148517 0.748511 0.087523
v -0.080075 0.746938 0.156001
v 0.013387 0.743520 0.181086
v 0.106826 0.739172 0.156057
v 0.175204 0.735059 0.087620
v 0.200200 0.732284 -0.005887
v 0.175116 0.731590 -0.099410
v 0.106673 0.733162 -0.167888
v 0.023462 0.947872 -0.234211
v -0.088200 0.954800 -0.204310
v -0.169892 0.961352 -0.122496
v -0.199728 0.965774 -0.010690
v -0.169711 0.966880 0.101149
v -0.087885 0.964374 0.183054
v 0.023825 0.958928 0.213079
v 0.135486 0.952000 0.183179
v 0.217179 0.945448 0.101364
v 0.247014 0.941026 -0.010442
v 0.216997 0.939920 -0.122281
v 0.135171 0.942426 -0.204186
v 0.036690 1.160446 -0.220741
v -0.065197 1.168347 -0.193471
v -0.139715 1.175820 -0.118784
v -0.166898 1.180863 -0.016693
v -0.139462 1.182124 0.085448
v -0.064759 1.179266 0.160269
v 0.037196 1.173054 0.187722
v 0.139082 1.165153 0.160452
v 0.213601 1.157680 0.085765
v 0.240784 1.152637 -0.016326
v 0.213348 1.151376 -0.118466
v 0.138644 1.154234 -0.193287
v 0.052775 1.371163 -0.265340
v -0.067619 1.382365 -0.233136
v -0.155641 1.392961 -0.144833
v -0.187705 1.400111 -0.024093
v -0.155219 1.401899 0.096733
v -0.066888 1.397846 0.185270
v 0.053620 1.389038 0.217793
v 0.174014 1.377835 0.185589
v 0.262036 1.367239 0.097287
v 0.294100 1.360090 -0.023454
v 0.261614 1.358302 -0.144280
v 0.173283 1.362355 -0.232817
v 0.071756 1.581447 -0.310812
v -0.066863 1.596494 -0.273761
v -0.168166 1.610726 -0.172027
v -0.205006 1.620328 -0.032868
v -0.167514 1.622729 0.106427
v -0.065735 1.617284 0.208535
v 0.073059 1.605453 0.246096
v 0.211679 1.590406 0.209045
v 0.312981 1.576175 0.107310
v 0.349821 1.566572 -0.031849
v 0.312329 1.564172 -0.171144
v 0.210550 1.569616 -0.273252
v 0.093826 1.794607 -0.290149
v -0.029413 1.809894 -0.257239
v -0.119430 1.824352 -0.166726
v -0.152106 1.834107 -0.042864
v -0.118684 1.836545 0.081159
v -0.028120 1.831014 0.172111
v 0.095320 1.818994 0.205622
v 0.218559 1.803707 0.172711
v 0.308577 1.789248 0.082199
v 0.341252 1.779493 -0.041664
v 0.307830 1.777055 -0.165687
v 0.217266 1.782587 -0.256639
v 0.118609 2.004230 -0.341670
v -0.024450 2.024191 -0.303507
v -0.128886 2.043070 -0.198352
v -0.166715 2.055808 -0.054381
v -0.127800 2.058991 0.089828
v -0.022570 2.051766 0.195635
v 0.120780 2.036071 0.234690
v 0.263839 2.016109 0.196526
v 0.368274 1.997230 0.091371
v 0.406103 1.984493 -0.052599
v 0.367189 1.981310 -0.196808
v 0.261959 1.988534 -0.302616
v 0.146271 2.213520 -0.392147
v -0.015350 2.238574 -0.349083
v -0.133262 2.262269 -0.230178
v -0.175872 2.278255 -0.067291
v -0.131762 2.282249 0.095932
v -0.012752 2.273181 0.215755
v 0.149270 2.253480 0.260072
v 0.310891 2.228426 0.217009
v 0.428803 2.204732 0.098103
v 0.471413 2.188745 -0.064784
v 0.427303 2.184752 -0.228007
v 0.308293 2.193820 -0.347830
v 0.177224 2.427580 -0.366421
v 0.035485 2.451746 -0.328704
v -0.067852 2.474601 -0.224323
v -0.105098 2.490019 -0.081244
v -0.066274 2.493870 0.062193
v 0.038219 2.485123 0.167555
v 0.180381 2.466120 0.206611
v 0.322120 2.441954 0.168894
v 0.425457 2.419100 0.064512
v 0.462703 2.403682 -0.078566
v 0.423878 2.399830 -0.222003
v 0.319386 2.408578 -0.327365
v 0.210644 2.636024 -0.425343
v 0.047594 2.666346 -0.382019
v -0.071192 2.695021 -0.261814
v -0.113885 2.714366 -0.096937
v -0.069046 2.719197 0.068435
v 0.051310 2.708220 0.189989
v 0.214935 2.684376 0.235155
v 0.377985 2.654054 0.191832
v 0.496771 2.625379 0.071627
v 0.539464 2.606034 -0.093251
v 0.494625 2.601203 -0.258622
v 0.374269 2.612180 -0.380176
v 0.246942 2.844336 -0.480865
v 0.065021 2.880980 -0.432605
v -0.067406 2.915633 -0.298333
v -0.114857 2.939011 -0.114027
v -0.064616 2.944848 0.070929
v 0.069855 2.931581 0.206976
v 0.252523 2.902765 0.257659
v 0.434444 2.866120 0.209399
v 0.566871 2.831467 0.075127
v 0.614321 2.808089 -0.109179
v 0.564080 2.802253 -0.294135
v 0.429610 2.815519 -0.430182
v 0.287160 3.062744 -0.413690
v 0.147440 3.093047 -0.376689
v 0.045821 3.121703 -0.273437
v 0.009530 3.141033 -0.131599
v 0.048291 3.145859 0.010819
v 0.151720 3.134887 0.115657
v 0.292101 3.111057 0.154823
v 0.431820 3.080754 0.117823
v 0.533440 3.052098 0.014571
v 0.569731 3.032767 -0.127267
v 0.530969 3.027941 -0.269686
v 0.427541 3.038913 -0.374524
v 0.330322 3.280416 -0.367017
v 0.223221 3.305299 -0.338708
v 0.145396 3.328829 -0.259455
v 0.117702 3.344702 -0.150495
v 0.147558 3.348663 -0.041022
v 0.226965 3.339653 0.039629
v 0.334645 3.320084 0.069849
v 0.441747 3.295201 0.041540
v 0.519571 3.271671 -0.037713
v 0.547266 3.255799 -0.146673
v 0.517410 3.251837 -0.256146
v 0.438003 3.260848 -0.336797
v 0.377002 3.502097 -0.291834
v 0.316879 3.516529 -0.275958
v 0.273212 3.530177 -0.231438
v 0.257701 3.539383 -0.170203
v 0.274503 3.541680 -0.108660
v 0.319115 3.536454 -0.063300
v 0.379584 3.525104 -0.046277
v 0.439707 3.510672 -0.062153
v 0.483374 3.497024 -0.106673
v 0.498884 3.487818 -0.167908
v 0.482083 3.485520 -0.229451
v 0.437471 3.490746 -0.274810
vn 0.9501 0.0671 0.3048
vn 0.6608 -0.7491 0.0469
vn 0.9834 0.0760 -0.1646
vn 0.5066 -0.7570 -0.4126
vn 0.6156 0.0651 -0.7854
vn 0.8923 0.0723 -0.4457
vn 0.1279 -0.7770 -0.6163
vn 0.0079 0.0364 -0.9993
vn 0.3863 0.0502 -0.9210
vn -0.2133 -0.8026 -0.5570
vn -0.4953 0.0145 -0.8686
vn -0.2128 0.0191 -0.9769
vn -0.4104 -0.8199 -0.3991
vn -0.7896 0.0170 -0.6134
vn -0.6337 0.0076 -0.7736
vn -0.7048 -0.7091 -0.0211
vn -0.9511 0.0910 0.2953
vn -0.9307 0.0820 -0.3563
vn -0.4369 -0.8092 0.3929
vn -0.6527 0.0270 0.7571
vn -0.8205 0.0368 0.5705
vn -0.1932 -0.7817 0.5930
vn -0.1204 0.0271 0.9924
vn -0.4850 0.0353 0.8738
vn 0.1482 -0.8021 0.5785
vn 0.3886 0.0262 0.9210
vn 0.0997 0.0172 0.9949
vn 0.4497 -0.7801 0.4350
vn 0.8337 0.0477 0.5502
vn 0.5761 0.0408 0.8163
vn 0.6788 0.7046 0.2068
vn 0.6944 0.7125 -0.1009
vn 0.3097 0.9505 0.0246
vn 0.4449 0.7063 -0.5505
vn 0.2371 0.9516 -0.1957
vn 0.6211 0.7126 -0.3261
vn 0.0132 0.6894 -0.7243
vn 0.0594 0.9506 -0.3048
vn 0.2623 0.7014 -0.6627
vn -0.3554 0.6823 -0.6388
vn -0.1111 0.9515 -0.2868
vn -0.1646 0.6863 -0.7084
vn -0.5632 0.6936 -0.4492
vn -0.2105 0.9553 -0.2077
vn -0.4649 0.6856 -0.5601
vn -0.6778 0.7090 0.1947
vn -0.3230 0.9463 -0.0130
vn -0.6702 0.7003 -0.2457
vn -0.4725 0.6970 0.5395
vn -0.2164 0.9561 0.1977
vn -0.5761 0.7052 0.4132
vn -0.0964 0.6830 0.7240
vn -0.0954 0.9491 0.3001
vn -0.3401 0.6902 0.6387
vn 0.2703 0.6923 0.6691
vn 0.0735 0.9524 0.2960
vn 0.0793 0.6845 0.7246
vn 0.5884 0.7009 0.4032
vn 0.2198 0.9515 0.2152
vn 0.4220 0.6949 0.5823
vn -0.0052 -0.7417 -0.6707
vn -0.3418 -0.7389 -0.5807
vn -0.5884 -0.7362 -0.3343
vn -0.6787 -0.7344 0.0024
vn -0.5885 -0.7339 0.3391
vn -0.3420 -0.7350 0.5855
vn -0.0053 -0.7372 0.6756
vn 0.3313 -0.7400 0.5853
vn 0.5776 -0.7427 0.3388
vn 0.6677 -0.7445 0.0023
vn 0.5775 -0.7449 -0.3341
vn 0.3312 -0.7439 -0.5804
vn -0.0027 -0.1207 -0.9927
vn -0.4993 -0.1126 -0.8591
vn -0.8624 -0.1050 -0.4953
vn -0.9950 -0.0999 0.0011
vn -0.8619 -0.0987 0.4973
vn -0.4988 -0.1016 0.8607
vn -0.0026 -0.1079 0.9942
vn 0.4942 -0.1159 0.8616
vn 0.8582 -0.1235 0.4982
vn 0.9917 -0.1287 0.0012
vn 0.8585 -0.1300 -0.4960
vn 0.4945 -0.1271 -0.8599
vn -0.0038 -0.0942 -0.9955
vn -0.5018 -0.0782 -0.8614
vn -0.8658 -0.0631 -0.4965
vn -0.9986 -0.0531 0.0014
vn -0.8651 -0.0505 0.4991
vn -0.5009 -0.0562 0.8637
vn -0.0033 -0.0687 0.9976
vn 0.4948 -0.0846 0.8649
vn 0.8600 -0.0998 0.5004
vn 0.9939 -0.1101 0.0018
vn 0.8603 -0.1127 -0.4973
vn 0.4949 -0.1068 -0.8624
vn -0.0087 -0.1870 -0.9823
vn -0.5010 -0.1629 -0.8500
vn -0.8608 -0.1402 -0.4892
vn -0.9922 -0.1249 0.0032
vn -0.8600 -0.1210 0.4958
vn -0.4997 -0.1297 0.8564
vn -0.0076 -0.1486 0.9889
vn 0.4847 -0.1726 0.8575
vn 0.8454 -0.1954 0.4970
vn 0.9775 -0.2108 0.0041
vn 0.8452 -0.2147 -0.4893
vn 0.4841 -0.2060 -0.8504
vn -0.0039 -0.0638 -0.9980
vn -0.5025 -0.0326 -0.8639
vn -0.8670 -0.0031 -0.4984
vn -0.9999 0.0169 0.0007
vn -0.8658 0.0219 0.4999
vn -0.5007 0.0105 0.8656
vn -0.0022 -0.0140 0.9999
vn 0.4966 -0.0452 0.8668
vn 0.8619 -0.0747 0.5016
vn 0.9955 -0.0946 0.0020
vn 0.8614 -0.0996 -0.4981
vn 0.4954 -0.0883 -0.8641
vn -0.0056 -0.0730 -0.9973
vn -0.5037 -0.0339 -0.8632
vn -0.8673 0.0029 -0.4978
vn -0.9996 0.0276 0.0009
vn -0.8655 0.0338 0.4997
vn -0.5009 0.0198 0.8653
vn -0.0031 -0.0108 0.9999
vn 0.4952 -0.0497 0.8674
vn 0.8602 -0.0867 0.5026
vn 0.9937 -0.1116 0.0030
vn 0.8595 -0.1179 -0.4974
vn 0.4935 -0.1037 -0.8636
vn -0.0172 -0.2078 -0.9780
vn -0.5077 -0.1606 -0.8464
vn -0.8660 -0.1161 -0.4865
vn -0.9963 -0.0861 0.0053
vn -0.8638 -0.0786 0.4976
vn -0.5042 -0.0956 0.8583
vn -0.0135 -0.1326 0.9911
vn 0.4771 -0.1797 0.8603
vn 0.8361 -0.2243 0.5006
vn 0.9670 -0.2545 0.0084
vn 0.8346 -0.2620 -0.4846
vn 0.4742 -0.2449 -0.8457
vn -0.0045 -0.0575 -0.9983
vn -0.5017 -0.0034 -0.8650
vn -0.8648 0.0478 -0.4999
vn -0.9966 0.0823 -0.0010
vn -0.8621 0.0909 0.4985
vn -0.4973 0.0714 0.8646
vn 0.0002 0.0289 0.9996
vn 0.4975 -0.0252 0.8671
vn 0.8613 -0.0764 0.5023
vn 0.9938 -0.1110 0.0029
vn 0.8592 -0.1197 -0.4974
vn 0.4937 -0.1000 -0.8639
vn -0.0072 -0.0718 -0.9974
vn -0.5034 -0.0100 -0.8640
vn -0.8652 0.0484 -0.4991
vn -0.9962 0.0877 -0.0008
vn -0.8616 0.0975 0.4982
vn -0.4975 0.0752 0.8642
vn -0.0010 0.0268 0.9996
vn 0.4954 -0.0350 0.8679
vn 0.8588 -0.0935 0.5038
vn 0.9911 -0.1330 0.0044
vn 0.8563 -0.1429 -0.4963
vn 0.4907 -0.1205 -0.8630
vn -0.0272 -0.2331 -0.9721
vn -0.5145 -0.1633 -0.8418
vn -0.8700 -0.0973 -0.4834
vn -0.9986 -0.0528 0.0070
vn -0.8659 -0.0417 0.4985
vn -0.5075 -0.0669 0.8590
vn -0.0194 -0.1217 0.9924
vn 0.4680 -0.1915 0.8627
vn 0.8241 -0.2576 0.5046
vn 0.9531 -0.3023 0.0137
vn 0.8204 -0.3134 -0.4783
vn 0.4614 -0.2881 -0.8391
vn -0.0049 -0.0581 -0.9983
vn -0.4994 0.0186 -0.8662
vn -0.8600 0.0910 -0.5021
vn -0.9902 0.1399 -0.0039
vn -0.8551 0.1521 0.4956
vn -0.4912 0.1244 0.8621
vn 0.0044 0.0642 0.9979
vn 0.4991 -0.0125 0.8665
vn 0.8603 -0.0850 0.5027
vn 0.9910 -0.1340 0.0041
vn 0.8559 -0.1462 -0.4961
vn 0.4913 -0.1184 -0.8629
vn -0.0087 -0.0767 -0.9970
vn -0.5021 0.0076 -0.8648
vn -0.8610 0.0872 -0.5010
vn -0.9900 0.1407 -0.0035
vn -0.8549 0.1541 0.4954
vn -0.4918 0.1237 0.8619
vn 0.0024 0.0577 0.9983
vn 0.4960 -0.0265 0.8679
vn 0.8566 -0.1063 0.5049
vn 0.9871 -0.1602 0.0063
vn 0.8517 -0.1736 -0.4944
vn 0.4870 -0.1431 -0.8616
vn -0.0386 -0.2583 -0.9653
vn -0.5217 -0.1663 -0.8368
vn -0.8735 -0.0793 -0.4803
vn -0.9998 -0.0207 0.0083
vn -0.8667 -0.0061 0.4989
vn -0.5100 -0.0393 0.8593
vn -0.0252 -0.1116 0.9934
vn 0.4580 -0.2035 0.8653
vn 0.8102 -0.2906 0.5091
vn 0.9368 -0.3494 0.0201
vn 0.8037 -0.3641 -0.4707
vn 0.4466 -0.3307 -0.8314
vn 0.0086 0.0132 -0.9999
vn -0.4805 0.1110 -0.8700
vn -0.8364 0.2033 -0.5090
vn -0.9640 0.2656 -0.0138
vn -0.8289 0.2812 0.4836
vn -0.4675 0.2458 0.8491
vn 0.0235 0.1690 0.9853
vn 0.5126 0.0714 0.8557
vn 0.8687 -0.0211 0.4948
vn 0.9965 -0.0835 -0.0006
vn 0.8614 -0.0992 -0.4981
vn 0.4997 -0.0637 -0.8638
vn 0.0532 0.2442 -0.9683
vn -0.4098 0.3415 -0.8458
vn -0.7470 0.4336 -0.5040
vn -0.8677 0.4959 -0.0342
vn -0.7394 0.5115 0.4378
vn -0.3965 0.4761 0.7850
vn 0.0688 0.3993 0.9142
vn 0.5318 0.3020 0.7912
vn 0.8684 0.2101 0.4491
vn 0.9888 0.1482 -0.0204
vn 0.8605 0.1327 -0.4918
vn 0.5181 0.1678 -0.8387
vn 0.0591 0.2504 -0.9663
vn -0.4001 0.3551 -0.8449
vn -0.7337 0.4543 -0.5052
vn -0.8525 0.5213 -0.0384
vn -0.7246 0.5381 0.4306
vn -0.3844 0.4999 0.7761
vn 0.0771 0.4174 0.9055
vn 0.5363 0.3126 0.7840
vn 0.8700 0.2136 0.4444
vn 0.9889 0.1470 -0.0225
vn 0.8610 0.1304 -0.4916
vn 0.5207 0.1682 -0.8370
vn 0.1600 0.7194 -0.6760
vn -0.1349 0.7897 -0.5985
vn -0.3495 0.8563 -0.3803
vn -0.4260 0.9012 -0.0798
vn -0.3436 0.9124 0.2223
vn -0.1244 0.8869 0.4448
vn 0.1725 0.8315 0.5280
vn 0.4673 0.7611 0.4498
vn 0.6812 0.6946 0.2313
vn 0.7570 0.6498 -0.0688
vn 0.6747 0.6386 -0.3701
vn 0.4563 0.6640 -0.5923
vt 0.096402 0.409638
vt 0.216313 0.416899
vt 0.192614 0.491013
vt 0.073554 0.055289
vt 0.086710 0.004701
vt 0.102857 0.055612
vt 0.063350 0.055293
vt 0.058708 0.004797
vt 0.066707 0.004652
vt 0.525705 0.521273
vt 0.578341 0.489948
vt 0.578466 0.498304
vt 0.525358 0.458827
vt 0.578365 0.480850
vt 0.525255 0.488764
vt 0.525698 0.429725
vt 0.578398 0.461467
vt 0.525483 0.449721
vt 0.711118 0.046075
vt 0.658116 0.030580
vt 0.710955 0.012361
vt 0.711179 0.056426
vt 0.658100 0.059062
vt 0.658123 0.053105
vt 0.551199 0.107655
vt 0.516583 0.136156
vt 0.504225 0.109512
vt 0.635687 0.779520
vt 0.659464 0.729153
vt 0.670096 0.778183
vt 0.558857 0.050432
vt 0.533746 0.080812
vt 0.530086 0.038164
vt 0.679576 0.778117
vt 0.674574 0.782697
vt 0.631767 0.784360
vt 0.626581 0.780164
vt 0.107420 0.060418
vt 0.112220 0.055979
vt 0.068803 0.059992
vt 0.034630 0.060612
vt 0.029633 0.056074
vt 0.038384 0.055745
vt 0.520756 0.493117
vt 0.525356 0.497844
vt 0.520886 0.455378
vt 0.715520 0.008441
vt 0.710907 0.003679
vt 0.715729 0.051533
vt 0.715608 0.081836
vt 0.711048 0.086606
vt 0.711094 0.077933
vt 0.504342 0.090720
vt 0.511970 0.084273
vt 0.512648 0.093261
vt 0.528814 0.087948
vt 0.523706 0.080416
vt 0.551192 0.091679
vt 0.543468 0.094196
vt 0.543653 0.085036
vt 0.558724 0.109894
vt 0.556022 0.100088
vt 0.557101 0.128691
vt 0.551435 0.122896
vt 0.558857 0.118479
vt 0.545521 0.145863
vt 0.545658 0.138620
vt 0.552923 0.140065
vt 0.524518 0.146145
vt 0.530419 0.140344
vt 0.534874 0.147068
vt 0.508407 0.137971
vt 0.516647 0.143763
vt 0.497259 0.118593
vt 0.505903 0.121671
vt 0.501078 0.128031
vt 0.498171 0.102625
vt 0.496429 0.112578
vt 0.668968 0.729200
vt 0.647149 0.729631
vt 0.135578 0.057292
vt 0.137263 0.062095
vt 0.096019 0.004896
vt 0.076914 0.004593
vt 0.050002 0.005014
vt 0.003889 0.062095
vt 0.578400 0.470602
vt 0.521178 0.428233
vt 0.657965 0.021934
vt 0.657965 0.067703
vt 0.709192 0.784360
vt 0.707423 0.779455
vt 0.462884 0.087392
vt 0.063245 0.100140
vt 0.087141 0.131656
vt 0.057832 0.107469
vt 0.067600 0.093827
vt 0.095469 0.120556
vt 0.008783 0.158193
vt 0.025950 0.194700
vt 0.003209 0.164004
vt 0.015116 0.151635
vt 0.034487 0.185896
vt 0.052337 0.167441
vt 0.044146 0.175919
vt 0.136043 0.019308
vt 0.164689 0.044139
vt 0.155517 0.052158
vt 0.142100 0.014084
vt 0.175223 0.035085
vt 0.149061 0.008191
vt 0.184299 0.027422
vt 0.650535 0.607361
vt 0.644090 0.569056
vt 0.656221 0.569333
vt 0.642570 0.607136
vt 0.630201 0.569361
vt 0.625619 0.607879
vt 0.633450 0.607326
vt 0.079429 0.141327
vt 0.052811 0.113851
vt 0.116850 0.154348
vt 0.102181 0.110999
vt 0.125265 0.143475
vt 0.053220 0.220941
vt 0.061773 0.212309
vt 0.071366 0.202447
vt 0.180597 0.080623
vt 0.189577 0.072556
vt 0.199880 0.063430
vt 0.655218 0.532080
vt 0.643202 0.531937
vt 0.618273 0.570167
vt 0.629441 0.532272
vt 0.109080 0.163831
vt 0.156239 0.165439
vt 0.145609 0.178759
vt 0.164863 0.153999
vt 0.088083 0.240010
vt 0.077363 0.250596
vt 0.079428 0.193996
vt 0.100004 0.227812
vt 0.202699 0.111773
vt 0.213698 0.101624
vt 0.208744 0.055690
vt 0.226298 0.090121
vt 0.658731 0.494422
vt 0.643839 0.494407
vt 0.612128 0.495669
vt 0.626781 0.494864
vt 0.135819 0.190391
vt 0.186925 0.187852
vt 0.173975 0.203590
vt 0.197461 0.174353
vt 0.114437 0.267934
vt 0.101477 0.280458
vt 0.109931 0.217272
vt 0.128727 0.253381
vt 0.225300 0.142717
vt 0.238290 0.130403
vt 0.237124 0.080348
vt 0.253152 0.116423
vt 0.662209 0.456822
vt 0.644404 0.456999
vt 0.606479 0.458447
vt 0.624005 0.457594
vt 0.162082 0.217350
vt 0.202993 0.227012
vt 0.215033 0.212816
vt 0.130030 0.305390
vt 0.141992 0.294075
vt 0.140520 0.240698
vt 0.155076 0.280814
vt 0.265079 0.157278
vt 0.253365 0.168683
vt 0.278461 0.144308
vt 0.289925 0.133250
vt 0.642448 0.419973
vt 0.658705 0.419634
vt 0.623819 0.420560
vt 0.191962 0.239439
vt 0.245119 0.236127
vt 0.230627 0.252707
vt 0.256976 0.221943
vt 0.168343 0.322349
vt 0.154042 0.335588
vt 0.165776 0.269160
vt 0.183859 0.306697
vt 0.276908 0.199105
vt 0.290586 0.185428
vt 0.306188 0.169850
vt 0.662084 0.382070
vt 0.642858 0.382680
vt 0.601875 0.384112
vt 0.620820 0.383428
vt 0.217382 0.267241
vt 0.274879 0.259921
vt 0.257888 0.278787
vt 0.288815 0.243806
vt 0.194756 0.350817
vt 0.178097 0.365912
vt 0.196433 0.292827
vt 0.212688 0.332813
vt 0.301037 0.229239
vt 0.316597 0.213260
vt 0.319532 0.156547
vt 0.334317 0.195035
vt 0.665317 0.344572
vt 0.643157 0.345517
vt 0.595903 0.347091
vt 0.617750 0.346439
vt 0.242395 0.295348
vt 0.286177 0.303231
vt 0.301553 0.286658
vt 0.207273 0.390042
vt 0.222258 0.376750
vt 0.251001 0.346345
vt 0.238263 0.360756
vt 0.345000 0.238705
vt 0.331334 0.253116
vt 0.360537 0.222244
vt 0.373782 0.208144
vt 0.640425 0.308296
vt 0.660150 0.307241
vt 0.617803 0.309170
vt 0.272187 0.317801
vt 0.330822 0.311252
vt 0.312658 0.330259
vt 0.345791 0.295065
vt 0.248612 0.405667
vt 0.231013 0.420950
vt 0.267269 0.387111
vt 0.356179 0.282949
vt 0.371848 0.265982
vt 0.389632 0.246575
vt 0.663618 0.269764
vt 0.640689 0.271238
vt 0.591750 0.272711
vt 0.614383 0.272316
vt 0.296167 0.346993
vt 0.359685 0.336400
vt 0.338810 0.357611
vt 0.376926 0.318365
vt 0.275056 0.434700
vt 0.254939 0.451803
vt 0.281983 0.370253
vt 0.296223 0.413744
vt 0.381773 0.312318
vt 0.399256 0.292880
vt 0.404766 0.229928
vt 0.419064 0.270617
vt 0.666706 0.232355
vt 0.640761 0.234302
vt 0.585358 0.235881
vt 0.610985 0.235592
vt 0.319894 0.376315
vt 0.366380 0.383192
vt 0.384998 0.364820
vt 0.284504 0.475255
vt 0.302354 0.460395
vt 0.335448 0.425050
vt 0.321001 0.442019
vt 0.429159 0.316908
vt 0.414019 0.334192
vt 0.446281 0.297089
vt 0.460796 0.280044
vt 0.637338 0.196726
vt 0.660132 0.194771
vt 0.611171 0.197921
vt 0.349542 0.399419
vt 0.413471 0.390682
vt 0.391696 0.411552
vt 0.431528 0.372997
vt 0.328720 0.489996
vt 0.307942 0.506933
vt 0.350270 0.468855
vt 0.440153 0.363484
vt 0.457350 0.343330
vt 0.476758 0.320191
vt 0.663754 0.157397
vt 0.637483 0.159930
vt 0.581324 0.161352
vt 0.607311 0.161378
vt 0.372039 0.430016
vt 0.441438 0.417182
vt 0.416745 0.440173
vt 0.461954 0.397736
vt 0.355185 0.519595
vt 0.331729 0.538321
vt 0.366818 0.449176
vt 0.379345 0.496001
vt 0.467217 0.392078
vt 0.486158 0.369286
vt 0.493179 0.300267
vt 0.507493 0.343090
vt 0.666706 0.120074
vt 0.637333 0.123217
vt 0.574507 0.124709
vt 0.603586 0.124914
vt 0.394491 0.460548
vt 0.444564 0.466004
vt 0.463834 0.448573
vt 0.364155 0.557351
vt 0.382383 0.543097
vt 0.415102 0.507822
vt 0.401031 0.524968
vt 0.518364 0.390582
vt 0.504005 0.408320
vt 0.534503 0.370172
vt 0.548100 0.352560
vt 0.631599 0.084528
vt 0.654209 0.081869
vt 0.605611 0.085893
vt 0.427225 0.481480
vt 0.471683 0.492896
vt 0.479874 0.433858
vt 0.486689 0.479708
vt 0.395022 0.578234
vt 0.409160 0.567404
vt 0.434275 0.540242
vt 0.423527 0.553498
vt 0.550432 0.412088
vt 0.539569 0.425864
vt 0.562615 0.396221
vt 0.572855 0.382514
vt 0.626597 0.045756
vt 0.643971 0.043532
vt 0.606619 0.046851
vt 0.583209 0.085601
vt 0.458203 0.504627
vt 0.507902 0.512317
vt 0.499413 0.519671
vt 0.514986 0.506127
vt 0.435628 0.589852
vt 0.427645 0.595905
vt 0.443715 0.582043
vt 0.577366 0.439808
vt 0.583423 0.432024
vt 0.590210 0.423054
vt 0.629903 0.004538
vt 0.620137 0.005839
vt 0.599218 0.006254
vt 0.608906 0.006467
vt 0.491792 0.526219
vt 0.207187 0.003538
vt 0.228772 0.025122
vt 0.199287 0.033023
vt 0.183942 0.099254
vt 0.174223 0.135621
vt 0.147671 0.109023
vt 0.147350 0.496762
vt 0.119656 0.482139
vt 0.094853 0.445412
vt 0.113691 0.374108
vt 0.156441 0.374108
vt 0.191134 0.387384
vt 0.218967 0.457099
vt 0.578466 0.455192
vt 0.658175 0.042761
vt 0.638022 0.730368
vt 0.005014 0.057262
vt 0.479675 0.054996
vt 0.020512 0.146086
vt 0.155062 0.003209
vt 0.132069 0.134125
vt 0.617622 0.532996
vt 0.265903 0.104524
vt 0.224857 0.200655
vt 0.607808 0.421239
vt 0.227089 0.316725
vt 0.349448 0.179446
vt 0.314196 0.272522
vt 0.598345 0.309630
vt 0.312770 0.394549
vt 0.435888 0.251496
vt 0.400407 0.349225
vt 0.588640 0.198036
vt 0.397735 0.473862
vt 0.525505 0.320509
vt 0.499200 0.468597
vt 0.589390 0.046523
vt 0.449738 0.574569
vt 0.595907 0.415302
vt 0.194726 0.025122
vt 0.194726 0.015999
vt 0.199287 0.008099
vt 0.216310 0.003538
vt 0.224210 0.008099
vt 0.228772 0.015999
vt 0.224210 0.033023
vt 0.216310 0.037584
vt 0.207187 0.037584
vt 0.153282 0.099277
vt 0.163001 0.093645
vt 0.174223 0.093636
vt 0.189554 0.108992
vt 0.189554 0.120242
vt 0.183942 0.129989
vt 0.163001 0.135629
vt 0.153282 0.130011
vt 0.147671 0.120273
s 1
f 19/1/19 7/2/7 2/3/2
f 12/4/12 37/5/37 8/6/8
f 11/7/11 45/8/45 40/9/40
f 14/10/14 48/11/48 43/12/43
f 21/13/21 46/14/46 17/15/17
f 24/16/24 49/17/49 20/18/20
f 27/19/27 52/20/52 23/21/23
f 26/22/26 60/23/60 55/24/55
f 41/25/41 53/26/53 59/27/59
f 6/28/6 32/29/32 3/30/3
f 9/31/9 34/32/34 5/33/5
f 1/34/1 2/35/2 3/30/3
f 4/36/4 5/37/5 6/28/6
f 7/38/7 8/6/8 9/39/9
f 10/40/10 11/7/11 12/4/12
f 13/41/13 14/42/14 15/43/15
f 16/44/16 17/15/17 18/45/18
f 19/46/19 20/18/20 21/13/21
f 22/47/22 23/21/23 24/48/24
f 25/49/25 26/22/26 27/19/27
f 28/50/28 29/51/29 30/52/30
f 31/53/31 32/54/32 33/55/33
f 34/32/34 35/56/35 36/57/36
f 37/58/37 38/59/38 39/60/39
f 40/61/40 41/25/41 42/62/42
f 43/63/43 44/64/44 45/65/45
f 46/66/46 47/67/47 48/68/48
f 49/69/49 50/70/50 51/71/51
f 52/72/52 53/26/53 54/73/54
f 55/74/55 56/75/56 57/76/57
f 58/77/58 59/27/59 60/78/60
f 1/34/1 32/29/32 31/79/31
f 2/35/2 6/28/6 3/30/3
f 5/37/5 36/80/36 6/28/6
f 33/55/33 36/57/36 35/56/35
f 7/38/7 5/81/5 4/82/4
f 8/6/8 39/83/39 9/39/9
f 35/56/35 39/60/39 38/59/38
f 10/40/10 8/6/8 7/38/7
f 11/7/11 42/84/42 12/4/12
f 38/59/38 42/62/42 41/25/41
f 10/40/10 15/43/15 11/7/11
f 43/85/43 15/43/15 14/42/14
f 41/25/41 45/65/45 44/64/44
f 16/86/16 14/42/14 13/41/13
f 46/14/46 18/45/18 17/15/17
f 47/67/47 43/63/43 48/68/48
f 16/44/16 21/13/21 17/15/17
f 20/18/20 51/87/51 21/13/21
f 47/67/47 51/71/51 50/70/50
f 22/88/22 20/18/20 19/46/19
f 23/21/23 54/89/54 24/48/24
f 53/26/53 49/69/49 54/73/54
f 22/47/22 27/19/27 23/21/23
f 55/24/55 27/19/27 26/22/26
f 53/26/53 57/76/57 56/75/56
f 25/49/25 30/52/30 26/22/26
f 58/90/58 30/52/30 29/51/29
f 59/27/59 55/74/55 60/78/60
f 28/91/28 1/34/1 29/92/29
f 33/55/33 58/77/58 31/53/31
f 29/93/29 31/53/31 58/77/58
f 62/94/62 73/95/73 61/96/61
f 63/97/63 74/98/74 62/94/62
f 64/99/64 75/100/75 63/101/63
f 65/102/65 76/103/76 64/99/64
f 65/102/65 78/104/78 77/105/77
f 66/106/66 79/107/79 78/108/78
f 67/109/67 80/110/80 79/107/79
f 68/111/68 81/112/81 80/110/80
f 69/113/69 82/114/82 81/115/81
f 70/116/70 83/117/83 82/114/82
f 72/118/72 83/117/83 71/119/71
f 61/96/61 84/120/84 72/121/72
f 74/98/74 85/122/85 73/95/73
f 75/123/75 86/124/86 74/98/74
f 76/103/76 87/125/87 75/100/75
f 77/105/77 88/126/88 76/103/76
f 78/104/78 89/127/89 77/105/77
f 79/107/79 90/128/90 78/108/78
f 80/110/80 91/129/91 79/107/79
f 81/112/81 92/130/92 80/110/80
f 82/114/82 93/131/93 81/115/81
f 83/117/83 94/132/94 82/114/82
f 84/133/84 95/134/95 83/117/83
f 73/95/73 96/135/96 84/120/84
f 85/122/85 98/136/98 97/137/97
f 86/124/86 99/138/99 98/136/98
f 87/125/87 100/139/100 99/140/99
f 89/127/89 100/139/100 88/126/88
f 90/141/90 101/142/101 89/127/89
f 91/129/91 102/143/102 90/128/90
f 92/130/92 103/144/103 91/129/91
f 93/145/93 104/146/104 92/130/92
f 94/132/94 105/147/105 93/131/93
f 95/134/95 106/148/106 94/132/94
f 95/134/95 108/149/108 107/150/107
f 96/135/96 97/137/97 108/151/108
f 97/137/97 110/152/110 109/153/109
f 98/136/98 111/154/111 110/152/110
f 99/140/99 112/155/112 111/156/111
f 101/142/101 112/155/112 100/139/100
f 102/157/102 113/158/113 101/142/101
f 103/144/103 114/159/114 102/143/102
f 104/146/104 115/160/115 103/144/103
f 105/161/105 116/162/116 104/146/104
f 106/148/106 117/163/117 105/147/105
f 107/150/107 118/164/118 106/148/106
f 107/150/107 120/165/120 119/166/119
f 108/151/108 109/153/109 120/167/120
f 110/152/110 121/168/121 109/153/109
f 111/154/111 122/169/122 110/152/110
f 112/155/112 123/170/123 111/156/111
f 113/158/113 124/171/124 112/155/112
f 114/172/114 125/173/125 113/158/113
f 114/159/114 127/174/127 126/175/126
f 115/160/115 128/176/128 127/174/127
f 116/162/116 129/177/129 128/176/128
f 117/163/117 130/178/130 129/179/129
f 119/166/119 130/178/130 118/164/118
f 120/165/120 131/180/131 119/166/119
f 109/153/109 132/181/132 120/167/120
f 121/168/121 134/182/134 133/183/133
f 122/169/122 135/184/135 134/182/134
f 123/170/123 136/185/136 135/186/135
f 125/173/125 136/185/136 124/171/124
f 126/187/126 137/188/137 125/173/125
f 127/174/127 138/189/138 126/175/126
f 128/176/128 139/190/139 127/174/127
f 129/177/129 140/191/140 128/176/128
f 130/178/130 141/192/141 129/179/129
f 131/180/131 142/193/142 130/178/130
f 131/180/131 144/194/144 143/195/143
f 132/181/132 133/183/133 144/196/144
f 133/183/133 146/197/146 145/198/145
f 134/182/134 147/199/147 146/197/146
f 135/186/135 148/200/148 147/201/147
f 137/188/137 148/200/148 136/185/136
f 138/202/138 149/203/149 137/188/137
f 139/190/139 150/204/150 138/189/138
f 140/191/140 151/205/151 139/190/139
f 141/206/141 152/207/152 140/191/140
f 142/193/142 153/208/153 141/192/141
f 143/195/143 154/209/154 142/193/142
f 143/195/143 156/210/156 155/211/155
f 144/196/144 145/198/145 156/212/156
f 146/197/146 157/213/157 145/198/145
f 147/199/147 158/214/158 146/197/146
f 148/200/148 159/215/159 147/201/147
f 149/203/149 160/216/160 148/200/148
f 149/203/149 162/217/162 161/218/161
f 150/204/150 163/219/163 162/220/162
f 151/205/151 164/221/164 163/219/163
f 152/207/152 165/222/165 164/221/164
f 153/208/153 166/223/166 165/224/165
f 155/211/155 166/223/166 154/209/154
f 156/210/156 167/225/167 155/211/155
f 145/198/145 168/226/168 156/212/156
f 157/213/157 170/227/170 169/228/169
f 158/214/158 171/229/171 170/227/170
f 159/215/159 172/230/172 171/231/171
f 161/218/161 172/230/172 160/216/160
f 162/217/162 173/232/173 161/218/161
f 163/219/163 174/233/174 162/220/162
f 164/221/164 175/234/175 163/219/163
f 165/222/165 176/235/176 164/221/164
f 166/223/166 177/236/177 165/224/165
f 167/225/167 178/237/178 166/223/166
f 167/225/167 180/238/180 179/239/179
f 168/226/168 169/228/169 180/240/180
f 169/228/169 182/241/182 181/242/181
f 170/227/170 183/243/183 182/241/182
f 171/231/171 184/244/184 183/245/183
f 173/232/173 184/244/184 172/230/172
f 174/246/174 185/247/185 173/232/173
f 175/234/175 186/248/186 174/233/174
f 176/235/176 187/249/187 175/234/175
f 177/250/177 188/251/188 176/235/176
f 178/237/178 189/252/189 177/236/177
f 179/239/179 190/253/190 178/237/178
f 179/239/179 192/254/192 191/255/191
f 180/240/180 181/242/181 192/256/192
f 182/241/182 193/257/193 181/242/181
f 183/243/183 194/258/194 182/241/182
f 184/244/184 195/259/195 183/245/183
f 185/247/185 196/260/196 184/244/184
f 185/247/185 198/261/198 197/262/197
f 186/248/186 199/263/199 198/264/198
f 187/249/187 200/265/200 199/263/199
f 188/251/188 201/266/201 200/265/200
f 189/252/189 202/267/202 201/268/201
f 191/255/191 202/267/202 190/253/190
f 192/254/192 203/269/203 191/255/191
f 181/242/181 204/270/204 192/256/192
f 193/257/193 206/271/206 205/272/205
f 194/258/194 207/273/207 206/271/206
f 195/259/195 208/274/208 207/275/207
f 197/262/197 208/274/208 196/260/196
f 198/261/198 209/276/209 197/262/197
f 199/263/199 210/277/210 198/264/198
f 200/265/200 211/278/211 199/263/199
f 201/266/201 212/279/212 200/265/200
f 202/267/202 213/280/213 201/268/201
f 203/269/203 214/281/214 202/267/202
f 203/269/203 216/282/216 215/283/215
f 204/270/204 205/272/205 216/284/216
f 205/272/205 218/285/218 217/286/217
f 206/271/206 219/287/219 218/285/218
f 207/275/207 220/288/220 219/289/219
f 209/276/209 220/288/220 208/274/208
f 210/290/210 221/291/221 209/276/209
f 211/278/211 222/292/222 210/277/210
f 212/279/212 223/293/223 211/278/211
f 213/294/213 224/295/224 212/279/212
f 214/281/214 225/296/225 213/280/213
f 215/283/215 226/297/226 214/281/214
f 215/283/215 228/298/228 227/299/227
f 216/284/216 217/286/217 228/300/228
f 218/285/218 229/301/229 217/286/217
f 219/287/219 230/302/230 218/285/218
f 220/288/220 231/303/231 219/289/219
f 221/291/221 232/304/232 220/288/220
f 221/291/221 234/305/234 233/306/233
f 222/292/222 235/307/235 234/308/234
f 223/293/223 236/309/236 235/307/235
f 224/295/224 237/310/237 236/309/236
f 225/296/225 238/311/238 237/312/237
f 226/297/226 239/313/239 238/311/238
f 228/298/228 239/313/239 227/299/227
f 217/286/217 240/314/240 228/300/228
f 230/302/230 241/315/241 229/301/229
f 231/316/231 242/317/242 230/302/230
f 232/304/232 243/318/243 231/303/231
f 233/306/233 244/319/244 232/304/232
f 233/306/233 246/320/246 245/321/245
f 234/308/234 247/322/247 246/323/246
f 235/307/235 248/324/248 247/322/247
f 236/309/236 249/325/249 248/324/248
f 237/312/237 250/326/250 249/327/249
f 238/311/238 251/328/251 250/326/250
f 240/329/240 251/328/251 239/313/239
f 229/301/229 252/330/252 240/314/240
f 241/315/241 254/331/254 253/332/253
f 242/317/242 255/333/255 254/331/254
f 243/318/243 256/334/256 255/335/255
f 244/319/244 257/336/257 256/334/256
f 246/320/246 257/336/257 245/321/245
f 247/322/247 258/337/258 246/323/246
f 248/324/248 259/338/259 247/322/247
f 249/325/249 260/339/260 248/324/248
f 250/326/250 261/340/261 249/327/249
f 251/328/251 262/341/262 250/326/250
f 251/328/251 264/342/264 263/343/263
f 252/330/252 253/332/253 264/344/264
f 69/345/69 65/346/65 61/347/61
f 256/348/256 260/349/260 264/350/264
f 2/3/2 28/351/28 25/352/25
f 25/352/25 22/353/22 19/1/19
f 19/1/19 16/354/16 13/355/13
f 13/355/13 10/356/10 7/2/7
f 7/2/7 4/357/4 2/3/2
f 2/3/2 25/352/25 19/1/19
f 19/1/19 13/355/13 7/2/7
f 12/4/12 42/84/42 37/5/37
f 11/7/11 15/43/15 45/8/45
f 14/10/14 18/45/18 48/11/48
f 21/13/21 51/87/51 46/14/46
f 24/16/24 54/358/54 49/17/49
f 27/19/27 57/359/57 52/20/52
f 26/22/26 30/52/30 60/23/60
f 59/27/59 33/55/33 35/56/35
f 35/56/35 38/59/38 41/25/41
f 41/25/41 44/64/44 47/67/47
f 47/67/47 50/70/50 53/26/53
f 53/26/53 56/75/56 59/27/59
f 59/27/59 35/56/35 41/25/41
f 41/25/41 47/67/47 53/26/53
f 6/28/6 36/80/36 32/29/32
f 9/31/9 39/60/39 34/32/34
f 1/34/1 3/30/3 32/29/32
f 2/35/2 4/36/4 6/28/6
f 5/37/5 34/360/34 36/80/36
f 33/55/33 32/54/32 36/57/36
f 7/38/7 9/39/9 5/81/5
f 8/6/8 37/5/37 39/83/39
f 35/56/35 34/32/34 39/60/39
f 10/40/10 12/4/12 8/6/8
f 11/7/11 40/9/40 42/84/42
f 38/59/38 37/58/37 42/62/42
f 10/40/10 13/41/13 15/43/15
f 43/85/43 45/8/45 15/43/15
f 41/25/41 40/61/40 45/65/45
f 16/86/16 18/361/18 14/42/14
f 46/14/46 48/11/48 18/45/18
f 47/67/47 44/64/44 43/63/43
f 16/44/16 19/46/19 21/13/21
f 20/18/20 49/17/49 51/87/51
f 47/67/47 46/66/46 51/71/51
f 22/88/22 24/16/24 20/18/20
f 23/21/23 52/20/52 54/89/54
f 53/26/53 50/70/50 49/69/49
f 22/47/22 25/49/25 27/19/27
f 55/24/55 57/359/57 27/19/27
f 53/26/53 52/72/52 57/76/57
f 25/49/25 28/50/28 30/52/30
f 58/90/58 60/23/60 30/52/30
f 59/27/59 56/75/56 55/74/55
f 28/91/28 2/35/2 1/34/1
f 33/55/33 59/27/59 58/77/58
f 29/93/29 1/362/1 31/53/31
f 62/94/62 74/98/74 73/95/73
f 63/97/63 75/123/75 74/98/74
f 64/99/64 76/103/76 75/100/75
f 65/102/65 77/105/77 76/103/76
f 65/102/65 66/363/66 78/104/78
f 66/106/66 67/109/67 79/107/79
f 67/109/67 68/111/68 80/110/80
f 68/111/68 69/364/69 81/112/81
f 69/113/69 70/116/70 82/114/82
f 70/116/70 71/119/71 83/117/83
f 72/118/72 84/133/84 83/117/83
f 61/96/61 73/95/73 84/120/84
f 74/98/74 86/124/86 85/122/85
f 75/123/75 87/365/87 86/124/86
f 76/103/76 88/126/88 87/125/87
f 77/105/77 89/127/89 88/126/88
f 78/104/78 90/141/90 89/127/89
f 79/107/79 91/129/91 90/128/90
f 80/110/80 92/130/92 91/129/91
f 81/112/81 93/145/93 92/130/92
f 82/114/82 94/132/94 93/131/93
f 83/117/83 95/134/95 94/132/94
f 84/133/84 96/366/96 95/134/95
f 73/95/73 85/122/85 96/135/96
f 85/122/85 86/124/86 98/136/98
f 86/124/86 87/365/87 99/138/99
f 87/125/87 88/126/88 100/139/100
f 89/127/89 101/142/101 100/139/100
f 90/141/90 102/157/102 101/142/101
f 91/129/91 103/144/103 102/143/102
f 92/130/92 104/146/104 103/144/103
f 93/145/93 105/161/105 104/146/104
f 94/132/94 106/148/106 105/147/105
f 95/134/95 107/150/107 106/148/106
f 95/134/95 96/366/96 108/149/108
f 96/135/96 85/122/85 97/137/97
f 97/137/97 98/136/98 110/152/110
f 98/136/98 99/138/99 111/154/111
f 99/140/99 100/139/100 112/155/112
f 101/142/101 113/158/113 112/155/112
f 102/157/102 114/172/114 113/158/113
f 103/144/103 115/160/115 114/159/114
f 104/146/104 116/162/116 115/160/115
f 105/161/105 117/367/117 116/162/116
f 106/148/106 118/164/118 117/163/117
f 107/150/107 119/166/119 118/164/118
f 107/150/107 108/149/108 120/165/120
f 108/151/108 97/137/97 109/153/109
f 110/152/110 122/169/122 121/168/121
f 111/154/111 123/368/123 122/169/122
f 112/155/112 124/171/124 123/170/123
f 113/158/113 125/173/125 124/171/124
f 114/172/114 126/187/126 125/173/125
f 114/159/114 115/160/115 127/174/127
f 115/160/115 116/162/116 128/176/128
f 116/162/116 117/367/117 129/177/129
f 117/163/117 118/164/118 130/178/130
f 119/166/119 131/180/131 130/178/130
f 120/165/120 132/369/132 131/180/131
f 109/153/109 121/168/121 132/181/132
f 121/168/121 122/169/122 134/182/134
f 122/169/122 123/368/123 135/184/135
f 123/170/123 124/171/124 136/185/136
f 125/173/125 137/188/137 136/185/136
f 126/187/126 138/202/138 137/188/137
f 127/174/127 139/190/139 138/189/138
f 128/176/128 140/191/140 139/190/139
f 129/177/129 141/206/141 140/191/140
f 130/178/130 142/193/142 141/192/141
f 131/180/131 143/195/143 142/193/142
f 131/180/131 132/369/132 144/194/144
f 132/181/132 121/168/121 133/183/133
f 133/183/133 134/182/134 146/197/146
f 134/182/134 135/184/135 147/199/147
f 135/186/135 136/185/136 148/200/148
f 137/188/137 149/203/149 148/200/148
f 138/202/138 150/370/150 149/203/149
f 139/190/139 151/205/151 150/204/150
f 140/191/140 152/207/152 151/205/151
f 141/206/141 153/371/153 152/207/152
f 142/193/142 154/209/154 153/208/153
f 143/195/143 155/211/155 154/209/154
f 143/195/143 144/194/144 156/210/156
f 144/196/144 133/183/133 145/198/145
f 146/197/146 158/214/158 157/213/157
f 147/199/147 159/372/159 158/214/158
f 148/200/148 160/216/160 159/215/159
f 149/203/149 161/218/161 160/216/160
f 149/203/149 150/370/150 162/217/162
f 150/204/150 151/205/151 163/219/163
f 151/205/151 152/207/152 164/221/164
f 152/207/152 153/371/153 165/222/165
f 153/208/153 154/209/154 166/223/166
f 155/211/155 167/225/167 166/223/166
f 156/210/156 168/373/168 167/225/167
f 145/198/145 157/213/157 168/226/168
f 157/213/157 158/214/158 170/227/170
f 158/214/158 159/372/159 171/229/171
f 159/215/159 160/216/160 172/230/172
f 161/218/161 173/232/173 172/230/172
f 162/217/162 174/246/174 173/232/173
f 163/219/163 175/234/175 174/233/174
f 164/221/164 176/235/176 175/234/175
f 165/222/165 177/250/177 176/235/176
f 166/223/166 178/237/178 177/236/177
f 167/225/167 179/239/179 178/237/178
f 167/225/167 168/373/168 180/238/180
f 168/226/168 157/213/157 169/228/169
f 169/228/169 170/227/170 182/241/182
f 170/227/170 171/229/171 183/243/183
f 171/231/171 172/230/172 184/244/184
f 173/232/173 185/247/185 184/244/184
f 174/246/174 186/374/186 185/247/185
f 175/234/175 187/249/187 186/248/186
f 176/235/176 188/251/188 187/249/187
f 177/250/177 189/375/189 188/251/188
f 178/237/178 190/253/190 189/252/189
f 179/239/179 191/255/191 190/253/190
f 179/239/179 180/238/180 192/254/192
f 180/240/180 169/228/169 181/242/181
f 182/241/182 194/258/194 193/257/193
f 183/243/183 195/376/195 194/258/194
f 184/244/184 196/260/196 195/259/195
f 185/247/185 197/262/197 196/260/196
f 185/247/185 186/374/186 198/261/198
f 186/248/186 187/249/187 199/263/199
f 187/249/187 188/251/188 200/265/200
f 188/251/188 189/375/189 201/266/201
f 189/252/189 190/253/190 202/267/202
f 191/255/191 203/269/203 202/267/202
f 192/254/192 204/377/204 203/269/203
f 181/242/181 193/257/193 204/270/204
f 193/257/193 194/258/194 206/271/206
f 194/258/194 195/376/195 207/273/207
f 195/259/195 196/260/196 208/274/208
f 197/262/197 209/276/209 208/274/208
f 198/261/198 210/290/210 209/276/209
f 199/263/199 211/278/211 210/277/210
f 200/265/200 212/279/212 211/278/211
f 201/266/201 213/294/213 212/279/212
f 202/267/202 214/281/214 213/280/213
f 203/269/203 215/283/215 214/281/214
f 203/269/203 204/377/204 216/282/216
f 204/270/204 193/257/193 205/272/205
f 205/272/205 206/271/206 218/285/218
f 206/271/206 207/273/207 219/287/219
f 207/275/207 208/274/208 220/288/220
f 209/276/209 221/291/221 220/288/220
f 210/290/210 222/378/222 221/291/221
f 211/278/211 223/293/223 222/292/222
f 212/279/212 224/295/224 223/293/223
f 213/294/213 225/379/225 224/295/224
f 214/281/214 226/297/226 225/296/225
f 215/283/215 227/299/227 226/297/226
f 215/283/215 216/282/216 228/298/228
f 216/284/216 205/272/205 217/286/217
f 218/285/218 230/302/230 229/301/229
f 219/287/219 231/316/231 230/302/230
f 220/288/220 232/304/232 231/303/231
f 221/291/221 233/306/233 232/304/232
f 221/291/221 222/378/222 234/305/234
f 222/292/222 223/293/223 235/307/235
f 223/293/223 224/295/224 236/309/236
f 224/295/224 225/379/225 237/310/237
f 225/296/225 226/297/226 238/311/238
f 226/297/226 227/299/227 239/313/239
f 228/298/228 240/329/240 239/313/239
f 217/286/217 229/301/229 240/314/240
f 230/302/230 242/317/242 241/315/241
f 231/316/231 243/380/243 242/317/242
f 232/304/232 244/319/244 243/318/243
f 233/306/233 245/321/245 244/319/244
f 233/306/233 234/305/234 246/320/246
f 234/308/234 235/307/235 247/322/247
f 235/307/235 236/309/236 248/324/248
f 236/309/236 237/310/237 249/325/249
f 237/312/237 238/311/238 250/326/250
f 238/311/238 239/313/239 251/328/251
f 240/329/240 252/381/252 251/328/251
f 229/301/229 241/315/241 252/330/252
f 241/315/241 242/317/242 254/331/254
f 242/317/242 243/380/243 255/333/255
f 243/318/243 244/319/244 256/334/256
f 244/319/244 245/321/245 257/336/257
f 246/320/246 258/382/258 257/336/257
f 247/322/247 259/338/259 258/337/258
f 248/324/248 260/339/260 259/338/259
f 249/325/249 261/383/261 260/339/260
f 250/326/250 262/341/262 261/340/261
f 251/328/251 263/343/263 262/341/262
f 251/328/251 252/381/252 264/342/264
f 252/330/252 241/315/241 253/332/253
f 61/347/61 72/384/72 71/385/71
f 71/385/71 70/386/70 69/345/69
f 69/345/69 68/387/68 67/388/67
f 67/388/67 66/389/66 65/346/65
f 65/346/65 64/390/64 63/391/63
f 63/391/63 62/392/62 61/347/61
f 61/347/61 71/385/71 69/345/69
f 69/345/69 67/388/67 65/346/65
f 65/346/65 63/391/63 61/347/61
f 264/350/264 253/393/253 254/394/254
f 254/394/254 255/395/255 256/348/256
f 256/348/256 257/396/257 258/397/258
f 258/397/258 259/398/259 260/349/260
f 260/349/260 261/399/261 262/400/262
f 262/400/262 263/401/263 264/350/264
f 264/350/264 254/394/254 256/348/256
f 256/348/256 258/397/258 260/349/260
f 260/349/260 262/400/262 264/350/264
