# Blender 4.3.2
# www.blender.org
o geyser_1
v 0.372242 -0.174341 0.030040
v 0.365442 -0.200000 -0.001329
v 0.375024 -0.174591 -0.029011
v 0.330470 -0.200000 -0.208765
v 0.314987 -0.174292 -0.232908
v 0.348138 -0.174591 -0.188484
v 0.122651 -0.200000 -0.314069
v 0.095826 -0.174118 -0.332181
v 0.152698 -0.174292 -0.315141
v -0.126777 -0.200000 -0.343627
v -0.154344 -0.174507 -0.341926
v -0.098629 -0.174118 -0.355226
v -0.341299 -0.200000 -0.196543
v -0.362045 -0.174885 -0.177870
v -0.326697 -0.174507 -0.223755
v -0.408039 -0.200000 -0.001272
v -0.410477 -0.174454 0.029025
v -0.413221 -0.174885 -0.028137
v -0.309325 -0.200000 0.226811
v -0.295215 -0.174179 0.254656
v -0.332336 -0.174454 0.209574
v -0.124567 -0.200000 0.356081
v -0.101747 -0.174356 0.375200
v -0.156077 -0.174179 0.352007
v 0.123869 -0.200000 0.404198
v 0.150201 -0.174668 0.398884
v 0.096752 -0.174356 0.413646
v 0.303081 -0.200000 0.239160
v 0.324022 -0.174341 0.215995
v 0.294310 -0.174668 0.266172
v 0.183374 0.124341 0.037563
v 0.185839 0.124591 -0.021475
v 0.144124 0.150000 0.007487
v 0.144271 0.124292 -0.118088
v 0.130356 0.150000 -0.074174
v 0.177079 0.124591 -0.073435
v 0.031258 0.124118 -0.163810
v 0.046876 0.150000 -0.116474
v 0.088054 0.124292 -0.146574
v -0.094136 0.124507 -0.158310
v -0.056303 0.150000 -0.128701
v -0.038578 0.124118 -0.172086
v -0.192385 0.124885 -0.068729
v -0.143210 0.150000 -0.069114
v -0.157465 0.124507 -0.114889
v -0.206683 0.124454 0.036554
v -0.169410 0.150000 0.007544
v -0.208840 0.124885 -0.020586
v -0.141819 0.124179 0.146590
v -0.129379 0.150000 0.100040
v -0.178657 0.124454 0.101308
v -0.040617 0.124356 0.202323
v -0.052941 0.150000 0.153521
v -0.095019 0.124179 0.179335
v 0.084652 0.124668 0.201086
v 0.047226 0.150000 0.172921
v 0.031340 0.124356 0.216260
v 0.166220 0.124341 0.103718
v 0.118165 0.150000 0.107592
v 0.136162 0.124668 0.153650
v 0.000000 0.100731 -0.099997
v -0.050000 0.100813 -0.086599
v -0.086602 0.100676 -0.049996
v -0.099999 0.100359 0.000003
v -0.086602 0.099945 0.050001
v -0.050000 0.099546 0.086602
v -0.000000 0.099269 0.099997
v 0.050000 0.099187 0.086599
v 0.086602 0.099324 0.049996
v 0.099999 0.099641 -0.000003
v 0.086602 0.100055 -0.050001
v 0.050000 0.100454 -0.086602
v 0.000689 0.292154 -0.150902
v -0.075463 0.292402 -0.130495
v -0.131213 0.291986 -0.074750
v -0.151622 0.291019 0.001397
v -0.131221 0.289760 0.077541
v -0.075477 0.288544 0.133280
v 0.000673 0.287700 0.153679
v 0.076826 0.287452 0.133272
v 0.132576 0.287867 0.077527
v 0.152984 0.288834 0.001381
v 0.132584 0.290094 -0.074764
v 0.076840 0.291309 -0.130503
v 0.002765 0.484264 -0.145285
v -0.072684 0.484756 -0.125064
v -0.127928 0.483934 -0.069844
v -0.148163 0.482018 0.005578
v -0.127967 0.479523 0.080995
v -0.072753 0.477116 0.136198
v 0.002686 0.475442 0.156394
v 0.078136 0.474951 0.136174
v 0.133379 0.475773 0.080954
v 0.153614 0.477689 0.005531
v 0.133419 0.480184 -0.069886
v 0.078204 0.482591 -0.125088
v 0.006240 0.677976 -0.174384
v -0.087283 0.678890 -0.149312
v -0.155776 0.677362 -0.080884
v -0.180886 0.673803 0.012567
v -0.155884 0.669166 0.105999
v -0.087470 0.664693 0.174377
v 0.006025 0.661584 0.199380
v 0.099549 0.660671 0.174309
v 0.168042 0.662198 0.105880
v 0.193151 0.665757 0.012430
v 0.168149 0.670394 -0.081002
v 0.099735 0.674867 -0.149381
v 0.011125 0.872764 -0.201113
v -0.100716 0.874219 -0.171116
v -0.182648 0.871786 -0.089315
v -0.212719 0.866116 0.022371
v -0.182871 0.858729 0.134017
v -0.101101 0.851604 0.215706
v 0.010680 0.846650 0.245551
v 0.122521 0.845194 0.215554
v 0.204453 0.847627 0.133753
v 0.234524 0.853297 0.022067
v 0.204676 0.860685 -0.089579
v 0.122906 0.867810 -0.171268
v 0.017344 1.064523 -0.169068
v -0.084796 1.066183 -0.141654
v -0.159651 1.063408 -0.066981
v -0.187163 1.056943 0.034941
v -0.159960 1.048519 0.136804
v -0.085332 1.040394 0.211313
v 0.016726 1.034744 0.238503
v 0.118866 1.033084 0.211089
v 0.193721 1.035858 0.136416
v 0.221233 1.042324 0.034493
v 0.194031 1.050748 -0.067370
v 0.119402 1.058873 -0.141878
v 0.025047 1.260667 -0.190816
v -0.095777 1.263021 -0.158358
v -0.184365 1.259088 -0.070073
v -0.216979 1.249923 0.050383
v -0.184881 1.237982 0.170735
v -0.096671 1.226463 0.258735
v 0.024014 1.218454 0.290801
v 0.144838 1.216100 0.258344
v 0.233426 1.220032 0.170059
v 0.266040 1.229197 0.049602
v 0.233942 1.241138 -0.070750
v 0.145733 1.252657 -0.158749
v 0.034185 1.457829 -0.209222
v -0.105104 1.460991 -0.171763
v -0.207284 1.455711 -0.070048
v -0.244976 1.443405 0.068669
v -0.208080 1.427369 0.207219
v -0.106483 1.411901 0.308478
v 0.032593 1.401145 0.345313
v 0.171882 1.397983 0.307855
v 0.274062 1.403262 0.206140
v 0.311754 1.415569 0.067423
v 0.274858 1.431605 -0.071128
v 0.173261 1.447073 -0.172386
v 0.044523 1.648200 -0.157634
v -0.079491 1.651412 -0.124241
v -0.170519 1.646050 -0.033744
v -0.204172 1.633551 0.089610
v -0.171432 1.617264 0.212766
v -0.081072 1.601553 0.302727
v 0.042697 1.590627 0.335386
v 0.166711 1.587415 0.301993
v 0.257739 1.592777 0.211496
v 0.291392 1.605276 0.088143
v 0.258652 1.621563 -0.035014
v 0.168292 1.637274 -0.124974
v 0.056520 1.846916 -0.173678
v -0.087672 1.851111 -0.134795
v -0.193583 1.844113 -0.029654
v -0.232835 1.827797 0.113573
v -0.194909 1.806536 0.256508
v -0.089969 1.786027 0.360852
v 0.053868 1.771764 0.398646
v 0.198060 1.767569 0.359763
v 0.303971 1.774567 0.254622
v 0.343222 1.790883 0.111395
v 0.305297 1.812144 -0.031540
v 0.200357 1.832654 -0.135884
v 0.069972 2.046413 -0.184431
v -0.093223 2.051677 -0.140352
v -0.213180 2.042898 -0.021455
v -0.257759 2.022428 0.140400
v -0.215012 1.995752 0.301845
v -0.096395 1.970018 0.419620
v 0.066309 1.952121 0.462169
v 0.229504 1.946857 0.418089
v 0.349462 1.955636 0.299193
v 0.394040 1.976106 0.137338
v 0.351293 2.002782 -0.024107
v 0.232677 2.028516 -0.141883
v 0.084377 2.234651 -0.115509
v -0.059027 2.239728 -0.076704
v -0.164523 2.231264 0.027677
v -0.203843 2.211528 0.169666
v -0.166450 2.185807 0.311217
v -0.062365 2.160993 0.414402
v 0.080523 2.143736 0.451571
v 0.223928 2.138659 0.412767
v 0.329423 2.147123 0.308386
v 0.368743 2.166859 0.166397
v 0.331350 2.192580 0.024846
v 0.227265 2.217394 -0.078339
v 0.100740 2.436134 -0.126213
v -0.064583 2.442503 -0.081388
v -0.186309 2.431889 0.038827
v -0.231822 2.407135 0.202220
v -0.188927 2.374875 0.365011
v -0.069117 2.343752 0.483580
v 0.095505 2.322106 0.526155
v 0.260828 2.315737 0.481331
v 0.382554 2.326351 0.361116
v 0.428067 2.351105 0.197722
v 0.385172 2.383365 0.034931
v 0.265362 2.414488 -0.083637
v 0.118561 2.637918 -0.129264
v -0.066328 2.645615 -0.079025
v -0.202588 2.632794 0.055272
v -0.253708 2.602893 0.237644
v -0.205991 2.563923 0.419224
v -0.072222 2.526326 0.551358
v 0.111755 2.500175 0.598641
v 0.296643 2.492479 0.548402
v 0.432903 2.505300 0.414105
v 0.484023 2.535201 0.231733
v 0.436306 2.574171 0.050153
v 0.302537 2.611768 -0.081981
v 0.136566 2.815901 -0.007355
v -0.005789 2.822263 0.031416
v -0.110807 2.811668 0.134700
v -0.150349 2.786953 0.274823
v -0.113818 2.754741 0.414239
v -0.011004 2.723663 0.515590
v 0.130545 2.702047 0.551721
v 0.272900 2.695684 0.512950
v 0.377918 2.706279 0.409666
v 0.417460 2.730994 0.269543
v 0.380929 2.763206 0.130128
v 0.278115 2.794284 0.028776
v 0.155949 2.995622 0.098163
v 0.046534 3.000846 0.128036
v -0.034268 2.992151 0.207325
v -0.064808 2.971867 0.314783
v -0.036901 2.945429 0.421617
v 0.041974 2.919921 0.499201
v 0.150684 2.902178 0.526747
v 0.260098 2.896955 0.496874
v 0.340901 2.905650 0.417585
v 0.371440 2.925934 0.310127
v 0.343534 2.952372 0.203293
v 0.264658 2.977879 0.125709
v 0.176012 3.165920 0.235205
v 0.114504 3.168949 0.252021
v 0.069057 3.163907 0.296565
v 0.051847 3.152145 0.356902
v 0.067485 3.136814 0.416865
v 0.111782 3.122023 0.460386
v 0.172868 3.111734 0.475804
v 0.234375 3.108705 0.458988
v 0.279823 3.113747 0.414444
v 0.297033 3.125509 0.354107
v 0.281395 3.140839 0.294144
v 0.237098 3.155631 0.250623
vn 0.9841 0.0434 0.1724
vn 0.5947 -0.8035 0.0256
vn 0.9950 0.0501 -0.0859
vn 0.5533 -0.7269 -0.4068
vn 0.6056 0.0798 -0.7917
vn 0.9347 0.0875 -0.3446
vn 0.1669 -0.8172 -0.5517
vn 0.1840 0.0273 -0.9825
vn 0.3907 0.0321 -0.9200
vn -0.1555 -0.7613 -0.6294
vn -0.4422 0.0654 -0.8945
vn -0.0220 0.0551 -0.9982
vn -0.5118 -0.7663 -0.3884
vn -0.8960 0.0774 -0.4372
vn -0.6608 0.0678 -0.7475
vn -0.6591 -0.7516 0.0258
vn -0.9622 0.0731 0.2623
vn -0.9795 0.0841 -0.1829
vn -0.4790 -0.7862 0.3905
vn -0.6565 0.0447 0.7530
vn -0.8687 0.0521 0.4926
vn -0.2305 -0.8065 0.5444
vn -0.2686 0.0395 0.9625
vn -0.5053 0.0347 0.8623
vn 0.1882 -0.7252 0.6623
vn 0.5274 0.0910 0.8447
vn -0.0075 0.0831 0.9965
vn 0.5366 -0.7800 0.3221
vn 0.9331 0.0545 0.3553
vn 0.7534 0.0631 0.6545
vn 0.6963 0.7085 0.1150
vn 0.6983 0.7140 -0.0502
vn 0.2883 0.9574 0.0139
vn 0.4390 0.7066 -0.5549
vn 0.2529 0.9489 -0.1890
vn 0.6517 0.7136 -0.2569
vn 0.1370 0.7015 -0.6994
vn 0.0823 0.9577 -0.2758
vn 0.2695 0.7054 -0.6555
vn -0.2997 0.7081 -0.6393
vn -0.0716 0.9506 -0.3019
vn -0.0252 0.6991 -0.7146
vn -0.6163 0.7211 -0.3165
vn -0.2366 0.9543 -0.1827
vn -0.4715 0.7128 -0.5192
vn -0.6807 0.7113 0.1752
vn -0.3041 0.9525 0.0150
vn -0.6840 0.7208 -0.1119
vn -0.4748 0.7013 0.5318
vn -0.2318 0.9538 0.1913
vn -0.6086 0.7076 0.3590
vn -0.1993 0.7064 0.6791
vn -0.1149 0.9564 0.2685
vn -0.3537 0.7024 0.6177
vn 0.3561 0.7162 0.6002
vn 0.0834 0.9493 0.3031
vn 0.0063 0.7090 0.7052
vn 0.6577 0.7071 0.2596
vn 0.2570 0.9544 0.1517
vn 0.5365 0.7145 0.4491
vn -0.0028 -0.7438 -0.6684
vn -0.3342 -0.7432 -0.5797
vn -0.5767 -0.7442 -0.3370
vn -0.6653 -0.7465 -0.0056
vn -0.5764 -0.7495 0.3255
vn -0.3338 -0.7524 0.5678
vn -0.0027 -0.7544 0.6564
vn 0.3282 -0.7550 0.5677
vn 0.5706 -0.7540 0.3254
vn 0.6594 -0.7518 -0.0056
vn 0.5709 -0.7487 -0.3369
vn 0.3285 -0.7458 -0.5795
vn -0.0014 -0.1121 -0.9937
vn -0.4968 -0.1104 -0.8608
vn -0.8596 -0.1132 -0.4983
vn -0.9928 -0.1198 -0.0029
vn -0.8605 -0.1285 0.4930
vn -0.4977 -0.1368 0.8565
vn -0.0015 -0.1427 0.9898
vn 0.4949 -0.1444 0.8568
vn 0.8582 -0.1415 0.4934
vn 0.9909 -0.1349 -0.0030
vn 0.8575 -0.1262 -0.4988
vn 0.4942 -0.1179 -0.8613
vn -0.0017 -0.0611 -0.9981
vn -0.4989 -0.0578 -0.8647
vn -0.8631 -0.0634 -0.5010
vn -0.9971 -0.0764 -0.0039
vn -0.8645 -0.0936 0.4938
vn -0.5005 -0.1102 0.8587
vn -0.0024 -0.1219 0.9925
vn 0.4964 -0.1253 0.8590
vn 0.8612 -0.1195 0.4940
vn 0.9943 -0.1062 -0.0043
vn 0.8604 -0.0890 -0.5019
vn 0.4957 -0.0725 -0.8655
vn -0.0039 -0.1421 -0.9899
vn -0.4947 -0.1370 -0.8582
vn -0.8542 -0.1455 -0.4993
vn -0.9862 -0.1653 -0.0090
vn -0.8554 -0.1911 0.4814
vn -0.4964 -0.2161 0.8407
vn -0.0055 -0.2336 0.9723
vn 0.4863 -0.2387 0.8406
vn 0.8460 -0.2301 0.4809
vn 0.9776 -0.2102 -0.0100
vn 0.8460 -0.1843 -0.5004
vn 0.4867 -0.1593 -0.8589
vn -0.0006 0.0156 -0.9999
vn -0.4997 0.0221 -0.8659
vn -0.8654 0.0112 -0.5010
vn -0.9999 -0.0144 -0.0027
vn -0.8671 -0.0478 0.4959
vn -0.5022 -0.0799 0.8611
vn -0.0028 -0.1022 0.9948
vn 0.4973 -0.1089 0.8607
vn 0.8634 -0.0979 0.4949
vn 0.9974 -0.0723 -0.0041
vn 0.8636 -0.0389 -0.5026
vn 0.4983 -0.0068 -0.8670
vn -0.0008 0.0266 -0.9996
vn -0.4994 0.0348 -0.8657
vn -0.8650 0.0211 -0.5013
vn -0.9999 -0.0107 -0.0039
vn -0.8678 -0.0523 0.4941
vn -0.5035 -0.0925 0.8590
vn -0.0042 -0.1207 0.9927
vn 0.4962 -0.1289 0.8586
vn 0.8626 -0.1150 0.4927
vn 0.9965 -0.0830 -0.0062
vn 0.8627 -0.0413 -0.5040
vn 0.4976 -0.0012 -0.8674
vn -0.0064 -0.1012 -0.9949
vn -0.4969 -0.0912 -0.8630
vn -0.8565 -0.1078 -0.5048
vn -0.9891 -0.1464 -0.0161
vn -0.8592 -0.1968 0.4723
vn -0.5013 -0.2455 0.8297
vn -0.0113 -0.2794 0.9601
vn 0.4800 -0.2894 0.8282
vn 0.8398 -0.2727 0.4694
vn 0.9721 -0.2339 -0.0197
vn 0.8415 -0.1835 -0.5082
vn 0.4833 -0.1349 -0.8650
vn 0.0019 0.0859 -0.9963
vn -0.4976 0.0973 -0.8619
vn -0.8640 0.0784 -0.4973
vn -0.9994 0.0341 -0.0000
vn -0.8675 -0.0236 0.4970
vn -0.5032 -0.0792 0.8605
vn -0.0042 -0.1179 0.9930
vn 0.4961 -0.1292 0.8586
vn 0.8629 -0.1103 0.4933
vn 0.9978 -0.0660 -0.0046
vn 0.8651 -0.0083 -0.5016
vn 0.5005 0.0473 -0.8645
vn 0.0016 0.0912 -0.9958
vn -0.4972 0.1042 -0.8613
vn -0.8635 0.0825 -0.4976
vn -0.9995 0.0321 -0.0016
vn -0.8686 -0.0337 0.4944
vn -0.5052 -0.0974 0.8575
vn -0.0063 -0.1418 0.9899
vn 0.4946 -0.1549 0.8552
vn 0.8616 -0.1330 0.4898
vn 0.9966 -0.0823 -0.0078
vn 0.8638 -0.0164 -0.5036
vn 0.4995 0.0471 -0.8651
vn -0.0085 -0.0663 -0.9978
vn -0.4979 -0.0517 -0.8657
vn -0.8574 -0.0761 -0.5090
vn -0.9908 -0.1332 -0.0232
vn -0.8624 -0.2077 0.4616
vn -0.5065 -0.2796 0.8156
vn -0.0185 -0.3297 0.9439
vn 0.4716 -0.3445 0.8117
vn 0.8312 -0.3198 0.4547
vn 0.9644 -0.2626 -0.0313
vn 0.8356 -0.1880 -0.5161
vn 0.4795 -0.1162 -0.8698
vn 0.0057 0.1474 -0.9891
vn -0.4937 0.1635 -0.8541
vn -0.8607 0.1367 -0.4904
vn -0.9972 0.0742 0.0047
vn -0.8667 -0.0074 0.4987
vn -0.5039 -0.0862 0.8595
vn -0.0058 -0.1409 0.9900
vn 0.4942 -0.1570 0.8550
vn 0.8615 -0.1302 0.4908
vn 0.9977 -0.0675 -0.0048
vn 0.8666 0.0141 -0.4989
vn 0.5034 0.0928 -0.8590
vn 0.0052 0.1478 -0.9890
vn -0.4935 0.1654 -0.8539
vn -0.8603 0.1360 -0.4913
vn -0.9977 0.0674 0.0022
vn -0.8686 -0.0222 0.4950
vn -0.5067 -0.1089 0.8552
vn -0.0088 -0.1693 0.9855
vn 0.4920 -0.1871 0.8502
vn 0.8598 -0.1574 0.4858
vn 0.9960 -0.0884 -0.0094
vn 0.8648 0.0014 -0.5021
vn 0.5020 0.0877 -0.8604
vn -0.0100 -0.0328 -0.9994
vn -0.4982 -0.0135 -0.8669
vn -0.8577 -0.0456 -0.5121
vn -0.9922 -0.1207 -0.0302
vn -0.8659 -0.2186 0.4499
vn -0.5125 -0.3131 0.7996
vn -0.0268 -0.3789 0.9250
vn 0.4619 -0.3983 0.7925
vn 0.8213 -0.3660 0.4376
vn 0.9558 -0.2908 -0.0444
vn 0.8293 -0.1928 -0.5245
vn 0.4758 -0.0984 -0.8740
vn 0.0183 0.2825 -0.9591
vn -0.4785 0.3029 -0.8242
vn -0.8444 0.2689 -0.4634
vn -0.9815 0.1894 0.0265
vn -0.8533 0.0857 0.5143
vn -0.4941 -0.0144 0.8693
vn -0.0001 -0.0840 0.9965
vn 0.4969 -0.1045 0.8615
vn 0.8628 -0.0704 0.5006
vn 0.9999 0.0093 0.0108
vn 0.8716 0.1130 -0.4770
vn 0.5124 0.2130 -0.8319
vn 0.0443 0.5341 -0.8443
vn -0.4216 0.5542 -0.7177
vn -0.7648 0.5206 -0.3795
vn -0.8933 0.4425 0.0792
vn -0.7730 0.3410 0.5350
vn -0.4366 0.2433 0.8661
vn 0.0254 0.1756 0.9841
vn 0.4901 0.1557 0.8577
vn 0.8327 0.1889 0.5206
vn 0.9618 0.2663 0.0630
vn 0.8428 0.3676 -0.3930
vn 0.5071 0.4657 -0.7253
vn 0.0496 0.5598 -0.8271
vn -0.4128 0.5816 -0.7010
vn -0.7541 0.5454 -0.3658
vn -0.8829 0.4612 0.0884
vn -0.7646 0.3518 0.5400
vn -0.4312 0.2465 0.8680
vn 0.0280 0.1734 0.9844
vn 0.4900 0.1520 0.8584
vn 0.8311 0.1877 0.5235
vn 0.9600 0.2713 0.0695
vn 0.8421 0.3805 -0.3822
vn 0.5089 0.4862 -0.7104
vn 0.0945 0.9135 -0.3957
vn -0.1986 0.9278 -0.3157
vn -0.4149 0.9040 -0.1033
vn -0.4964 0.8483 0.1842
vn -0.4214 0.7759 0.4695
vn -0.2104 0.7060 0.6762
vn 0.0799 0.6575 0.7492
vn 0.3719 0.6432 0.6693
vn 0.5878 0.6670 0.4579
vn 0.6699 0.7225 0.1712
vn 0.5959 0.7949 -0.1142
vn 0.3854 0.8648 -0.3218
vt 0.283893 0.115213
vt 0.333659 0.003833
vt 0.388912 0.046444
vt 0.194197 0.591367
vt 0.184003 0.528763
vt 0.193658 0.529986
vt 0.453151 0.008741
vt 0.466165 0.060243
vt 0.453218 0.060461
vt 0.804514 0.068922
vt 0.854399 0.027060
vt 0.857943 0.035217
vt 0.788871 0.004283
vt 0.851842 0.017540
vt 0.791110 0.033984
vt 0.506774 0.261272
vt 0.456762 0.238348
vt 0.506677 0.231596
vt 0.613985 0.757719
vt 0.560440 0.787845
vt 0.560140 0.776267
vt 0.614163 0.830115
vt 0.560398 0.797614
vt 0.614883 0.799430
vt 0.846928 0.808414
vt 0.894345 0.823409
vt 0.877846 0.849915
vt 0.264654 0.574001
vt 0.222416 0.526424
vt 0.229629 0.522368
vt 0.203282 0.591538
vt 0.213087 0.529266
vt 0.233146 0.589172
vt 0.220116 0.506460
vt 0.215037 0.511262
vt 0.209858 0.506804
vt 0.238982 0.591538
vt 0.242515 0.586451
vt 0.408044 0.004080
vt 0.411628 0.008736
vt 0.402975 0.008612
vt 0.448390 0.004256
vt 0.443083 0.008873
vt 0.492247 0.003517
vt 0.496762 0.007846
vt 0.488386 0.008147
vt 0.788871 0.040476
vt 0.793492 0.043551
vt 0.511403 0.226483
vt 0.506912 0.221408
vt 0.511532 0.265889
vt 0.507008 0.271099
vt 0.619318 0.794699
vt 0.614812 0.789658
vt 0.258798 0.510933
vt 0.253953 0.506206
vt 0.263734 0.506488
vt 0.862771 0.857405
vt 0.852689 0.854802
vt 0.859637 0.849175
vt 0.215468 0.521316
vt 0.836599 0.821459
vt 0.843710 0.826439
vt 0.836599 0.831917
vt 0.843941 0.800593
vt 0.838776 0.809259
vt 0.864072 0.788603
vt 0.861422 0.796804
vt 0.854503 0.792133
vt 0.859983 0.021221
vt 0.897795 0.808140
vt 0.889238 0.807784
vt 0.892043 0.799612
vt 0.902014 0.828055
vt 0.900922 0.817706
vt 0.895395 0.849116
vt 0.892491 0.841292
vt 0.900683 0.840902
vt 0.874804 0.857894
vt 0.884761 0.855377
vt 0.271258 0.569005
vt 0.236292 0.517458
vt 0.180743 0.513102
vt 0.846572 0.842679
vt 0.844376 0.850668
vt 0.378709 0.003517
vt 0.380067 0.008172
vt 0.202742 0.530086
vt 0.809502 0.076802
vt 0.803244 0.073563
vt 0.875689 0.796305
vt 0.873032 0.788290
vt 0.508257 0.189784
vt 0.513102 0.186533
vt 0.456905 0.228173
vt 0.456969 0.258141
vt 0.513102 0.303940
vt 0.294135 0.513102
vt 0.292149 0.508232
vt 0.249973 0.457467
vt 0.240223 0.457292
vt 0.842773 0.327752
vt 0.830090 0.361415
vt 0.833662 0.327524
vt 0.856298 0.361804
vt 0.843966 0.361784
vt 0.017611 0.758215
vt 0.011486 0.730131
vt 0.025222 0.732047
vt 0.778414 0.544150
vt 0.777299 0.509418
vt 0.788884 0.511150
vt 0.770815 0.542940
vt 0.763496 0.507962
vt 0.761760 0.541915
vt 0.751172 0.507173
vt 0.906917 0.890402
vt 0.873351 0.898961
vt 0.874536 0.885118
vt 0.540650 0.784112
vt 0.506297 0.772545
vt 0.540467 0.776386
vt 0.541399 0.793197
vt 0.506538 0.784315
vt 0.542516 0.801206
vt 0.507596 0.798159
vt 0.401307 0.987828
vt 0.428877 0.992943
vt 0.402849 0.996791
vt 0.818388 0.360797
vt 0.825978 0.327167
vt 0.843037 0.395628
vt 0.829290 0.395220
vt 0.855258 0.395576
vt 0.016421 0.699604
vt 0.030054 0.701349
vt 0.780360 0.476204
vt 0.791858 0.477703
vt 0.766664 0.474973
vt 0.754440 0.474338
vt 0.840495 0.896122
vt 0.841627 0.882402
vt 0.838958 0.907997
vt 0.474545 0.800539
vt 0.473665 0.786810
vt 0.475902 0.812650
vt 0.456647 0.973570
vt 0.458692 0.987152
vt 0.817700 0.394460
vt 0.843441 0.429982
vt 0.826402 0.429422
vt 0.036188 0.673149
vt 0.799235 0.444262
vt 0.784961 0.442675
vt 0.767963 0.441410
vt 0.808131 0.895105
vt 0.809481 0.878094
vt 0.473498 0.775143
vt 0.440137 0.786969
vt 0.440020 0.772502
vt 0.441020 0.804000
vt 0.442432 0.819031
vt 0.483869 0.966699
vt 0.486171 0.983575
vt 0.812040 0.428298
vt 0.843774 0.464532
vt 0.823398 0.463798
vt 0.858593 0.429828
vt 0.019260 0.671175
vt 0.041957 0.644612
vt 0.806177 0.410655
vt 0.789086 0.409082
vt 0.752795 0.440804
vt 0.768738 0.407881
vt 0.775996 0.894230
vt 0.777546 0.873880
vt 0.406699 0.786679
vt 0.406666 0.769373
vt 0.407506 0.807059
vt 0.408870 0.825050
vt 0.511326 0.960298
vt 0.513798 0.980526
vt 0.806230 0.462237
vt 0.841918 0.498154
vt 0.823310 0.497425
vt 0.858476 0.497791
vt 0.026210 0.610172
vt 0.044753 0.611909
vt 0.021682 0.642480
vt 0.010112 0.605196
vt 0.771065 0.374953
vt 0.789665 0.375765
vt 0.754474 0.374688
vt 0.743044 0.890879
vt 0.744402 0.872289
vt 0.740672 0.906938
vt 0.373950 0.788846
vt 0.374460 0.807468
vt 0.545324 0.975433
vt 0.807636 0.495801
vt 0.842105 0.532938
vt 0.820093 0.532008
vt 0.049760 0.582796
vt 0.811323 0.343037
vt 0.805289 0.376907
vt 0.792828 0.342035
vt 0.770812 0.341411
vt 0.711209 0.890261
vt 0.712747 0.868262
vt 0.374016 0.773037
vt 0.340569 0.787683
vt 0.340763 0.768977
vt 0.340904 0.809719
vt 0.341680 0.829181
vt 0.571191 0.951492
vt 0.573254 0.973429
vt 0.801559 0.529854
vt 0.842185 0.567901
vt 0.816809 0.566751
vt 0.861698 0.532395
vt 0.027797 0.580990
vt 0.054352 0.553279
vt 0.816798 0.309000
vt 0.795467 0.308247
vt 0.751176 0.341331
vt 0.770076 0.307914
vt 0.679587 0.889738
vt 0.681282 0.864369
vt 0.307290 0.786125
vt 0.307646 0.764556
vt 0.307369 0.811535
vt 0.307861 0.833980
vt 0.599367 0.946581
vt 0.601394 0.971910
vt 0.795451 0.564000
vt 0.839668 0.601137
vt 0.817074 0.600042
vt 0.859795 0.600347
vt 0.032802 0.517921
vt 0.055394 0.519263
vt 0.029004 0.551484
vt 0.013157 0.512877
vt 0.771324 0.274812
vt 0.793935 0.274765
vt 0.751157 0.275209
vt 0.646367 0.886171
vt 0.647807 0.863576
vt 0.676090 0.911626
vt 0.274343 0.787628
vt 0.274140 0.810255
vt 0.634159 0.967830
vt 0.602812 0.924646
vt 0.632667 0.945247
vt 0.839701 0.636389
vt 0.813429 0.635036
vt 0.059339 0.489347
vt 0.817844 0.240777
vt 0.812931 0.275079
vt 0.795759 0.240823
vt 0.769469 0.241277
vt 0.615095 0.886027
vt 0.616690 0.859746
vt 0.274778 0.768423
vt 0.241096 0.785068
vt 0.241737 0.762736
vt 0.240542 0.811377
vt 0.240225 0.834614
vt 0.661051 0.941192
vt 0.662423 0.967479
vt 0.798065 0.597357
vt 0.791336 0.631639
vt 0.839555 0.671762
vt 0.809818 0.670140
vt 0.863113 0.635336
vt 0.033048 0.488085
vt 0.062773 0.458909
vt 0.821944 0.206316
vt 0.796956 0.206834
vt 0.746019 0.242015
vt 0.767207 0.207795
vt 0.583982 0.885888
vt 0.585696 0.856132
vt 0.207956 0.782219
vt 0.208834 0.756945
vt 0.206973 0.811992
vt 0.206148 0.838285
vt 0.689879 0.937749
vt 0.691022 0.967529
vt 0.784823 0.665988
vt 0.836463 0.704478
vt 0.810331 0.702973
vt 0.088440 0.455038
vt 0.062147 0.423861
vt 0.084710 0.420331
vt 0.035962 0.423197
vt 0.032994 0.457817
vt 0.013172 0.418519
vt 0.767297 0.174400
vt 0.793428 0.173162
vt 0.584115 0.830223
vt 0.551787 0.856032
vt 0.550130 0.833246
vt 0.550358 0.882190
vt 0.579430 0.911519
vt 0.174641 0.782950
vt 0.173465 0.809105
vt 0.724876 0.964557
vt 0.694776 0.911972
vt 0.724231 0.938369
vt 0.836356 0.740237
vt 0.806226 0.738412
vt 0.859770 0.703168
vt 0.065039 0.393143
vt 0.819222 0.137550
vt 0.815374 0.172301
vt 0.793943 0.139009
vt 0.743982 0.175681
vt 0.763835 0.140884
vt 0.519688 0.882542
vt 0.521246 0.852373
vt 0.175547 0.760741
vt 0.141551 0.778985
vt 0.142748 0.753384
vt 0.139837 0.809127
vt 0.138067 0.835735
vt 0.753113 0.935679
vt 0.753442 0.965886
vt 0.788376 0.699056
vt 0.780926 0.733589
vt 0.835981 0.776011
vt 0.802283 0.773869
vt 0.863240 0.738577
vt 0.034836 0.392719
vt 0.067301 0.361788
vt 0.821944 0.102667
vt 0.793703 0.104817
vt 0.736966 0.142674
vt 0.760058 0.107414
vt 0.489073 0.882783
vt 0.490716 0.849031
vt 0.108543 0.774859
vt 0.110053 0.746233
vt 0.106230 0.808553
vt 0.103732 0.838285
vt 0.782590 0.933716
vt 0.782496 0.967508
vt 0.773999 0.768135
vt 0.805050 0.804689
vt 0.096411 0.356908
vt 0.063282 0.324088
vt 0.085701 0.320205
vt 0.037257 0.324307
vt 0.033510 0.361694
vt 0.014600 0.320804
vt 0.760307 0.073485
vt 0.786187 0.071103
vt 0.487902 0.819604
vt 0.454499 0.851207
vt 0.452074 0.828533
vt 0.453309 0.877207
vt 0.483413 0.911819
vt 0.074344 0.776668
vt 0.824323 0.986532
vt 0.788852 0.996791
vt 0.819795 0.963983
vt 0.789107 0.904468
vt 0.820221 0.937961
vt 0.831000 0.806415
vt 0.806708 0.835867
vt 0.059756 0.287427
vt 0.076991 0.284345
vt 0.039750 0.287819
vt 0.022334 0.285416
vt 0.759342 0.039325
vt 0.779211 0.037203
vt 0.418841 0.852637
vt 0.416781 0.835195
vt 0.417985 0.872628
vt 0.448824 0.899563
vt 0.072259 0.802594
vt 0.039922 0.777061
vt 0.859194 0.979162
vt 0.855993 0.961834
vt 0.825486 0.915437
vt 0.856591 0.941835
vt 0.821179 0.866064
vt 0.809965 0.865270
vt 0.064101 0.247903
vt 0.054412 0.249663
vt 0.043165 0.249946
vt 0.770088 0.003314
vt 0.379970 0.845644
vt 0.381183 0.855453
vt 0.378698 0.876354
vt 0.380717 0.866693
vt 0.003446 0.789707
vt 0.004542 0.778518
vt 0.894266 0.958821
vt 0.895987 0.968560
vt 0.894678 0.947579
vt 0.897112 0.937848
vt 0.397352 0.029072
vt 0.426837 0.021172
vt 0.418936 0.050657
vt 0.019783 0.069168
vt 0.045754 0.095518
vt 0.010276 0.105587
vt 0.388912 0.090228
vt 0.365640 0.126311
vt 0.321130 0.129093
vt 0.256963 0.080671
vt 0.259711 0.044406
vt 0.289800 0.009825
vt 0.373770 0.012604
vt 0.167311 0.587961
vt 0.851039 0.006887
vt 0.456795 0.248330
vt 0.560140 0.808581
vt 0.183493 0.508219
vt 0.838526 0.842854
vt 0.443149 0.060459
vt 0.862796 0.043182
vt 0.882558 0.791576
vt 0.508262 0.301501
vt 0.228185 0.457382
vt 0.850869 0.327789
vt 0.008601 0.756907
vt 0.753674 0.541348
vt 0.906124 0.899490
vt 0.509186 0.810367
vt 0.426623 0.979271
vt 0.871872 0.910953
vt 0.861898 0.464241
vt 0.750584 0.407374
vt 0.004092 0.636733
vt 0.773505 0.911819
vt 0.375410 0.823912
vt 0.543323 0.956923
vt 0.864781 0.567144
vt 0.747430 0.308092
vt 0.006972 0.545445
vt 0.643138 0.905654
vt 0.274222 0.830241
vt 0.635952 0.925695
vt 0.866064 0.670420
vt 0.740668 0.208943
vt 0.007081 0.452056
vt 0.546227 0.904712
vt 0.172334 0.832200
vt 0.728785 0.915703
vt 0.866064 0.773987
vt 0.730025 0.109764
vt 0.004092 0.356651
vt 0.826655 0.837252
vt 0.414441 0.889813
vt 0.038088 0.796974
vt 0.860827 0.924522
vt 0.033374 0.248676
vt 0.758926 0.004588
vt 0.409814 0.050657
vt 0.401913 0.046095
vt 0.397352 0.038195
vt 0.401913 0.021172
vt 0.409814 0.016610
vt 0.418936 0.016610
vt 0.431398 0.029072
vt 0.431398 0.038195
vt 0.426837 0.046095
vt 0.004788 0.095905
vt 0.004788 0.084664
vt 0.010276 0.074878
vt 0.030760 0.069064
vt 0.040266 0.074595
vt 0.045754 0.084277
vt 0.040266 0.105304
vt 0.030760 0.111014
vt 0.019783 0.111118
s 1
f 19/1/19 7/2/7 2/3/2
f 8/4/8 42/5/42 37/6/37
f 11/7/11 45/8/45 40/9/40
f 14/10/14 48/11/48 43/12/43
f 21/13/21 46/14/46 17/15/17
f 24/16/24 49/17/49 20/18/20
f 23/19/23 57/20/57 52/21/52
f 30/22/30 55/23/55 26/24/26
f 41/25/41 53/26/53 59/27/59
f 3/28/3 36/29/36 32/30/32
f 9/31/9 34/32/34 5/33/5
f 1/34/1 2/35/2 3/36/3
f 4/37/4 5/33/5 6/38/6
f 7/39/7 8/40/8 9/41/9
f 10/42/10 11/7/11 12/43/12
f 13/44/13 14/45/14 15/46/15
f 16/47/16 17/15/17 18/48/18
f 19/49/19 20/18/20 21/50/21
f 22/51/22 23/52/23 24/16/24
f 25/53/25 26/24/26 27/54/27
f 28/55/28 29/56/29 30/57/30
f 31/58/31 32/59/32 33/60/33
f 34/32/34 35/61/35 36/29/36
f 37/62/37 38/63/38 39/64/39
f 40/65/40 41/25/41 42/66/42
f 43/67/43 44/68/44 45/69/45
f 46/14/46 47/70/47 48/11/48
f 49/71/49 50/72/50 51/73/51
f 52/74/52 53/26/53 54/75/54
f 55/76/55 56/77/56 57/78/57
f 58/79/58 59/27/59 60/80/60
f 1/81/1 32/30/32 31/82/31
f 4/83/4 3/36/3 2/35/2
f 5/33/5 36/29/36 6/38/6
f 35/84/35 32/59/32 36/85/36
f 4/86/4 9/41/9 5/87/5
f 8/4/8 39/88/39 9/31/9
f 35/84/35 39/64/39 38/63/38
f 10/42/10 8/40/8 7/39/7
f 40/9/40 12/43/12 11/7/11
f 41/25/41 37/62/37 42/66/42
f 10/42/10 15/46/15 11/7/11
f 43/12/43 15/89/15 14/10/14
f 44/68/44 40/65/40 45/69/45
f 16/47/16 14/10/14 13/90/13
f 17/15/17 48/11/48 18/48/18
f 47/91/47 43/67/43 48/92/48
f 19/49/19 17/93/17 16/94/16
f 20/18/20 51/95/51 21/50/21
f 47/91/47 51/73/51 50/72/50
f 19/49/19 24/16/24 20/18/20
f 52/96/52 24/16/24 23/52/23
f 50/72/50 54/75/54 53/26/53
f 25/97/25 23/52/23 22/51/22
f 55/23/55 27/54/27 26/24/26
f 56/77/56 52/74/52 57/78/57
f 25/98/25 30/57/30 26/99/26
f 29/56/29 60/100/60 30/57/30
f 56/77/56 60/80/60 59/27/59
f 28/55/28 1/34/1 29/56/29
f 59/27/59 31/58/31 33/60/33
f 1/34/1 58/101/58 29/56/29
f 62/102/62 73/103/73 61/104/61
f 62/102/62 75/105/75 74/106/74
f 63/107/63 76/108/76 75/109/75
f 64/110/64 77/111/77 76/112/76
f 65/113/65 78/114/78 77/111/77
f 66/115/66 79/116/79 78/114/78
f 67/117/67 80/118/80 79/119/79
f 69/120/69 80/121/80 68/122/68
f 70/123/70 81/124/81 69/120/69
f 71/125/71 82/126/82 70/123/70
f 72/127/72 83/128/83 71/129/71
f 61/104/61 84/130/84 72/131/72
f 73/103/73 86/132/86 85/133/85
f 74/106/74 87/134/87 86/132/86
f 75/109/75 88/135/88 87/136/87
f 76/112/76 89/137/89 88/138/88
f 77/111/77 90/139/90 89/137/89
f 78/114/78 91/140/91 90/139/90
f 79/119/79 92/141/92 91/142/91
f 80/118/80 93/143/93 92/141/92
f 81/124/81 94/144/94 93/145/93
f 82/126/82 95/146/95 94/144/94
f 83/128/83 96/147/96 95/148/95
f 84/130/84 85/133/85 96/149/96
f 85/133/85 98/150/98 97/151/97
f 87/134/87 98/150/98 86/132/86
f 88/135/88 99/152/99 87/136/87
f 89/137/89 100/153/100 88/138/88
f 90/139/90 101/154/101 89/137/89
f 91/140/91 102/155/102 90/139/90
f 91/142/91 104/156/104 103/157/103
f 92/158/92 105/159/105 104/160/104
f 93/145/93 106/161/106 105/159/105
f 94/144/94 107/162/107 106/161/106
f 95/148/95 108/163/108 107/164/107
f 96/149/96 97/151/97 108/165/108
f 97/151/97 110/166/110 109/167/109
f 99/168/99 110/166/110 98/150/98
f 100/169/100 111/170/111 99/152/99
f 101/154/101 112/171/112 100/153/100
f 102/155/102 113/172/113 101/154/101
f 103/173/103 114/174/114 102/155/102
f 103/157/103 116/175/116 115/176/115
f 104/160/104 117/177/117 116/178/116
f 105/159/105 118/179/118 117/177/117
f 106/161/106 119/180/119 118/179/118
f 107/164/107 120/181/120 119/182/119
f 108/165/108 109/167/109 120/183/120
f 109/167/109 122/184/122 121/185/121
f 110/166/110 123/186/123 122/184/122
f 111/170/111 124/187/124 123/188/123
f 112/189/112 125/190/125 124/187/124
f 113/172/113 126/191/126 125/192/125
f 114/174/114 127/193/127 126/191/126
f 115/176/115 128/194/128 127/195/127
f 116/175/116 129/196/129 128/194/128
f 118/179/118 129/197/129 117/177/117
f 119/180/119 130/198/130 118/179/118
f 120/181/120 131/199/131 119/182/119
f 109/167/109 132/200/132 120/183/120
f 121/185/121 134/201/134 133/202/133
f 123/186/123 134/201/134 122/184/122
f 124/187/124 135/203/135 123/188/123
f 125/192/125 136/204/136 124/205/124
f 126/191/126 137/206/137 125/192/125
f 127/193/127 138/207/138 126/191/126
f 127/195/127 140/208/140 139/209/139
f 128/210/128 141/211/141 140/212/140
f 129/197/129 142/213/142 141/211/141
f 130/198/130 143/214/143 142/213/142
f 131/199/131 144/215/144 143/216/143
f 132/200/132 133/202/133 144/217/144
f 133/202/133 146/218/146 145/219/145
f 135/220/135 146/218/146 134/201/134
f 136/221/136 147/222/147 135/203/135
f 137/206/137 148/223/148 136/204/136
f 138/207/138 149/224/149 137/206/137
f 139/225/139 150/226/150 138/207/138
f 139/209/139 152/227/152 151/228/151
f 140/212/140 153/229/153 152/230/152
f 141/211/141 154/231/154 153/229/153
f 142/213/142 155/232/155 154/231/154
f 143/216/143 156/233/156 155/234/155
f 144/217/144 145/219/145 156/235/156
f 145/219/145 158/236/158 157/237/157
f 146/218/146 159/238/159 158/236/158
f 147/222/147 160/239/160 159/240/159
f 148/241/148 161/242/161 160/239/160
f 149/224/149 162/243/162 161/244/161
f 150/226/150 163/245/163 162/243/162
f 151/228/151 164/246/164 163/247/163
f 153/248/153 164/246/164 152/227/152
f 154/231/154 165/249/165 153/229/153
f 155/232/155 166/250/166 154/231/154
f 156/233/156 167/251/167 155/234/155
f 145/252/145 168/253/168 156/233/156
f 157/237/157 170/254/170 169/255/169
f 159/238/159 170/254/170 158/236/158
f 160/239/160 171/256/171 159/240/159
f 161/244/161 172/257/172 160/258/160
f 162/243/162 173/259/173 161/244/161
f 163/245/163 174/260/174 162/243/162
f 163/247/163 176/261/176 175/262/175
f 164/263/164 177/264/177 176/265/176
f 165/249/165 178/266/178 177/264/177
f 166/250/166 179/267/179 178/266/178
f 167/251/167 180/268/180 179/269/179
f 168/270/168 169/255/169 180/271/180
f 169/255/169 182/272/182 181/273/181
f 171/274/171 182/272/182 170/254/170
f 172/275/172 183/276/183 171/256/171
f 173/259/173 184/277/184 172/257/172
f 174/260/174 185/278/185 173/259/173
f 175/279/175 186/280/186 174/260/174
f 175/262/175 188/281/188 187/282/187
f 176/265/176 189/283/189 188/284/188
f 177/264/177 190/285/190 189/283/189
f 178/266/178 191/286/191 190/285/190
f 179/269/179 192/287/192 191/288/191
f 180/271/180 181/273/181 192/289/192
f 181/273/181 194/290/194 193/291/193
f 182/292/182 195/293/195 194/294/194
f 183/276/183 196/295/196 195/293/195
f 184/296/184 197/297/197 196/295/196
f 185/278/185 198/298/198 197/299/197
f 186/300/186 199/301/199 198/302/198
f 187/282/187 200/303/200 199/301/199
f 189/304/189 200/303/200 188/281/188
f 190/285/190 201/305/201 189/283/189
f 191/286/191 202/306/202 190/285/190
f 192/287/192 203/307/203 191/288/191
f 181/308/181 204/309/204 192/287/192
f 193/291/193 206/310/206 205/311/205
f 195/312/195 206/310/206 194/290/194
f 196/295/196 207/313/207 195/293/195
f 197/299/197 208/314/208 196/315/196
f 198/298/198 209/316/209 197/299/197
f 199/317/199 210/318/210 198/298/198
f 199/301/199 212/319/212 211/320/211
f 200/321/200 213/322/213 212/323/212
f 201/305/201 214/324/214 213/322/213
f 202/306/202 215/325/215 214/324/214
f 203/307/203 216/326/216 215/327/215
f 204/328/204 205/311/205 216/329/216
f 205/311/205 218/330/218 217/331/217
f 207/332/207 218/330/218 206/310/206
f 208/333/208 219/334/219 207/313/207
f 209/316/209 220/335/220 208/314/208
f 210/318/210 221/336/221 209/316/209
f 211/337/211 222/338/222 210/318/210
f 211/320/211 224/339/224 223/340/223
f 212/323/212 225/341/225 224/342/224
f 213/322/213 226/343/226 225/341/225
f 214/324/214 227/344/227 226/343/226
f 215/327/215 228/345/228 227/346/227
f 216/329/216 217/331/217 228/347/228
f 218/330/218 229/348/229 217/331/217
f 218/349/218 231/350/231 230/351/230
f 219/334/219 232/352/232 231/350/231
f 220/353/220 233/354/233 232/352/232
f 221/336/221 234/355/234 233/356/233
f 222/357/222 235/358/235 234/359/234
f 223/340/223 236/360/236 235/358/235
f 225/361/225 236/360/236 224/339/224
f 226/343/226 237/362/237 225/341/225
f 227/346/227 238/363/238 226/364/226
f 228/345/228 239/365/239 227/346/227
f 217/366/217 240/367/240 228/345/228
f 230/368/230 241/369/241 229/348/229
f 230/351/230 243/370/243 242/371/242
f 231/350/231 244/372/244 243/370/243
f 232/352/232 245/373/245 244/372/244
f 233/356/233 246/374/246 245/375/245
f 234/359/234 247/376/247 246/377/246
f 235/358/235 248/378/248 247/376/247
f 237/379/237 248/378/248 236/360/236
f 238/380/238 249/381/249 237/362/237
f 239/365/239 250/382/250 238/363/238
f 240/367/240 251/383/251 239/365/239
f 229/384/229 252/385/252 240/367/240
f 241/369/241 254/386/254 253/387/253
f 243/370/243 254/388/254 242/371/242
f 244/372/244 255/389/255 243/370/243
f 245/373/245 256/390/256 244/372/244
f 246/374/246 257/391/257 245/375/245
f 247/376/247 258/392/258 246/377/246
f 248/378/248 259/393/259 247/376/247
f 248/378/248 261/394/261 260/395/260
f 249/381/249 262/396/262 261/397/261
f 250/382/250 263/398/263 262/399/262
f 251/383/251 264/400/264 263/398/263
f 252/385/252 253/401/253 264/400/264
f 69/402/69 65/403/65 61/404/61
f 256/405/256 260/406/260 264/407/264
f 2/3/2 28/408/28 25/409/25
f 25/409/25 22/410/22 19/1/19
f 19/1/19 16/411/16 13/412/13
f 13/412/13 10/413/10 7/2/7
f 7/2/7 4/414/4 2/3/2
f 2/3/2 25/409/25 19/1/19
f 19/1/19 13/412/13 7/2/7
f 8/4/8 12/415/12 42/5/42
f 11/7/11 15/46/15 45/8/45
f 14/10/14 18/48/18 48/11/48
f 21/13/21 51/416/51 46/14/46
f 24/16/24 54/417/54 49/17/49
f 23/19/23 27/54/27 57/20/57
f 30/22/30 60/418/60 55/23/55
f 59/27/59 33/60/33 35/84/35
f 35/84/35 38/63/38 41/25/41
f 41/25/41 44/68/44 47/91/47
f 47/91/47 50/72/50 53/26/53
f 53/26/53 56/77/56 59/27/59
f 59/27/59 35/84/35 41/25/41
f 41/25/41 47/91/47 53/26/53
f 3/28/3 6/38/6 36/29/36
f 9/31/9 39/88/39 34/32/34
f 1/81/1 3/28/3 32/30/32
f 4/83/4 6/419/6 3/36/3
f 5/33/5 34/32/34 36/29/36
f 35/84/35 33/60/33 32/59/32
f 4/86/4 7/39/7 9/41/9
f 8/4/8 37/6/37 39/88/39
f 35/84/35 34/420/34 39/64/39
f 10/42/10 12/43/12 8/40/8
f 40/9/40 42/421/42 12/43/12
f 41/25/41 38/63/38 37/62/37
f 10/42/10 13/44/13 15/46/15
f 43/12/43 45/422/45 15/89/15
f 44/68/44 41/25/41 40/65/40
f 16/47/16 18/48/18 14/10/14
f 17/15/17 46/14/46 48/11/48
f 47/91/47 44/68/44 43/67/43
f 19/49/19 21/50/21 17/93/17
f 20/18/20 49/17/49 51/95/51
f 47/91/47 46/423/46 51/73/51
f 19/49/19 22/51/22 24/16/24
f 52/96/52 54/417/54 24/16/24
f 50/72/50 49/71/49 54/75/54
f 25/97/25 27/424/27 23/52/23
f 55/23/55 57/20/57 27/54/27
f 56/77/56 53/26/53 52/74/52
f 25/98/25 28/55/28 30/57/30
f 29/56/29 58/101/58 60/100/60
f 56/77/56 55/76/55 60/80/60
f 28/55/28 2/35/2 1/34/1
f 59/27/59 58/79/58 31/58/31
f 1/34/1 31/425/31 58/101/58
f 62/102/62 74/106/74 73/103/73
f 62/102/62 63/426/63 75/105/75
f 63/107/63 64/427/64 76/108/76
f 64/110/64 65/113/65 77/111/77
f 65/113/65 66/115/66 78/114/78
f 66/115/66 67/428/67 79/116/79
f 67/117/67 68/429/68 80/118/80
f 69/120/69 81/124/81 80/121/80
f 70/123/70 82/126/82 81/124/81
f 71/125/71 83/430/83 82/126/82
f 72/127/72 84/431/84 83/128/83
f 61/104/61 73/103/73 84/130/84
f 73/103/73 74/106/74 86/132/86
f 74/106/74 75/105/75 87/134/87
f 75/109/75 76/108/76 88/135/88
f 76/112/76 77/111/77 89/137/89
f 77/111/77 78/114/78 90/139/90
f 78/114/78 79/116/79 91/140/91
f 79/119/79 80/118/80 92/141/92
f 80/118/80 81/432/81 93/143/93
f 81/124/81 82/126/82 94/144/94
f 82/126/82 83/430/83 95/146/95
f 83/128/83 84/431/84 96/147/96
f 84/130/84 73/103/73 85/133/85
f 85/133/85 86/132/86 98/150/98
f 87/134/87 99/168/99 98/150/98
f 88/135/88 100/169/100 99/152/99
f 89/137/89 101/154/101 100/153/100
f 90/139/90 102/155/102 101/154/101
f 91/140/91 103/173/103 102/155/102
f 91/142/91 92/141/92 104/156/104
f 92/158/92 93/145/93 105/159/105
f 93/145/93 94/144/94 106/161/106
f 94/144/94 95/146/95 107/162/107
f 95/148/95 96/147/96 108/163/108
f 96/149/96 85/133/85 97/151/97
f 97/151/97 98/150/98 110/166/110
f 99/168/99 111/433/111 110/166/110
f 100/169/100 112/189/112 111/170/111
f 101/154/101 113/172/113 112/171/112
f 102/155/102 114/174/114 113/172/113
f 103/173/103 115/434/115 114/174/114
f 103/157/103 104/156/104 116/175/116
f 104/160/104 105/159/105 117/177/117
f 105/159/105 106/161/106 118/179/118
f 106/161/106 107/162/107 119/180/119
f 107/164/107 108/163/108 120/181/120
f 108/165/108 97/151/97 109/167/109
f 109/167/109 110/166/110 122/184/122
f 110/166/110 111/433/111 123/186/123
f 111/170/111 112/189/112 124/187/124
f 112/189/112 113/435/113 125/190/125
f 113/172/113 114/174/114 126/191/126
f 114/174/114 115/434/115 127/193/127
f 115/176/115 116/175/116 128/194/128
f 116/175/116 117/436/117 129/196/129
f 118/179/118 130/198/130 129/197/129
f 119/180/119 131/437/131 130/198/130
f 120/181/120 132/438/132 131/199/131
f 109/167/109 121/185/121 132/200/132
f 121/185/121 122/184/122 134/201/134
f 123/186/123 135/220/135 134/201/134
f 124/187/124 136/221/136 135/203/135
f 125/192/125 137/206/137 136/204/136
f 126/191/126 138/207/138 137/206/137
f 127/193/127 139/225/139 138/207/138
f 127/195/127 128/194/128 140/208/140
f 128/210/128 129/197/129 141/211/141
f 129/197/129 130/198/130 142/213/142
f 130/198/130 131/437/131 143/214/143
f 131/199/131 132/438/132 144/215/144
f 132/200/132 121/185/121 133/202/133
f 133/202/133 134/201/134 146/218/146
f 135/220/135 147/439/147 146/218/146
f 136/221/136 148/241/148 147/222/147
f 137/206/137 149/224/149 148/223/148
f 138/207/138 150/226/150 149/224/149
f 139/225/139 151/440/151 150/226/150
f 139/209/139 140/208/140 152/227/152
f 140/212/140 141/211/141 153/229/153
f 141/211/141 142/213/142 154/231/154
f 142/213/142 143/214/143 155/232/155
f 143/216/143 144/215/144 156/233/156
f 144/217/144 133/202/133 145/219/145
f 145/219/145 146/218/146 158/236/158
f 146/218/146 147/439/147 159/238/159
f 147/222/147 148/241/148 160/239/160
f 148/241/148 149/441/149 161/242/161
f 149/224/149 150/226/150 162/243/162
f 150/226/150 151/440/151 163/245/163
f 151/228/151 152/227/152 164/246/164
f 153/248/153 165/442/165 164/246/164
f 154/231/154 166/250/166 165/249/165
f 155/232/155 167/443/167 166/250/166
f 156/233/156 168/253/168 167/251/167
f 145/252/145 157/444/157 168/253/168
f 157/237/157 158/236/158 170/254/170
f 159/238/159 171/274/171 170/254/170
f 160/239/160 172/275/172 171/256/171
f 161/244/161 173/259/173 172/257/172
f 162/243/162 174/260/174 173/259/173
f 163/245/163 175/279/175 174/260/174
f 163/247/163 164/246/164 176/261/176
f 164/263/164 165/249/165 177/264/177
f 165/249/165 166/250/166 178/266/178
f 166/250/166 167/443/167 179/267/179
f 167/251/167 168/253/168 180/268/180
f 168/270/168 157/237/157 169/255/169
f 169/255/169 170/254/170 182/272/182
f 171/274/171 183/445/183 182/272/182
f 172/275/172 184/296/184 183/276/183
f 173/259/173 185/278/185 184/277/184
f 174/260/174 186/280/186 185/278/185
f 175/279/175 187/446/187 186/280/186
f 175/262/175 176/261/176 188/281/188
f 176/265/176 177/264/177 189/283/189
f 177/264/177 178/266/178 190/285/190
f 178/266/178 179/267/179 191/286/191
f 179/269/179 180/268/180 192/287/192
f 180/271/180 169/255/169 181/273/181
f 181/273/181 182/272/182 194/290/194
f 182/292/182 183/276/183 195/293/195
f 183/276/183 184/296/184 196/295/196
f 184/296/184 185/447/185 197/297/197
f 185/278/185 186/280/186 198/298/198
f 186/300/186 187/282/187 199/301/199
f 187/282/187 188/281/188 200/303/200
f 189/304/189 201/448/201 200/303/200
f 190/285/190 202/306/202 201/305/201
f 191/286/191 203/449/203 202/306/202
f 192/287/192 204/309/204 203/307/203
f 181/308/181 193/450/193 204/309/204
f 193/291/193 194/290/194 206/310/206
f 195/312/195 207/332/207 206/310/206
f 196/295/196 208/333/208 207/313/207
f 197/299/197 209/316/209 208/314/208
f 198/298/198 210/318/210 209/316/209
f 199/317/199 211/337/211 210/318/210
f 199/301/199 200/303/200 212/319/212
f 200/321/200 201/305/201 213/322/213
f 201/305/201 202/306/202 214/324/214
f 202/306/202 203/449/203 215/325/215
f 203/307/203 204/309/204 216/326/216
f 204/328/204 193/291/193 205/311/205
f 205/311/205 206/310/206 218/330/218
f 207/332/207 219/451/219 218/330/218
f 208/333/208 220/353/220 219/334/219
f 209/316/209 221/336/221 220/335/220
f 210/318/210 222/338/222 221/336/221
f 211/337/211 223/452/223 222/338/222
f 211/320/211 212/319/212 224/339/224
f 212/323/212 213/322/213 225/341/225
f 213/322/213 214/324/214 226/343/226
f 214/324/214 215/325/215 227/344/227
f 215/327/215 216/326/216 228/345/228
f 216/329/216 205/311/205 217/331/217
f 218/330/218 230/368/230 229/348/229
f 218/349/218 219/334/219 231/350/231
f 219/334/219 220/353/220 232/352/232
f 220/353/220 221/453/221 233/354/233
f 221/336/221 222/338/222 234/355/234
f 222/357/222 223/340/223 235/358/235
f 223/340/223 224/339/224 236/360/236
f 225/361/225 237/379/237 236/360/236
f 226/343/226 238/380/238 237/362/237
f 227/346/227 239/365/239 238/363/238
f 228/345/228 240/367/240 239/365/239
f 217/366/217 229/384/229 240/367/240
f 230/368/230 242/454/242 241/369/241
f 230/351/230 231/350/231 243/370/243
f 231/350/231 232/352/232 244/372/244
f 232/352/232 233/354/233 245/373/245
f 233/356/233 234/355/234 246/374/246
f 234/359/234 235/358/235 247/376/247
f 235/358/235 236/360/236 248/378/248
f 237/379/237 249/455/249 248/378/248
f 238/380/238 250/456/250 249/381/249
f 239/365/239 251/383/251 250/382/250
f 240/367/240 252/385/252 251/383/251
f 229/384/229 241/457/241 252/385/252
f 241/369/241 242/454/242 254/386/254
f 243/370/243 255/389/255 254/388/254
f 244/372/244 256/390/256 255/389/255
f 245/373/245 257/458/257 256/390/256
f 246/374/246 258/459/258 257/391/257
f 247/376/247 259/393/259 258/392/258
f 248/378/248 260/395/260 259/393/259
f 248/378/248 249/455/249 261/394/261
f 249/381/249 250/456/250 262/396/262
f 250/382/250 251/383/251 263/398/263
f 251/383/251 252/385/252 264/400/264
f 252/385/252 241/457/241 253/401/253
f 61/404/61 72/460/72 71/461/71
f 71/461/71 70/462/70 69/402/69
f 69/402/69 68/463/68 67/464/67
f 67/464/67 66/465/66 65/403/65
f 65/403/65 64/466/64 63/467/63
f 63/467/63 62/468/62 61/404/61
f 61/404/61 71/461/71 69/402/69
f 69/402/69 67/464/67 65/403/65
f 65/403/65 63/467/63 61/404/61
f 264/407/264 253/469/253 254/470/254
f 254/470/254 255/471/255 256/405/256
f 256/405/256 257/472/257 258/473/258
f 258/473/258 259/474/259 260/406/260
f 260/406/260 261/475/261 262/476/262
f 262/476/262 263/477/263 264/407/264
f 264/407/264 254/470/254 256/405/256
f 256/405/256 258/473/258 260/406/260
f 260/406/260 262/476/262 264/407/264
