# Blender 4.3.2
# www.blender.org
o gold_pillar_3
v -0.120836 -0.371297 -0.170509
v -0.124185 -0.384836 -0.158639
v -0.138317 -0.373300 -0.157016
v -0.200440 -0.402185 -0.025241
v -0.210323 -0.391655 -0.013974
v -0.207599 -0.389062 -0.035826
v -0.159280 -0.418254 0.122942
v -0.159302 -0.407918 0.138067
v -0.172931 -0.406254 0.120656
v -0.024816 -0.423630 0.199108
v -0.015138 -0.412563 0.210038
v -0.037136 -0.412803 0.207267
v 0.124185 -0.415164 0.158639
v 0.137716 -0.402867 0.159775
v 0.120235 -0.404871 0.173268
v 0.200440 -0.397815 0.025241
v 0.209715 -0.384512 0.016727
v 0.206992 -0.387105 0.038579
v 0.159280 -0.381746 -0.122942
v 0.158688 -0.368250 -0.135308
v 0.172318 -0.369914 -0.117898
v 0.024816 -0.376370 -0.199108
v 0.014530 -0.363606 -0.207273
v 0.036528 -0.363366 -0.204503
v -0.153901 1.336084 0.040173
v -0.171567 1.341099 0.054485
v -0.157367 1.352769 0.054622
v -0.238874 1.392012 0.194167
v -0.229454 1.400904 0.185282
v -0.235897 1.384057 0.171096
v -0.192864 1.438739 0.340860
v -0.193019 1.446395 0.328950
v -0.206304 1.432671 0.322575
v -0.060476 1.452628 0.408515
v -0.070945 1.462479 0.400824
v -0.082483 1.453283 0.405848
v 0.080772 1.425747 0.357536
v 0.065932 1.440221 0.360391
v 0.063063 1.432539 0.372024
v 0.148108 1.375087 0.217891
v 0.138019 1.392086 0.229731
v 0.145109 1.382790 0.240932
v 0.102061 1.330154 0.071371
v 0.101583 1.346595 0.086063
v 0.115545 1.334427 0.089477
v -0.030356 1.315993 0.003676
v -0.020491 1.330511 0.014189
v -0.008326 1.315610 0.006376
v -0.163268 0.727332 -0.056289
v -0.165452 0.718299 -0.048313
v -0.174921 0.725996 -0.047293
v -0.249834 0.699101 0.099301
v -0.256497 0.706121 0.106803
v -0.254681 0.707850 0.092235
v -0.204287 0.681320 0.263277
v -0.204359 0.688204 0.273404
v -0.213445 0.689314 0.261797
v -0.055492 0.675371 0.347560
v -0.049050 0.682741 0.354918
v -0.063715 0.682581 0.353071
v 0.109388 0.684740 0.302778
v 0.118454 0.692932 0.303593
v 0.106800 0.691597 0.312589
v 0.193770 0.703938 0.155164
v 0.200029 0.712807 0.149497
v 0.198214 0.711078 0.164065
v 0.148224 0.721719 -0.008812
v 0.147891 0.730724 -0.017104
v 0.156978 0.729615 -0.005497
v -0.000571 0.727668 -0.093095
v -0.007418 0.736187 -0.098618
v 0.007247 0.736347 -0.096771
v -0.164127 0.761096 -0.052389
v -0.175781 0.759761 -0.043393
v -0.166715 0.767953 -0.042578
v -0.257356 0.739886 0.110703
v -0.251097 0.748755 0.105036
v -0.255541 0.741614 0.096135
v -0.205218 0.721969 0.277304
v -0.205551 0.730974 0.269012
v -0.214305 0.723078 0.265697
v -0.049909 0.716506 0.358818
v -0.056756 0.725025 0.353295
v -0.064574 0.716346 0.356971
v 0.117594 0.726697 0.307493
v 0.108125 0.734394 0.308513
v 0.105941 0.725361 0.316489
v 0.199170 0.746572 0.153397
v 0.192506 0.753592 0.160899
v 0.197354 0.744843 0.167965
v 0.147032 0.764489 -0.013204
v 0.146960 0.771373 -0.003077
v 0.156118 0.763379 -0.001597
v -0.008278 0.769952 -0.094718
v -0.001835 0.777321 -0.087360
v 0.006388 0.770111 -0.092871
v -0.159823 0.591982 -0.071922
v -0.162007 0.582949 -0.063947
v -0.171477 0.590646 -0.062927
v -0.246389 0.563752 0.083667
v -0.253053 0.570771 0.091169
v -0.251237 0.572500 0.076601
v -0.200843 0.545970 0.247643
v -0.200915 0.552855 0.257771
v -0.210001 0.553964 0.246164
v -0.052048 0.540022 0.331926
v -0.045605 0.547392 0.339284
v -0.060270 0.547232 0.337437
v 0.112833 0.549390 0.287144
v 0.121898 0.557583 0.287960
v 0.110244 0.556247 0.296955
v 0.197215 0.568588 0.139530
v 0.203474 0.577458 0.133863
v 0.201658 0.575729 0.148431
v 0.151668 0.586369 -0.024446
v 0.151336 0.595374 -0.032738
v 0.160422 0.594265 -0.021131
v 0.002873 0.592318 -0.108729
v -0.003974 0.600837 -0.114251
v 0.010692 0.600997 -0.112404
v -0.160682 0.625746 -0.068022
v -0.172336 0.624411 -0.059027
v -0.163271 0.632603 -0.058212
v -0.253912 0.604536 0.095069
v -0.247653 0.613405 0.089402
v -0.252096 0.606265 0.080502
v -0.201774 0.586619 0.261671
v -0.202106 0.595624 0.253379
v -0.210860 0.587729 0.250064
v -0.046464 0.581156 0.343184
v -0.053312 0.589676 0.337662
v -0.061130 0.580996 0.341337
v 0.121039 0.591347 0.291860
v 0.111569 0.599044 0.292880
v 0.109385 0.590012 0.300855
v 0.202614 0.611222 0.137763
v 0.195951 0.618242 0.145265
v 0.200799 0.609493 0.152331
v 0.150477 0.629139 -0.028838
v 0.150404 0.636023 -0.018711
v 0.159563 0.628029 -0.017231
v -0.004833 0.634602 -0.110351
v 0.001610 0.641972 -0.102994
v 0.009832 0.634762 -0.108504
v -0.166158 0.840911 -0.043169
v -0.168342 0.831878 -0.035194
v -0.177812 0.839575 -0.034174
v -0.252724 0.812680 0.112420
v -0.259387 0.819700 0.119922
v -0.257572 0.821429 0.105354
v -0.207177 0.794899 0.276396
v -0.207250 0.801783 0.286523
v -0.216336 0.802893 0.274917
v -0.058383 0.788951 0.360679
v -0.051940 0.796320 0.368037
v -0.066605 0.796161 0.366190
v 0.106498 0.798319 0.315897
v 0.115563 0.806511 0.316713
v 0.103909 0.805176 0.325708
v 0.190880 0.817517 0.168283
v 0.197139 0.826386 0.162616
v 0.195323 0.824658 0.177184
v 0.145333 0.835298 0.004307
v 0.145001 0.844303 -0.003985
v 0.154087 0.843194 0.007622
v -0.003461 0.841247 -0.079976
v -0.010309 0.849766 -0.085498
v 0.004357 0.849926 -0.083652
v -0.167017 0.874675 -0.039269
v -0.178671 0.873340 -0.030274
v -0.169606 0.881532 -0.029459
v -0.260247 0.853465 0.123822
v -0.253988 0.862334 0.118155
v -0.258431 0.855194 0.109254
v -0.208109 0.835548 0.290424
v -0.208441 0.844553 0.282131
v -0.217195 0.836657 0.278817
v -0.052799 0.830085 0.371937
v -0.059646 0.838605 0.366414
v -0.067465 0.829925 0.370090
v 0.114704 0.840276 0.320613
v 0.105234 0.847973 0.321633
v 0.103050 0.838940 0.329608
v 0.196280 0.860151 0.166516
v 0.189616 0.867171 0.174018
v 0.194464 0.858422 0.181084
v 0.144142 0.878068 -0.000085
v 0.144070 0.884952 0.010042
v 0.153228 0.876958 0.011522
v -0.011168 0.883531 -0.081598
v -0.004725 0.890901 -0.074241
v 0.003497 0.883691 -0.079752
v 0.028556 -0.392135 -0.566116
v 0.020582 -0.403654 -0.555372
v 0.008649 -0.391557 -0.560165
v -0.085390 -0.398106 -0.443086
v -0.095066 -0.385662 -0.435131
v -0.090279 -0.386377 -0.455344
v -0.041051 -0.394451 -0.295133
v -0.038555 -0.382114 -0.282752
v -0.053674 -0.382251 -0.297014
v 0.109261 -0.396346 -0.259467
v 0.121670 -0.384461 -0.255411
v 0.101763 -0.383882 -0.249460
v 0.215233 -0.401894 -0.371754
v 0.225381 -0.390355 -0.380445
v 0.220593 -0.389640 -0.360232
v 0.170894 -0.405549 -0.519707
v 0.168872 -0.393903 -0.532820
v 0.183991 -0.393766 -0.518558
v 0.056865 0.842226 -0.591300
v 0.037038 0.846494 -0.585452
v 0.049386 0.856316 -0.581126
v -0.057256 0.869550 -0.470568
v -0.047066 0.879286 -0.479099
v -0.052495 0.867816 -0.490741
v -0.004732 0.863632 -0.330562
v -0.006750 0.875820 -0.343912
v -0.019783 0.866328 -0.344912
v 0.142119 0.834991 -0.305447
v 0.130262 0.849341 -0.310527
v 0.122277 0.839087 -0.299611
v 0.236431 0.812096 -0.420354
v 0.226714 0.826371 -0.412554
v 0.231657 0.813668 -0.400157
v 0.183877 0.817681 -0.560354
v 0.186398 0.829838 -0.547741
v 0.198955 0.815319 -0.546014
v 0.035681 0.358185 -0.603071
v 0.030390 0.350507 -0.595826
v 0.022411 0.358571 -0.599103
v -0.087988 0.356705 -0.470394
v -0.094521 0.365003 -0.465110
v -0.091330 0.364526 -0.478586
v -0.038458 0.360788 -0.305120
v -0.036852 0.369016 -0.296805
v -0.046932 0.368925 -0.306313
v 0.129451 0.358671 -0.265279
v 0.137748 0.366597 -0.262492
v 0.124477 0.366983 -0.258525
v 0.247829 0.352473 -0.390711
v 0.254680 0.360165 -0.396485
v 0.251488 0.360642 -0.383010
v 0.198299 0.348391 -0.555985
v 0.197011 0.356152 -0.564790
v 0.207090 0.356243 -0.555283
v 0.036357 0.392163 -0.604112
v 0.023086 0.392548 -0.600145
v 0.031384 0.400474 -0.597358
v -0.093846 0.398980 -0.466152
v -0.086995 0.406672 -0.471926
v -0.090654 0.398503 -0.479627
v -0.036177 0.402993 -0.297846
v -0.037465 0.410754 -0.306652
v -0.046256 0.402902 -0.307354
v 0.138423 0.400575 -0.263534
v 0.130444 0.408638 -0.266811
v 0.125153 0.400960 -0.259566
v 0.255355 0.394143 -0.397527
v 0.248823 0.402440 -0.392243
v 0.252164 0.394619 -0.384051
v 0.197687 0.390129 -0.565832
v 0.199293 0.398358 -0.557517
v 0.207766 0.390220 -0.556324
v 0.512548 -0.383285 -0.091618
v 0.506713 -0.395353 -0.103119
v 0.515160 -0.382801 -0.112233
v 0.463738 -0.395435 -0.205597
v 0.459620 -0.383386 -0.217839
v 0.476154 -0.382875 -0.205255
v 0.353605 -0.400082 -0.219657
v 0.340502 -0.388599 -0.222576
v 0.359647 -0.387604 -0.230606
v 0.286448 -0.404647 -0.131240
v 0.276928 -0.393228 -0.121699
v 0.279539 -0.392743 -0.142314
v 0.329423 -0.404565 -0.028762
v 0.332476 -0.392642 -0.016093
v 0.315942 -0.393153 -0.028678
v 0.439556 -0.399918 -0.014702
v 0.451590 -0.387429 -0.011363
v 0.432444 -0.388424 -0.003334
v 0.457019 0.647119 -0.074456
v 0.459428 0.652097 -0.095007
v 0.450137 0.663805 -0.084655
v 0.405733 0.694587 -0.190814
v 0.408813 0.702542 -0.178384
v 0.422657 0.686563 -0.178400
v 0.294894 0.721989 -0.193728
v 0.306450 0.730332 -0.190698
v 0.314176 0.719443 -0.201825
v 0.237749 0.705798 -0.100869
v 0.245908 0.719715 -0.110726
v 0.240106 0.712381 -0.121358
v 0.291395 0.663809 -0.005019
v 0.287232 0.680977 -0.016997
v 0.274511 0.671332 -0.017475
v 0.402227 0.637510 -0.002079
v 0.389595 0.653188 -0.004683
v 0.382956 0.638952 0.006000
v 0.494245 0.308502 -0.081183
v 0.490280 0.300453 -0.088860
v 0.495986 0.308825 -0.094926
v 0.441652 0.300361 -0.204817
v 0.438950 0.308396 -0.213037
v 0.449973 0.308737 -0.204647
v 0.317032 0.295102 -0.220727
v 0.308269 0.302757 -0.222738
v 0.321033 0.303420 -0.228091
v 0.241041 0.289936 -0.120679
v 0.234624 0.297547 -0.114328
v 0.236365 0.297869 -0.128071
v 0.289669 0.290029 -0.004722
v 0.291660 0.297975 0.003783
v 0.280637 0.297634 -0.004607
v 0.414289 0.295288 0.011188
v 0.422341 0.303614 0.013484
v 0.409577 0.302951 0.018837
v 0.492735 0.342463 -0.080577
v 0.494476 0.342786 -0.094319
v 0.488059 0.350396 -0.087968
v 0.437440 0.342357 -0.212430
v 0.439430 0.350303 -0.203925
v 0.448462 0.342698 -0.204041
v 0.306759 0.336718 -0.222131
v 0.314811 0.345045 -0.219835
v 0.319522 0.337381 -0.227485
v 0.233114 0.331508 -0.113722
v 0.238820 0.339879 -0.119788
v 0.234855 0.331830 -0.127465
v 0.290149 0.331936 0.004389
v 0.287448 0.339972 -0.003831
v 0.279127 0.331595 -0.004001
v 0.420830 0.337575 0.014090
v 0.412068 0.345230 0.012079
v 0.408067 0.336912 0.019443
v 0.495675 0.276358 -0.081757
v 0.491710 0.268309 -0.089433
v 0.497416 0.276681 -0.095499
v 0.443081 0.268217 -0.205391
v 0.440380 0.276252 -0.213610
v 0.451403 0.276593 -0.205221
v 0.318462 0.262958 -0.221301
v 0.309699 0.270613 -0.223312
v 0.322462 0.271276 -0.228665
v 0.242470 0.257792 -0.121253
v 0.236054 0.265402 -0.114902
v 0.237795 0.265725 -0.128645
v 0.291099 0.257885 -0.005296
v 0.293089 0.265831 0.003209
v 0.282067 0.265490 -0.005181
v 0.415719 0.263144 0.010614
v 0.423770 0.271470 0.012910
v 0.411007 0.270807 0.018263
v 0.494164 0.310319 -0.081150
v 0.495905 0.310642 -0.094893
v 0.489489 0.318252 -0.088542
v 0.438870 0.310213 -0.213004
v 0.440860 0.318159 -0.204499
v 0.449892 0.310554 -0.204614
v 0.308189 0.304574 -0.222705
v 0.316240 0.312901 -0.220409
v 0.320952 0.305237 -0.228058
v 0.234543 0.299364 -0.114296
v 0.240249 0.307735 -0.120362
v 0.236284 0.299686 -0.128038
v 0.291579 0.299792 0.003815
v 0.288878 0.307828 -0.004404
v 0.280556 0.299451 -0.004575
v 0.422260 0.305431 0.013516
v 0.413497 0.313086 0.011506
v 0.409497 0.304768 0.018869
v 0.496456 0.258800 -0.082070
v 0.492491 0.250751 -0.089747
v 0.498197 0.259123 -0.095813
v 0.443862 0.250658 -0.205704
v 0.441161 0.258694 -0.213924
v 0.452183 0.259035 -0.205534
v 0.319243 0.245400 -0.221614
v 0.310480 0.253055 -0.223625
v 0.323243 0.253718 -0.228978
v 0.243251 0.240234 -0.121567
v 0.236835 0.247844 -0.115215
v 0.238576 0.248167 -0.128958
v 0.291880 0.240327 -0.005609
v 0.293870 0.248273 0.002896
v 0.282848 0.247932 -0.005494
v 0.416499 0.245586 0.010301
v 0.424551 0.253912 0.012597
v 0.411788 0.253249 0.017950
v 0.494945 0.292761 -0.081464
v 0.496686 0.293084 -0.095207
v 0.490269 0.300694 -0.088855
v 0.439650 0.292655 -0.213318
v 0.441641 0.300601 -0.204813
v 0.450673 0.292996 -0.204928
v 0.308969 0.287016 -0.223019
v 0.317021 0.295342 -0.220723
v 0.321733 0.287679 -0.228372
v 0.235324 0.281805 -0.114609
v 0.241030 0.290177 -0.120675
v 0.237065 0.282128 -0.128352
v 0.292360 0.282234 0.003502
v 0.289659 0.290270 -0.004718
v 0.281337 0.281893 -0.004888
v 0.423041 0.287873 0.013203
v 0.414278 0.295528 0.011192
v 0.410277 0.287210 0.018556
vn 0.0253 -0.9931 -0.1147
vn -0.4933 -0.1038 0.8636
vn 0.2677 -0.0955 0.9588
vn 0.8712 -0.0259 0.4902
vn 0.9623 0.0639 -0.2643
vn 0.4917 0.1213 -0.8623
vn 0.0609 0.9470 -0.3153
vn -0.8698 0.0438 -0.4915
vn -0.9638 -0.0461 0.2627
vn -0.4916 -0.5022 -0.7115
vn -0.8021 -0.5730 -0.1680
vn -0.6344 -0.6387 0.4355
vn -0.0867 -0.6606 0.7457
vn 0.5202 -0.6260 0.5809
vn 0.8309 -0.5552 0.0377
vn 0.6633 -0.4895 -0.5660
vn 0.1155 -0.4676 -0.8764
vn -0.4340 0.5366 -0.7237
vn -0.7871 0.5447 -0.2894
vn -0.7478 0.5540 0.3658
vn -0.0836 0.5565 0.8266
vn 0.6436 0.5561 0.5259
vn 0.8340 0.5467 -0.0742
vn 0.6106 0.5375 -0.5816
vn 0.1122 0.5317 -0.8395
vn -0.6125 0.0851 -0.7859
vn -0.5999 -0.6743 -0.4306
vn -0.9923 -0.0014 -0.1238
vn -0.5333 0.6549 -0.5355
vn -0.6665 -0.7380 0.1051
vn -0.7886 -0.0812 0.6095
vn -0.7075 0.7053 -0.0439
vn -0.3324 -0.7789 0.5318
vn -0.1231 -0.1080 0.9865
vn -0.3960 0.7701 0.5002
vn 0.2068 -0.7731 0.5997
vn 0.6144 -0.0659 0.7862
vn 0.2942 0.7626 0.5762
vn 0.6353 -0.7239 0.2690
vn 0.9918 0.0203 0.1260
vn 0.7049 0.6969 0.1322
vn 0.7021 -0.6602 -0.2666
vn 0.7881 0.1002 -0.6074
vn 0.6597 0.6520 -0.3737
vn 0.3681 -0.6193 -0.6935
vn 0.1226 0.1269 -0.9843
vn 0.3282 0.6347 -0.6995
vn -0.1713 -0.6251 -0.7615
vn -0.1220 0.6351 -0.7627
vn -0.2664 0.1131 -0.9572
vn -0.4931 -0.1122 0.8627
vn 0.2662 -0.1039 0.9583
vn 0.8696 -0.0348 0.4926
vn 0.9636 0.0548 -0.2617
vn 0.4931 0.1122 -0.8627
vn -0.0253 0.9931 0.1147
vn -0.8696 0.0348 -0.4926
vn -0.9636 -0.0548 0.2617
vn -0.4891 -0.5078 -0.7091
vn -0.7984 -0.5782 -0.1681
vn -0.6315 -0.6434 0.4328
vn -0.0861 -0.6652 0.7417
vn 0.5181 -0.6308 0.5776
vn 0.8274 -0.5605 0.0366
vn 0.6605 -0.4953 -0.5643
vn 0.1151 -0.4735 -0.8732
vn -0.5181 0.6308 -0.5776
vn -0.8274 0.5605 -0.0366
vn -0.6604 0.4953 0.5643
vn -0.1151 0.4735 0.8732
vn 0.4891 0.5078 0.7091
vn 0.7984 0.5782 0.1681
vn 0.6315 0.6434 -0.4328
vn 0.0861 0.6652 -0.7417
vn -0.6147 0.0751 -0.7852
vn -0.5970 -0.6776 -0.4294
vn -0.9921 -0.0108 -0.1249
vn -0.6328 0.7268 -0.2672
vn -0.6635 -0.7409 0.1040
vn -0.7884 -0.0904 0.6085
vn -0.6992 0.6635 0.2662
vn -0.3308 -0.7815 0.5289
vn -0.1228 -0.1170 0.9855
vn -0.3666 0.6229 0.6911
vn 0.2061 -0.7757 0.5965
vn 0.6147 -0.0751 0.7852
vn 0.1703 0.6287 0.7587
vn 0.6328 -0.7268 0.2672
vn 0.9921 0.0108 0.1249
vn 0.5970 0.6776 0.4294
vn 0.6992 -0.6635 -0.2662
vn 0.7884 0.0904 -0.6085
vn 0.6635 0.7409 -0.1040
vn 0.3666 -0.6229 -0.6911
vn 0.1228 0.1170 -0.9855
vn 0.3308 0.7815 -0.5289
vn -0.1704 -0.6287 -0.7587
vn -0.2061 0.7757 -0.5965
vn -0.2662 0.1039 -0.9583
vn 0.6604 -0.4953 -0.5643
vn -0.7884 -0.0903 0.6085
vn 0.1704 0.6287 0.7587
vn 0.6635 0.7409 -0.1039
vn -0.1703 -0.6287 -0.7587
vn -0.0199 -0.9993 0.0306
vn -0.2286 0.0435 0.9725
vn 0.7284 0.0159 0.6850
vn 0.9579 -0.0183 -0.2866
vn 0.1976 0.9797 -0.0338
vn -0.7272 0.0027 -0.6864
vn -0.9574 0.0369 0.2865
vn -0.2520 -0.5610 -0.7885
vn -0.8286 -0.5309 -0.1775
vn -0.5874 -0.5110 0.6276
vn 0.2305 -0.5211 0.8217
vn 0.8073 -0.5512 0.2107
vn 0.5660 -0.5712 -0.5945
vn -0.1316 0.5334 -0.8356
vn -0.7666 0.5987 -0.2324
vn -0.4894 0.6059 0.6271
vn 0.3382 0.5498 0.7638
vn 0.8548 0.4924 0.1637
vn 0.6416 0.4841 -0.5949
vn -0.2854 -0.0130 -0.9583
vn -0.5307 -0.7080 -0.4659
vn -0.9726 0.0228 -0.2312
vn -0.3981 0.7395 -0.5429
vn -0.6943 -0.6837 0.2250
vn -0.6857 0.0465 0.7264
vn -0.5871 0.7856 0.1952
vn -0.1776 -0.6790 0.7124
vn 0.2872 0.0345 0.9573
vn -0.0223 0.7368 0.6758
vn 0.5028 -0.6987 0.5090
vn 0.9731 -0.0013 0.2305
vn 0.6142 0.6605 0.4319
vn 0.6664 -0.7230 -0.1819
vn 0.6861 -0.0250 -0.7271
vn 0.7519 0.6255 -0.2082
vn 0.1497 -0.7277 -0.6694
vn 0.2959 0.6574 -0.6930
vn 0.2305 -0.0250 -0.9727
vn -0.2303 0.0344 0.9725
vn 0.7274 0.0066 0.6862
vn 0.9577 -0.0278 -0.2863
vn 0.0199 0.9993 -0.0306
vn -0.7274 -0.0066 -0.6862
vn -0.9577 0.0278 0.2863
vn -0.2510 -0.5672 -0.7844
vn -0.8249 -0.5371 -0.1764
vn -0.5848 -0.5173 0.6248
vn 0.2292 -0.5276 0.8180
vn 0.8031 -0.5576 0.2099
vn 0.5630 -0.5774 -0.5913
vn -0.2292 0.5276 -0.8180
vn -0.8031 0.5576 -0.2099
vn -0.5630 0.5774 0.5913
vn 0.2510 0.5672 0.7844
vn 0.8249 0.5371 0.1764
vn 0.5848 0.5173 -0.6248
vn -0.2870 -0.0237 -0.9576
vn -0.5284 -0.7113 -0.4635
vn -0.9729 0.0123 -0.2309
vn -0.5003 0.7020 -0.5069
vn -0.6913 -0.6870 0.2241
vn -0.6859 0.0359 0.7268
vn -0.6632 0.7263 0.1808
vn -0.1769 -0.6823 0.7093
vn 0.2870 0.0237 0.9576
vn -0.1488 0.7310 0.6660
vn 0.5003 -0.7020 0.5069
vn 0.9729 -0.0123 0.2309
vn 0.5284 0.7113 0.4635
vn 0.6632 -0.7263 -0.1808
vn 0.6859 -0.0359 -0.7268
vn 0.6913 0.6870 -0.2241
vn 0.1488 -0.7310 -0.6660
vn 0.1769 0.6823 -0.7093
vn 0.2303 -0.0344 -0.9725
vn 0.0444 -0.9989 -0.0178
vn -0.7961 -0.0170 -0.6049
vn -0.9203 -0.0402 0.3891
vn -0.1235 -0.0152 0.9922
vn 0.2183 0.9321 0.2890
vn 0.9207 0.0560 -0.3861
vn 0.1253 0.0311 -0.9916
vn 0.8569 -0.5064 0.0966
vn 0.5318 -0.5073 -0.6781
vn -0.3008 -0.5426 -0.7843
vn -0.8084 -0.5771 -0.1160
vn -0.4837 -0.5762 0.6588
vn 0.3491 -0.5409 0.7652
vn 0.8489 0.4823 0.2163
vn 0.6460 0.5601 -0.5186
vn -0.2386 0.6061 -0.7588
vn -0.8345 0.5454 0.0792
vn -0.3823 0.4646 0.7988
vn 0.3752 0.4380 0.8169
vn 0.9904 0.0512 0.1285
vn 0.6853 -0.6694 -0.2868
vn 0.6039 0.0502 -0.7955
vn 0.7543 0.6535 -0.0625
vn 0.1205 -0.6870 -0.7166
vn -0.3871 0.0081 -0.9220
vn 0.2787 0.7760 -0.5659
vn -0.5333 -0.7210 -0.4423
vn -0.9914 -0.0329 -0.1264
vn -0.5125 0.8117 -0.2802
vn -0.6225 -0.7376 0.2617
vn -0.6047 -0.0319 0.7958
vn -0.5308 0.6747 0.5128
vn -0.0579 -0.7200 0.6915
vn 0.3863 0.0102 0.9223
vn 0.0601 0.5810 0.8117
vn 0.5961 -0.6859 0.4173
vn 0.6100 0.5810 0.5389
vn 0.7951 0.0328 0.6056
vn -0.7955 -0.0246 -0.6055
vn -0.9211 -0.0479 0.3863
vn -0.1256 -0.0233 0.9918
vn -0.0444 0.9989 0.0178
vn 0.9211 0.0479 -0.3863
vn 0.1256 0.0233 -0.9918
vn 0.8535 -0.5121 0.0961
vn 0.5300 -0.5127 -0.6755
vn -0.2992 -0.5477 -0.7813
vn -0.8048 -0.5821 -0.1156
vn -0.4813 -0.5815 0.6559
vn 0.3479 -0.5465 0.7618
vn 0.8048 0.5821 0.1156
vn 0.4813 0.5815 -0.6559
vn -0.3479 0.5465 -0.7618
vn -0.8535 0.5121 -0.0961
vn -0.5300 0.5128 0.6755
vn 0.2992 0.5477 0.7813
vn 0.9911 0.0418 0.1265
vn 0.6827 -0.6725 -0.2858
vn 0.6043 0.0411 -0.7957
vn 0.6199 0.7401 -0.2606
vn 0.1203 -0.6898 -0.7139
vn -0.3867 -0.0007 -0.9222
vn 0.0574 0.7228 -0.6887
vn -0.5311 -0.7237 -0.4407
vn -0.9911 -0.0418 -0.1265
vn -0.5939 0.6889 -0.4155
vn -0.6199 -0.7401 0.2606
vn -0.6043 -0.0411 0.7957
vn -0.6827 0.6725 0.2858
vn -0.0574 -0.7228 0.6887
vn 0.3867 0.0007 0.9222
vn -0.1203 0.6898 0.7139
vn 0.5939 -0.6889 0.4155
vn 0.5311 0.7237 0.4407
vn 0.7955 0.0246 0.6055
vn -0.5300 0.5127 0.6755
vn 0.6827 -0.6724 -0.2858
vn 0.5300 -0.5127 -0.6754
vn -0.4944 -0.1039 0.8630
vn 0.2660 -0.0955 0.9592
vn 0.8693 -0.0260 0.4935
vn 0.9633 0.0638 -0.2607
vn 0.4929 0.1214 -0.8616
vn -0.8678 0.0439 -0.4949
vn -0.9647 -0.0460 0.2593
vn -0.6149 0.0848 -0.7840
vn -0.5998 -0.6744 -0.4306
vn -0.9918 -0.0010 -0.1276
vn -0.5332 0.6550 -0.5354
vn -0.6664 -0.7381 0.1051
vn -0.7901 -0.0811 0.6076
vn -0.7074 0.7054 -0.0439
vn -0.1228 -0.1080 0.9865
vn -0.3959 0.7701 0.5002
vn 0.2068 -0.7730 0.5997
vn 0.6166 -0.0657 0.7845
vn 0.2942 0.7625 0.5762
vn 0.6354 -0.7238 0.2691
vn 0.9923 0.0207 0.1222
vn 0.7050 0.6967 0.1323
vn 0.7023 -0.6601 -0.2666
vn 0.7865 0.1003 -0.6094
vn 0.6598 0.6519 -0.3737
vn 0.3681 -0.6193 -0.6936
vn 0.1229 0.1269 -0.9843
vn 0.3283 0.6347 -0.6996
vn -0.1713 -0.6252 -0.7614
vn -0.1220 0.6352 -0.7627
vn -0.2645 0.1131 -0.9577
vn -0.6635 -0.7409 0.1039
vn -0.2301 0.0437 0.9722
vn 0.7276 0.0161 0.6858
vn 0.9580 -0.0184 -0.2862
vn -0.7264 0.0025 -0.6873
vn -0.9575 0.0370 0.2860
vn -0.2868 -0.0130 -0.9579
vn -0.5307 -0.7081 -0.4658
vn -0.9726 0.0228 -0.2315
vn -0.3981 0.7395 -0.5428
vn -0.6943 -0.6836 0.2250
vn -0.6849 0.0465 0.7271
vn -0.1776 -0.6789 0.7124
vn 0.2885 0.0344 0.9568
vn -0.0223 0.7367 0.6759
vn 0.5028 -0.6986 0.5091
vn 0.9732 -0.0013 0.2301
vn 0.6142 0.6604 0.4320
vn 0.6869 -0.0250 -0.7264
vn 0.7519 0.6256 -0.2082
vn 0.1496 -0.7278 -0.6693
vn 0.2959 0.6575 -0.6929
vn 0.2321 -0.0252 -0.9724
vn -0.7958 -0.0169 -0.6053
vn -0.9214 -0.0399 0.3865
vn -0.1260 -0.0151 0.9919
vn 0.9219 0.0557 -0.3835
vn 0.1276 0.0310 -0.9913
vn 0.9906 0.0513 0.1267
vn 0.6852 -0.6695 -0.2868
vn 0.6061 0.0502 -0.7938
vn 0.7542 0.6537 -0.0624
vn 0.1205 -0.6871 -0.7165
vn -0.3862 0.0081 -0.9224
vn 0.2787 0.7760 -0.5657
vn -0.5334 -0.7210 -0.4423
vn -0.9916 -0.0330 -0.1247
vn -0.6226 -0.7375 0.2617
vn -0.6025 -0.0318 0.7975
vn -0.5310 0.6746 0.5129
vn -0.0579 -0.7199 0.6916
vn 0.3872 0.0103 0.9219
vn 0.0601 0.5809 0.8117
vn 0.5961 -0.6860 0.4173
vn 0.7948 0.0327 0.6060
vn -0.6827 0.6724 0.2858
vt 0.022204 0.560523
vt 0.006398 0.536111
vt 0.042266 0.526293
vt 0.375640 0.263548
vt 0.393957 0.008560
vt 0.394916 0.263548
vt 0.621983 0.472380
vt 0.602475 0.273010
vt 0.619508 0.267587
vt 0.628288 0.198284
vt 0.625117 0.009930
vt 0.642969 0.005938
vt 0.475029 0.251584
vt 0.462774 0.016417
vt 0.475029 0.008554
vt 0.458804 0.252073
vt 0.442452 0.019739
vt 0.459971 0.017263
vt 0.861799 0.751794
vt 0.848103 0.717321
vt 0.881268 0.702494
vt 0.022041 0.523837
vt 0.047467 0.349608
vt 0.041308 0.523970
vt 0.397698 0.263550
vt 0.408806 0.017107
vt 0.410992 0.263580
vt 0.044143 0.524771
vt 0.021059 0.526146
vt 0.019257 0.524599
vt 0.395846 0.265198
vt 0.374630 0.265198
vt 0.372801 0.263550
vt 0.628967 0.200692
vt 0.630948 0.199352
vt 0.607917 0.198178
vt 0.606245 0.196402
vt 0.609163 0.196000
vt 0.459736 0.253657
vt 0.461598 0.252047
vt 0.438518 0.253482
vt 0.436699 0.251841
vt 0.439527 0.251913
vt 0.579345 0.040530
vt 0.577053 0.040962
vt 0.577806 0.038585
vt 0.558072 0.035935
vt 0.559776 0.034618
vt 0.560962 0.037422
vt 0.541648 0.021269
vt 0.543410 0.021025
vt 0.543444 0.023785
vt 0.620165 0.265532
vt 0.621983 0.266400
vt 0.599479 0.273675
vt 0.601293 0.271541
vt 0.486904 0.250155
vt 0.488125 0.251896
vt 0.486904 0.253314
vt 0.460828 0.014735
vt 0.439623 0.019580
vt 0.441455 0.017472
vt 0.050275 0.351129
vt 0.537052 0.217688
vt 0.540065 0.218108
vt 0.396739 0.009631
vt 0.373628 0.006064
vt 0.537052 0.007627
vt 0.538327 0.005938
vt 0.642198 0.211940
vt 0.642969 0.209571
vt 0.603196 0.475097
vt 0.600194 0.474799
vt 0.622110 0.011422
vt 0.584706 0.272250
vt 0.584677 0.274308
vt 0.591220 0.203390
vt 0.058071 0.534013
vt 0.057597 0.536465
vt 0.427103 0.015218
vt 0.427584 0.012640
vt 0.422868 0.251153
vt 0.857382 0.115045
vt 0.830490 0.132721
vt 0.819351 0.093107
vt 0.926082 0.104537
vt 0.921415 0.082347
vt 0.926082 0.082347
vt 0.482885 0.722794
vt 0.479230 0.744141
vt 0.479230 0.722287
vt 0.845218 0.230239
vt 0.848805 0.207930
vt 0.848805 0.230105
vt 0.276864 0.370119
vt 0.282186 0.385580
vt 0.277524 0.385577
vt 0.276831 0.346062
vt 0.281493 0.368260
vt 0.276831 0.368257
vt 0.099371 0.801445
vt 0.082790 0.761555
vt 0.122888 0.745033
vt 0.817800 0.115935
vt 0.814339 0.093639
vt 0.817800 0.093753
vt 0.926083 0.080492
vt 0.921451 0.065186
vt 0.926117 0.065186
vt 0.818321 0.091859
vt 0.819351 0.116575
vt 0.818321 0.117787
vt 0.927182 0.081731
vt 0.927182 0.105207
vt 0.926083 0.106430
vt 0.843672 0.230875
vt 0.844722 0.232085
vt 0.843672 0.207415
vt 0.844722 0.206165
vt 0.845218 0.208064
vt 0.275780 0.368883
vt 0.275780 0.345402
vt 0.276864 0.344177
vt 0.470703 0.520020
vt 0.471674 0.521481
vt 0.470013 0.521302
vt 0.477428 0.544170
vt 0.476100 0.543161
vt 0.477428 0.542142
vt 0.470703 0.565918
vt 0.470013 0.564680
vt 0.471674 0.564511
vt 0.477687 0.721684
vt 0.478747 0.720548
vt 0.478747 0.746093
vt 0.477687 0.744805
vt 0.467826 0.764720
vt 0.467366 0.763432
vt 0.468991 0.763699
vt 0.282636 0.368887
vt 0.281526 0.370122
vt 0.281526 0.344180
vt 0.282636 0.345406
vt 0.281493 0.346065
vt 0.814860 0.091745
vt 0.480861 0.542061
vt 0.480861 0.544089
vt 0.921415 0.104538
vt 0.467366 0.707613
vt 0.834681 0.247221
vt 0.833050 0.246889
vt 0.482403 0.746601
vt 0.482885 0.744649
vt 0.848308 0.206031
vt 0.833050 0.190252
vt 0.099405 0.745033
vt 0.082462 0.760221
vt 0.098167 0.744603
vt 0.122239 0.743831
vt 0.830490 0.076065
vt 0.828850 0.075750
vt 0.139483 0.761555
vt 0.124113 0.744603
vt 0.139799 0.760221
vt 0.277524 0.328246
vt 0.857382 0.045552
vt 0.830490 0.063228
vt 0.819351 0.023614
vt 0.922871 0.045289
vt 0.918205 0.023099
vt 0.922871 0.023099
vt 0.360926 0.590060
vt 0.357271 0.567697
vt 0.360926 0.568205
vt 0.844051 0.283655
vt 0.847637 0.305695
vt 0.844051 0.305829
vt 0.211410 0.370119
vt 0.216732 0.385580
vt 0.212070 0.385577
vt 0.211377 0.346062
vt 0.216039 0.368259
vt 0.211377 0.368257
vt 0.780747 0.247221
vt 0.764166 0.207332
vt 0.804264 0.190809
vt 0.817800 0.046442
vt 0.814339 0.024146
vt 0.817800 0.024259
vt 0.922906 0.005938
vt 0.918207 0.021244
vt 0.918240 0.005938
vt 0.818321 0.022365
vt 0.819351 0.047082
vt 0.818321 0.048294
vt 0.923971 0.022483
vt 0.922873 0.021244
vt 0.923971 0.045959
vt 0.922873 0.047182
vt 0.842505 0.306465
vt 0.843554 0.307675
vt 0.842505 0.283006
vt 0.843554 0.281755
vt 0.210327 0.368882
vt 0.210327 0.345402
vt 0.211410 0.344176
vt 0.211016 0.528582
vt 0.211988 0.530043
vt 0.210327 0.529864
vt 0.217741 0.552732
vt 0.216413 0.551723
vt 0.217741 0.550704
vt 0.211016 0.574479
vt 0.210327 0.573242
vt 0.211988 0.573072
vt 0.355728 0.567095
vt 0.356788 0.565959
vt 0.356788 0.591504
vt 0.355728 0.590216
vt 0.357271 0.589552
vt 0.345867 0.610131
vt 0.345407 0.608842
vt 0.347032 0.609110
vt 0.217183 0.368887
vt 0.216072 0.370122
vt 0.216072 0.344179
vt 0.217183 0.345406
vt 0.216039 0.346065
vt 0.814860 0.022252
vt 0.221174 0.552651
vt 0.221174 0.550623
vt 0.828850 0.063556
vt 0.918205 0.045289
vt 0.345407 0.553024
vt 0.833514 0.322811
vt 0.831882 0.322479
vt 0.360444 0.592011
vt 0.847141 0.281621
vt 0.833514 0.265532
vt 0.779543 0.190379
vt 0.780781 0.190809
vt 0.803615 0.189607
vt 0.830490 0.006571
vt 0.828850 0.006256
vt 0.821175 0.205997
vt 0.820859 0.207332
vt 0.216732 0.328249
vt 0.277586 0.781080
vt 0.250694 0.798757
vt 0.239555 0.759142
vt 0.935359 0.443192
vt 0.930693 0.421002
vt 0.935359 0.421002
vt 0.360926 0.637554
vt 0.357271 0.658900
vt 0.357271 0.637046
vt 0.844051 0.374984
vt 0.847637 0.352675
vt 0.847637 0.374849
vt 0.211410 0.439328
vt 0.216732 0.454789
vt 0.212070 0.454786
vt 0.211377 0.415271
vt 0.216039 0.437468
vt 0.211377 0.437465
vt 0.790688 0.860699
vt 0.774107 0.820809
vt 0.814205 0.804286
vt 0.238004 0.781971
vt 0.234544 0.759674
vt 0.238004 0.759788
vt 0.935395 0.403841
vt 0.930695 0.419147
vt 0.930729 0.403841
vt 0.238525 0.757894
vt 0.239555 0.782610
vt 0.238525 0.783823
vt 0.936460 0.420386
vt 0.935361 0.419147
vt 0.936460 0.443862
vt 0.935361 0.445085
vt 0.842505 0.375620
vt 0.843554 0.376829
vt 0.842505 0.352160
vt 0.843554 0.350910
vt 0.844051 0.352809
vt 0.210327 0.438091
vt 0.210327 0.414611
vt 0.211410 0.413385
vt 0.057483 0.572545
vt 0.058455 0.574006
vt 0.056793 0.573828
vt 0.064208 0.596696
vt 0.062880 0.595686
vt 0.064208 0.594668
vt 0.057483 0.618443
vt 0.056793 0.617205
vt 0.058455 0.617036
vt 0.355729 0.636443
vt 0.356788 0.635307
vt 0.356788 0.660852
vt 0.355729 0.659564
vt 0.345867 0.679479
vt 0.345407 0.678191
vt 0.347032 0.678458
vt 0.217183 0.438096
vt 0.216072 0.439331
vt 0.216072 0.413388
vt 0.217183 0.414615
vt 0.216039 0.415274
vt 0.235064 0.757780
vt 0.067641 0.596615
vt 0.067641 0.594587
vt 0.930693 0.443193
vt 0.345407 0.622372
vt 0.831882 0.391633
vt 0.833514 0.391966
vt 0.360444 0.661360
vt 0.360926 0.659408
vt 0.847141 0.350775
vt 0.833514 0.334687
vt 0.789484 0.803857
vt 0.790722 0.804286
vt 0.791359 0.803085
vt 0.813556 0.803085
vt 0.249054 0.741785
vt 0.250694 0.742100
vt 0.831116 0.819475
vt 0.830800 0.820809
vt 0.216732 0.397458
vt 0.782404 0.130923
vt 0.800672 0.153271
vt 0.764177 0.150183
vt 0.708294 0.175118
vt 0.690914 0.009972
vt 0.708294 0.006203
vt 0.760937 0.421707
vt 0.730836 0.278251
vt 0.747517 0.278373
vt 0.703014 0.435042
vt 0.714134 0.270124
vt 0.717136 0.432298
vt 0.431102 0.908254
vt 0.447972 0.937454
vt 0.414590 0.937428
vt 0.787998 0.397274
vt 0.793715 0.266253
vt 0.807732 0.396132
vt 0.619240 0.826900
vt 0.589184 0.694473
vt 0.606478 0.695849
vt 0.810191 0.396896
vt 0.808557 0.398396
vt 0.787417 0.399619
vt 0.785530 0.398322
vt 0.709391 0.176960
vt 0.711049 0.175237
vt 0.800658 0.139402
vt 0.801045 0.137026
vt 0.802464 0.138762
vt 0.781170 0.128872
vt 0.784004 0.129112
vt 0.701381 0.436543
vt 0.700252 0.435198
vt 0.681184 0.267706
vt 0.679183 0.266836
vt 0.680939 0.265532
vt 0.607454 0.693813
vt 0.609230 0.695311
vt 0.587185 0.693565
vt 0.588848 0.692332
vt 0.748560 0.275940
vt 0.750279 0.277512
vt 0.729011 0.277334
vt 0.730591 0.275808
vt 0.698532 0.271584
vt 0.699654 0.269716
vt 0.701298 0.271765
vt 0.679183 0.433960
vt 0.621983 0.826256
vt 0.621193 0.685897
vt 0.775612 0.409780
vt 0.689171 0.175839
vt 0.763737 0.421258
vt 0.763737 0.267864
vt 0.799615 0.005938
vt 0.764163 0.136314
vt 0.431333 0.947157
vt 0.414463 0.939229
vt 0.820007 0.407212
vt 0.819073 0.409448
vt 0.681181 0.434333
vt 0.911723 0.724079
vt 0.936734 0.703730
vt 0.933190 0.744490
vt 0.818948 0.146943
vt 0.814339 0.168758
vt 0.814339 0.146757
vt 0.156956 0.896979
vt 0.147021 0.917365
vt 0.152981 0.896711
vt 0.739888 0.891277
vt 0.732543 0.874895
vt 0.737123 0.874969
vt 0.553015 0.840515
vt 0.573612 0.875937
vt 0.532656 0.876129
vt 0.874060 0.279360
vt 0.877669 0.301936
vt 0.874060 0.302088
vt 0.060789 0.917601
vt 0.064817 0.896323
vt 0.068316 0.896804
vt 0.873458 0.303695
vt 0.872515 0.302543
vt 0.872515 0.278889
vt 0.873458 0.277678
vt 0.820204 0.146261
vt 0.819097 0.145111
vt 0.921241 0.703709
vt 0.919655 0.703438
vt 0.920814 0.702494
vt 0.910345 0.724898
vt 0.910510 0.723009
vt 0.740861 0.892393
vt 0.739948 0.893120
vt 0.733848 0.914943
vt 0.733568 0.916269
vt 0.732543 0.915073
vt 0.063518 0.895354
vt 0.064817 0.894444
vt 0.056200 0.918252
vt 0.055684 0.917000
vt 0.057290 0.917120
vt 0.151669 0.895770
vt 0.152981 0.894821
vt 0.146158 0.918464
vt 0.145466 0.917267
vt 0.735368 0.893046
vt 0.734125 0.892283
vt 0.735308 0.891203
vt 0.738148 0.916343
vt 0.068316 0.894925
vt 0.055684 0.876476
vt 0.860964 0.265532
vt 0.814488 0.144924
vt 0.820204 0.169160
vt 0.156956 0.895089
vt 0.145466 0.876490
vt 0.906839 0.724369
vt 0.917697 0.744469
vt 0.553174 0.887873
vt 0.532577 0.877338
vt 0.859513 0.313557
vt 0.860964 0.314277
vt 0.738428 0.915017
vt 0.401502 0.826609
vt 0.375587 0.827547
vt 0.384838 0.811306
vt 0.446289 0.826662
vt 0.431427 0.707882
vt 0.443917 0.707247
vt 0.800373 0.789968
vt 0.790587 0.643553
vt 0.800373 0.639518
vt 0.786761 0.789142
vt 0.776073 0.648782
vt 0.787759 0.644596
vt 0.603921 0.224941
vt 0.616330 0.245766
vt 0.591460 0.245644
vt 0.780575 0.622591
vt 0.789238 0.480202
vt 0.791469 0.621513
vt 0.764907 0.622139
vt 0.776533 0.475365
vt 0.777751 0.622658
vt 0.386240 0.809331
vt 0.383442 0.809433
vt 0.779025 0.624137
vt 0.446987 0.828966
vt 0.448739 0.827541
vt 0.431739 0.828966
vt 0.429957 0.827542
vt 0.432447 0.826662
vt 0.787995 0.790893
vt 0.789580 0.789199
vt 0.399031 0.816094
vt 0.399123 0.813677
vt 0.400922 0.815330
vt 0.496647 0.708907
vt 0.494907 0.707257
vt 0.496519 0.706070
vt 0.777758 0.474116
vt 0.779365 0.476464
vt 0.500000 0.251049
vt 0.501693 0.250155
vt 0.501693 0.251927
vt 0.823510 0.648652
vt 0.824786 0.646448
vt 0.826281 0.647689
vt 0.788992 0.642363
vt 0.508150 0.711586
vt 0.509228 0.709030
vt 0.510957 0.710965
vt 0.401502 0.707789
vt 0.398767 0.707444
vt 0.373116 0.817033
vt 0.591455 0.231868
vt 0.602312 0.223815
vt 0.455490 0.834934
vt 0.454425 0.837110
vt 0.446371 0.708508
vt 0.616330 0.230143
vt 0.616326 0.231990
vt 0.836228 0.756722
vt 0.833401 0.757087
vt 0.836228 0.641418
vt 0.422868 0.834934
vt 0.812249 0.646950
vt 0.812355 0.649099
vt 0.773858 0.789429
vt 0.520702 0.830609
vt 0.517875 0.830948
vt 0.520702 0.703077
vt 0.505199 0.828734
vt 0.560766 0.959169
vt 0.548848 0.985983
vt 0.536931 0.968511
vt 0.952009 0.429764
vt 0.948335 0.413489
vt 0.952009 0.413438
vt 0.980785 0.938461
vt 0.984281 0.951301
vt 0.979631 0.951172
vt 0.980817 0.921359
vt 0.985510 0.936712
vt 0.980860 0.936583
vt 0.775745 0.449701
vt 0.790490 0.423769
vt 0.805634 0.449461
vt 0.982345 0.597640
vt 0.976215 0.584927
vt 0.980848 0.584813
vt 0.982077 0.614679
vt 0.977790 0.599635
vt 0.982423 0.599521
vt 0.536151 0.967091
vt 0.535393 0.968797
vt 0.983393 0.598656
vt 0.953550 0.412977
vt 0.952595 0.411805
vt 0.953550 0.430231
vt 0.952595 0.431424
vt 0.979676 0.937381
vt 0.548848 0.956459
vt 0.547428 0.955688
vt 0.548944 0.955094
vt 0.353718 0.692388
vt 0.354600 0.691354
vt 0.355279 0.692510
vt 0.976580 0.598824
vt 0.977713 0.597753
vt 0.961425 0.872347
vt 0.959813 0.872497
vt 0.960273 0.871443
vt 0.967136 0.888152
vt 0.965849 0.887192
vt 0.967136 0.886252
vt 0.986514 0.937571
vt 0.985435 0.938590
vt 0.349348 0.706924
vt 0.350660 0.707872
vt 0.349348 0.708822
vt 0.533335 0.965164
vt 0.532577 0.966870
vt 0.535393 0.982765
vt 0.789816 0.458992
vt 0.775612 0.450964
vt 0.962765 0.404561
vt 0.961314 0.403841
vt 0.948921 0.411856
vt 0.976215 0.614843
vt 0.977445 0.614793
vt 0.970471 0.886378
vt 0.970471 0.888279
vt 0.962765 0.439069
vt 0.959813 0.902365
vt 0.961425 0.902509
vt 0.979631 0.921292
vt 0.345407 0.708670
vt 0.345407 0.706772
vt 0.355279 0.722344
vt 0.349777 0.692236
vt 0.985714 0.194018
vt 0.973796 0.220831
vt 0.961879 0.203359
vt 0.952373 0.829008
vt 0.948699 0.812733
vt 0.952373 0.812682
vt 0.595162 0.972623
vt 0.598657 0.985463
vt 0.594007 0.985334
vt 0.595237 0.970745
vt 0.599844 0.955650
vt 0.599887 0.970874
vt 0.889986 0.617895
vt 0.904731 0.591963
vt 0.919875 0.617655
vt 0.981135 0.815911
vt 0.975004 0.803198
vt 0.979637 0.803085
vt 0.980866 0.832950
vt 0.976580 0.817907
vt 0.981212 0.817793
vt 0.961099 0.201940
vt 0.960341 0.203646
vt 0.982182 0.816928
vt 0.953914 0.812221
vt 0.952959 0.811048
vt 0.953914 0.829475
vt 0.952959 0.830668
vt 0.594052 0.971543
vt 0.973796 0.191307
vt 0.972376 0.190536
vt 0.973892 0.189942
vt 0.661386 0.933153
vt 0.662268 0.932119
vt 0.662947 0.933274
vt 0.975370 0.817095
vt 0.976502 0.816025
vt 0.965049 0.124625
vt 0.963437 0.124775
vt 0.963897 0.123720
vt 0.970760 0.140430
vt 0.969472 0.139470
vt 0.970760 0.138530
vt 0.600891 0.971733
vt 0.599812 0.972752
vt 0.657016 0.947688
vt 0.658328 0.948636
vt 0.657016 0.949587
vt 0.958283 0.200013
vt 0.957525 0.201719
vt 0.961879 0.218121
vt 0.904997 0.626379
vt 0.889853 0.619157
vt 0.961679 0.803085
vt 0.963129 0.803805
vt 0.949286 0.811100
vt 0.975004 0.833114
vt 0.976234 0.833064
vt 0.974094 0.138656
vt 0.974094 0.140556
vt 0.963129 0.838313
vt 0.965049 0.154786
vt 0.963437 0.154642
vt 0.594007 0.955454
vt 0.653075 0.949434
vt 0.653075 0.947536
vt 0.661386 0.963280
vt 0.861667 0.600299
vt 0.849750 0.627113
vt 0.837833 0.609641
vt 0.953583 0.610736
vt 0.949910 0.594462
vt 0.953583 0.594410
vt 0.625955 0.972623
vt 0.629451 0.985463
vt 0.624801 0.985334
vt 0.626030 0.970745
vt 0.630637 0.955650
vt 0.630680 0.970874
vt 0.234677 0.957910
vt 0.249421 0.931977
vt 0.264565 0.957670
vt 0.578771 0.967920
vt 0.572641 0.955207
vt 0.577273 0.955093
vt 0.578503 0.984959
vt 0.574216 0.969915
vt 0.578849 0.969802
vt 0.837053 0.608221
vt 0.836294 0.609927
vt 0.579819 0.968937
vt 0.955125 0.593950
vt 0.954170 0.592777
vt 0.955125 0.611204
vt 0.954170 0.612396
vt 0.624846 0.971543
vt 0.849750 0.597589
vt 0.848329 0.596818
vt 0.849846 0.596223
vt 0.967242 0.472020
vt 0.968124 0.470986
vt 0.968803 0.472141
vt 0.573006 0.969104
vt 0.574139 0.968034
vt 0.973881 0.006842
vt 0.972269 0.006992
vt 0.972729 0.005938
vt 0.979592 0.022648
vt 0.978304 0.021688
vt 0.979592 0.020747
vt 0.631684 0.971733
vt 0.630605 0.972752
vt 0.962872 0.486556
vt 0.964184 0.487503
vt 0.962872 0.488454
vt 0.833479 0.608000
vt 0.834237 0.606294
vt 0.837833 0.624403
vt 0.248747 0.967200
vt 0.234544 0.959172
vt 0.962889 0.584813
vt 0.964340 0.585533
vt 0.950496 0.592828
vt 0.572641 0.985123
vt 0.573870 0.985073
vt 0.982926 0.022774
vt 0.982926 0.020873
vt 0.964340 0.620041
vt 0.972269 0.036860
vt 0.973881 0.037004
vt 0.624801 0.955454
vt 0.958930 0.488301
vt 0.958930 0.486403
vt 0.967242 0.502147
vt 0.058071 0.550705
vt 0.043411 0.560670
vt 0.006873 0.550351
vt 0.376465 0.005938
vt 0.894964 0.716575
vt 0.894964 0.736968
vt 0.881133 0.751545
vt 0.848103 0.737714
vt 0.861934 0.702744
vt 0.030214 0.343620
vt 0.005938 0.533652
vt 0.591377 0.205869
vt 0.474540 0.005938
vt 0.846243 0.075431
vt 0.857382 0.091577
vt 0.846243 0.132088
vt 0.139469 0.784922
vt 0.122854 0.801445
vt 0.082776 0.784922
vt 0.814339 0.115821
vt 0.921417 0.080492
vt 0.828850 0.133049
vt 0.921417 0.106430
vt 0.468991 0.707247
vt 0.834681 0.189942
vt 0.100042 0.743831
vt 0.282186 0.328249
vt 0.846243 0.005938
vt 0.857382 0.022084
vt 0.846243 0.062594
vt 0.847637 0.283520
vt 0.820845 0.230698
vt 0.804230 0.247221
vt 0.764152 0.230698
vt 0.814339 0.046328
vt 0.918207 0.047182
vt 0.347032 0.552658
vt 0.831882 0.265842
vt 0.763838 0.205997
vt 0.781418 0.189607
vt 0.805489 0.190379
vt 0.212070 0.328246
vt 0.266447 0.741466
vt 0.277586 0.757612
vt 0.266447 0.798123
vt 0.830786 0.844176
vt 0.814171 0.860699
vt 0.774093 0.844176
vt 0.234544 0.781857
vt 0.249054 0.799084
vt 0.930695 0.445085
vt 0.347032 0.622006
vt 0.831882 0.334997
vt 0.773779 0.819475
vt 0.815430 0.803857
vt 0.212070 0.397455
vt 0.782431 0.158662
vt 0.742379 0.419437
vt 0.414463 0.917957
vt 0.447845 0.917983
vt 0.775612 0.265532
vt 0.600133 0.824665
vt 0.621983 0.687964
vt 0.776792 0.411894
vt 0.711049 0.005938
vt 0.688907 0.177732
vt 0.763079 0.265532
vt 0.802464 0.006089
vt 0.764142 0.133904
vt 0.430026 0.948272
vt 0.942708 0.724120
vt 0.818948 0.168945
vt 0.150996 0.917634
vt 0.532577 0.852450
vt 0.573533 0.852258
vt 0.877669 0.279208
vt 0.057290 0.876306
vt 0.859513 0.266248
vt 0.147021 0.876296
vt 0.907003 0.722480
vt 0.916086 0.744490
vt 0.552291 0.888621
vt 0.389780 0.832335
vt 0.603864 0.252693
vt 0.764907 0.470986
vt 0.372801 0.814630
vt 0.591220 0.229978
vt 0.605236 0.223838
vt 0.835778 0.639518
vt 0.423929 0.837110
vt 0.773779 0.791209
vt 0.520123 0.700212
vt 0.560766 0.973931
vt 0.536931 0.983273
vt 0.948335 0.429816
vt 0.985467 0.921488
vt 0.790756 0.458185
vt 0.775612 0.432493
vt 0.805501 0.432253
vt 0.961314 0.439787
vt 0.353718 0.722516
vt 0.985714 0.208780
vt 0.948699 0.829059
vt 0.595194 0.955521
vt 0.889853 0.600687
vt 0.919742 0.600447
vt 0.960341 0.217614
vt 0.904057 0.627185
vt 0.961679 0.839030
vt 0.662947 0.963108
vt 0.657445 0.933000
vt 0.861667 0.615061
vt 0.949910 0.610788
vt 0.625987 0.955521
vt 0.249687 0.966394
vt 0.234544 0.940701
vt 0.264432 0.940462
vt 0.836294 0.623895
vt 0.962889 0.620759
vt 0.968803 0.501976
vt 0.963301 0.471867
s 0
f 13/1/1 7/2/1 2/3/1
f 12/4/2 31/5/2 8/6/2
f 11/7/3 39/8/3 34/9/3
f 14/10/4 42/11/4 37/12/4
f 17/13/5 45/14/5 40/15/5
f 20/16/6 48/17/6 43/18/6
f 35/19/7 41/20/7 47/21/7
f 6/22/8 26/23/8 3/24/8
f 9/25/9 28/26/9 5/27/9
f 1/28/10 2/3/10 3/24/10
f 4/29/11 5/30/11 6/22/11
f 7/31/12 8/6/12 9/25/12
f 10/32/13 11/33/13 12/4/13
f 13/34/14 14/10/14 15/35/14
f 16/36/15 17/37/15 18/38/15
f 19/39/16 20/16/16 21/40/16
f 22/41/17 23/42/17 24/43/17
f 25/44/18 26/45/18 27/46/18
f 28/47/19 29/48/19 30/49/19
f 31/50/20 32/51/20 33/52/20
f 34/9/21 35/53/21 36/54/21
f 37/55/22 38/56/22 39/8/22
f 40/57/23 41/58/23 42/59/23
f 43/18/24 44/60/24 45/14/24
f 46/61/25 47/62/25 48/17/25
f 25/63/26 3/24/26 26/23/26
f 4/29/27 3/24/27 2/3/27
f 5/64/28 30/49/28 6/65/28
f 27/46/29 30/49/29 29/48/29
f 7/2/30 5/30/30 4/29/30
f 8/6/31 33/66/31 9/25/31
f 29/48/32 33/52/32 32/51/32
f 10/32/33 8/6/33 7/31/33
f 34/67/34 12/4/34 11/33/34
f 32/51/35 36/68/35 35/69/35
f 10/70/36 15/35/36 11/71/36
f 37/55/37 15/72/37 14/73/37
f 38/56/38 34/9/38 39/8/38
f 13/34/39 18/38/39 14/10/39
f 40/74/40 18/38/40 17/37/40
f 41/75/41 37/55/41 42/76/41
f 16/36/42 21/77/42 17/37/42
f 43/18/43 21/40/43 20/16/43
f 44/60/44 40/15/44 45/14/44
f 19/39/45 24/43/45 20/16/45
f 23/42/46 48/17/46 24/43/46
f 47/62/47 43/18/47 48/17/47
f 2/3/48 23/78/48 22/79/48
f 47/62/49 25/80/49 27/81/49
f 1/82/50 46/61/50 23/42/50
f 61/83/1 55/84/1 50/85/1
f 60/86/51 79/87/51 56/88/51
f 59/89/52 87/90/52 82/91/52
f 62/92/53 90/93/53 85/94/53
f 69/95/54 88/96/54 65/97/54
f 72/98/55 91/99/55 68/100/55
f 83/101/56 89/102/56 95/103/56
f 54/104/57 74/105/57 51/106/57
f 57/107/58 76/108/58 53/109/58
f 49/110/59 50/85/59 51/106/59
f 52/111/60 53/112/60 54/104/60
f 55/113/61 56/88/61 57/107/61
f 58/114/62 59/115/62 60/86/62
f 61/116/63 62/92/63 63/117/63
f 64/118/64 65/119/64 66/120/64
f 67/121/65 68/100/65 69/95/65
f 70/122/66 71/123/66 72/98/66
f 73/124/67 74/125/67 75/126/67
f 76/127/68 77/128/68 78/129/68
f 79/130/69 80/131/69 81/132/69
f 82/91/70 83/133/70 84/134/70
f 85/135/71 86/136/71 87/90/71
f 88/137/72 89/138/72 90/139/72
f 91/99/73 92/140/73 93/141/73
f 94/142/74 95/143/74 96/144/74
f 49/110/75 74/105/75 73/145/75
f 52/111/76 51/106/76 50/85/76
f 76/127/77 54/146/77 53/147/77
f 75/126/78 78/129/78 77/128/78
f 55/84/79 53/112/79 52/111/79
f 79/87/80 57/107/80 56/88/80
f 80/131/81 76/127/81 81/132/81
f 55/113/82 60/86/82 56/88/82
f 59/115/83 84/148/83 60/86/83
f 80/149/84 84/134/84 83/133/84
f 61/116/85 59/150/85 58/151/85
f 62/152/86 87/90/86 63/153/86
f 86/136/87 82/91/87 87/90/87
f 64/118/88 62/92/88 61/116/88
f 88/154/89 66/120/89 65/119/89
f 89/138/90 85/135/90 90/139/90
f 67/155/91 65/119/91 64/118/91
f 91/99/92 69/95/92 68/100/92
f 92/156/93 88/157/93 93/158/93
f 70/122/94 68/100/94 67/121/94
f 94/142/95 72/98/95 71/123/95
f 92/156/96 96/159/96 95/103/96
f 70/160/97 49/110/97 71/161/97
f 75/162/98 94/163/98 73/164/98
f 49/165/99 94/142/99 71/123/99
f 109/166/1 103/167/1 98/168/1
f 108/169/51 127/170/51 104/171/51
f 111/172/52 130/173/52 107/174/52
f 114/175/53 133/176/53 110/177/53
f 117/178/54 136/179/54 113/180/54
f 120/181/55 139/182/55 116/183/55
f 131/184/56 137/185/56 143/186/56
f 102/187/57 122/188/57 99/189/57
f 101/190/58 129/191/58 124/192/58
f 97/193/59 98/168/59 99/189/59
f 100/194/60 101/195/60 102/187/60
f 103/196/61 104/171/61 105/197/61
f 106/198/62 107/199/62 108/169/62
f 109/200/63 110/177/63 111/201/63
f 112/202/64 113/203/64 114/175/64
f 115/204/100 116/183/100 117/178/100
f 118/205/66 119/206/66 120/181/66
f 121/207/67 122/208/67 123/209/67
f 124/210/68 125/211/68 126/212/68
f 127/213/69 128/214/69 129/215/69
f 130/173/70 131/216/70 132/217/70
f 133/218/71 134/219/71 135/220/71
f 136/221/72 137/222/72 138/223/72
f 139/182/73 140/224/73 141/225/73
f 142/226/74 143/227/74 144/228/74
f 97/193/75 122/188/75 121/229/75
f 100/194/76 99/189/76 98/168/76
f 101/230/77 126/212/77 102/231/77
f 123/209/78 126/212/78 125/211/78
f 100/194/79 105/232/79 101/195/79
f 104/171/101 129/191/101 105/197/101
f 128/214/81 124/210/81 129/215/81
f 106/198/82 104/171/82 103/196/82
f 107/199/83 132/233/83 108/169/83
f 128/234/84 132/217/84 131/216/84
f 109/200/85 107/235/85 106/236/85
f 133/218/86 111/172/86 110/237/86
f 131/216/102 135/220/102 134/219/102
f 109/200/88 114/175/88 110/177/88
f 136/238/89 114/175/89 113/203/89
f 137/222/90 133/218/90 138/223/90
f 112/202/91 117/239/91 113/203/91
f 139/182/92 117/178/92 116/183/92
f 137/185/103 141/240/103 140/241/103
f 118/205/94 116/183/94 115/204/94
f 142/226/95 120/181/95 119/206/95
f 140/241/96 144/242/96 143/186/96
f 118/243/97 97/193/97 119/244/97
f 143/186/98 121/245/98 123/246/98
f 119/206/99 121/247/99 142/226/99
f 157/248/1 151/249/1 146/250/1
f 156/251/51 175/252/51 152/253/51
f 155/254/52 183/255/52 178/256/52
f 158/257/53 186/258/53 181/259/53
f 165/260/54 184/261/54 161/262/54
f 168/263/55 187/264/55 164/265/55
f 179/266/56 185/267/56 191/268/56
f 150/269/57 170/270/57 147/271/57
f 149/272/58 177/273/58 172/274/58
f 145/275/59 146/250/59 147/271/59
f 148/276/60 149/277/60 150/269/60
f 151/278/61 152/253/61 153/279/61
f 154/280/62 155/281/62 156/251/62
f 157/282/63 158/257/63 159/283/63
f 160/284/64 161/285/64 162/286/64
f 163/287/100 164/265/100 165/260/100
f 166/288/66 167/289/66 168/263/66
f 169/290/67 170/291/67 171/292/67
f 172/293/68 173/294/68 174/295/68
f 175/296/69 176/297/69 177/298/69
f 178/256/70 179/299/70 180/300/70
f 181/301/71 182/302/71 183/255/71
f 184/303/72 185/304/72 186/305/72
f 187/264/73 188/306/73 189/307/73
f 190/308/74 191/309/74 192/310/74
f 145/275/75 170/270/75 169/311/75
f 148/276/76 147/271/76 146/250/76
f 149/312/77 174/295/77 150/313/77
f 171/292/78 174/295/78 173/294/78
f 151/249/79 149/277/79 148/276/79
f 152/253/80 177/273/80 153/279/80
f 176/297/81 172/293/81 177/298/81
f 154/280/82 152/253/82 151/278/82
f 155/281/83 180/314/83 156/251/83
f 176/315/84 180/300/84 179/299/84
f 154/316/85 159/283/85 155/317/85
f 158/318/86 183/255/86 159/319/86
f 182/302/102 178/256/102 183/255/102
f 157/282/88 162/286/88 158/257/88
f 184/320/89 162/286/89 161/285/89
f 185/304/90 181/301/90 186/305/90
f 160/284/91 165/321/91 161/285/91
f 187/264/92 165/260/92 164/265/92
f 185/267/103 189/322/103 188/323/103
f 166/288/94 164/265/94 163/287/94
f 190/308/95 168/263/95 167/289/95
f 191/268/96 187/324/96 192/325/96
f 146/250/104 167/326/104 166/327/104
f 191/268/98 169/328/98 171/329/98
f 167/289/99 169/330/99 190/308/99
f 205/331/105 199/332/105 194/333/105
f 200/334/106 222/335/106 217/336/106
f 203/337/107 225/338/107 220/339/107
f 210/340/108 223/341/108 206/342/108
f 215/343/109 221/344/109 227/345/109
f 198/346/110 212/347/110 195/348/110
f 197/349/111 219/350/111 214/351/111
f 193/352/112 194/353/112 195/348/112
f 196/354/113 197/355/113 198/346/113
f 199/356/114 200/334/114 201/357/114
f 202/358/115 203/359/115 204/360/115
f 205/331/116 206/361/116 207/362/116
f 208/363/117 209/364/117 210/340/117
f 211/365/118 212/366/118 213/367/118
f 214/351/119 215/368/119 216/369/119
f 217/370/120 218/371/120 219/350/120
f 220/339/121 221/372/121 222/373/121
f 223/374/122 224/375/122 225/338/122
f 226/376/123 227/377/123 228/378/123
f 211/365/124 195/379/124 212/366/124
f 196/354/125 195/348/125 194/353/125
f 197/349/126 216/369/126 198/380/126
f 213/381/127 216/369/127 215/368/127
f 196/354/128 201/382/128 197/355/128
f 217/336/129 201/357/129 200/334/129
f 218/371/130 214/351/130 219/350/130
f 199/356/131 204/383/131 200/334/131
f 220/339/132 204/384/132 203/337/132
f 221/372/133 217/385/133 222/373/133
f 202/358/134 207/362/134 203/359/134
f 223/386/135 207/362/135 206/361/135
f 224/375/136 220/339/136 225/338/136
f 208/387/137 206/361/137 205/331/137
f 209/364/138 228/378/138 210/340/138
f 224/388/139 228/389/139 227/345/139
f 194/353/140 209/390/140 208/391/140
f 227/377/141 211/365/141 213/367/141
f 193/392/142 226/376/142 209/364/142
f 241/393/105 235/394/105 230/395/105
f 236/396/143 258/397/143 253/398/143
f 239/399/144 261/400/144 256/401/144
f 246/402/145 259/403/145 242/404/145
f 251/405/146 257/406/146 263/407/146
f 234/408/147 248/409/147 231/410/147
f 237/411/148 250/412/148 233/413/148
f 229/414/149 230/415/149 231/410/149
f 232/416/150 233/417/150 234/408/150
f 235/418/151 236/396/151 237/419/151
f 238/420/152 239/421/152 240/422/152
f 241/393/153 242/423/153 243/424/153
f 244/425/154 245/426/154 246/402/154
f 247/427/155 248/428/155 249/429/155
f 250/412/156 251/430/156 252/431/156
f 253/432/157 254/433/157 255/434/157
f 256/401/158 257/435/158 258/436/158
f 259/437/159 260/438/159 261/400/159
f 262/439/160 263/440/160 264/441/160
f 247/427/161 231/442/161 248/428/161
f 232/416/162 231/410/162 230/415/162
f 233/413/163 252/431/163 234/443/163
f 249/444/164 252/431/164 251/430/164
f 232/416/165 237/445/165 233/417/165
f 236/396/166 255/446/166 237/419/166
f 251/430/167 255/434/167 254/433/167
f 238/447/168 236/396/168 235/418/168
f 239/399/169 258/436/169 240/448/169
f 254/449/170 258/436/170 257/435/170
f 241/393/171 239/421/171 238/420/171
f 259/450/172 243/424/172 242/423/172
f 257/435/173 261/400/173 260/438/173
f 244/451/174 242/423/174 241/393/174
f 262/439/175 246/402/175 245/426/175
f 260/452/176 264/453/176 263/407/176
f 244/454/177 229/414/177 245/455/177
f 249/429/178 262/439/178 247/427/178
f 229/456/179 262/439/179 245/426/179
f 277/457/180 271/458/180 266/459/180
f 272/460/181 294/461/181 289/462/181
f 275/463/182 297/464/182 292/465/182
f 278/466/183 300/467/183 295/468/183
f 287/469/184 293/470/184 299/471/184
f 270/472/185 284/473/185 267/474/185
f 273/475/186 286/476/186 269/477/186
f 265/478/187 266/459/187 267/479/187
f 268/480/188 269/477/188 270/472/188
f 271/481/189 272/460/189 273/482/189
f 274/483/190 275/484/190 276/485/190
f 277/486/191 278/466/191 279/487/191
f 280/488/192 281/489/192 282/490/192
f 283/491/193 284/492/193 285/493/193
f 286/476/194 287/494/194 288/495/194
f 289/496/195 290/497/195 291/498/195
f 292/499/196 293/500/196 294/501/196
f 295/468/197 296/502/197 297/464/197
f 298/503/198 299/504/198 300/505/198
f 283/506/199 267/479/199 284/507/199
f 268/508/200 267/479/200 266/459/200
f 269/477/201 288/495/201 270/472/201
f 285/509/202 288/510/202 287/469/202
f 271/481/203 269/511/203 268/512/203
f 272/460/204 291/513/204 273/482/204
f 287/469/205 291/514/205 290/515/205
f 271/481/206 276/485/206 272/460/206
f 292/499/207 276/516/207 275/517/207
f 293/500/208 289/518/208 294/501/208
f 274/483/209 279/519/209 275/484/209
f 295/468/210 279/487/210 278/466/210
f 296/520/211 292/499/211 297/521/211
f 277/486/212 282/522/212 278/466/212
f 298/503/213 282/523/213 281/524/213
f 299/504/214 295/525/214 300/505/214
f 266/459/215 281/489/215 280/488/215
f 299/504/216 283/491/216 285/493/216
f 265/526/217 298/503/217 281/524/217
f 313/527/180 307/528/180 302/529/180
f 312/530/218 325/531/218 308/532/218
f 315/533/219 328/534/219 311/535/219
f 318/536/220 331/537/220 314/538/220
f 323/539/221 329/540/221 335/541/221
f 306/542/222 320/543/222 303/544/222
f 309/545/223 322/546/223 305/547/223
f 301/548/224 302/529/224 303/549/224
f 304/550/225 305/547/225 306/542/225
f 307/551/226 308/532/226 309/552/226
f 310/553/227 311/554/227 312/530/227
f 313/555/228 314/538/228 315/533/228
f 316/556/229 317/557/229 318/558/229
f 319/559/230 320/560/230 321/561/230
f 322/546/231 323/562/231 324/563/231
f 325/564/232 326/565/232 327/566/232
f 328/567/233 329/568/233 330/569/233
f 331/537/234 332/570/234 333/571/234
f 334/572/235 335/573/235 336/574/235
f 319/575/236 303/549/236 320/576/236
f 302/529/237 306/577/237 303/549/237
f 305/547/238 324/563/238 306/542/238
f 323/539/239 320/578/239 324/579/239
f 304/580/240 309/552/240 305/581/240
f 308/532/241 327/582/241 309/552/241
f 326/583/242 322/546/242 327/584/242
f 310/553/243 308/532/243 307/551/243
f 328/567/244 312/585/244 311/586/244
f 326/565/245 330/569/245 329/568/245
f 313/587/246 311/554/246 310/553/246
f 314/538/247 333/571/247 315/533/247
f 332/588/248 328/567/248 333/589/248
f 316/590/249 314/538/249 313/555/249
f 334/572/250 318/591/250 317/592/250
f 332/593/251 336/574/251 335/573/251
f 316/556/252 301/548/252 317/557/252
f 335/573/253 319/559/253 321/561/253
f 301/594/254 334/572/254 317/592/254
f 349/595/180 343/596/180 338/597/180
f 348/598/218 361/599/218 344/600/218
f 351/601/219 364/602/219 347/603/219
f 350/604/220 372/605/220 367/606/220
f 359/607/221 365/608/221 371/609/221
f 342/610/222 356/611/222 339/612/222
f 345/613/223 358/614/223 341/615/223
f 337/616/224 338/597/224 339/617/224
f 340/618/225 341/615/225 342/610/225
f 343/619/226 344/600/226 345/620/226
f 346/621/227 347/622/227 348/598/227
f 349/623/228 350/604/228 351/601/228
f 352/624/229 353/625/229 354/626/229
f 355/627/230 356/628/230 357/629/230
f 358/614/231 359/630/231 360/631/231
f 361/632/232 362/633/232 363/634/232
f 364/635/233 365/636/233 366/637/233
f 367/606/255 368/638/255 369/639/255
f 370/640/235 371/641/235 372/642/235
f 355/643/236 339/617/236 356/644/236
f 340/645/256 339/617/256 338/597/256
f 341/615/238 360/631/238 342/610/238
f 357/646/239 360/647/239 359/607/239
f 343/619/240 341/648/240 340/649/240
f 344/600/241 363/650/241 345/620/241
f 362/651/242 358/614/242 363/652/242
f 346/621/243 344/600/243 343/619/243
f 364/635/244 348/653/244 347/654/244
f 362/633/245 366/637/245 365/636/245
f 349/655/246 347/622/246 346/621/246
f 367/606/247 351/601/247 350/604/247
f 365/636/248 369/656/248 368/657/248
f 352/658/249 350/604/249 349/623/249
f 370/640/250 354/659/250 353/660/250
f 371/641/251 367/661/251 372/642/251
f 338/597/252 353/625/252 352/624/252
f 371/641/253 355/627/253 357/629/253
f 353/660/254 355/627/254 370/640/254
f 385/662/180 379/663/180 374/664/180
f 384/665/218 397/666/218 380/667/218
f 387/668/219 400/669/219 383/670/219
f 386/671/220 408/672/220 403/673/220
f 395/674/221 401/675/221 407/676/221
f 378/677/222 392/678/222 375/679/222
f 381/680/223 394/681/223 377/682/223
f 373/683/224 374/664/224 375/684/224
f 376/685/257 377/682/257 378/677/257
f 379/686/226 380/667/226 381/687/226
f 382/688/227 383/689/227 384/665/227
f 385/690/228 386/671/228 387/668/228
f 388/691/229 389/692/229 390/693/229
f 391/694/230 392/695/230 393/696/230
f 394/681/231 395/697/231 396/698/231
f 397/699/232 398/700/232 399/701/232
f 400/702/233 401/703/233 402/704/233
f 403/673/255 404/705/255 405/706/255
f 406/707/235 407/708/235 408/709/235
f 373/683/236 392/710/236 391/711/236
f 376/712/256 375/684/256 374/664/256
f 377/682/238 396/698/238 378/677/238
f 395/674/239 392/713/239 396/714/239
f 379/686/240 377/715/240 376/716/240
f 380/667/241 399/717/241 381/687/241
f 398/718/242 394/681/242 399/719/242
f 382/688/243 380/667/243 379/686/243
f 383/720/244 402/704/244 384/721/244
f 401/703/245 397/699/245 402/704/245
f 385/722/246 383/689/246 382/688/246
f 403/673/247 387/668/247 386/671/247
f 404/723/248 400/702/248 405/724/248
f 388/725/249 386/671/249 385/690/249
f 406/707/250 390/726/250 389/727/250
f 407/708/251 403/728/251 408/709/251
f 388/691/252 373/683/252 389/692/252
f 407/708/253 391/694/253 393/696/253
f 389/727/254 391/694/254 406/707/254
f 2/3/1 22/79/1 19/729/1
f 19/729/1 16/730/1 13/1/1
f 13/1/1 10/731/1 7/2/1
f 7/2/1 4/29/1 2/3/1
f 2/3/1 19/729/1 13/1/1
f 12/4/258 36/732/258 31/5/258
f 11/7/259 15/72/259 39/8/259
f 14/10/260 18/38/260 42/11/260
f 17/13/261 21/40/261 45/14/261
f 20/16/262 24/43/262 48/17/262
f 47/21/7 27/733/7 29/734/7
f 29/734/7 32/735/7 35/19/7
f 35/19/7 38/736/7 41/20/7
f 41/20/7 44/737/7 47/21/7
f 47/21/7 29/734/7 35/19/7
f 6/22/263 30/738/263 26/23/263
f 9/25/264 33/66/264 28/26/264
f 25/63/265 1/28/265 3/24/265
f 4/29/266 6/22/266 3/24/266
f 5/64/267 28/47/267 30/49/267
f 27/46/268 26/45/268 30/49/268
f 7/2/269 9/739/269 5/30/269
f 8/6/270 31/5/270 33/66/270
f 29/48/271 28/47/271 33/52/271
f 10/32/33 12/4/33 8/6/33
f 34/67/272 36/732/272 12/4/272
f 32/51/273 31/50/273 36/68/273
f 10/70/274 13/34/274 15/35/274
f 37/55/275 39/8/275 15/72/275
f 38/56/276 35/53/276 34/9/276
f 13/34/277 16/36/277 18/38/277
f 40/74/278 42/11/278 18/38/278
f 41/75/279 38/56/279 37/55/279
f 16/36/280 19/740/280 21/77/280
f 43/18/281 45/14/281 21/40/281
f 44/60/282 41/741/282 40/15/282
f 19/39/283 22/41/283 24/43/283
f 23/42/284 46/61/284 48/17/284
f 47/62/285 44/60/285 43/18/285
f 2/3/286 1/28/286 23/78/286
f 47/62/287 46/61/287 25/80/287
f 1/82/288 25/80/288 46/61/288
f 50/85/1 70/160/1 67/742/1
f 67/742/1 64/743/1 61/83/1
f 61/83/1 58/744/1 55/84/1
f 55/84/1 52/111/1 50/85/1
f 50/85/1 67/742/1 61/83/1
f 60/86/51 84/148/51 79/87/51
f 59/89/52 63/153/52 87/90/52
f 62/92/53 66/120/53 90/93/53
f 69/95/54 93/141/54 88/96/54
f 72/98/55 96/144/55 91/99/55
f 95/103/56 75/162/56 77/745/56
f 77/745/56 80/746/56 83/101/56
f 83/101/56 86/747/56 89/102/56
f 89/102/56 92/156/56 95/103/56
f 95/103/56 77/745/56 83/101/56
f 54/104/57 78/748/57 74/105/57
f 57/107/58 81/749/58 76/108/58
f 49/110/75 51/106/75 74/105/75
f 52/111/76 54/104/76 51/106/76
f 76/127/77 78/129/77 54/146/77
f 75/126/78 74/125/78 78/129/78
f 55/84/289 57/750/289 53/112/289
f 79/87/80 81/749/80 57/107/80
f 80/131/81 77/128/81 76/127/81
f 55/113/82 58/114/82 60/86/82
f 59/115/83 82/751/83 84/148/83
f 80/149/84 79/752/84 84/134/84
f 61/116/85 63/117/85 59/150/85
f 62/152/86 85/135/86 87/90/86
f 86/136/102 83/133/102 82/91/102
f 64/118/88 66/120/88 62/92/88
f 88/154/89 90/93/89 66/120/89
f 89/138/90 86/136/90 85/135/90
f 67/155/91 69/753/91 65/119/91
f 91/99/92 93/141/92 69/95/92
f 92/156/103 89/102/103 88/157/103
f 70/122/94 72/98/94 68/100/94
f 94/142/95 96/144/95 72/98/95
f 92/156/96 91/754/96 96/159/96
f 70/160/97 50/85/97 49/110/97
f 75/162/98 95/103/98 94/163/98
f 49/165/99 73/755/99 94/142/99
f 98/168/1 118/243/1 115/756/1
f 115/756/1 112/757/1 109/166/1
f 109/166/1 106/758/1 103/167/1
f 103/167/1 100/194/1 98/168/1
f 98/168/1 115/756/1 109/166/1
f 108/169/51 132/233/51 127/170/51
f 111/172/52 135/220/52 130/173/52
f 114/175/53 138/759/53 133/176/53
f 117/178/54 141/225/54 136/179/54
f 120/181/55 144/228/55 139/182/55
f 143/186/56 123/246/56 125/760/56
f 125/760/56 128/761/56 131/184/56
f 131/184/56 134/762/56 137/185/56
f 137/185/56 140/241/56 143/186/56
f 143/186/56 125/760/56 131/184/56
f 102/187/57 126/763/57 122/188/57
f 101/190/58 105/197/58 129/191/58
f 97/193/75 99/189/75 122/188/75
f 100/194/76 102/187/76 99/189/76
f 101/230/77 124/210/77 126/212/77
f 123/209/78 122/208/78 126/212/78
f 100/194/289 103/167/289 105/232/289
f 104/171/80 127/170/80 129/191/80
f 128/214/81 125/211/81 124/210/81
f 106/198/82 108/169/82 104/171/82
f 107/199/83 130/764/83 132/233/83
f 128/234/84 127/765/84 132/217/84
f 109/200/85 111/201/85 107/235/85
f 133/218/86 135/220/86 111/172/86
f 131/216/87 130/173/87 135/220/87
f 109/200/88 112/202/88 114/175/88
f 136/238/89 138/759/89 114/175/89
f 137/222/90 134/219/90 133/218/90
f 112/202/91 115/766/91 117/239/91
f 139/182/92 141/225/92 117/178/92
f 137/185/93 136/767/93 141/240/93
f 118/205/94 120/181/94 116/183/94
f 142/226/95 144/228/95 120/181/95
f 140/241/96 139/768/96 144/242/96
f 118/243/104 98/168/104 97/193/104
f 143/186/98 142/769/98 121/245/98
f 119/206/99 97/770/99 121/247/99
f 146/250/1 166/327/1 163/771/1
f 163/771/1 160/772/1 157/248/1
f 157/248/1 154/773/1 151/249/1
f 151/249/1 148/276/1 146/250/1
f 146/250/1 163/771/1 157/248/1
f 156/251/51 180/314/51 175/252/51
f 155/254/52 159/319/52 183/255/52
f 158/257/53 162/286/53 186/258/53
f 165/260/54 189/307/54 184/261/54
f 168/263/55 192/310/55 187/264/55
f 191/268/56 171/329/56 173/774/56
f 173/774/56 176/775/56 179/266/56
f 179/266/56 182/776/56 185/267/56
f 185/267/56 188/323/56 191/268/56
f 191/268/56 173/774/56 179/266/56
f 150/269/57 174/777/57 170/270/57
f 149/272/58 153/279/58 177/273/58
f 145/275/75 147/271/75 170/270/75
f 148/276/76 150/269/76 147/271/76
f 149/312/77 172/293/77 174/295/77
f 171/292/78 170/291/78 174/295/78
f 151/249/289 153/778/289 149/277/289
f 152/253/80 175/252/80 177/273/80
f 176/297/81 173/294/81 172/293/81
f 154/280/82 156/251/82 152/253/82
f 155/281/83 178/779/83 180/314/83
f 176/315/84 175/780/84 180/300/84
f 154/316/85 157/282/85 159/283/85
f 158/318/86 181/301/86 183/255/86
f 182/302/102 179/299/102 178/256/102
f 157/282/88 160/284/88 162/286/88
f 184/320/89 186/258/89 162/286/89
f 185/304/90 182/302/90 181/301/90
f 160/284/91 163/781/91 165/321/91
f 187/264/92 189/307/92 165/260/92
f 185/267/93 184/782/93 189/322/93
f 166/288/94 168/263/94 164/265/94
f 190/308/95 192/310/95 168/263/95
f 191/268/96 188/323/96 187/324/96
f 146/250/97 145/275/97 167/326/97
f 191/268/98 190/783/98 169/328/98
f 167/289/99 145/784/99 169/330/99
f 194/333/105 208/387/105 205/331/105
f 205/331/105 202/358/105 199/332/105
f 199/332/105 196/785/105 194/333/105
f 200/334/290 204/383/290 222/335/290
f 203/337/291 207/786/291 225/338/291
f 210/340/292 228/378/292 223/341/292
f 227/345/109 213/787/109 215/343/109
f 215/343/109 218/788/109 221/344/109
f 221/344/109 224/388/109 227/345/109
f 198/346/293 216/789/293 212/347/293
f 197/349/294 201/790/294 219/350/294
f 211/365/295 193/392/295 195/379/295
f 196/354/296 198/346/296 195/348/296
f 197/349/297 214/351/297 216/369/297
f 213/381/298 212/791/298 216/369/298
f 196/354/299 199/792/299 201/382/299
f 217/336/300 219/793/300 201/357/300
f 218/371/130 215/368/130 214/351/130
f 199/356/301 202/794/301 204/383/301
f 220/339/302 222/373/302 204/384/302
f 221/372/303 218/795/303 217/385/303
f 202/358/304 205/331/304 207/362/304
f 223/386/305 225/796/305 207/362/305
f 224/375/306 221/372/306 220/339/306
f 208/387/137 210/797/137 206/361/137
f 209/364/307 226/376/307 228/378/307
f 224/388/308 223/798/308 228/389/308
f 194/353/309 193/352/309 209/390/309
f 227/377/310 226/376/310 211/365/310
f 193/392/311 211/365/311 226/376/311
f 230/395/105 244/451/105 241/393/105
f 241/393/105 238/420/105 235/394/105
f 235/394/105 232/799/105 230/395/105
f 236/396/143 240/800/143 258/397/143
f 239/399/144 243/801/144 261/400/144
f 246/402/145 264/441/145 259/403/145
f 263/407/146 249/802/146 251/405/146
f 251/405/146 254/803/146 257/406/146
f 257/406/146 260/452/146 263/407/146
f 234/408/147 252/804/147 248/409/147
f 237/411/148 255/434/148 250/412/148
f 247/427/161 229/456/161 231/442/161
f 232/416/162 234/408/162 231/410/162
f 233/413/163 250/412/163 252/431/163
f 249/444/164 248/805/164 252/431/164
f 232/416/165 235/806/165 237/445/165
f 236/396/166 253/398/166 255/446/166
f 251/430/167 250/412/167 255/434/167
f 238/447/168 240/800/168 236/396/168
f 239/399/169 256/401/169 258/436/169
f 254/449/170 253/807/170 258/436/170
f 241/393/171 243/424/171 239/421/171
f 259/450/172 261/808/172 243/424/172
f 257/435/173 256/401/173 261/400/173
f 244/451/174 246/809/174 242/423/174
f 262/439/175 264/441/175 246/402/175
f 260/452/176 259/810/176 264/453/176
f 244/454/177 230/415/177 229/414/177
f 249/429/178 263/440/178 262/439/178
f 229/456/179 247/427/179 262/439/179
f 266/459/180 280/488/180 277/457/180
f 277/457/180 274/811/180 271/458/180
f 271/458/180 268/508/180 266/459/180
f 272/460/312 276/485/312 294/461/312
f 275/463/313 279/487/313 297/464/313
f 278/466/314 282/522/314 300/467/314
f 299/471/184 285/509/184 287/469/184
f 287/469/184 290/515/184 293/470/184
f 293/470/184 296/812/184 299/471/184
f 270/472/315 288/495/315 284/473/315
f 273/475/316 291/813/316 286/476/316
f 283/506/317 265/478/317 267/479/317
f 268/508/318 270/814/318 267/479/318
f 269/477/319 286/476/319 288/495/319
f 285/509/320 284/815/320 288/510/320
f 271/481/321 273/482/321 269/511/321
f 272/460/322 289/462/322 291/513/322
f 287/469/323 286/816/323 291/514/323
f 271/481/324 274/483/324 276/485/324
f 292/499/325 294/501/325 276/516/325
f 293/500/208 290/817/208 289/518/208
f 274/483/326 277/818/326 279/519/326
f 295/468/327 297/464/327 279/487/327
f 296/520/328 293/500/328 292/499/328
f 277/486/329 280/819/329 282/522/329
f 298/503/330 300/505/330 282/523/330
f 299/504/331 296/820/331 295/525/331
f 266/459/332 265/478/332 281/489/332
f 299/504/216 298/503/216 283/491/216
f 265/526/333 283/491/333 298/503/333
f 302/529/180 316/556/180 313/527/180
f 313/527/180 310/821/180 307/528/180
f 307/528/180 304/822/180 302/529/180
f 312/530/218 330/823/218 325/531/218
f 315/533/219 333/571/219 328/534/219
f 318/536/220 336/824/220 331/537/220
f 335/541/221 321/825/221 323/539/221
f 323/539/221 326/826/221 329/540/221
f 329/540/221 332/827/221 335/541/221
f 306/542/222 324/563/222 320/543/222
f 309/545/223 327/584/223 322/546/223
f 319/575/236 301/548/236 303/549/236
f 302/529/256 304/822/256 306/577/256
f 305/547/238 322/546/238 324/563/238
f 323/539/239 321/825/239 320/578/239
f 304/580/240 307/551/240 309/552/240
f 308/532/241 325/531/241 327/582/241
f 326/583/242 323/562/242 322/546/242
f 310/553/243 312/530/243 308/532/243
f 328/567/244 330/569/244 312/585/244
f 326/565/245 325/564/245 330/569/245
f 313/587/246 315/828/246 311/554/246
f 314/538/247 331/537/247 333/571/247
f 332/588/334 329/568/334 328/567/334
f 316/590/249 318/536/249 314/538/249
f 334/572/250 336/574/250 318/591/250
f 332/593/251 331/829/251 336/574/251
f 316/556/252 302/529/252 301/548/252
f 335/573/253 334/572/253 319/559/253
f 301/594/254 319/559/254 334/572/254
f 338/597/180 352/624/180 349/595/180
f 349/595/180 346/830/180 343/596/180
f 343/596/180 340/645/180 338/597/180
f 348/598/218 366/831/218 361/599/218
f 351/601/219 369/639/219 364/602/219
f 350/604/220 354/832/220 372/605/220
f 371/609/221 357/646/221 359/607/221
f 359/607/221 362/833/221 365/608/221
f 365/608/221 368/834/221 371/609/221
f 342/610/222 360/631/222 356/611/222
f 345/613/223 363/652/223 358/614/223
f 355/643/236 337/616/236 339/617/236
f 340/645/256 342/835/256 339/617/256
f 341/615/238 358/614/238 360/631/238
f 357/646/239 356/836/239 360/647/239
f 343/619/240 345/620/240 341/648/240
f 344/600/241 361/599/241 363/650/241
f 362/651/242 359/630/242 358/614/242
f 346/621/243 348/598/243 344/600/243
f 364/635/244 366/637/244 348/653/244
f 362/633/245 361/632/245 366/637/245
f 349/655/246 351/837/246 347/622/246
f 367/606/247 369/639/247 351/601/247
f 365/636/248 364/635/248 369/656/248
f 352/658/249 354/832/249 350/604/249
f 370/640/250 372/642/250 354/659/250
f 371/641/251 368/838/251 367/661/251
f 338/597/252 337/616/252 353/625/252
f 371/641/253 370/640/253 355/627/253
f 353/660/254 337/839/254 355/627/254
f 374/664/180 388/691/180 385/662/180
f 385/662/180 382/840/180 379/663/180
f 379/663/180 376/712/180 374/664/180
f 384/665/218 402/841/218 397/666/218
f 387/668/219 405/706/219 400/669/219
f 386/671/220 390/842/220 408/672/220
f 407/676/221 393/843/221 395/674/221
f 395/674/221 398/844/221 401/675/221
f 401/675/221 404/845/221 407/676/221
f 378/677/222 396/698/222 392/678/222
f 381/680/223 399/719/223 394/681/223
f 373/683/236 375/684/236 392/710/236
f 376/712/256 378/846/256 375/684/256
f 377/682/238 394/681/238 396/698/238
f 395/674/239 393/843/239 392/713/239
f 379/686/240 381/687/240 377/715/240
f 380/667/241 397/666/241 399/717/241
f 398/718/242 395/697/242 394/681/242
f 382/688/243 384/665/243 380/667/243
f 383/720/244 400/702/244 402/704/244
f 401/703/245 398/700/245 397/699/245
f 385/722/246 387/847/246 383/689/246
f 403/673/247 405/706/247 387/668/247
f 404/723/248 401/703/248 400/702/248
f 388/725/249 390/842/249 386/671/249
f 406/707/250 408/709/250 390/726/250
f 407/708/251 404/848/251 403/728/251
f 388/691/252 374/664/252 373/683/252
f 407/708/253 406/707/253 391/694/253
f 389/727/254 373/849/254 391/694/254
