# Blender 4.3.2
# www.blender.org
o gold_pillar_1
v 0.091813 -0.398434 0.176274
v 0.097308 -0.409162 0.163350
v 0.109652 -0.396745 0.165742
v 0.190144 -0.391181 -0.001859
v 0.197214 -0.378019 -0.011297
v 0.197496 -0.379730 0.009415
v 0.092836 -0.382019 -0.165209
v 0.087019 -0.369328 -0.176046
v 0.105140 -0.369350 -0.165866
v -0.097308 -0.390838 -0.163350
v -0.110744 -0.379363 -0.163758
v -0.092905 -0.377673 -0.174290
v -0.190144 -0.408819 0.001859
v -0.198311 -0.398089 0.013286
v -0.198593 -0.396378 -0.007427
v -0.092836 -0.417981 0.165209
v -0.088109 -0.406780 0.178037
v -0.106230 -0.406758 0.167856
v -0.012953 1.719830 0.338663
v 0.005193 1.715112 0.327594
v -0.007113 1.732910 0.327631
v 0.085784 1.712447 0.162900
v 0.078502 1.725915 0.175222
v 0.086168 1.708496 0.183447
v -0.019506 1.793530 0.018112
v -0.013967 1.801566 0.030733
v -0.000912 1.783372 0.027439
v -0.205411 1.878607 0.038117
v -0.194201 1.884918 0.040071
v -0.187176 1.871071 0.026804
v -0.285940 1.879784 0.202642
v -0.279816 1.891914 0.192481
v -0.286381 1.885222 0.182259
v -0.180625 1.797374 0.347347
v -0.187347 1.816262 0.336969
v -0.199252 1.808860 0.338102
v 0.043569 0.931652 0.301088
v 0.047201 0.924503 0.292420
v 0.055462 0.932778 0.294067
v 0.150258 0.944463 0.109023
v 0.155033 0.953240 0.102731
v 0.155220 0.952100 0.116539
v 0.042237 0.954633 -0.072310
v 0.038389 0.963100 -0.079586
v 0.050469 0.963085 -0.072800
v -0.168839 0.944843 -0.070246
v -0.177826 0.952496 -0.070567
v -0.165933 0.953623 -0.077589
v -0.271896 0.924883 0.113151
v -0.277396 0.932034 0.120769
v -0.277584 0.933175 0.106961
v -0.163875 0.914712 0.294484
v -0.160752 0.922175 0.303086
v -0.172833 0.922189 0.296299
v 0.042027 0.965500 0.303905
v 0.053920 0.966626 0.296884
v 0.044933 0.974279 0.296563
v 0.153490 0.987088 0.105548
v 0.147989 0.994240 0.113166
v 0.153678 0.985948 0.119356
v 0.036846 0.996948 -0.076769
v 0.039969 1.004410 -0.068167
v 0.048927 0.996933 -0.069982
v -0.179368 0.986344 -0.067750
v -0.171107 0.994620 -0.066103
v -0.167476 0.987471 -0.074771
v -0.278939 0.965882 0.123586
v -0.274164 0.974659 0.117294
v -0.279127 0.967023 0.109778
v -0.162295 0.956023 0.305903
v -0.166144 0.964489 0.298627
v -0.174375 0.956037 0.299116
v 0.393268 -0.401198 -0.233577
v 0.380613 -0.412288 -0.238954
v 0.383489 -0.400630 -0.251909
v 0.243177 -0.402300 -0.324683
v 0.234026 -0.389626 -0.332910
v 0.254734 -0.391273 -0.332225
v 0.100556 -0.390012 -0.248221
v 0.089479 -0.377035 -0.243634
v 0.100408 -0.378113 -0.261281
v 0.095372 -0.387712 -0.086030
v 0.094399 -0.375448 -0.073348
v 0.084620 -0.374879 -0.091680
v 0.232808 -0.397700 -0.000301
v 0.243870 -0.386453 0.007654
v 0.223162 -0.384806 0.006969
v 0.375429 -0.409988 -0.076763
v 0.388414 -0.399044 -0.081630
v 0.377485 -0.397965 -0.063984
v 0.504315 1.141740 -0.244953
v 0.494459 1.141483 -0.263296
v 0.494494 1.157866 -0.251283
v 0.359571 1.187168 -0.337369
v 0.371631 1.197245 -0.329783
v 0.379713 1.178260 -0.336607
v 0.233611 1.278287 -0.255540
v 0.245505 1.283904 -0.259815
v 0.243679 1.266796 -0.273072
v 0.242349 1.321921 -0.099647
v 0.244274 1.329955 -0.111927
v 0.232468 1.321134 -0.117942
v 0.377014 1.273912 -0.025513
v 0.367137 1.290575 -0.033427
v 0.357086 1.285146 -0.026336
v 0.503166 1.184589 -0.107348
v 0.493263 1.203917 -0.103396
v 0.492910 1.194283 -0.089801
v 0.475356 0.466990 -0.254372
v 0.466856 0.459602 -0.257922
v 0.468836 0.467369 -0.266593
v 0.313574 0.470741 -0.353535
v 0.307476 0.479190 -0.359091
v 0.321282 0.478092 -0.358634
v 0.154511 0.484446 -0.268259
v 0.147070 0.493102 -0.265236
v 0.154356 0.492383 -0.277000
v 0.148729 0.487011 -0.087369
v 0.148023 0.495193 -0.078883
v 0.141504 0.495572 -0.091104
v 0.302011 0.475872 0.008244
v 0.309383 0.483371 0.013614
v 0.295578 0.484469 0.013157
v 0.461074 0.462167 -0.077033
v 0.469790 0.469459 -0.080241
v 0.462504 0.470178 -0.068477
v 0.478064 0.500879 -0.254766
v 0.471545 0.501258 -0.266987
v 0.470839 0.509440 -0.258502
v 0.310185 0.513080 -0.359485
v 0.317558 0.520579 -0.354115
v 0.323990 0.511982 -0.359028
v 0.149779 0.526992 -0.265630
v 0.158494 0.534284 -0.268838
v 0.157065 0.526273 -0.277394
v 0.150732 0.529082 -0.079277
v 0.152712 0.536849 -0.087948
v 0.144213 0.529461 -0.091498
v 0.312092 0.517261 0.013220
v 0.305994 0.525710 0.007665
v 0.298287 0.518359 0.012763
v 0.472498 0.503349 -0.080635
v 0.465057 0.512005 -0.077612
v 0.465212 0.504068 -0.068871
v 0.478109 0.501442 -0.254773
v 0.469610 0.494054 -0.258323
v 0.471590 0.501821 -0.266994
v 0.316328 0.505194 -0.353936
v 0.310230 0.513643 -0.359492
v 0.324035 0.512545 -0.359035
v 0.157265 0.518899 -0.268659
v 0.149824 0.527555 -0.265636
v 0.157110 0.526836 -0.277401
v 0.151483 0.521464 -0.087769
v 0.150777 0.529645 -0.079284
v 0.144258 0.530024 -0.091505
v 0.304764 0.510324 0.007844
v 0.312137 0.517824 0.013214
v 0.298332 0.518922 0.012757
v 0.463828 0.496620 -0.077433
v 0.472543 0.503912 -0.080641
v 0.465257 0.504631 -0.068877
v 0.480818 0.535332 -0.255167
v 0.474299 0.535711 -0.267388
v 0.473593 0.543892 -0.258902
v 0.312939 0.547532 -0.359886
v 0.320311 0.555032 -0.354515
v 0.326744 0.546434 -0.359429
v 0.152532 0.561444 -0.266030
v 0.161248 0.568736 -0.269239
v 0.159818 0.560725 -0.277795
v 0.153486 0.563535 -0.079678
v 0.155466 0.571302 -0.088349
v 0.146966 0.563914 -0.091899
v 0.314846 0.551713 0.012820
v 0.308748 0.560162 0.007264
v 0.301040 0.552811 0.012363
v 0.475252 0.537801 -0.081035
v 0.467811 0.546457 -0.078013
v 0.467966 0.538521 -0.069271
v 0.464265 0.328233 -0.252759
v 0.455766 0.320845 -0.256309
v 0.457746 0.328612 -0.264980
v 0.302484 0.331985 -0.351922
v 0.296386 0.340434 -0.357478
v 0.310191 0.339336 -0.357021
v 0.143421 0.345690 -0.266645
v 0.135980 0.354346 -0.263623
v 0.143266 0.353626 -0.275387
v 0.137639 0.348255 -0.085755
v 0.136933 0.356436 -0.077270
v 0.130414 0.356815 -0.089491
v 0.290920 0.337115 0.009857
v 0.298293 0.344615 0.015228
v 0.284488 0.345713 0.014771
v 0.449984 0.323411 -0.075419
v 0.458699 0.330703 -0.078627
v 0.451413 0.331422 -0.066863
v 0.466974 0.362123 -0.253153
v 0.460455 0.362502 -0.265374
v 0.459749 0.370683 -0.256889
v 0.299095 0.374323 -0.357872
v 0.306467 0.381822 -0.352502
v 0.312900 0.373225 -0.357415
v 0.138688 0.388235 -0.264017
v 0.147404 0.395527 -0.267225
v 0.145974 0.387516 -0.275781
v 0.139642 0.390326 -0.077664
v 0.141622 0.398093 -0.086335
v 0.133122 0.390705 -0.089885
v 0.301002 0.378504 0.014834
v 0.294904 0.386953 0.009278
v 0.287196 0.379602 0.014377
v 0.461408 0.364592 -0.079021
v 0.453967 0.373248 -0.075999
v 0.454122 0.365311 -0.067257
v 0.241723 -0.388156 -0.223245
v 0.238990 -0.400167 -0.209681
v 0.225170 -0.388196 -0.208492
v 0.187175 -0.400315 -0.102455
v 0.178233 -0.388337 -0.091858
v 0.179506 -0.388326 -0.113995
v 0.226356 -0.400278 0.010004
v 0.227516 -0.388282 0.023804
v 0.212763 -0.388305 0.007251
v 0.333582 -0.400079 0.061819
v 0.344149 -0.388061 0.070740
v 0.322013 -0.388106 0.069467
v 0.446040 -0.399833 0.022638
v 0.459810 -0.387805 0.021458
v 0.443257 -0.387845 0.036211
v 0.497856 -0.399685 -0.084587
v 0.506747 -0.387663 -0.095175
v 0.505474 -0.387675 -0.073038
v 0.458675 -0.399722 -0.197046
v 0.457465 -0.387719 -0.210837
v 0.472218 -0.387695 -0.194284
v 0.351449 -0.399921 -0.248862
v 0.340832 -0.387940 -0.257775
v 0.362969 -0.387895 -0.256502
v 0.247343 1.183049 -0.212713
v 0.230791 1.183427 -0.197961
v 0.244657 1.194519 -0.199009
v 0.188281 1.180583 -0.090485
v 0.197347 1.192556 -0.101101
v 0.189553 1.181717 -0.112619
v 0.234235 1.171626 0.015575
v 0.233161 1.184497 0.001643
v 0.219480 1.173563 -0.000979
v 0.341737 1.161822 0.058088
v 0.331171 1.175062 0.048992
v 0.319595 1.163409 0.056814
v 0.447812 1.156870 0.012147
v 0.433895 1.169782 0.013204
v 0.431256 1.157221 0.026901
v 0.490320 1.159652 -0.095335
v 0.481205 1.171744 -0.084704
v 0.489050 1.158581 -0.073197
v 0.444361 1.168581 -0.201393
v 0.445391 1.179803 -0.187448
v 0.459119 1.166672 -0.184841
v 0.336861 1.178448 -0.243900
v 0.347381 1.189239 -0.234797
v 0.359000 1.176799 -0.242630
v 0.226550 0.762147 -0.231623
v 0.224773 0.754140 -0.222530
v 0.215515 0.762121 -0.221788
v 0.167025 0.753975 -0.103027
v 0.160996 0.761960 -0.095966
v 0.161844 0.761968 -0.110724
v 0.210692 0.754016 0.022309
v 0.211414 0.762013 0.031555
v 0.201579 0.761998 0.020519
v 0.330195 0.754238 0.080058
v 0.337236 0.762250 0.086074
v 0.322479 0.762220 0.085225
v 0.455531 0.754511 0.036390
v 0.464757 0.762531 0.035655
v 0.453721 0.762504 0.045490
v 0.513279 0.754676 -0.083113
v 0.519276 0.762691 -0.090167
v 0.518427 0.762684 -0.075410
v 0.469612 0.754636 -0.208449
v 0.468857 0.762638 -0.217688
v 0.478692 0.762654 -0.206653
v 0.350109 0.754414 -0.266197
v 0.343035 0.762402 -0.272207
v 0.357792 0.762432 -0.271358
v 0.226480 0.796147 -0.231610
v 0.215445 0.796121 -0.221775
v 0.224671 0.804140 -0.222510
v 0.160926 0.795960 -0.095953
v 0.166922 0.803975 -0.103007
v 0.161775 0.795968 -0.110710
v 0.211345 0.796013 0.031568
v 0.210590 0.804015 0.022329
v 0.201510 0.795998 0.020532
v 0.337167 0.796250 0.086087
v 0.330093 0.804238 0.080077
v 0.322409 0.796220 0.085238
v 0.464687 0.796530 0.035668
v 0.455429 0.804511 0.036410
v 0.453652 0.796504 0.045503
v 0.519206 0.796691 -0.090154
v 0.513177 0.804676 -0.083094
v 0.518357 0.796684 -0.075396
v 0.468787 0.796638 -0.217675
v 0.469509 0.804636 -0.208429
v 0.478622 0.796654 -0.206639
v 0.342965 0.796402 -0.272194
v 0.350006 0.804414 -0.266178
v 0.357723 0.796432 -0.271345
v 0.226406 0.832187 -0.231596
v 0.224630 0.824180 -0.222503
v 0.215371 0.832161 -0.221761
v 0.166881 0.824015 -0.102999
v 0.160852 0.832000 -0.095939
v 0.161701 0.832008 -0.110696
v 0.210549 0.824056 0.022337
v 0.211271 0.832054 0.031582
v 0.201436 0.832038 0.020547
v 0.330052 0.824278 0.080085
v 0.337093 0.832290 0.086101
v 0.322335 0.832260 0.085252
v 0.455388 0.824551 0.036418
v 0.464613 0.832571 0.035682
v 0.453578 0.832544 0.045517
v 0.513136 0.824716 -0.083086
v 0.519132 0.832731 -0.090140
v 0.518283 0.832724 -0.075382
v 0.469468 0.824676 -0.208422
v 0.468713 0.832678 -0.217661
v 0.478548 0.832694 -0.206625
v 0.349965 0.824454 -0.266170
v 0.342891 0.832442 -0.272180
v 0.357649 0.832472 -0.271331
v 0.226337 0.866187 -0.231583
v 0.215301 0.866161 -0.221747
v 0.224527 0.874180 -0.222483
v 0.160783 0.866000 -0.095925
v 0.166779 0.874015 -0.102980
v 0.161631 0.866008 -0.110683
v 0.211201 0.866054 0.031595
v 0.210446 0.874056 0.022356
v 0.201366 0.866038 0.020560
v 0.337023 0.866290 0.086114
v 0.329950 0.874278 0.080105
v 0.322266 0.866260 0.085266
v 0.464544 0.866571 0.035695
v 0.455285 0.874551 0.036437
v 0.453508 0.866544 0.045531
v 0.519063 0.866731 -0.090127
v 0.513033 0.874716 -0.083066
v 0.518214 0.866724 -0.075369
v 0.468644 0.866678 -0.217647
v 0.469366 0.874676 -0.208402
v 0.478479 0.866694 -0.206612
v 0.342822 0.866442 -0.272166
v 0.349863 0.874454 -0.266150
v 0.357579 0.866472 -0.271318
v -0.374360 -0.398236 -0.070690
v -0.366444 -0.409975 -0.060139
v -0.375563 -0.398806 -0.049947
v -0.299325 -0.408544 0.073839
v -0.295716 -0.396559 0.086294
v -0.313042 -0.397473 0.074850
v -0.150067 -0.398569 0.082768
v -0.138155 -0.385785 0.085313
v -0.156685 -0.387268 0.094612
v -0.067928 -0.390025 -0.042281
v -0.060440 -0.377257 -0.051910
v -0.061643 -0.377827 -0.031168
v -0.135047 -0.391456 -0.176260
v -0.140287 -0.379504 -0.188154
v -0.122960 -0.378590 -0.176711
v -0.284304 -0.401431 -0.185188
v -0.297850 -0.390278 -0.187172
v -0.279320 -0.388795 -0.196471
v -0.446059 0.841005 -0.040824
v -0.447151 0.838744 -0.020118
v -0.439555 0.852957 -0.029637
v -0.372748 0.836394 0.104534
v -0.377956 0.849043 0.092489
v -0.390056 0.835116 0.093079
v -0.228737 0.857337 0.103040
v -0.242374 0.867782 0.100866
v -0.247123 0.853757 0.112295
v -0.159136 0.880711 -0.023093
v -0.168362 0.890452 -0.013006
v -0.160210 0.878328 -0.002396
v -0.233525 0.883020 -0.147738
v -0.229961 0.894367 -0.135133
v -0.216231 0.884339 -0.136287
v -0.377529 0.861996 -0.146259
v -0.365543 0.875628 -0.143509
v -0.359147 0.865657 -0.155501
v -0.445151 0.413019 -0.049047
v -0.439791 0.405199 -0.042008
v -0.445953 0.412639 -0.035219
v -0.364738 0.406799 0.107809
v -0.362377 0.414784 0.116181
v -0.373928 0.414175 0.108552
v -0.197835 0.417952 0.117793
v -0.189857 0.426476 0.119564
v -0.202210 0.425487 0.125763
v -0.105985 0.427506 -0.022039
v -0.100912 0.436024 -0.028454
v -0.101714 0.435644 -0.014626
v -0.181039 0.425906 -0.171856
v -0.184488 0.433879 -0.179854
v -0.172937 0.434488 -0.172225
v -0.347942 0.414752 -0.181841
v -0.357009 0.422187 -0.183236
v -0.344656 0.423176 -0.189435
v -0.447465 0.446931 -0.048250
v -0.448267 0.446551 -0.034422
v -0.443194 0.455069 -0.040836
v -0.364691 0.448695 0.116978
v -0.368140 0.456669 0.108981
v -0.376242 0.448087 0.109349
v -0.192171 0.460388 0.120361
v -0.201237 0.467823 0.118965
v -0.204524 0.459399 0.126560
v -0.103226 0.469936 -0.027657
v -0.109388 0.477376 -0.020867
v -0.104028 0.469556 -0.013829
v -0.186802 0.467791 -0.179057
v -0.184442 0.475776 -0.170684
v -0.175251 0.468400 -0.171428
v -0.359323 0.456099 -0.182439
v -0.351345 0.464622 -0.180669
v -0.346970 0.457088 -0.188638
v -0.445274 0.414815 -0.049004
v -0.439914 0.406995 -0.041966
v -0.446076 0.414435 -0.035177
v -0.364860 0.408595 0.107851
v -0.362500 0.416580 0.116223
v -0.374051 0.415971 0.108594
v -0.197957 0.419748 0.117835
v -0.189979 0.428272 0.119606
v -0.202332 0.427283 0.125805
v -0.106108 0.429302 -0.021997
v -0.101035 0.437820 -0.028412
v -0.101837 0.437440 -0.014584
v -0.181161 0.427702 -0.171814
v -0.184611 0.435675 -0.179811
v -0.173060 0.436284 -0.172183
v -0.348064 0.416548 -0.181798
v -0.357131 0.423983 -0.183194
v -0.344778 0.424972 -0.189393
v -0.447588 0.448727 -0.048207
v -0.448390 0.448347 -0.034379
v -0.443317 0.456865 -0.040794
v -0.364814 0.450491 0.117020
v -0.368263 0.458465 0.109023
v -0.376365 0.449883 0.109391
v -0.192293 0.462184 0.120403
v -0.201360 0.469619 0.119007
v -0.204646 0.461195 0.126602
v -0.103349 0.471732 -0.027615
v -0.109511 0.479172 -0.020825
v -0.104150 0.471352 -0.013787
v -0.186925 0.469587 -0.179014
v -0.184564 0.477572 -0.170642
v -0.175373 0.470196 -0.171385
v -0.359445 0.457895 -0.182397
v -0.351467 0.466418 -0.180626
v -0.347092 0.458884 -0.188596
v -0.443457 0.388180 -0.049630
v -0.438096 0.380360 -0.042592
v -0.444258 0.387801 -0.035803
v -0.363043 0.381960 0.107225
v -0.360683 0.389945 0.115597
v -0.372234 0.389336 0.107968
v -0.196140 0.393114 0.117209
v -0.188162 0.401637 0.118980
v -0.200515 0.400649 0.125179
v -0.104291 0.402667 -0.022623
v -0.099217 0.411185 -0.029038
v -0.100019 0.410805 -0.015210
v -0.179344 0.401067 -0.172440
v -0.182793 0.409041 -0.180437
v -0.171242 0.409650 -0.172808
v -0.346247 0.389914 -0.182424
v -0.355314 0.397349 -0.183820
v -0.342961 0.398337 -0.190019
v -0.445770 0.422092 -0.048833
v -0.446572 0.421713 -0.035005
v -0.441499 0.430230 -0.041420
v -0.362996 0.423857 0.116394
v -0.366446 0.431830 0.108397
v -0.374548 0.423248 0.108766
v -0.190476 0.435549 0.119777
v -0.199543 0.442984 0.118381
v -0.202829 0.434561 0.125976
v -0.101531 0.445097 -0.028240
v -0.107693 0.452538 -0.021451
v -0.102333 0.444717 -0.014413
v -0.185107 0.442953 -0.179640
v -0.182747 0.450938 -0.171268
v -0.173556 0.443561 -0.172011
v -0.357628 0.431260 -0.183023
v -0.349650 0.439784 -0.181252
v -0.345275 0.432249 -0.189222
vn 0.0454 -0.9955 -0.0829
vn -0.0138 0.0887 -0.9960
vn -0.8721 0.0072 -0.4893
vn -0.8573 -0.0753 0.5092
vn 0.4200 0.8863 0.1953
vn 0.8719 0.0056 0.4896
vn 0.8580 0.0879 -0.5061
vn 0.4538 -0.5813 0.6754
vn 0.8633 -0.5019 -0.0532
vn 0.4341 -0.4616 -0.7736
vn -0.4044 -0.5007 -0.7653
vn -0.8137 -0.5801 -0.0368
vn -0.3847 -0.6203 0.6835
vn 0.5517 0.3799 0.7425
vn 0.9016 0.4277 0.0654
vn 0.5937 0.5349 -0.6012
vn -0.2151 0.6165 -0.7574
vn -0.8181 0.5510 0.1647
vn -0.1792 0.4240 0.8878
vn 0.5127 -0.0404 0.8576
vn 0.6505 -0.7024 0.2891
vn 0.9985 0.0540 -0.0091
vn 0.7543 0.5208 0.3998
vn 0.6409 -0.6439 -0.4179
vn 0.4873 0.1019 -0.8672
vn 0.7814 0.5949 -0.1886
vn 0.0224 -0.6433 -0.7653
vn -0.5115 0.0552 -0.8575
vn 0.3086 0.7350 -0.6037
vn -0.5864 -0.7010 -0.4058
vn -0.9992 -0.0393 0.0104
vn -0.4328 0.8561 -0.2824
vn -0.5768 -0.7594 0.3010
vn -0.4880 -0.0872 0.8685
vn -0.3770 0.6993 0.6074
vn 0.0416 -0.7601 0.6485
vn 0.2899 0.5382 0.7914
vn 0.0165 -0.0759 0.9970
vn -0.0136 0.0823 -0.9965
vn -0.8718 0.0010 -0.4898
vn -0.8583 -0.0813 0.5067
vn -0.0454 0.9955 0.0829
vn 0.8718 -0.0010 0.4898
vn 0.8583 0.0813 -0.5067
vn 0.4525 -0.5856 0.6726
vn 0.8606 -0.5065 -0.0536
vn 0.4329 -0.4663 -0.7715
vn -0.4028 -0.5050 -0.7633
vn -0.8109 -0.5841 -0.0372
vn -0.3832 -0.6243 0.6807
vn 0.4028 0.5050 0.7633
vn 0.8109 0.5841 0.0372
vn 0.3832 0.6243 -0.6807
vn -0.4525 0.5856 -0.6726
vn -0.8606 0.5065 0.0536
vn -0.4329 0.4663 0.7715
vn 0.5112 -0.0481 0.8581
vn 0.6486 -0.7047 0.2878
vn 0.9989 0.0463 -0.0098
vn 0.5844 0.7032 0.4049
vn 0.6390 -0.6465 -0.4169
vn 0.4877 0.0945 -0.8679
vn 0.5748 0.7614 -0.2997
vn 0.0225 -0.6457 -0.7632
vn -0.5112 0.0481 -0.8581
vn -0.0417 0.7622 -0.6461
vn -0.5844 -0.7032 -0.4049
vn -0.9989 -0.0463 0.0098
vn -0.6486 0.7047 -0.2877
vn -0.5748 -0.7614 0.2997
vn -0.4877 -0.0945 0.8679
vn -0.6390 0.6465 0.4169
vn 0.0417 -0.7622 0.6460
vn -0.0225 0.6457 0.7632
vn 0.0136 -0.0823 0.9965
vn -0.0797 -0.9968 0.0116
vn -0.9957 0.0865 -0.0331
vn -0.5240 0.0588 0.8497
vn 0.4742 -0.0204 0.8802
vn 0.4429 0.8571 -0.2632
vn 0.5264 -0.0442 -0.8491
vn -0.4698 0.0349 -0.8821
vn 0.6950 -0.6043 -0.3895
vn -0.0164 -0.5527 -0.8332
vn -0.7545 -0.4894 -0.4374
vn -0.7812 -0.4776 0.4019
vn -0.0701 -0.5292 0.8456
vn 0.6681 -0.5926 0.4500
vn 0.8300 0.3286 -0.4506
vn 0.2149 0.4101 -0.8864
vn -0.5018 0.5627 -0.6570
vn -0.6673 0.6669 0.3317
vn 0.2711 0.5393 0.7973
vn 0.8732 0.3867 0.2967
vn 0.8793 -0.0668 -0.4715
vn 0.3171 -0.7389 -0.5945
vn 0.0326 -0.0054 -0.9995
vn 0.5762 0.4824 -0.6598
vn -0.3901 -0.6827 -0.6179
vn -0.8462 0.0699 -0.5283
vn -0.0164 0.6136 -0.7895
vn -0.7632 -0.6460 -0.0152
vn -0.8781 0.0838 0.4710
vn -0.4878 0.8323 -0.2632
vn -0.4292 -0.6655 0.6106
vn -0.0313 0.0225 0.9993
vn -0.0744 0.8399 0.5377
vn 0.2778 -0.7217 0.6340
vn 0.8475 -0.0528 0.5281
vn 0.6615 0.6037 0.4449
vn 0.6510 -0.7584 0.0316
vn 0.8691 0.4742 -0.1404
vn 0.9970 -0.0717 0.0307
vn -0.9963 0.0792 -0.0330
vn -0.5258 0.0519 0.8490
vn 0.4705 -0.0274 0.8820
vn 0.0797 0.9968 -0.0116
vn 0.5258 -0.0519 -0.8490
vn -0.4705 0.0274 -0.8820
vn 0.6916 -0.6093 -0.3878
vn -0.0169 -0.5578 -0.8298
vn -0.7522 -0.4945 -0.4356
vn -0.7789 -0.4826 0.4005
vn -0.0704 -0.5341 0.8425
vn 0.6649 -0.5975 0.4483
vn 0.7789 0.4826 -0.4005
vn 0.0704 0.5341 -0.8425
vn -0.6649 0.5975 -0.4483
vn -0.6916 0.6093 0.3878
vn 0.0169 0.5578 0.8298
vn 0.7522 0.4945 0.4356
vn 0.8788 -0.0757 -0.4711
vn 0.3155 -0.7415 -0.5921
vn 0.0319 -0.0142 -0.9994
vn 0.4281 0.6681 -0.6085
vn -0.3890 -0.6855 -0.6155
vn -0.8469 0.0615 -0.5282
vn -0.2764 0.7242 -0.6318
vn -0.7608 -0.6488 -0.0151
vn -0.8788 0.0757 0.4711
vn -0.6482 0.7609 -0.0315
vn -0.4281 -0.6681 0.6085
vn -0.0319 0.0142 0.9994
vn -0.3155 0.7415 0.5921
vn 0.2764 -0.7242 0.6319
vn 0.8469 -0.0615 0.5282
vn 0.3890 0.6855 0.6155
vn 0.6482 -0.7608 0.0315
vn 0.7608 0.6488 0.0151
vn 0.9963 -0.0792 0.0330
vn -0.7521 -0.4945 -0.4356
vn -0.2764 0.7241 -0.6319
vn -0.3155 0.7415 0.5922
vn 0.2764 -0.7242 0.6318
vn 0.8469 -0.0615 0.5283
vn -0.6482 0.7608 -0.0315
vn 0.0020 -1.0000 -0.0004
vn -0.4345 0.0066 0.9007
vn 0.3294 0.0082 0.9442
vn 0.9003 0.0096 0.4351
vn 0.9443 0.0100 -0.3290
vn 0.4351 0.0091 -0.9003
vn 0.0699 0.9961 0.0538
vn -0.9004 0.0061 -0.4350
vn -0.9441 0.0058 0.3295
vn -0.5461 -0.5695 -0.6143
vn -0.8201 -0.5703 -0.0475
vn -0.6129 -0.5701 0.5471
vn -0.0461 -0.5690 0.8211
vn 0.5485 -0.5677 0.6139
vn 0.8224 -0.5669 0.0470
vn 0.6153 -0.5671 -0.5475
vn 0.0484 -0.5682 -0.8215
vn -0.5250 0.5992 -0.6044
vn -0.8038 0.5947 -0.0158
vn -0.5738 0.5791 0.5792
vn -0.0073 0.5623 0.8269
vn 0.5605 0.5537 0.6158
vn 0.8267 0.5577 0.0744
vn 0.6438 0.5722 -0.5080
vn 0.0900 0.5895 -0.8027
vn -0.6652 0.0074 -0.7466
vn -0.6377 -0.7055 -0.3091
vn -0.9983 0.0064 -0.0574
vn -0.6123 0.7390 -0.2811
vn -0.6689 -0.7058 0.2333
vn -0.7465 0.0067 0.6653
vn -0.6317 0.7240 0.2770
vn -0.3074 -0.7052 0.6389
vn -0.0574 0.0081 0.9983
vn -0.2547 0.7005 0.6667
vn 0.2350 -0.7041 0.6701
vn 0.6653 0.0097 0.7465
vn 0.2714 0.6827 0.6784
vn 0.6406 -0.7031 0.3086
vn 0.9983 0.0106 0.0574
vn 0.6553 0.6793 0.3303
vn 0.6718 -0.7028 -0.2338
vn 0.7465 0.0103 -0.6653
vn 0.6972 0.6915 -0.1888
vn 0.3103 -0.7034 -0.6394
vn 0.0574 0.0090 -0.9983
vn 0.3591 0.7139 -0.6011
vn -0.2321 -0.7045 -0.6706
vn -0.1893 0.7344 -0.6518
vn -0.3290 0.0075 -0.9443
vn -0.4351 -0.0012 0.9004
vn 0.3290 0.0003 0.9443
vn 0.9004 0.0017 0.4351
vn 0.9443 0.0021 -0.3290
vn 0.4351 0.0012 -0.9004
vn -0.0020 1.0000 0.0004
vn -0.9004 -0.0017 -0.4351
vn -0.9443 -0.0021 0.3290
vn -0.5440 -0.5742 -0.6119
vn -0.8168 -0.5750 -0.0473
vn -0.6105 -0.5748 0.5449
vn -0.0459 -0.5737 0.8178
vn 0.5463 -0.5724 0.6114
vn 0.8192 -0.5716 0.0468
vn 0.6128 -0.5718 -0.5454
vn 0.0482 -0.5729 -0.8182
vn -0.5463 0.5724 -0.6114
vn -0.8192 0.5716 -0.0468
vn -0.6128 0.5718 0.5454
vn -0.0482 0.5729 0.8182
vn 0.5440 0.5742 0.6119
vn 0.8168 0.5750 0.0473
vn 0.6105 0.5748 -0.5449
vn 0.0459 0.5737 -0.8178
vn -0.6653 -0.0011 -0.7465
vn -0.6352 -0.7083 -0.3079
vn -0.9983 -0.0020 -0.0574
vn -0.6381 0.7059 -0.3074
vn -0.6663 -0.7086 0.2324
vn -0.7465 -0.0018 0.6653
vn -0.6692 0.7057 0.2329
vn -0.3062 -0.7080 0.6364
vn -0.0574 -0.0005 0.9984
vn -0.3091 0.7062 0.6369
vn 0.2341 -0.7069 0.6675
vn 0.6653 0.0011 0.7465
vn 0.2312 0.7073 0.6680
vn 0.6381 -0.7059 0.3074
vn 0.9983 0.0020 0.0574
vn 0.6352 0.7083 0.3079
vn 0.6692 -0.7056 -0.2329
vn 0.7465 0.0018 -0.6653
vn 0.6663 0.7086 -0.2324
vn 0.3091 -0.7062 -0.6369
vn 0.0574 0.0005 -0.9984
vn 0.3062 0.7080 -0.6364
vn -0.2312 -0.7073 -0.6680
vn -0.2341 0.7069 -0.6675
vn -0.3290 -0.0003 -0.9443
vn 0.5463 -0.5724 0.6115
vn -0.5463 0.5724 -0.6115
vn -0.6129 0.5718 0.5454
vn -0.6692 0.7056 0.2329
vn 0.0681 -0.9974 -0.0234
vn 0.8330 0.0528 0.5508
vn 0.8909 0.0801 -0.4471
vn 0.0567 0.0361 -0.9977
vn -0.1424 0.9844 0.1034
vn -0.8919 -0.0624 0.4479
vn -0.0585 -0.0184 0.9981
vn -0.8004 -0.5962 -0.0628
vn -0.4239 -0.5881 0.6888
vn 0.4134 -0.5322 0.7388
vn 0.8740 -0.4844 0.0374
vn 0.4976 -0.4925 -0.7141
vn -0.3396 -0.5484 -0.7642
vn -0.8805 0.4741 0.0054
vn -0.5101 0.4736 0.7179
vn 0.2906 0.5434 0.7876
vn 0.7767 0.6199 0.1117
vn 0.3983 0.6229 -0.6733
vn -0.4606 0.5461 -0.6997
vn -0.9967 -0.0563 -0.0587
vn -0.5853 -0.7528 0.3013
vn -0.5488 -0.0466 0.8347
vn -0.6936 0.6183 0.3697
vn 0.0068 -0.7216 0.6923
vn 0.4472 0.0198 0.8942
vn -0.1363 0.6531 0.7449
vn 0.6400 -0.6709 0.3745
vn 0.9953 0.0767 0.0598
vn 0.4903 0.7369 0.4654
vn 0.6811 -0.6515 -0.3342
vn 0.5474 0.0671 -0.8342
vn 0.5562 0.7909 -0.2552
vn 0.0890 -0.6827 -0.7253
vn -0.4486 0.0007 -0.8938
vn -0.0631 0.7506 -0.6577
vn -0.5442 -0.7334 -0.4075
vn -0.6816 0.6622 -0.3112
vn -0.8347 -0.0352 -0.5495
vn 0.8336 0.0439 0.5506
vn 0.8915 0.0713 -0.4474
vn 0.0579 0.0274 -0.9979
vn -0.0681 0.9974 0.0234
vn -0.8915 -0.0713 0.4474
vn -0.0579 -0.0274 0.9979
vn -0.7960 -0.6020 -0.0627
vn -0.4213 -0.5940 0.6853
vn 0.4120 -0.5383 0.7352
vn 0.8706 -0.4906 0.0370
vn 0.4959 -0.4986 -0.7110
vn -0.3374 -0.5543 -0.7608
vn -0.8706 0.4906 -0.0370
vn -0.4959 0.4986 0.7110
vn 0.3374 0.5543 0.7608
vn 0.7960 0.6020 0.0627
vn 0.4213 0.5940 -0.6853
vn -0.4120 0.5383 -0.7352
vn -0.9960 -0.0666 -0.0596
vn -0.5823 -0.7557 0.2998
vn -0.5481 -0.0570 0.8345
vn -0.6785 0.6548 0.3329
vn 0.0072 -0.7246 0.6891
vn 0.4479 0.0095 0.8940
vn -0.0890 0.6859 0.7222
vn 0.6376 -0.6742 0.3727
vn 0.9960 0.0666 0.0596
vn 0.5413 0.7363 0.4059
vn 0.6785 -0.6548 -0.3329
vn 0.5481 0.0570 -0.8345
vn 0.5823 0.7557 -0.2998
vn 0.0890 -0.6859 -0.7222
vn -0.4479 -0.0095 -0.8940
vn -0.0072 0.7247 -0.6891
vn -0.5413 -0.7363 -0.4059
vn -0.6376 0.6742 -0.3727
vn -0.8336 -0.0439 -0.5506
vn -0.4120 0.5383 -0.7351
vn 0.4120 -0.5383 0.7351
vn -0.0072 0.7246 -0.6891
vn -0.0106 0.0886 -0.9960
vn -0.8717 0.0072 -0.4900
vn -0.8585 -0.0750 0.5072
vn 0.8715 0.0056 0.4903
vn 0.8592 0.0876 -0.5040
vn 0.5108 -0.0405 0.8587
vn 0.6505 -0.7023 0.2891
vn 0.9985 0.0539 -0.0083
vn 0.7543 0.5207 0.3998
vn 0.6408 -0.6440 -0.4178
vn 0.4899 0.1019 -0.8658
vn 0.7813 0.5950 -0.1885
vn 0.0224 -0.6434 -0.7652
vn -0.5098 0.0554 -0.8585
vn 0.3087 0.7351 -0.6036
vn -0.5864 -0.7011 -0.4058
vn -0.9992 -0.0394 0.0111
vn -0.4855 -0.0872 0.8699
vn -0.3771 0.6992 0.6074
vn 0.0416 -0.7600 0.6486
vn 0.2898 0.5380 0.7915
vn 0.0133 -0.0758 0.9970
vn 0.6486 -0.7047 0.2877
vn -0.0417 0.7622 -0.6460
vn -0.6486 0.7047 -0.2878
vn 0.0417 -0.7622 0.6461
vn -0.9957 0.0863 -0.0351
vn -0.5252 0.0591 0.8489
vn 0.4711 -0.0199 0.8819
vn 0.5277 -0.0444 -0.8483
vn -0.4667 0.0343 -0.8837
vn 0.8795 -0.0668 -0.4712
vn 0.3171 -0.7390 -0.5945
vn 0.0353 -0.0056 -0.9994
vn 0.5762 0.4825 -0.6597
vn -0.3900 -0.6828 -0.6178
vn -0.8446 0.0697 -0.5308
vn -0.0163 0.6137 -0.7894
vn -0.7631 -0.6461 -0.0152
vn -0.8783 0.0838 0.4707
vn -0.4877 0.8324 -0.2633
vn -0.4293 -0.6654 0.6107
vn -0.0288 0.0222 0.9993
vn -0.0744 0.8398 0.5377
vn 0.2778 -0.7216 0.6342
vn 0.8491 -0.0530 0.5256
vn 0.6616 0.6035 0.4451
vn 0.6511 -0.7583 0.0316
vn 0.8692 0.4741 -0.1404
vn 0.9969 -0.0715 0.0329
vn -0.4705 0.0273 -0.8820
vn -0.4351 0.0067 0.9004
vn 0.3290 0.0082 0.9443
vn 0.9003 0.0096 0.4352
vn 0.9445 0.0100 -0.3284
vn 0.4357 0.0091 -0.9001
vn -0.9004 0.0061 -0.4351
vn -0.9443 0.0058 0.3290
vn -0.6653 0.0074 -0.7465
vn -0.9984 0.0064 -0.0571
vn -0.7461 0.0067 0.6658
vn -0.0569 0.0081 0.9983
vn 0.6654 0.0097 0.7464
vn 0.9983 0.0106 0.0578
vn 0.7469 0.0103 -0.6648
vn 0.0579 0.0090 -0.9983
vn 0.3591 0.7140 -0.6011
vn -0.2321 -0.7046 -0.6706
vn -0.3286 0.0075 -0.9444
vn 0.6692 -0.7057 -0.2329
vn 0.8325 0.0527 0.5516
vn 0.8910 0.0801 -0.4469
vn 0.0573 0.0362 -0.9977
vn -0.8921 -0.0624 0.4476
vn -0.0591 -0.0185 0.9981
vn -0.9967 -0.0562 -0.0593
vn -0.5489 -0.0466 0.8346
vn 0.4464 0.0198 0.8946
vn -0.1363 0.6532 0.7448
vn 0.9952 0.0767 0.0605
vn 0.5473 0.0671 -0.8343
vn -0.4493 0.0006 -0.8934
vn -0.0631 0.7506 -0.6578
vn -0.5442 -0.7333 -0.4076
vn -0.6817 0.6622 -0.3112
vn -0.8342 -0.0350 -0.5503
vt 0.701327 0.861880
vt 0.678751 0.822791
vt 0.723902 0.822664
vt 0.274695 0.314565
vt 0.295747 0.016759
vt 0.297824 0.313615
vt 0.171600 0.320372
vt 0.194840 0.008985
vt 0.196160 0.320372
vt 0.468517 0.499628
vt 0.446531 0.296637
vt 0.466341 0.282909
vt 0.367398 0.891537
vt 0.375427 0.845345
vt 0.401502 0.869134
vt 0.358711 0.299296
vt 0.336469 0.011624
vt 0.358706 0.008516
vt 0.300638 0.313643
vt 0.316029 0.028064
vt 0.319761 0.314999
vt 0.360926 0.299221
vt 0.359139 0.300861
vt 0.333341 0.300935
vt 0.331636 0.299305
vt 0.334300 0.299367
vt 0.299068 0.315368
vt 0.196670 0.322019
vt 0.198451 0.320372
vt 0.170716 0.322018
vt 0.168983 0.320372
vt 0.723902 0.848766
vt 0.725644 0.848130
vt 0.724221 0.850602
vt 0.360926 0.007558
vt 0.359076 0.005938
vt 0.333804 0.011254
vt 0.335564 0.009223
vt 0.359517 0.867111
vt 0.361287 0.868267
vt 0.359035 0.870240
vt 0.375139 0.844210
vt 0.372672 0.845786
vt 0.466345 0.280584
vt 0.467838 0.280794
vt 0.443682 0.297666
vt 0.445215 0.295227
vt 0.702858 0.808678
vt 0.724220 0.820967
vt 0.700011 0.808686
vt 0.701326 0.809677
vt 0.298571 0.018177
vt 0.274626 0.316371
vt 0.197132 0.010256
vt 0.678650 0.850730
vt 0.678751 0.848893
vt 0.169869 0.006452
vt 0.467063 0.265532
vt 0.702859 0.863012
vt 0.446746 0.508145
vt 0.443895 0.508084
vt 0.725643 0.823431
vt 0.424650 0.294682
vt 0.424551 0.297159
vt 0.194118 0.799513
vt 0.169057 0.756120
vt 0.219179 0.755980
vt 0.281432 0.447341
vt 0.276090 0.421023
vt 0.280735 0.421063
vt 0.343540 0.960150
vt 0.338873 0.932260
vt 0.343540 0.932260
vt 0.474100 0.869003
vt 0.487695 0.893335
vt 0.484488 0.893433
vt 0.509970 0.843215
vt 0.510371 0.893433
vt 0.478576 0.867938
vt 0.211370 0.727475
vt 0.216031 0.699789
vt 0.216031 0.727511
vt 0.282636 0.397496
vt 0.276135 0.419147
vt 0.277991 0.397455
vt 0.211416 0.728952
vt 0.210327 0.727752
vt 0.210327 0.699113
vt 0.211416 0.697977
vt 0.211370 0.699753
vt 0.281916 0.420252
vt 0.280781 0.419187
vt 0.344637 0.931924
vt 0.343540 0.930732
vt 0.344637 0.960736
vt 0.343540 0.961895
vt 0.219179 0.784955
vt 0.220347 0.784535
vt 0.219398 0.786183
vt 0.216077 0.728988
vt 0.217181 0.727805
vt 0.220632 0.515501
vt 0.222246 0.515358
vt 0.221841 0.516707
vt 0.210327 0.487720
vt 0.211600 0.488558
vt 0.210327 0.489558
vt 0.337775 0.931924
vt 0.338873 0.930732
vt 0.338873 0.961895
vt 0.337775 0.960736
vt 0.338873 0.960150
vt 0.477292 0.867004
vt 0.477307 0.868905
vt 0.195139 0.740888
vt 0.219398 0.754844
vt 0.217181 0.699166
vt 0.193242 0.740894
vt 0.194118 0.741563
vt 0.222246 0.466805
vt 0.220632 0.466664
vt 0.169057 0.785096
vt 0.193242 0.800280
vt 0.168983 0.786324
vt 0.195139 0.800275
vt 0.474084 0.867102
vt 0.487292 0.842823
vt 0.488907 0.842957
vt 0.484085 0.842921
vt 0.888552 0.110828
vt 0.869329 0.077386
vt 0.907775 0.077483
vt 0.482187 0.498362
vt 0.503235 0.270755
vt 0.501666 0.497933
vt 0.664833 0.458547
vt 0.636272 0.277381
vt 0.655072 0.273810
vt 0.525176 0.235079
vt 0.510799 0.019314
vt 0.525176 0.008345
vt 0.871114 0.040241
vt 0.888796 0.005938
vt 0.906288 0.039825
vt 0.297223 0.546785
vt 0.315790 0.334483
vt 0.317638 0.546566
vt 0.504483 0.497991
vt 0.520702 0.282794
vt 0.520702 0.499155
vt 0.909540 0.078140
vt 0.908118 0.075667
vt 0.296202 0.548378
vt 0.294511 0.546759
vt 0.502895 0.499685
vt 0.482104 0.500143
vt 0.480392 0.498521
vt 0.890110 0.111845
vt 0.887267 0.111838
vt 0.507821 0.238280
vt 0.506637 0.236812
vt 0.509437 0.236762
vt 0.889916 0.053302
vt 0.887069 0.053311
vt 0.888647 0.051290
vt 0.294511 0.329766
vt 0.296316 0.328246
vt 0.297228 0.330791
vt 0.504383 0.269957
vt 0.506040 0.272242
vt 0.655769 0.271960
vt 0.657551 0.273010
vt 0.633859 0.277606
vt 0.635638 0.275784
vt 0.507989 0.020540
vt 0.509101 0.017876
vt 0.319761 0.546488
vt 0.317914 0.334291
vt 0.888552 0.066303
vt 0.870694 0.042992
vt 0.887266 0.065186
vt 0.869296 0.019380
vt 0.871156 0.017402
vt 0.667307 0.457599
vt 0.666255 0.265532
vt 0.869329 0.099648
vt 0.869257 0.101364
vt 0.643981 0.459111
vt 0.641518 0.458296
vt 0.908119 0.101462
vt 0.907775 0.099746
vt 0.909540 0.098996
vt 0.906330 0.042634
vt 0.490013 0.025169
vt 0.256039 0.861372
vt 0.234599 0.824074
vt 0.277478 0.824183
vt 0.276971 0.656080
vt 0.281290 0.633827
vt 0.281622 0.656151
vt 0.866602 0.677398
vt 0.862932 0.653570
vt 0.866602 0.653494
vt 0.659304 0.842840
vt 0.653075 0.824652
vt 0.657699 0.824772
vt 0.323251 0.917610
vt 0.294511 0.896330
vt 0.326863 0.875049
vt 0.983406 0.873250
vt 0.988256 0.896647
vt 0.983594 0.896647
vt 0.276919 0.657958
vt 0.280103 0.676606
vt 0.275451 0.676535
vt 0.278663 0.824616
vt 0.277715 0.822968
vt 0.982346 0.872570
vt 0.983428 0.871443
vt 0.275796 0.656889
vt 0.275451 0.633698
vt 0.276541 0.632558
vt 0.276639 0.633755
vt 0.257077 0.862059
vt 0.255182 0.862054
vt 0.660296 0.843938
vt 0.659304 0.844707
vt 0.336530 0.895550
vt 0.336370 0.897431
vt 0.335239 0.896330
vt 0.988091 0.871443
vt 0.989203 0.872570
vt 0.988069 0.873250
vt 0.282636 0.656995
vt 0.281570 0.658029
vt 0.861391 0.653102
vt 0.862345 0.651904
vt 0.862345 0.679101
vt 0.861391 0.677934
vt 0.862932 0.677475
vt 0.654680 0.844587
vt 0.653496 0.843762
vt 0.654680 0.842721
vt 0.988305 0.898062
vt 0.257077 0.810964
vt 0.324830 0.917917
vt 0.255182 0.810960
vt 0.256039 0.811714
vt 0.303798 0.918857
vt 0.302887 0.917610
vt 0.866015 0.651827
vt 0.849554 0.639518
vt 0.234544 0.850051
vt 0.234599 0.848903
vt 0.866015 0.679024
vt 0.277478 0.849012
vt 0.849554 0.690619
vt 0.848103 0.689899
vt 0.278663 0.848518
vt 0.653075 0.867176
vt 0.103958 0.863733
vt 0.082518 0.826434
vt 0.125397 0.826544
vt 0.057981 0.631515
vt 0.062964 0.653911
vt 0.058312 0.653840
vt 0.761904 0.843081
vt 0.758234 0.819253
vt 0.761904 0.819176
vt 0.760913 0.886365
vt 0.754683 0.868177
vt 0.759307 0.868297
vt 0.197722 0.917691
vt 0.168983 0.896411
vt 0.201334 0.875130
vt 0.563731 0.803496
vt 0.568581 0.826892
vt 0.563919 0.826892
vt 0.058260 0.655718
vt 0.061444 0.674366
vt 0.056793 0.674295
vt 0.126582 0.826977
vt 0.125634 0.825328
vt 0.562671 0.802815
vt 0.563753 0.801688
vt 0.057138 0.654649
vt 0.056793 0.631458
vt 0.057883 0.630318
vt 0.104996 0.864420
vt 0.103101 0.864415
vt 0.761904 0.887462
vt 0.760913 0.888232
vt 0.211001 0.895631
vt 0.210841 0.897512
vt 0.209710 0.896411
vt 0.568416 0.801688
vt 0.569528 0.802815
vt 0.568394 0.803496
vt 0.063978 0.654754
vt 0.062912 0.655789
vt 0.756693 0.818784
vt 0.757647 0.817587
vt 0.757647 0.844784
vt 0.756693 0.843616
vt 0.758234 0.843157
vt 0.756289 0.888112
vt 0.755104 0.887286
vt 0.756289 0.886245
vt 0.568630 0.828307
vt 0.104996 0.813325
vt 0.199302 0.917998
vt 0.103101 0.813320
vt 0.103958 0.814075
vt 0.177359 0.917691
vt 0.197872 0.918938
vt 0.178269 0.918938
vt 0.761317 0.817510
vt 0.743405 0.805918
vt 0.082462 0.852412
vt 0.082518 0.851263
vt 0.761317 0.844707
vt 0.125397 0.851373
vt 0.744856 0.856302
vt 0.743405 0.855582
vt 0.126582 0.850878
vt 0.202938 0.875146
vt 0.759307 0.910821
vt 0.190478 0.862568
vt 0.169039 0.825270
vt 0.211917 0.825379
vt 0.477907 0.657711
vt 0.482226 0.635459
vt 0.482558 0.657783
vt 0.156956 0.827295
vt 0.153286 0.851276
vt 0.153286 0.827372
vt 0.067001 0.813781
vt 0.063982 0.831729
vt 0.062377 0.813661
vt 0.707389 0.917456
vt 0.678650 0.896175
vt 0.711001 0.874895
vt 0.980878 0.988380
vt 0.985354 0.964984
vt 0.985541 0.988380
vt 0.476387 0.678166
vt 0.482506 0.659661
vt 0.481039 0.678238
vt 0.213102 0.825812
vt 0.212155 0.824164
vt 0.979631 0.964303
vt 0.980713 0.963176
vt 0.980691 0.964984
vt 0.476732 0.658521
vt 0.477855 0.659589
vt 0.476387 0.635330
vt 0.477477 0.634190
vt 0.477575 0.635387
vt 0.191516 0.863255
vt 0.189621 0.863250
vt 0.069598 0.832946
vt 0.068606 0.833715
vt 0.068606 0.831849
vt 0.720668 0.895395
vt 0.720508 0.897277
vt 0.719377 0.896175
vt 0.985376 0.963176
vt 0.986488 0.964303
vt 0.483572 0.658626
vt 0.151744 0.826903
vt 0.152699 0.825706
vt 0.152699 0.852903
vt 0.151744 0.851735
vt 0.063982 0.833596
vt 0.062798 0.832770
vt 0.985589 0.989795
vt 0.190478 0.812910
vt 0.708968 0.917762
vt 0.189621 0.812155
vt 0.687025 0.917456
vt 0.707539 0.918703
vt 0.687936 0.918703
vt 0.156368 0.825629
vt 0.138457 0.814037
vt 0.168983 0.851247
vt 0.169039 0.850099
vt 0.156368 0.852826
vt 0.156956 0.851200
vt 0.212155 0.851357
vt 0.139908 0.864421
vt 0.138457 0.863701
vt 0.213102 0.849714
vt 0.211917 0.850208
vt 0.712605 0.874910
vt 0.062377 0.856185
vt 0.572513 0.930052
vt 0.544612 0.941610
vt 0.533055 0.913713
vt 0.701723 0.642573
vt 0.689644 0.480392
vt 0.702604 0.480393
vt 0.572802 0.478334
vt 0.561144 0.267312
vt 0.569453 0.265994
vt 0.546561 0.479359
vt 0.558452 0.267471
vt 0.560903 0.479171
vt 0.532577 0.478860
vt 0.542589 0.267245
vt 0.543655 0.479327
vt 0.085609 0.558205
vt 0.097485 0.344522
vt 0.099939 0.558100
vt 0.967756 0.949994
vt 0.947347 0.956841
vt 0.938889 0.930464
vt 0.142447 0.554508
vt 0.128583 0.339056
vt 0.141574 0.338838
vt 0.125195 0.554518
vt 0.116051 0.340260
vt 0.125715 0.339220
vt 0.145194 0.554518
vt 0.143332 0.556168
vt 0.127010 0.556168
vt 0.128063 0.554508
vt 0.545573 0.943218
vt 0.542762 0.942054
vt 0.560956 0.941609
vt 0.562788 0.942052
vt 0.559977 0.943217
vt 0.561732 0.480706
vt 0.563596 0.479066
vt 0.545457 0.480919
vt 0.100752 0.559744
vt 0.102619 0.558082
vt 0.084491 0.559862
vt 0.082694 0.558228
vt 0.144321 0.338905
vt 0.142445 0.337333
vt 0.127542 0.337584
vt 0.703728 0.478041
vt 0.705513 0.479614
vt 0.686952 0.479610
vt 0.688848 0.478040
vt 0.559242 0.265588
vt 0.544379 0.265532
vt 0.545497 0.267422
vt 0.936596 0.944348
vt 0.938890 0.945073
vt 0.937530 0.947256
vt 0.937531 0.929033
vt 0.936596 0.931625
vt 0.533055 0.930055
vt 0.532577 0.931871
vt 0.704630 0.641997
vt 0.715537 0.473468
vt 0.687382 0.641614
vt 0.684692 0.640664
vt 0.572973 0.931868
vt 0.679321 0.470986
vt 0.678650 0.473463
vt 0.572513 0.913710
vt 0.574138 0.929057
vt 0.560956 0.902155
vt 0.572973 0.911844
vt 0.100167 0.344769
vt 0.544612 0.902157
vt 0.559977 0.900496
vt 0.084534 0.343467
vt 0.542762 0.901662
vt 0.944899 0.921292
vt 0.947344 0.921581
vt 0.071536 0.558323
vt 0.081618 0.343258
vt 0.818082 0.904779
vt 0.786987 0.917661
vt 0.774107 0.886570
vt 0.470013 0.608072
vt 0.473517 0.590976
vt 0.473517 0.607869
vt 0.216100 0.597210
vt 0.210722 0.586355
vt 0.215380 0.586380
vt 0.216146 0.615864
vt 0.211488 0.598980
vt 0.216146 0.599006
vt 0.215380 0.630813
vt 0.211442 0.617776
vt 0.216100 0.617802
vt 0.959294 0.024567
vt 0.954628 0.007725
vt 0.959294 0.007724
vt 0.879330 0.126235
vt 0.903649 0.135083
vt 0.893576 0.167147
vt 0.960393 0.344890
vt 0.955727 0.327986
vt 0.960393 0.327984
vt 0.960495 0.359379
vt 0.955733 0.346804
vt 0.960399 0.346802
vt 0.960399 0.326152
vt 0.961500 0.327398
vt 0.961500 0.345589
vt 0.787624 0.918742
vt 0.785750 0.917965
vt 0.805202 0.917659
vt 0.806427 0.917964
vt 0.804553 0.918740
vt 0.217176 0.598472
vt 0.217176 0.616611
vt 0.960394 0.007195
vt 0.959295 0.005938
vt 0.960394 0.025318
vt 0.959295 0.026510
vt 0.955733 0.326154
vt 0.954638 0.327401
vt 0.954638 0.345592
vt 0.955727 0.344892
vt 0.475067 0.608517
vt 0.474030 0.609777
vt 0.474030 0.589145
vt 0.475067 0.590341
vt 0.210327 0.598434
vt 0.211442 0.597185
vt 0.905192 0.135747
vt 0.904585 0.134004
vt 0.904585 0.154283
vt 0.903649 0.152947
vt 0.905192 0.152351
vt 0.954629 0.026511
vt 0.953532 0.025318
vt 0.954628 0.024568
vt 0.774107 0.904783
vt 0.773779 0.905997
vt 0.470526 0.609980
vt 0.483572 0.622007
vt 0.470526 0.589348
vt 0.470013 0.591180
vt 0.818398 0.905994
vt 0.481935 0.577793
vt 0.483572 0.578127
vt 0.819174 0.887192
vt 0.819174 0.904119
vt 0.895223 0.123720
vt 0.805202 0.873688
vt 0.818398 0.885318
vt 0.818082 0.886566
vt 0.786987 0.873690
vt 0.804553 0.872574
vt 0.895223 0.167480
vt 0.773779 0.885322
vt 0.785750 0.873352
vt 0.880517 0.170530
vt 0.879330 0.169364
vt 0.959311 0.039625
vt 0.278846 0.906140
vt 0.247751 0.919021
vt 0.234871 0.887930
vt 0.654844 0.238838
vt 0.658348 0.221743
vt 0.658348 0.238635
vt 0.152282 0.636248
vt 0.146905 0.625393
vt 0.151563 0.625418
vt 0.152329 0.654903
vt 0.147671 0.638019
vt 0.152329 0.638044
vt 0.151563 0.669851
vt 0.147624 0.656814
vt 0.152282 0.656840
vt 0.960346 0.721124
vt 0.955680 0.704281
vt 0.960346 0.704281
vt 0.853064 0.868192
vt 0.877383 0.877040
vt 0.867310 0.909105
vt 0.061439 0.931958
vt 0.056773 0.948867
vt 0.056773 0.931960
vt 0.061445 0.950777
vt 0.056875 0.963356
vt 0.056779 0.950779
vt 0.061445 0.930127
vt 0.062546 0.931373
vt 0.062546 0.949564
vt 0.061439 0.948865
vt 0.248388 0.920102
vt 0.246514 0.919326
vt 0.265966 0.919020
vt 0.267191 0.919324
vt 0.265317 0.920101
vt 0.153359 0.637510
vt 0.153359 0.655649
vt 0.961445 0.703751
vt 0.960347 0.702494
vt 0.961445 0.721874
vt 0.960347 0.723067
vt 0.056779 0.930129
vt 0.055684 0.931376
vt 0.055684 0.949566
vt 0.659898 0.239283
vt 0.658861 0.240543
vt 0.658861 0.219911
vt 0.659898 0.221107
vt 0.146509 0.637472
vt 0.147624 0.636223
vt 0.878925 0.877705
vt 0.878318 0.875961
vt 0.878318 0.896241
vt 0.877383 0.894905
vt 0.878925 0.894308
vt 0.955681 0.723067
vt 0.954583 0.721875
vt 0.955680 0.721124
vt 0.234544 0.907358
vt 0.234871 0.906144
vt 0.655357 0.240747
vt 0.666766 0.253081
vt 0.655357 0.220114
vt 0.654844 0.221946
vt 0.279162 0.907354
vt 0.668403 0.208893
vt 0.666766 0.208559
vt 0.278846 0.887927
vt 0.279938 0.905480
vt 0.867309 0.865975
vt 0.265966 0.875049
vt 0.279162 0.886679
vt 0.247751 0.875051
vt 0.265317 0.873935
vt 0.868957 0.909438
vt 0.234544 0.886683
vt 0.246514 0.874712
vt 0.853064 0.911321
vt 0.867491 0.910427
vt 0.854251 0.912488
vt 0.960362 0.736182
vt 0.899554 0.814313
vt 0.935174 0.814288
vt 0.917364 0.845088
vt 0.499940 0.686696
vt 0.516900 0.515545
vt 0.518613 0.686614
vt 0.444232 0.693637
vt 0.458138 0.521354
vt 0.458138 0.694372
vt 0.441458 0.693579
vt 0.426060 0.521310
vt 0.442745 0.520020
vt 0.746171 0.668530
vt 0.727412 0.647622
vt 0.759790 0.645914
vt 0.385242 0.693935
vt 0.375660 0.523875
vt 0.386960 0.523867
vt 0.728275 0.787769
vt 0.744852 0.670627
vt 0.745666 0.793326
vt 0.387931 0.693995
vt 0.386930 0.695569
vt 0.935174 0.834813
vt 0.936824 0.834214
vt 0.935398 0.836680
vt 0.518940 0.688249
vt 0.520702 0.686596
vt 0.498893 0.688337
vt 0.497213 0.686699
vt 0.442582 0.695298
vt 0.407152 0.695538
vt 0.406768 0.693966
vt 0.408937 0.693899
vt 0.389651 0.523694
vt 0.388673 0.522012
vt 0.747694 0.670475
vt 0.727412 0.662873
vt 0.729124 0.662135
vt 0.729057 0.664701
vt 0.958421 0.788202
vt 0.960713 0.788029
vt 0.960073 0.790060
vt 0.952585 0.769220
vt 0.954419 0.770519
vt 0.952587 0.771973
vt 0.406766 0.521776
vt 0.407157 0.519940
vt 0.408937 0.521409
vt 0.918808 0.846251
vt 0.748507 0.793137
vt 0.761904 0.662963
vt 0.518990 0.515815
vt 0.499940 0.513725
vt 0.517201 0.513983
vt 0.498884 0.512018
vt 0.915956 0.803085
vt 0.917364 0.804038
vt 0.423094 0.693649
vt 0.960713 0.756645
vt 0.958417 0.756365
vt 0.899554 0.834837
vt 0.915955 0.846253
vt 0.899365 0.836705
vt 0.880556 0.326824
vt 0.900448 0.361332
vt 0.860664 0.361251
vt 0.748840 0.456912
vt 0.753506 0.435407
vt 0.753506 0.456919
vt 0.941460 0.006001
vt 0.935892 0.021954
vt 0.936800 0.005938
vt 0.940508 0.023866
vt 0.935847 0.044959
vt 0.935847 0.023803
vt 0.888322 0.416751
vt 0.917266 0.413795
vt 0.902794 0.449568
vt 0.936826 0.304840
vt 0.933020 0.290471
vt 0.937681 0.290509
vt 0.660788 0.879990
vt 0.656412 0.899761
vt 0.653075 0.899558
vt 0.937724 0.288716
vt 0.938771 0.289382
vt 0.880556 0.372781
vt 0.881451 0.373546
vt 0.879552 0.373542
vt 0.747749 0.457118
vt 0.748846 0.458305
vt 0.747749 0.434701
vt 0.748846 0.433583
vt 0.748840 0.435400
vt 0.941656 0.023124
vt 0.940553 0.022017
vt 0.938771 0.266769
vt 0.937724 0.267016
vt 0.937681 0.265570
vt 0.933062 0.288678
vt 0.931916 0.289326
vt 0.657699 0.900726
vt 0.656412 0.901659
vt 0.665276 0.879171
vt 0.665737 0.880335
vt 0.664125 0.880194
vt 0.918818 0.414261
vt 0.918127 0.412694
vt 0.918127 0.437909
vt 0.917266 0.436658
vt 0.918818 0.436201
vt 0.933062 0.266978
vt 0.931916 0.266713
vt 0.933020 0.265532
vt 0.860462 0.362477
vt 0.653075 0.901456
vt 0.665737 0.920092
vt 0.754611 0.457127
vt 0.754611 0.434711
vt 0.900448 0.338354
vt 0.881451 0.326152
vt 0.900540 0.337217
vt 0.941656 0.045169
vt 0.904239 0.450298
vt 0.859513 0.338778
vt 0.860664 0.338272
vt 0.435506 0.849657
vt 0.455398 0.884165
vt 0.415614 0.884084
vt 0.730102 0.435400
vt 0.734769 0.456919
vt 0.730102 0.456912
vt 0.942567 0.326215
vt 0.936998 0.342168
vt 0.937906 0.326152
vt 0.941614 0.344081
vt 0.936953 0.365173
vt 0.936953 0.344018
vt 0.889545 0.278442
vt 0.918489 0.275486
vt 0.904017 0.311259
vt 0.280361 0.727789
vt 0.276555 0.713420
vt 0.281216 0.713458
vt 0.921345 0.190761
vt 0.916969 0.210532
vt 0.913632 0.210329
vt 0.281259 0.711666
vt 0.282307 0.712331
vt 0.435506 0.895614
vt 0.436401 0.896379
vt 0.434502 0.896375
vt 0.729011 0.457118
vt 0.730108 0.458305
vt 0.729011 0.434701
vt 0.730108 0.433583
vt 0.942763 0.343338
vt 0.941659 0.342232
vt 0.282307 0.689718
vt 0.281259 0.689965
vt 0.281216 0.688519
vt 0.276597 0.711627
vt 0.275451 0.712275
vt 0.918256 0.211497
vt 0.916969 0.212430
vt 0.925833 0.189942
vt 0.926294 0.191106
vt 0.924682 0.190964
vt 0.920041 0.275952
vt 0.919350 0.274385
vt 0.919350 0.299601
vt 0.918489 0.298349
vt 0.920041 0.297893
vt 0.276597 0.689927
vt 0.275451 0.689662
vt 0.276555 0.688481
vt 0.415412 0.885310
vt 0.913632 0.212227
vt 0.924682 0.231014
vt 0.734774 0.458312
vt 0.734769 0.435407
vt 0.735873 0.457127
vt 0.735873 0.434711
vt 0.455490 0.860050
vt 0.455398 0.861187
vt 0.941614 0.365236
vt 0.905462 0.311989
vt 0.415614 0.861105
vt 0.414463 0.883663
vt 0.414463 0.861612
vt 0.860816 0.202078
vt 0.900647 0.202051
vt 0.880731 0.236491
vt 0.987060 0.147050
vt 0.991727 0.125544
vt 0.991727 0.147056
vt 0.936931 0.600893
vt 0.933178 0.584813
vt 0.937839 0.584876
vt 0.936886 0.602742
vt 0.932225 0.623834
vt 0.932225 0.602679
vt 0.889853 0.546540
vt 0.918798 0.543584
vt 0.904325 0.579357
vt 0.937990 0.558607
vt 0.932473 0.572900
vt 0.933328 0.558569
vt 0.920129 0.326971
vt 0.915752 0.346742
vt 0.912415 0.346539
vt 0.938032 0.556814
vt 0.939080 0.557480
vt 0.900647 0.225002
vt 0.901757 0.224608
vt 0.900806 0.226252
vt 0.985969 0.147255
vt 0.987066 0.148443
vt 0.985969 0.124839
vt 0.987066 0.123720
vt 0.987060 0.125538
vt 0.938035 0.601999
vt 0.939080 0.534867
vt 0.938032 0.535114
vt 0.937990 0.533668
vt 0.933371 0.556776
vt 0.932225 0.557424
vt 0.917040 0.347707
vt 0.915752 0.348640
vt 0.924617 0.326152
vt 0.925078 0.327317
vt 0.923466 0.327175
vt 0.920350 0.544050
vt 0.919659 0.542483
vt 0.919659 0.567699
vt 0.918798 0.566447
vt 0.920350 0.565991
vt 0.933371 0.535076
vt 0.932225 0.534811
vt 0.933328 0.533630
vt 0.881694 0.237278
vt 0.912415 0.348437
vt 0.925078 0.367073
vt 0.901757 0.202583
vt 0.991733 0.123727
vt 0.992831 0.124848
vt 0.879792 0.189942
vt 0.880731 0.190589
vt 0.938035 0.624045
vt 0.905771 0.580087
vt 0.860680 0.226280
vt 0.860816 0.225029
vt 0.274626 0.005938
vt 0.172484 0.005938
vt 0.387362 0.892057
vt 0.395392 0.845864
vt 0.678650 0.821095
vt 0.364763 0.892057
vt 0.700012 0.863020
vt 0.468517 0.266559
vt 0.422868 0.498660
vt 0.276787 0.447300
vt 0.520702 0.868453
vt 0.489308 0.893175
vt 0.216077 0.698013
vt 0.168983 0.754985
vt 0.282636 0.447398
vt 0.220347 0.756487
vt 0.485582 0.265532
vt 0.906330 0.016986
vt 0.890109 0.065193
vt 0.869257 0.075568
vt 0.869257 0.040367
vt 0.667307 0.267029
vt 0.524748 0.005938
vt 0.486904 0.235764
vt 0.306499 0.875049
vt 0.983642 0.898062
vt 0.234544 0.822857
vt 0.323400 0.918857
vt 0.848103 0.640235
vt 0.277715 0.850161
vt 0.328467 0.875065
vt 0.657699 0.867296
vt 0.062632 0.631587
vt 0.180971 0.875130
vt 0.563967 0.828307
vt 0.082462 0.825218
vt 0.744856 0.805201
vt 0.125634 0.852522
vt 0.754683 0.910701
vt 0.690637 0.874895
vt 0.980927 0.989795
vt 0.191516 0.812160
vt 0.168983 0.824053
vt 0.139908 0.813320
vt 0.067001 0.856305
vt 0.532577 0.265857
vt 0.959298 0.923617
vt 0.967756 0.935385
vt 0.959301 0.958877
vt 0.114494 0.554599
vt 0.715234 0.470986
vt 0.574138 0.914655
vt 0.562788 0.901661
vt 0.944898 0.957508
vt 0.545573 0.900498
vt 0.532577 0.911847
vt 0.071536 0.342685
vt 0.211488 0.615839
vt 0.210722 0.630787
vt 0.869257 0.158299
vt 0.869257 0.140434
vt 0.893576 0.124018
vt 0.955829 0.359381
vt 0.481935 0.622315
vt 0.806427 0.873350
vt 0.954629 0.005938
vt 0.787624 0.872575
vt 0.893757 0.168470
vt 0.954644 0.039626
vt 0.147671 0.654877
vt 0.146905 0.669826
vt 0.842991 0.900257
vt 0.842991 0.882392
vt 0.061541 0.963354
vt 0.668403 0.252773
vt 0.279938 0.888553
vt 0.868957 0.865678
vt 0.267191 0.874711
vt 0.955681 0.702495
vt 0.248388 0.873936
vt 0.955696 0.736183
vt 0.445519 0.520021
vt 0.761502 0.660426
vt 0.742743 0.639518
vt 0.372801 0.693212
vt 0.936824 0.815095
vt 0.497213 0.513479
vt 0.899365 0.812655
vt 0.422868 0.695372
vt 0.940508 0.045022
vt 0.888322 0.439614
vt 0.902794 0.403841
vt 0.932165 0.304802
vt 0.664125 0.920244
vt 0.900540 0.362559
vt 0.753512 0.458312
vt 0.753512 0.433589
vt 0.859513 0.360830
vt 0.889545 0.301305
vt 0.904017 0.265532
vt 0.275700 0.727751
vt 0.926294 0.230863
vt 0.455490 0.885393
vt 0.734774 0.433589
vt 0.436401 0.848985
vt 0.942763 0.365384
vt 0.932270 0.600829
vt 0.936886 0.623897
vt 0.889853 0.569403
vt 0.904325 0.533630
vt 0.937135 0.572938
vt 0.923466 0.367225
vt 0.991733 0.148449
vt 0.992831 0.147265
vt 0.860680 0.200968
vt 0.879792 0.237279
s 0
f 13/1/1 7/2/1 2/3/1
f 12/4/2 25/5/2 8/6/2
f 15/7/3 28/8/3 11/9/3
f 14/10/4 36/11/4 31/12/4
f 23/13/5 29/14/5 35/15/5
f 3/16/6 24/17/6 20/18/6
f 9/19/7 22/20/7 5/21/7
f 1/22/8 2/23/8 3/16/8
f 4/24/9 5/25/9 6/26/9
f 7/27/10 8/6/10 9/19/10
f 10/28/11 11/9/11 12/29/11
f 13/30/12 14/31/12 15/7/12
f 16/32/13 17/33/13 18/34/13
f 19/35/14 20/18/14 21/36/14
f 22/37/15 23/38/15 24/17/15
f 25/39/16 26/40/16 27/41/16
f 28/42/17 29/14/17 30/43/17
f 31/12/18 32/44/18 33/45/18
f 34/46/19 35/47/19 36/11/19
f 1/22/20 20/18/20 19/35/20
f 2/3/21 6/48/21 3/49/21
f 5/25/22 24/17/22 6/26/22
f 23/38/23 20/18/23 24/17/23
f 7/2/24 5/50/24 4/51/24
f 8/6/25 27/52/25 9/19/25
f 23/13/26 27/41/26 26/40/26
f 10/53/27 8/6/27 7/27/27
f 11/9/28 30/54/28 12/29/28
f 26/40/29 30/43/29 29/14/29
f 13/1/30 11/55/30 10/56/30
f 31/57/31 15/7/31 14/31/31
f 29/58/32 33/45/32 32/44/32
f 13/1/33 18/34/33 14/59/33
f 34/46/34 18/60/34 17/61/34
f 35/47/35 31/12/35 36/11/35
f 16/32/36 1/62/36 17/33/36
f 21/63/37 34/46/37 19/64/37
f 17/61/38 19/64/38 34/46/38
f 49/65/1 43/66/1 38/67/1
f 48/68/39 61/69/39 44/70/39
f 51/71/40 64/72/40 47/73/40
f 54/74/41 67/75/41 50/76/41
f 59/77/42 65/78/42 71/79/42
f 39/80/43 60/81/43 56/82/43
f 41/83/44 63/84/44 58/85/44
f 37/86/45 38/87/45 39/80/45
f 40/88/46 41/89/46 42/90/46
f 43/91/47 44/70/47 45/92/47
f 46/93/48 47/73/48 48/94/48
f 49/95/49 50/96/49 51/71/49
f 52/97/50 53/98/50 54/99/50
f 55/100/51 56/82/51 57/101/51
f 58/102/52 59/103/52 60/104/52
f 61/105/53 62/106/53 63/107/53
f 64/72/54 65/108/54 66/109/54
f 67/110/55 68/111/55 69/112/55
f 70/113/56 71/79/56 72/114/56
f 37/86/57 56/82/57 55/100/57
f 38/67/58 42/115/58 39/116/58
f 41/89/59 60/81/59 42/90/59
f 59/117/60 56/82/60 60/81/60
f 43/66/61 41/118/61 40/119/61
f 44/70/62 63/84/62 45/92/62
f 59/103/63 63/107/63 62/106/63
f 43/91/64 48/68/64 44/70/64
f 47/73/65 66/109/65 48/94/65
f 65/120/66 61/105/66 66/121/66
f 46/122/67 51/123/67 47/124/67
f 50/96/68 69/112/68 51/71/68
f 68/111/69 64/72/69 69/112/69
f 52/97/70 50/125/70 49/65/70
f 70/113/71 54/74/71 53/126/71
f 71/79/72 67/75/72 72/114/72
f 38/67/73 53/98/73 52/97/73
f 71/79/74 55/127/74 57/128/74
f 37/129/75 70/113/75 53/126/75
f 85/130/76 79/131/76 74/132/76
f 84/133/77 97/134/77 80/135/77
f 83/136/78 105/137/78 100/138/78
f 86/139/79 108/140/79 103/141/79
f 95/142/80 101/143/80 107/144/80
f 78/145/81 92/146/81 75/147/81
f 81/148/82 94/149/82 77/150/82
f 73/151/83 74/132/83 75/152/83
f 76/153/84 77/154/84 78/145/84
f 79/155/85 80/135/85 81/148/85
f 82/156/86 83/157/86 84/133/86
f 85/130/87 86/158/87 87/159/87
f 88/160/88 89/161/88 90/162/88
f 91/163/89 92/164/89 93/165/89
f 94/166/90 95/167/90 96/168/90
f 97/134/91 98/169/91 99/170/91
f 100/138/92 101/171/92 102/172/92
f 103/173/93 104/174/93 105/137/93
f 106/175/94 107/176/94 108/140/94
f 73/177/95 92/146/95 91/178/95
f 76/179/96 75/152/96 74/132/96
f 77/154/97 96/168/97 78/145/97
f 93/165/98 96/180/98 95/142/98
f 79/131/99 77/181/99 76/179/99
f 80/135/100 99/170/100 81/148/100
f 95/142/101 99/182/101 98/183/101
f 82/156/102 80/135/102 79/155/102
f 83/136/103 102/172/103 84/184/103
f 98/185/104 102/172/104 101/171/104
f 82/186/105 87/159/105 83/187/105
f 103/173/106 87/188/106 86/189/106
f 104/174/107 100/138/107 105/137/107
f 85/130/108 90/190/108 86/158/108
f 106/175/109 90/162/109 89/161/109
f 107/176/110 103/141/110 108/140/110
f 88/191/111 73/151/111 89/192/111
f 93/165/112 106/193/112 91/163/112
f 89/161/113 91/194/113 106/175/113
f 121/195/76 115/196/76 110/197/76
f 116/198/114 138/199/114 133/200/114
f 123/201/115 136/202/115 119/203/115
f 126/204/116 139/205/116 122/206/116
f 131/207/117 137/208/117 143/209/117
f 114/210/118 128/211/118 111/212/118
f 117/213/119 130/214/119 113/215/119
f 109/216/120 110/197/120 111/217/120
f 112/218/121 113/219/121 114/210/121
f 115/220/122 116/198/122 117/213/122
f 118/221/123 119/222/123 120/223/123
f 121/195/124 122/224/124 123/225/124
f 124/226/125 125/227/125 126/204/125
f 127/228/126 128/229/126 129/230/126
f 130/231/127 131/232/127 132/233/127
f 133/200/128 134/234/128 135/235/128
f 136/202/129 137/236/129 138/237/129
f 139/238/130 140/239/130 141/240/130
f 142/241/131 143/242/131 144/243/131
f 127/244/132 111/212/132 128/211/132
f 110/197/133 114/245/133 111/217/133
f 130/231/134 114/210/134 113/219/134
f 129/230/135 132/246/135 131/207/135
f 115/196/136 113/247/136 112/248/136
f 116/198/137 135/235/137 117/213/137
f 131/207/138 135/249/138 134/250/138
f 115/220/139 120/223/139 116/198/139
f 136/202/140 120/251/140 119/203/140
f 137/236/141 133/252/141 138/237/141
f 121/195/142 119/253/142 118/254/142
f 139/238/143 123/201/143 122/255/143
f 137/236/144 141/240/144 140/239/144
f 124/256/145 122/224/145 121/195/145
f 142/241/146 126/204/146 125/227/146
f 140/239/147 144/257/147 143/258/147
f 110/197/148 125/259/148 124/256/148
f 143/209/149 127/228/149 129/230/149
f 125/227/150 127/260/150 142/241/150
f 157/261/76 151/262/76 146/263/76
f 156/264/114 169/265/114 152/266/114
f 159/267/115 172/268/115 155/269/115
f 162/270/116 175/271/116 158/272/116
f 167/273/117 173/274/117 179/275/117
f 150/276/118 164/277/118 147/278/118
f 153/279/119 166/280/119 149/281/119
f 145/282/120 146/263/120 147/283/120
f 148/284/121 149/285/121 150/276/121
f 151/286/151 152/266/151 153/279/151
f 154/287/123 155/288/123 156/264/123
f 157/261/124 158/289/124 159/290/124
f 160/291/125 161/292/125 162/270/125
f 163/293/126 164/294/126 165/295/126
f 166/296/127 167/297/127 168/298/127
f 169/265/128 170/299/128 171/300/128
f 172/268/129 173/301/129 174/302/129
f 175/303/130 176/304/130 177/305/130
f 178/306/131 179/307/131 180/308/131
f 163/309/132 147/278/132 164/277/132
f 146/263/133 150/310/133 147/283/133
f 166/296/134 150/276/134 149/285/134
f 165/295/135 168/311/135 167/273/135
f 151/262/136 149/312/136 148/313/136
f 169/265/137 153/279/137 152/266/137
f 170/314/152 166/315/152 171/316/152
f 151/286/139 156/264/139 152/266/139
f 172/268/140 156/317/140 155/269/140
f 170/318/141 174/302/141 173/301/141
f 157/261/142 155/319/142 154/320/142
f 158/321/143 177/305/143 159/267/143
f 176/304/153 172/268/153 177/305/153
f 160/322/154 158/289/154 157/261/154
f 178/306/155 162/270/155 161/292/155
f 176/304/147 180/323/147 179/324/147
f 146/263/148 161/325/148 160/322/148
f 165/295/149 178/326/149 163/293/149
f 145/327/150 178/306/150 161/292/150
f 193/328/76 187/329/76 182/330/76
f 188/331/114 210/332/114 205/333/114
f 191/334/115 213/335/115 208/336/115
f 194/337/116 216/338/116 211/339/116
f 203/340/117 209/341/117 215/342/117
f 183/343/118 204/344/118 200/345/118
f 185/346/119 207/347/119 202/348/119
f 181/349/120 182/330/120 183/350/120
f 184/351/121 185/352/121 186/353/121
f 187/354/122 188/331/122 189/355/122
f 190/356/123 191/357/123 192/358/123
f 193/328/124 194/359/124 195/360/124
f 196/361/125 197/362/125 198/363/125
f 199/364/126 200/365/126 201/366/126
f 202/367/127 203/368/127 204/344/127
f 205/333/128 206/369/128 207/347/128
f 208/336/129 209/370/129 210/371/129
f 211/372/130 212/373/130 213/335/130
f 214/374/131 215/375/131 216/338/131
f 199/376/132 183/343/132 200/345/132
f 184/377/133 183/350/133 182/330/133
f 202/367/134 186/353/134 185/352/134
f 203/340/135 200/365/135 204/378/135
f 187/329/136 185/379/136 184/377/136
f 205/333/137 189/355/137 188/331/137
f 206/380/152 202/381/152 207/382/152
f 190/356/139 188/331/139 187/354/139
f 208/336/140 192/383/140 191/334/140
f 206/384/156 210/371/156 209/370/156
f 193/328/142 191/385/142 190/386/142
f 194/387/143 213/335/143 195/388/143
f 209/370/144 213/335/144 212/373/144
f 193/328/145 198/389/145 194/359/145
f 214/374/146 198/363/146 197/362/146
f 212/373/147 216/390/147 215/391/147
f 182/330/148 197/392/148 196/393/148
f 201/366/149 214/394/149 199/364/149
f 197/362/150 199/395/150 214/374/150
f 229/396/157 223/397/157 218/398/157
f 224/399/158 252/400/158 247/401/158
f 227/402/159 255/403/159 250/404/159
f 234/405/160 253/406/160 230/407/160
f 237/408/161 256/409/161 233/410/161
f 240/411/162 259/412/162 236/413/162
f 251/414/163 257/415/163 263/416/163
f 219/417/164 246/418/164 242/419/164
f 221/420/165 249/421/165 244/422/165
f 217/423/166 218/424/166 219/417/166
f 220/425/167 221/420/167 222/426/167
f 223/397/168 224/427/168 225/428/168
f 226/429/169 227/430/169 228/431/169
f 229/432/170 230/407/170 231/433/170
f 232/434/171 233/410/171 234/405/171
f 235/435/172 236/413/172 237/436/172
f 238/437/173 239/438/173 240/411/173
f 241/439/174 242/419/174 243/440/174
f 244/422/175 245/441/175 246/418/175
f 247/401/176 248/442/176 249/443/176
f 250/444/177 251/445/177 252/400/177
f 253/406/178 254/446/178 255/403/178
f 256/409/179 257/447/179 258/448/179
f 259/449/180 260/450/180 261/451/180
f 262/452/181 263/416/181 264/453/181
f 241/439/182 219/417/182 242/419/182
f 218/424/183 222/426/183 219/417/183
f 244/422/184 222/426/184 221/420/184
f 245/441/185 242/419/185 246/418/185
f 220/454/186 225/428/186 221/455/186
f 247/401/187 225/456/187 224/399/187
f 248/442/188 244/457/188 249/443/188
f 223/397/189 228/431/189 224/427/189
f 250/444/190 228/458/190 227/459/190
f 251/445/191 247/401/191 252/400/191
f 226/429/192 231/460/192 227/430/192
f 253/406/193 231/433/193 230/407/193
f 254/461/194 250/444/194 255/462/194
f 232/463/195 230/464/195 229/396/195
f 233/410/196 258/448/196 234/405/196
f 254/446/197 258/448/197 257/447/197
f 235/465/198 233/466/198 232/463/198
f 236/413/199 261/467/199 237/436/199
f 257/415/200 261/451/200 260/450/200
f 238/468/201 236/469/201 235/465/201
f 239/438/202 264/470/202 240/411/202
f 260/450/203 264/453/203 263/416/203
f 218/398/204 239/471/204 238/468/204
f 263/416/205 241/472/205 243/473/205
f 217/474/206 262/475/206 239/438/206
f 277/476/157 271/477/157 266/478/157
f 272/479/207 300/480/207 295/481/207
f 279/482/208 298/483/208 275/484/208
f 282/485/209 301/486/209 278/487/209
f 285/488/210 304/489/210 281/490/210
f 288/491/211 307/492/211 284/493/211
f 299/494/212 305/495/212 311/496/212
f 270/497/213 290/498/213 267/499/213
f 273/500/214 292/501/214 269/502/214
f 265/503/215 266/504/215 267/499/215
f 268/505/216 269/502/216 270/497/216
f 271/477/217 272/506/217 273/507/217
f 274/508/218 275/509/218 276/510/218
f 277/511/219 278/487/219 279/482/219
f 280/512/220 281/490/220 282/485/220
f 283/513/221 284/493/221 285/514/221
f 286/515/222 287/516/222 288/491/222
f 289/517/223 290/498/223 291/518/223
f 292/501/224 293/519/224 294/520/224
f 295/481/225 296/521/225 297/522/225
f 298/523/226 299/524/226 300/480/226
f 301/486/227 302/525/227 303/526/227
f 304/527/228 305/495/228 306/528/228
f 307/529/229 308/530/229 309/531/229
f 310/532/230 311/533/230 312/534/230
f 265/503/231 290/498/231 289/517/231
f 268/505/232 267/499/232 266/504/232
f 292/501/233 270/497/233 269/502/233
f 291/518/234 294/520/234 293/519/234
f 268/535/235 273/507/235 269/536/235
f 272/479/236 297/522/236 273/537/236
f 293/538/237 297/522/237 296/521/237
f 274/508/238 272/506/238 271/477/238
f 275/539/239 300/480/239 276/540/239
f 299/524/240 295/481/240 300/480/240
f 274/508/241 279/541/241 275/509/241
f 278/487/242 303/526/242 279/482/242
f 299/524/243 303/542/243 302/543/243
f 277/476/244 282/544/244 278/545/244
f 304/489/245 282/485/245 281/490/245
f 305/495/246 301/546/246 306/528/246
f 283/547/247 281/548/247 280/549/247
f 307/492/248 285/514/248 284/493/248
f 305/495/249 309/531/249 308/530/249
f 286/550/250 284/551/250 283/547/250
f 310/532/251 288/491/251 287/516/251
f 308/530/252 312/552/252 311/496/252
f 286/550/253 265/553/253 287/554/253
f 311/496/254 289/555/254 291/556/254
f 265/557/255 310/532/255 287/516/255
f 325/558/157 319/559/157 314/560/157
f 320/561/207 348/562/207 343/563/207
f 327/564/208 346/565/208 323/566/208
f 330/567/209 349/568/209 326/569/209
f 333/570/210 352/571/210 329/572/210
f 336/573/211 355/574/211 332/575/211
f 347/576/212 353/577/212 359/578/212
f 315/579/213 342/580/213 338/581/213
f 317/582/214 345/583/214 340/584/214
f 313/585/215 314/586/215 315/579/215
f 316/587/216 317/582/216 318/588/216
f 319/559/217 320/589/217 321/590/217
f 322/591/218 323/592/218 324/593/218
f 325/594/256 326/569/256 327/564/256
f 328/595/220 329/572/220 330/567/220
f 331/596/221 332/575/221 333/597/221
f 334/598/222 335/599/222 336/573/222
f 337/600/257 338/581/257 339/601/257
f 340/584/224 341/602/224 342/580/224
f 343/563/258 344/603/258 345/604/258
f 346/605/226 347/606/226 348/562/226
f 349/568/227 350/607/227 351/608/227
f 352/609/228 353/577/228 354/610/228
f 355/611/229 356/612/229 357/613/229
f 358/614/230 359/615/230 360/616/230
f 313/585/231 338/581/231 337/600/231
f 316/587/232 315/579/232 314/586/232
f 340/584/233 318/588/233 317/582/233
f 339/601/234 342/580/234 341/602/234
f 319/559/235 317/617/235 316/618/235
f 320/561/236 345/604/236 321/619/236
f 344/603/259 340/620/259 345/604/259
f 322/591/238 320/589/238 319/559/238
f 323/621/239 348/562/239 324/622/239
f 347/606/240 343/563/240 348/562/240
f 322/591/241 327/623/241 323/592/241
f 326/569/242 351/608/242 327/564/242
f 350/624/243 346/605/243 351/625/243
f 328/626/244 326/627/244 325/558/244
f 352/571/245 330/567/245 329/572/245
f 350/628/246 354/610/246 353/577/246
f 331/629/247 329/630/247 328/626/247
f 355/574/248 333/597/248 332/575/248
f 353/577/249 357/613/249 356/612/249
f 334/631/250 332/632/250 331/629/250
f 358/614/251 336/573/251 335/599/251
f 356/612/252 360/633/252 359/578/252
f 334/631/253 313/634/253 335/635/253
f 339/636/254 358/637/254 337/638/254
f 313/639/255 358/614/255 335/599/255
f 373/640/260 367/641/260 362/642/260
f 372/643/261 385/644/261 368/645/261
f 375/646/262 388/647/262 371/648/262
f 374/649/263 396/650/263 391/651/263
f 383/652/264 389/653/264 395/654/264
f 363/655/265 384/656/265 380/657/265
f 369/658/266 382/659/266 365/660/266
f 361/661/267 362/662/267 363/655/267
f 364/663/268 365/664/268 366/665/268
f 367/666/269 368/645/269 369/667/269
f 370/668/270 371/669/270 372/643/270
f 373/670/271 374/649/271 375/646/271
f 376/671/272 377/672/272 378/673/272
f 379/674/273 380/657/273 381/675/273
f 382/659/274 383/652/274 384/676/274
f 385/677/275 386/678/275 387/679/275
f 388/680/276 389/681/276 390/682/276
f 391/683/277 392/684/277 393/685/277
f 394/686/278 395/687/278 396/688/278
f 361/661/279 380/657/279 379/674/279
f 362/642/280 366/665/280 363/689/280
f 365/660/281 384/676/281 366/690/281
f 383/652/282 380/691/282 384/676/282
f 367/641/283 365/664/283 364/663/283
f 368/645/284 387/692/284 369/667/284
f 383/652/285 387/679/285 386/678/285
f 370/668/286 368/645/286 367/666/286
f 371/669/287 390/693/287 372/643/287
f 386/694/288 390/693/288 389/695/288
f 373/640/289 371/696/289 370/697/289
f 391/651/290 375/646/290 374/649/290
f 389/681/291 393/685/291 392/684/291
f 373/670/292 378/698/292 374/649/292
f 394/686/293 378/673/293 377/672/293
f 395/699/294 391/683/294 396/700/294
f 376/701/295 361/702/295 377/703/295
f 381/675/296 394/686/296 379/674/296
f 377/672/297 379/674/297 394/686/297
f 409/704/260 403/705/260 398/706/260
f 404/707/298 426/708/298 421/709/298
f 407/710/299 429/711/299 424/712/299
f 410/713/300 432/714/300 427/715/300
f 419/716/301 425/717/301 431/718/301
f 402/719/302 416/720/302 399/721/302
f 405/722/303 418/723/303 401/724/303
f 397/725/304 398/726/304 399/721/304
f 400/727/305 401/728/305 402/729/305
f 403/730/306 404/707/306 405/731/306
f 406/732/307 407/733/307 408/734/307
f 409/735/308 410/713/308 411/736/308
f 412/737/309 413/738/309 414/739/309
f 415/740/310 416/720/310 417/741/310
f 418/723/311 419/742/311 420/743/311
f 421/744/312 422/745/312 423/746/312
f 424/747/313 425/717/313 426/748/313
f 427/749/314 428/750/314 429/751/314
f 430/752/315 431/753/315 432/754/315
f 415/740/316 399/721/316 416/720/316
f 400/727/317 399/755/317 398/706/317
f 401/724/318 420/743/318 402/756/318
f 417/757/319 420/743/319 419/742/319
f 403/705/320 401/728/320 400/727/320
f 421/709/321 405/731/321 404/707/321
f 419/742/322 423/746/322 422/745/322
f 403/730/323 408/734/323 404/707/323
f 407/733/324 426/708/324 408/734/324
f 422/758/325 426/708/325 425/759/325
f 406/760/326 411/761/326 407/762/326
f 410/713/327 429/711/327 411/736/327
f 425/717/328 429/751/328 428/750/328
f 412/763/329 410/713/329 409/735/329
f 430/752/330 414/739/330 413/738/330
f 431/718/331 427/749/331 432/764/331
f 398/706/332 413/765/332 412/766/332
f 431/753/333 415/740/333 417/741/333
f 413/738/334 415/740/334 430/752/334
f 445/767/260 439/768/260 434/769/260
f 444/770/298 457/771/298 440/772/298
f 443/773/299 465/774/299 460/775/299
f 446/776/300 468/777/300 463/778/300
f 455/779/301 461/780/301 467/781/301
f 438/782/302 452/783/302 435/784/302
f 441/785/303 454/786/303 437/787/303
f 433/788/304 434/789/304 435/784/304
f 436/790/305 437/791/305 438/792/305
f 439/793/306 440/772/306 441/794/306
f 442/795/307 443/796/307 444/770/307
f 445/797/308 446/776/308 447/798/308
f 448/799/309 449/800/309 450/801/309
f 451/802/310 452/783/310 453/803/310
f 454/786/311 455/804/311 456/805/311
f 457/806/312 458/807/312 459/808/312
f 460/809/313 461/780/313 462/810/313
f 463/811/314 464/812/314 465/813/314
f 466/814/335 467/815/335 468/816/335
f 433/788/316 452/783/316 451/802/316
f 436/790/317 435/817/317 434/769/317
f 437/787/318 456/805/318 438/818/318
f 455/804/319 452/819/319 456/805/319
f 439/768/320 437/791/320 436/790/320
f 440/772/321 459/820/321 441/794/321
f 458/807/322 454/786/322 459/808/322
f 439/793/323 444/770/323 440/772/323
f 443/796/324 462/821/324 444/770/324
f 458/822/325 462/821/325 461/823/325
f 445/767/326 443/824/326 442/825/326
f 446/776/327 465/774/327 447/798/327
f 461/780/328 465/813/328 464/812/328
f 445/797/329 450/826/329 446/776/329
f 466/814/330 450/801/330 449/800/330
f 464/812/331 468/827/331 467/781/331
f 448/828/332 433/829/332 449/830/332
f 467/815/333 451/802/333 453/803/333
f 449/800/334 451/802/334 466/814/334
f 481/831/260 475/832/260 470/833/260
f 476/834/298 498/835/298 493/836/298
f 483/837/299 496/838/299 479/839/299
f 482/840/300 504/841/300 499/842/300
f 491/843/301 497/844/301 503/845/301
f 471/846/302 492/847/302 488/848/302
f 477/849/303 490/850/303 473/851/303
f 469/852/304 470/853/304 471/846/304
f 472/854/305 473/855/305 474/856/305
f 475/857/336 476/834/336 477/858/336
f 478/859/307 479/860/307 480/861/307
f 481/862/308 482/840/308 483/837/308
f 484/863/309 485/864/309 486/865/309
f 487/866/310 488/848/310 489/867/310
f 490/850/311 491/868/311 492/869/311
f 493/870/312 494/871/312 495/872/312
f 496/873/313 497/844/313 498/874/313
f 499/875/314 500/876/314 501/877/314
f 502/878/335 503/879/335 504/880/335
f 469/852/316 488/848/316 487/866/316
f 470/833/317 474/856/317 471/881/317
f 490/850/318 474/882/318 473/851/318
f 489/883/319 492/869/319 491/868/319
f 472/854/320 477/884/320 473/855/320
f 493/836/321 477/858/321 476/834/321
f 491/868/322 495/872/322 494/871/322
f 475/857/323 480/861/323 476/834/323
f 496/885/324 480/861/324 479/860/324
f 497/886/325 493/836/325 498/835/325
f 481/831/326 479/887/326 478/888/326
f 499/842/327 483/837/327 482/840/327
f 497/844/328 501/877/328 500/876/328
f 484/889/329 482/840/329 481/862/329
f 485/864/330 504/880/330 486/865/330
f 500/876/337 504/890/337 503/845/337
f 470/833/332 485/891/332 484/892/332
f 503/879/333 487/866/333 489/867/333
f 469/852/334 502/878/334 485/864/334
f 2/3/1 16/32/1 13/1/1
f 13/1/1 10/56/1 7/2/1
f 7/2/1 4/51/1 2/3/1
f 12/4/338 30/893/338 25/5/338
f 15/7/339 33/894/339 28/8/339
f 14/10/340 18/60/340 36/11/340
f 35/15/5 21/895/5 23/13/5
f 23/13/5 26/40/5 29/14/5
f 29/14/5 32/896/5 35/15/5
f 3/16/341 6/26/341 24/17/341
f 9/19/342 27/52/342 22/20/342
f 1/22/343 3/16/343 20/18/343
f 2/3/344 4/51/344 6/48/344
f 5/25/345 22/37/345 24/17/345
f 23/38/346 21/36/346 20/18/346
f 7/2/347 9/897/347 5/50/347
f 8/6/348 25/5/348 27/52/348
f 23/13/349 22/898/349 27/41/349
f 10/53/350 12/4/350 8/6/350
f 11/9/351 28/8/351 30/54/351
f 26/40/352 25/39/352 30/43/352
f 13/1/353 15/899/353 11/55/353
f 31/57/354 33/894/354 15/7/354
f 29/58/32 28/900/32 33/45/32
f 13/1/33 16/32/33 18/34/33
f 34/46/355 36/11/355 18/60/355
f 35/47/356 32/44/356 31/12/356
f 16/32/357 2/3/357 1/62/357
f 21/63/358 35/47/358 34/46/358
f 17/61/359 1/901/359 19/64/359
f 38/67/1 52/97/1 49/65/1
f 49/65/1 46/122/1 43/66/1
f 43/66/1 40/119/1 38/67/1
f 48/68/39 66/902/39 61/69/39
f 51/71/40 69/112/40 64/72/40
f 54/74/41 72/114/41 67/75/41
f 71/79/42 57/128/42 59/77/42
f 59/77/42 62/903/42 65/78/42
f 65/78/42 68/904/42 71/79/42
f 39/80/43 42/90/43 60/81/43
f 41/83/44 45/92/44 63/84/44
f 37/86/57 39/80/57 56/82/57
f 38/67/360 40/119/360 42/115/360
f 41/89/59 58/905/59 60/81/59
f 59/117/60 57/101/60 56/82/60
f 43/66/61 45/906/61 41/118/61
f 44/70/62 61/69/62 63/84/62
f 59/103/63 58/102/63 63/107/63
f 43/91/64 46/907/64 48/68/64
f 47/73/65 64/72/65 66/109/65
f 65/120/361 62/106/361 61/105/361
f 46/122/67 49/65/67 51/123/67
f 50/96/68 67/110/68 69/112/68
f 68/111/362 65/108/362 64/72/362
f 52/97/70 54/99/70 50/125/70
f 70/113/71 72/114/71 54/74/71
f 71/79/72 68/904/72 67/75/72
f 38/67/363 37/908/363 53/98/363
f 71/79/74 70/113/74 55/127/74
f 37/129/75 55/127/75 70/113/75
f 74/132/76 88/191/76 85/130/76
f 85/130/76 82/186/76 79/131/76
f 79/131/76 76/179/76 74/132/76
f 84/133/364 102/909/364 97/134/364
f 83/136/365 87/188/365 105/137/365
f 86/139/366 90/162/366 108/140/366
f 107/144/80 93/165/80 95/142/80
f 95/142/80 98/183/80 101/143/80
f 101/143/80 104/910/80 107/144/80
f 78/145/367 96/168/367 92/146/367
f 81/148/368 99/170/368 94/149/368
f 73/177/369 75/147/369 92/146/369
f 76/179/370 78/911/370 75/152/370
f 77/154/371 94/166/371 96/168/371
f 93/165/372 92/164/372 96/180/372
f 79/131/373 81/912/373 77/181/373
f 80/135/374 97/134/374 99/170/374
f 95/142/375 94/913/375 99/182/375
f 82/156/376 84/133/376 80/135/376
f 83/136/377 100/138/377 102/172/377
f 98/185/378 97/914/378 102/172/378
f 82/186/379 85/130/379 87/159/379
f 103/173/380 105/137/380 87/188/380
f 104/174/381 101/171/381 100/138/381
f 85/130/382 88/191/382 90/190/382
f 106/175/383 108/140/383 90/162/383
f 107/176/384 104/915/384 103/141/384
f 88/191/385 74/132/385 73/151/385
f 93/165/386 107/144/386 106/193/386
f 89/161/387 73/916/387 91/194/387
f 110/197/76 124/256/76 121/195/76
f 121/195/76 118/254/76 115/196/76
f 115/196/76 112/248/76 110/197/76
f 116/198/114 120/223/114 138/199/114
f 123/201/115 141/240/115 136/202/115
f 126/204/116 144/243/116 139/205/116
f 143/209/117 129/230/117 131/207/117
f 131/207/117 134/250/117 137/208/117
f 137/208/117 140/917/117 143/209/117
f 114/210/118 132/233/118 128/211/118
f 117/213/388 135/235/388 130/214/388
f 127/244/132 109/918/132 111/212/132
f 110/197/133 112/248/133 114/245/133
f 130/231/134 132/233/134 114/210/134
f 129/230/135 128/229/135 132/246/135
f 115/196/136 117/919/136 113/247/136
f 116/198/137 133/200/137 135/235/137
f 131/207/138 130/920/138 135/249/138
f 115/220/139 118/221/139 120/223/139
f 136/202/140 138/237/140 120/251/140
f 137/236/156 134/921/156 133/252/156
f 121/195/142 123/225/142 119/253/142
f 139/238/143 141/240/143 123/201/143
f 137/236/144 136/202/144 141/240/144
f 124/256/154 126/922/154 122/224/154
f 142/241/155 144/243/155 126/204/155
f 140/239/147 139/238/147 144/257/147
f 110/197/148 109/216/148 125/259/148
f 143/209/149 142/923/149 127/228/149
f 125/227/150 109/924/150 127/260/150
f 146/263/76 160/322/76 157/261/76
f 157/261/76 154/320/76 151/262/76
f 151/262/76 148/313/76 146/263/76
f 156/264/114 174/925/114 169/265/114
f 159/267/115 177/305/115 172/268/115
f 162/270/116 180/308/116 175/271/116
f 179/275/117 165/295/117 167/273/117
f 167/273/117 170/314/117 173/274/117
f 173/274/117 176/926/117 179/275/117
f 150/276/118 168/298/118 164/277/118
f 153/279/119 171/300/119 166/280/119
f 163/309/132 145/927/132 147/278/132
f 146/263/133 148/313/133 150/310/133
f 166/296/134 168/298/134 150/276/134
f 165/295/135 164/294/135 168/311/135
f 151/262/136 153/928/136 149/312/136
f 169/265/137 171/300/137 153/279/137
f 170/314/138 167/273/138 166/315/138
f 151/286/139 154/287/139 156/264/139
f 172/268/140 174/302/140 156/317/140
f 170/318/156 169/929/156 174/302/156
f 157/261/142 159/290/142 155/319/142
f 158/321/143 175/303/143 177/305/143
f 176/304/144 173/301/144 172/268/144
f 160/322/145 162/930/145 158/289/145
f 178/306/146 180/308/146 162/270/146
f 176/304/147 175/303/147 180/323/147
f 146/263/148 145/282/148 161/325/148
f 165/295/149 179/275/149 178/326/149
f 145/327/150 163/931/150 178/306/150
f 182/330/76 196/393/76 193/328/76
f 193/328/76 190/386/76 187/329/76
f 187/329/76 184/377/76 182/330/76
f 188/331/114 192/358/114 210/332/114
f 191/334/115 195/388/115 213/335/115
f 194/337/116 198/363/116 216/338/116
f 215/342/117 201/366/117 203/340/117
f 203/340/117 206/380/117 209/341/117
f 209/341/117 212/932/117 215/342/117
f 183/343/118 186/353/118 204/344/118
f 185/346/119 189/355/119 207/347/119
f 199/376/132 181/933/132 183/343/132
f 184/377/133 186/934/133 183/350/133
f 202/367/134 204/344/134 186/353/134
f 203/340/135 201/366/135 200/365/135
f 187/329/136 189/935/136 185/379/136
f 205/333/137 207/347/137 189/355/137
f 206/380/138 203/340/138 202/381/138
f 190/356/139 192/358/139 188/331/139
f 208/336/140 210/371/140 192/383/140
f 206/384/156 205/936/156 210/371/156
f 193/328/142 195/360/142 191/385/142
f 194/387/143 211/372/143 213/335/143
f 209/370/144 208/336/144 213/335/144
f 193/328/154 196/393/154 198/389/154
f 214/374/146 216/338/146 198/363/146
f 212/373/147 211/372/147 216/390/147
f 182/330/148 181/349/148 197/392/148
f 201/366/149 215/342/149 214/394/149
f 197/362/150 181/937/150 199/395/150
f 218/398/157 238/468/157 235/465/157
f 235/465/157 232/463/157 229/396/157
f 229/396/157 226/429/157 223/397/157
f 223/397/157 220/454/157 218/398/157
f 218/398/157 235/465/157 229/396/157
f 224/399/389 228/458/389 252/400/389
f 227/402/390 231/433/390 255/403/390
f 234/405/391 258/448/391 253/406/391
f 237/408/392 261/938/392 256/409/392
f 240/411/393 264/470/393 259/412/393
f 263/416/163 243/473/163 245/939/163
f 245/939/163 248/940/163 251/414/163
f 251/414/163 254/941/163 257/415/163
f 257/415/163 260/450/163 263/416/163
f 263/416/163 245/939/163 251/414/163
f 219/417/394 222/426/394 246/418/394
f 221/420/395 225/942/395 249/421/395
f 241/439/396 217/423/396 219/417/396
f 218/424/183 220/425/183 222/426/183
f 244/422/397 246/418/397 222/426/397
f 245/441/185 243/440/185 242/419/185
f 220/454/186 223/397/186 225/428/186
f 247/401/398 249/443/398 225/456/398
f 248/442/188 245/943/188 244/457/188
f 223/397/189 226/429/189 228/431/189
f 250/444/399 252/400/399 228/458/399
f 251/445/191 248/442/191 247/401/191
f 226/429/192 229/396/192 231/460/192
f 253/406/400 255/403/400 231/433/400
f 254/461/194 251/445/194 250/444/194
f 232/463/195 234/944/195 230/464/195
f 233/410/401 256/409/401 258/448/401
f 254/446/197 253/406/197 258/448/197
f 235/465/198 237/945/198 233/466/198
f 236/413/402 259/412/402 261/467/402
f 257/415/200 256/946/200 261/451/200
f 238/468/201 240/947/201 236/469/201
f 239/438/403 262/475/403 264/470/403
f 260/450/404 259/449/404 264/453/404
f 218/398/405 217/948/405 239/471/405
f 263/416/205 262/452/205 241/472/205
f 217/474/406 241/949/406 262/475/406
f 266/478/157 286/550/157 283/547/157
f 283/547/157 280/549/157 277/476/157
f 277/476/157 274/508/157 271/477/157
f 271/477/157 268/535/157 266/478/157
f 266/478/157 283/547/157 277/476/157
f 272/479/207 276/540/207 300/480/207
f 279/482/208 303/526/208 298/483/208
f 282/485/209 306/950/209 301/486/209
f 285/488/210 309/951/210 304/489/210
f 288/491/211 312/534/211 307/492/211
f 311/496/212 291/556/212 293/952/212
f 293/952/212 296/953/212 299/494/212
f 299/494/212 302/954/212 305/495/212
f 305/495/212 308/530/212 311/496/212
f 311/496/212 293/952/212 299/494/212
f 270/497/213 294/520/213 290/498/213
f 273/500/214 297/955/214 292/501/214
f 265/503/231 267/499/231 290/498/231
f 268/505/232 270/497/232 267/499/232
f 292/501/233 294/520/233 270/497/233
f 291/518/234 290/498/234 294/520/234
f 268/535/235 271/477/235 273/507/235
f 272/479/236 295/481/236 297/522/236
f 293/538/259 292/956/259 297/522/259
f 274/508/238 276/510/238 272/506/238
f 275/539/239 298/523/239 300/480/239
f 299/524/240 296/521/240 295/481/240
f 274/508/241 277/476/241 279/541/241
f 278/487/242 301/486/242 303/526/242
f 299/524/243 298/523/243 303/542/243
f 277/476/244 280/549/244 282/544/244
f 304/489/245 306/950/245 282/485/245
f 305/495/246 302/954/246 301/546/246
f 283/547/407 285/957/407 281/548/407
f 307/492/248 309/958/248 285/514/248
f 305/495/249 304/527/249 309/531/249
f 286/550/250 288/959/250 284/551/250
f 310/532/251 312/534/251 288/491/251
f 308/530/252 307/529/252 312/552/252
f 286/550/253 266/478/253 265/553/253
f 311/496/254 310/960/254 289/555/254
f 265/557/255 289/961/255 310/532/255
f 314/560/157 334/631/157 331/629/157
f 331/629/157 328/626/157 325/558/157
f 325/558/157 322/591/157 319/559/157
f 319/559/157 316/618/157 314/560/157
f 314/560/157 331/629/157 325/558/157
f 320/561/207 324/622/207 348/562/207
f 327/564/208 351/608/208 346/565/208
f 330/567/209 354/962/209 349/568/209
f 333/570/210 357/963/210 352/571/210
f 336/573/211 360/616/211 355/574/211
f 359/578/212 339/636/212 341/964/212
f 341/964/212 344/965/212 347/576/212
f 347/576/212 350/628/212 353/577/212
f 353/577/212 356/612/212 359/578/212
f 359/578/212 341/964/212 347/576/212
f 315/579/213 318/588/213 342/580/213
f 317/582/214 321/966/214 345/583/214
f 313/585/231 315/579/231 338/581/231
f 316/587/232 318/588/232 315/579/232
f 340/584/233 342/580/233 318/588/233
f 339/601/234 338/581/234 342/580/234
f 319/559/235 321/590/235 317/617/235
f 320/561/236 343/563/236 345/604/236
f 344/603/237 341/967/237 340/620/237
f 322/591/238 324/593/238 320/589/238
f 323/621/239 346/605/239 348/562/239
f 347/606/240 344/603/240 343/563/240
f 322/591/241 325/558/241 327/623/241
f 326/569/242 349/568/242 351/608/242
f 350/624/243 347/606/243 346/605/243
f 328/626/244 330/968/244 326/627/244
f 352/571/245 354/962/245 330/567/245
f 350/628/246 349/969/246 354/610/246
f 331/629/247 333/970/247 329/630/247
f 355/574/248 357/971/248 333/597/248
f 353/577/249 352/609/249 357/613/249
f 334/631/250 336/972/250 332/632/250
f 358/614/251 360/616/251 336/573/251
f 356/612/252 355/611/252 360/633/252
f 334/631/253 314/560/253 313/634/253
f 339/636/254 359/578/254 358/637/254
f 313/639/255 337/973/255 358/614/255
f 362/642/260 376/701/260 373/640/260
f 373/640/260 370/697/260 367/641/260
f 367/641/260 364/663/260 362/642/260
f 372/643/408 390/693/408 385/644/408
f 375/646/409 393/974/409 388/647/409
f 374/649/410 378/698/410 396/650/410
f 395/654/264 381/975/264 383/652/264
f 383/652/264 386/678/264 389/653/264
f 389/653/264 392/976/264 395/654/264
f 363/655/411 366/977/411 384/656/411
f 369/658/412 387/679/412 382/659/412
f 361/661/413 363/655/413 380/657/413
f 362/642/280 364/663/280 366/665/280
f 365/660/414 382/659/414 384/676/414
f 383/652/282 381/975/282 380/691/282
f 367/641/283 369/978/283 365/664/283
f 368/645/415 385/644/415 387/692/415
f 383/652/416 382/659/416 387/679/416
f 370/668/286 372/643/286 368/645/286
f 371/669/417 388/979/417 390/693/417
f 386/694/288 385/644/288 390/693/288
f 373/640/289 375/980/289 371/696/289
f 391/651/418 393/974/418 375/646/418
f 389/681/291 388/680/291 393/685/291
f 373/670/292 376/981/292 378/698/292
f 394/686/419 396/688/419 378/673/419
f 395/699/420 392/684/420 391/683/420
f 376/701/421 362/642/421 361/702/421
f 381/675/422 395/687/422 394/686/422
f 377/672/423 361/661/423 379/674/423
f 398/706/260 412/766/260 409/704/260
f 409/704/260 406/760/260 403/705/260
f 403/705/260 400/727/260 398/706/260
f 404/707/298 408/734/298 426/708/298
f 407/710/299 411/736/299 429/711/299
f 410/713/300 414/982/300 432/714/300
f 431/718/301 417/983/301 419/716/301
f 419/716/301 422/984/301 425/717/301
f 425/717/301 428/750/301 431/718/301
f 402/719/302 420/985/302 416/720/302
f 405/722/303 423/746/303 418/723/303
f 415/740/316 397/725/316 399/721/316
f 400/727/317 402/729/317 399/755/317
f 401/724/318 418/723/318 420/743/318
f 417/757/319 416/986/319 420/743/319
f 403/705/320 405/987/320 401/728/320
f 421/709/321 423/988/321 405/731/321
f 419/742/322 418/723/322 423/746/322
f 403/730/323 406/732/323 408/734/323
f 407/733/324 424/989/324 426/708/324
f 422/758/325 421/709/325 426/708/325
f 406/760/326 409/704/326 411/761/326
f 410/713/327 427/715/327 429/711/327
f 425/717/328 424/747/328 429/751/328
f 412/763/329 414/982/329 410/713/329
f 430/752/330 432/754/330 414/739/330
f 431/718/337 428/750/337 427/749/337
f 398/706/332 397/990/332 413/765/332
f 431/753/333 430/752/333 415/740/333
f 413/738/334 397/725/334 415/740/334
f 434/769/260 448/828/260 445/767/260
f 445/767/260 442/825/260 439/768/260
f 439/768/260 436/790/260 434/769/260
f 444/770/298 462/821/298 457/771/298
f 443/773/299 447/798/299 465/774/299
f 446/776/300 450/826/300 468/777/300
f 467/781/301 453/991/301 455/779/301
f 455/779/301 458/992/301 461/780/301
f 461/780/301 464/812/301 467/781/301
f 438/782/302 456/993/302 452/783/302
f 441/785/303 459/808/303 454/786/303
f 433/788/316 435/784/316 452/783/316
f 436/790/317 438/792/317 435/817/317
f 437/787/318 454/786/318 456/805/318
f 455/804/319 453/994/319 452/819/319
f 439/768/320 441/995/320 437/791/320
f 440/772/321 457/771/321 459/820/321
f 458/807/322 455/804/322 454/786/322
f 439/793/323 442/795/323 444/770/323
f 443/796/324 460/996/324 462/821/324
f 458/822/325 457/771/325 462/821/325
f 445/767/326 447/997/326 443/824/326
f 446/776/327 463/778/327 465/774/327
f 461/780/328 460/809/328 465/813/328
f 445/797/329 448/998/329 450/826/329
f 466/814/330 468/816/330 450/801/330
f 464/812/337 463/811/337 468/827/337
f 448/828/332 434/769/332 433/829/332
f 467/815/333 466/814/333 451/802/333
f 449/800/334 433/788/334 451/802/334
f 470/833/260 484/892/260 481/831/260
f 481/831/260 478/888/260 475/832/260
f 475/832/260 472/854/260 470/833/260
f 476/834/298 480/861/298 498/835/298
f 483/837/299 501/999/299 496/838/299
f 482/840/300 486/1000/300 504/841/300
f 503/845/301 489/1001/301 491/843/301
f 491/843/301 494/1002/301 497/844/301
f 497/844/301 500/876/301 503/845/301
f 471/846/302 474/1003/302 492/847/302
f 477/849/303 495/872/303 490/850/303
f 469/852/316 471/846/316 488/848/316
f 470/833/317 472/854/317 474/856/317
f 490/850/318 492/869/318 474/882/318
f 489/883/319 488/1004/319 492/869/319
f 472/854/320 475/832/320 477/884/320
f 493/836/321 495/1005/321 477/858/321
f 491/868/322 490/850/322 495/872/322
f 475/857/323 478/859/323 480/861/323
f 496/885/324 498/835/324 480/861/324
f 497/886/325 494/1006/325 493/836/325
f 481/831/326 483/1007/326 479/887/326
f 499/842/327 501/999/327 483/837/327
f 497/844/328 496/873/328 501/877/328
f 484/889/329 486/1000/329 482/840/329
f 485/864/330 502/878/330 504/880/330
f 500/876/331 499/875/331 504/890/331
f 470/833/332 469/1008/332 485/891/332
f 503/879/333 502/878/333 487/866/333
f 469/852/334 487/866/334 502/878/334
