# Blender 4.3.2
# www.blender.org
o scrap_3
v 0.291615 0.064791 -0.486836
v -0.370192 -0.102831 0.342478
v -0.346743 -0.102831 0.361190
v 0.315064 0.064791 -0.468123
v 0.276042 0.222831 -0.467320
v -0.385766 0.055209 0.361993
v -0.362317 0.055209 0.380706
v 0.299490 0.222831 -0.448608
v 0.230848 0.205545 -0.506880
v -0.430960 0.037923 0.322434
v -0.313716 0.037923 0.415996
v 0.348091 0.205545 -0.413317
v 0.228414 0.230239 -0.503830
v -0.433393 0.062617 0.325483
v -0.316149 0.062617 0.419045
v 0.345658 0.230239 -0.410268
v 0.245448 0.057383 -0.525175
v -0.416359 -0.110239 0.304138
v -0.299116 -0.110239 0.397701
v 0.362691 0.057383 -0.431613
v 0.243014 0.082077 -0.522126
v -0.418793 -0.085546 0.307187
v -0.301549 -0.085546 0.400750
v 0.360258 0.082077 -0.428564
v 0.035698 0.145000 0.297847
v 0.014082 0.134952 0.267204
v -0.001742 0.107500 0.244771
v -0.007534 0.070000 0.236561
v -0.001742 0.032500 0.244771
v 0.014082 0.005048 0.267204
v 0.035698 -0.005000 0.297847
v 0.057314 0.005048 0.328490
v 0.073138 0.032500 0.350922
v 0.078930 0.070000 0.359133
v 0.073138 0.107500 0.350922
v 0.057314 0.134952 0.328490
v -0.069093 0.145000 0.371767
v -0.090709 0.134952 0.341124
v -0.106533 0.107500 0.318692
v -0.112325 0.070000 0.310481
v -0.106533 0.032500 0.318692
v -0.090709 0.005048 0.341124
v -0.069093 -0.005000 0.371767
v -0.047477 0.005048 0.402410
v -0.031653 0.032500 0.424843
v -0.025861 0.070000 0.433053
v -0.031653 0.107500 0.424843
v -0.047477 0.134952 0.402410
v -0.173883 0.145000 0.445688
v -0.195499 0.134952 0.415045
v -0.211323 0.107500 0.392613
v -0.217115 0.070000 0.384402
v -0.211323 0.032500 0.392613
v -0.195499 0.005048 0.415045
v -0.173883 -0.005000 0.445688
v -0.152267 0.005048 0.476331
v -0.136443 0.032500 0.498763
v -0.130651 0.070000 0.506974
v -0.136443 0.107500 0.498763
v -0.152267 0.134952 0.476331
v -0.278674 0.145000 0.519608
v -0.300290 0.134952 0.488965
v -0.316114 0.107500 0.466533
v -0.321906 0.070000 0.458322
v -0.316114 0.032500 0.466533
v -0.300290 0.005048 0.488965
v -0.278674 -0.005000 0.519608
v -0.257057 0.005048 0.550252
v -0.241233 0.032500 0.572684
v -0.235441 0.070000 0.580895
v -0.241233 0.107500 0.572684
v -0.257057 0.134952 0.550252
v -0.383464 0.145000 0.593529
v -0.405080 0.134952 0.562886
v -0.420904 0.107500 0.540454
v -0.426696 0.070000 0.532243
v -0.420904 0.032500 0.540454
v -0.405080 0.005048 0.562886
v -0.383464 -0.005000 0.593529
v -0.361848 0.005048 0.624172
v -0.346024 0.032500 0.646604
v -0.340232 0.070000 0.654815
v -0.346024 0.107500 0.646604
v -0.361848 0.134952 0.624172
v -0.488254 0.145000 0.667450
v -0.509870 0.134952 0.636807
v -0.525694 0.107500 0.614374
v -0.531486 0.070000 0.606164
v -0.525694 0.032500 0.614374
v -0.509870 0.005048 0.636807
v -0.488254 -0.005000 0.667450
v -0.466638 0.005048 0.698093
v -0.450814 0.032500 0.720525
v -0.445022 0.070000 0.728736
v -0.450814 0.107500 0.720525
v -0.466638 0.134952 0.698093
v -0.593045 0.145000 0.741370
v -0.614661 0.134952 0.710727
v -0.630485 0.107500 0.688295
v -0.636277 0.070000 0.680084
v -0.630485 0.032500 0.688295
v -0.614661 0.005048 0.710727
v -0.593045 -0.005000 0.741370
v -0.571429 0.005048 0.772013
v -0.555605 0.032500 0.794446
v -0.549813 0.070000 0.802657
v -0.555605 0.107500 0.794446
v -0.571429 0.134952 0.772013
v -0.593045 0.165000 0.741370
v -0.620425 0.152272 0.702556
v -0.640469 0.117500 0.674142
v -0.647805 0.070000 0.663741
v -0.640469 0.022500 0.674142
v -0.620425 -0.012272 0.702556
v -0.593045 -0.025000 0.741370
v -0.565665 -0.012272 0.780185
v -0.545621 0.022500 0.808599
v -0.538284 0.070000 0.819000
v -0.545621 0.117500 0.808599
v -0.565665 0.152272 0.780185
v -0.625731 0.165000 0.764428
v -0.653111 0.152272 0.725613
v -0.673155 0.117500 0.697199
v -0.680491 0.070000 0.686798
v -0.673155 0.022500 0.697199
v -0.653111 -0.012272 0.725613
v -0.625731 -0.025000 0.764428
v -0.598350 -0.012272 0.803242
v -0.578307 0.022500 0.831656
v -0.570970 0.070000 0.842057
v -0.578307 0.117500 0.831656
v -0.598350 0.152272 0.803242
v 0.485984 0.014174 -0.171960
v 0.082269 0.014174 -0.370742
v -0.075613 -0.028922 -0.050093
v 0.328101 -0.028922 0.148689
v 0.484133 0.048922 -0.168201
v 0.080418 0.048922 -0.366984
v -0.077464 0.005826 -0.046334
v 0.326250 0.005826 0.152448
v 0.562191 -0.010544 -0.326732
v 0.158477 -0.010544 -0.525515
v 0.081591 0.208788 -0.369366
v 0.485306 0.208788 -0.170584
v 0.574302 0.011212 -0.351329
v 0.170587 0.011212 -0.550111
v 0.093702 0.230544 -0.393963
v 0.497417 0.230544 -0.195180
vn -0.7816 -0.0000 -0.6238
vn -0.6161 -0.1560 0.7720
vn 0.7816 -0.0000 0.6238
vn 0.6161 0.1560 -0.7720
vn -0.0973 0.9877 0.1220
vn 0.0973 -0.9877 -0.1220
vn 0.3156 0.6557 -0.6859
vn -0.0000 1.0000 -0.0000
vn 0.5338 0.7572 -0.3765
vn 0.1558 0.3786 -0.9124
vn -0.2882 0.8660 -0.4086
vn 0.0973 -0.0000 -0.9953
vn -0.4992 0.5000 -0.7077
vn 0.1558 -0.3786 -0.9124
vn -0.5764 -0.0000 -0.8171
vn 0.3156 -0.6557 -0.6859
vn -0.4992 -0.5000 -0.7077
vn 0.5338 -0.7572 -0.3765
vn -0.2882 -0.8660 -0.4086
vn 0.7520 -0.6557 -0.0672
vn -0.0000 -1.0000 -0.0000
vn 0.9118 -0.3786 0.1593
vn 0.2882 -0.8660 0.4086
vn 0.9702 -0.0000 0.2422
vn 0.4992 -0.5000 0.7077
vn 0.9118 0.3786 0.1593
vn 0.5764 -0.0000 0.8171
vn 0.2882 0.8660 0.4086
vn 0.4992 0.5000 0.7077
vn 0.7520 0.6557 -0.0672
vn -0.5338 0.7571 0.3765
vn -0.9118 0.3786 -0.1593
vn -0.7520 0.6557 0.0672
vn -0.9702 -0.0000 -0.2422
vn -0.9118 -0.3786 -0.1593
vn -0.7520 -0.6557 0.0672
vn -0.5338 -0.7572 0.3765
vn -0.1558 -0.3786 0.9124
vn -0.3155 -0.6557 0.6859
vn -0.0973 -0.0000 0.9953
vn -0.1558 0.3786 0.9124
vn -0.3155 0.6557 0.6859
vn -0.5338 0.7572 0.3765
vn 0.4386 0.1197 -0.8907
vn -0.8971 -0.0000 -0.4417
vn -0.4386 -0.1197 0.8907
vn 0.8971 -0.0000 0.4417
vn -0.0529 0.9928 0.1074
vn 0.0529 -0.9928 -0.1074
vn 0.2746 -0.7833 -0.5577
vn -0.2746 0.7833 0.5577
vn 0.3460 0.6216 -0.7028
vn -0.3460 -0.6216 0.7028
vn -0.6161 -0.1561 0.7720
vn -0.7816 -0.0000 -0.6237
vt 0.652950 0.641692
vt 0.605807 0.330045
vt 0.652950 0.330294
vt 0.823766 0.756178
vt 0.832594 0.709119
vt 0.832594 0.756207
vt 0.548864 0.641692
vt 0.596008 0.330045
vt 0.596008 0.641444
vt 0.842392 0.756207
vt 0.851220 0.709089
vt 0.851220 0.756178
vt 0.630362 0.320211
vt 0.621519 0.004906
vt 0.630362 0.004899
vt 0.611720 0.320218
vt 0.602877 0.004899
vt 0.611720 0.004906
vt 0.647527 0.316337
vt 0.640160 0.004899
vt 0.647527 0.004938
vt 0.883853 0.911885
vt 0.876496 0.956049
vt 0.876496 0.911909
vt 0.531699 0.641483
vt 0.539066 0.330045
vt 0.539066 0.641444
vt 0.938339 0.664743
vt 0.945696 0.620627
vt 0.945696 0.664767
vt 0.539066 0.320211
vt 0.494851 0.004935
vt 0.539066 0.004899
vt 0.485053 0.320247
vt 0.440839 0.004899
vt 0.485053 0.004935
vt 0.504736 0.330084
vt 0.497370 0.641444
vt 0.497370 0.330045
vt 0.945404 0.426736
vt 0.938047 0.382620
vt 0.945404 0.382596
vt 0.514535 0.641483
vt 0.521901 0.330045
vt 0.521901 0.641444
vt 0.938339 0.566640
vt 0.945696 0.610804
vt 0.938339 0.610780
vt 0.593079 0.320211
vt 0.548864 0.004935
vt 0.593079 0.004899
vt 0.485053 0.645392
vt 0.440839 0.330045
vt 0.485053 0.330081
vt 0.706370 0.005095
vt 0.695399 0.042632
vt 0.695399 0.004899
vt 0.724261 0.005191
vt 0.716169 0.043604
vt 0.716169 0.005986
vt 0.735315 0.004899
vt 0.724261 0.042809
vt 0.746369 0.005191
vt 0.735315 0.042518
vt 0.671053 0.330519
vt 0.662749 0.367778
vt 0.662749 0.330045
vt 0.682182 0.330679
vt 0.671053 0.368252
vt 0.693153 0.330483
vt 0.682182 0.368412
vt 0.725060 0.556045
vt 0.733152 0.519223
vt 0.733152 0.556841
vt 0.714006 0.555754
vt 0.725060 0.518427
vt 0.702952 0.556045
vt 0.714006 0.518136
vt 0.675966 0.005533
vt 0.684270 0.042793
vt 0.675966 0.043266
vt 0.684270 0.005060
vt 0.706370 0.042828
vt 0.695399 0.080365
vt 0.724261 0.080427
vt 0.716169 0.081223
vt 0.746369 0.042809
vt 0.735315 0.080136
vt 0.662749 0.405511
vt 0.682182 0.406145
vt 0.671053 0.405985
vt 0.693153 0.405949
vt 0.733152 0.481605
vt 0.725060 0.480809
vt 0.702952 0.518427
vt 0.714006 0.480518
vt 0.684270 0.080526
vt 0.675966 0.080999
vt 0.706370 0.080561
vt 0.695399 0.118098
vt 0.716169 0.118841
vt 0.724261 0.118045
vt 0.746369 0.080427
vt 0.735315 0.117754
vt 0.662749 0.443244
vt 0.682182 0.443878
vt 0.671053 0.443718
vt 0.693153 0.443682
vt 0.733152 0.443987
vt 0.714006 0.442900
vt 0.725060 0.443191
vt 0.702952 0.480809
vt 0.675966 0.118732
vt 0.684270 0.118259
vt 0.706370 0.118294
vt 0.695399 0.155831
vt 0.716169 0.156459
vt 0.735315 0.155372
vt 0.724261 0.155663
vt 0.746369 0.118045
vt 0.671053 0.481451
vt 0.662749 0.480977
vt 0.682182 0.481611
vt 0.733152 0.406369
vt 0.714006 0.405282
vt 0.725060 0.405573
vt 0.702952 0.443191
vt 0.675966 0.156465
vt 0.684270 0.155992
vt 0.706370 0.156027
vt 0.695399 0.193564
vt 0.724261 0.193281
vt 0.716169 0.194077
vt 0.746369 0.193281
vt 0.735315 0.192990
vt 0.662749 0.518710
vt 0.682182 0.519344
vt 0.671053 0.519184
vt 0.693153 0.481415
vt 0.733152 0.368750
vt 0.725060 0.367955
vt 0.702952 0.367955
vt 0.714006 0.367663
vt 0.675966 0.194198
vt 0.684270 0.193725
vt 0.706370 0.193760
vt 0.695399 0.231297
vt 0.724261 0.230900
vt 0.716169 0.231695
vt 0.735315 0.230608
vt 0.662749 0.556443
vt 0.671053 0.556917
vt 0.693153 0.519148
vt 0.682182 0.557077
vt 0.725060 0.330336
vt 0.733152 0.331132
vt 0.714006 0.330045
vt 0.675966 0.231931
vt 0.684270 0.231458
vt 0.141765 0.924933
vt 0.105853 0.935183
vt 0.115476 0.898131
vt 0.970053 0.096160
vt 0.934141 0.105717
vt 0.943764 0.068851
vt 0.973046 0.566640
vt 0.984366 0.580702
vt 0.972598 0.580532
vt 0.951677 0.959365
vt 0.939210 0.948783
vt 0.950940 0.949092
vt 0.951677 0.973372
vt 0.939947 0.959056
vt 0.950940 0.987359
vt 0.939947 0.973063
vt 0.984522 0.382596
vt 0.972306 0.393292
vt 0.972754 0.382765
vt 0.984074 0.407220
vt 0.984074 0.393122
vt 0.984522 0.421112
vt 0.972306 0.407389
vt 0.961476 0.987359
vt 0.973943 0.976777
vt 0.973206 0.987050
vt 0.962214 0.963079
vt 0.962214 0.977086
vt 0.961476 0.949092
vt 0.973943 0.962770
vt 0.972598 0.594630
vt 0.984814 0.605326
vt 0.973046 0.605156
vt 0.984366 0.594799
vt 0.728490 0.275815
vt 0.683003 0.288798
vt 0.695191 0.241866
vt 0.578912 0.932266
vt 0.533425 0.944370
vt 0.545613 0.897674
vt 0.605807 0.793913
vt 0.616122 0.921673
vt 0.605807 0.921628
vt 0.766471 0.312416
vt 0.756167 0.214365
vt 0.766471 0.214567
vt 0.163356 0.923733
vt 0.153040 0.796063
vt 0.163356 0.796018
vt 0.776270 0.214567
vt 0.786574 0.312214
vt 0.776270 0.312416
vt 0.733449 0.908956
vt 0.627488 0.776342
vt 0.733449 0.776311
vt 0.889499 0.902086
vt 0.783538 0.769409
vt 0.889499 0.769441
vt 0.773740 0.908783
vt 0.765255 0.776105
vt 0.773740 0.776138
vt 0.119122 0.880765
vt 0.128915 0.799901
vt 0.128915 0.879978
vt 0.899298 0.769441
vt 0.907782 0.902054
vt 0.899298 0.902087
vt 0.826367 0.288485
vt 0.816574 0.207622
vt 0.826367 0.208408
vt 0.526388 0.651491
vt 0.596008 0.791183
vt 0.526388 0.779207
vt 0.295526 0.791676
vt 0.365146 0.651985
vt 0.365146 0.779700
vt 0.605807 0.641444
vt 0.823766 0.709089
vt 0.548864 0.330294
vt 0.842392 0.709119
vt 0.621519 0.320218
vt 0.602877 0.320211
vt 0.640160 0.316298
vt 0.883853 0.956025
vt 0.531700 0.330084
vt 0.938339 0.620603
vt 0.494851 0.320247
vt 0.440838 0.320211
vt 0.504736 0.641483
vt 0.938047 0.426760
vt 0.514535 0.330084
vt 0.945696 0.566664
vt 0.548864 0.320247
vt 0.440839 0.645357
vt 0.693153 0.368216
vt 0.746369 0.155663
vt 0.702952 0.405573
vt 0.706370 0.231493
vt 0.746369 0.230900
vt 0.693153 0.556881
vt 0.702952 0.330336
vt 0.126587 0.898024
vt 0.136209 0.903648
vt 0.141765 0.913498
vt 0.136209 0.934889
vt 0.126587 0.940700
vt 0.115476 0.940807
vt 0.100298 0.925333
vt 0.100298 0.913898
vt 0.105853 0.903941
vt 0.954875 0.068958
vt 0.964497 0.074768
vt 0.970053 0.084725
vt 0.964497 0.106010
vt 0.954875 0.111634
vt 0.943764 0.111527
vt 0.928586 0.095760
vt 0.928586 0.084325
vt 0.934141 0.074475
vt 0.984814 0.566810
vt 0.939210 0.987050
vt 0.972754 0.421282
vt 0.973206 0.948783
vt 0.709265 0.241730
vt 0.721453 0.248854
vt 0.728490 0.261330
vt 0.721453 0.288427
vt 0.709265 0.295787
vt 0.695191 0.295923
vt 0.675966 0.276322
vt 0.675966 0.261838
vt 0.683003 0.249226
vt 0.559687 0.897810
vt 0.571875 0.905169
vt 0.578912 0.917781
vt 0.571875 0.944742
vt 0.559687 0.951866
vt 0.545613 0.951730
vt 0.526388 0.931759
vt 0.526388 0.917274
vt 0.533425 0.904798
vt 0.616122 0.793958
vt 0.756167 0.312214
vt 0.153040 0.923779
vt 0.786574 0.214365
vt 0.627488 0.908988
vt 0.783538 0.902055
vt 0.765255 0.908751
vt 0.119122 0.800688
vt 0.907782 0.769409
vt 0.816574 0.287698
vt 0.596008 0.663467
vt 0.295526 0.663961
s 0
f 2/1/1 5/2/1 1/3/1
f 3/4/2 6/5/2 2/6/2
f 3/7/3 8/8/3 7/9/3
f 1/10/4 8/11/4 4/12/4
f 6/13/5 8/14/5 5/15/5
f 3/16/6 1/17/6 4/18/6
f 10/19/1 13/20/1 9/21/1
f 10/22/2 15/23/2 14/24/2
f 11/25/3 16/26/3 15/27/3
f 12/28/4 13/29/4 16/30/4
f 14/31/5 16/32/5 13/33/5
f 11/34/6 9/35/6 12/36/6
f 17/37/1 22/38/1 21/39/1
f 19/40/2 22/41/2 18/42/2
f 19/43/3 24/44/3 23/45/3
f 17/46/4 24/47/4 20/48/4
f 22/49/5 24/50/5 21/51/5
f 19/52/6 17/53/6 20/54/6
s 1
f 26/55/7 37/56/8 25/57/9
f 27/58/10 38/59/11 26/60/7
f 28/61/12 39/62/13 27/58/10
f 29/63/14 40/64/15 28/61/12
f 30/65/16 41/66/17 29/67/14
f 31/68/18 42/69/19 30/65/16
f 32/70/20 43/71/21 31/68/18
f 33/72/22 44/73/23 32/74/20
f 34/75/24 45/76/25 33/72/22
f 35/77/26 46/78/27 34/75/24
f 35/79/26 48/80/28 47/81/29
f 25/57/9 48/80/28 36/82/30
f 38/83/11 49/84/8 37/56/8
f 38/59/11 51/85/13 50/86/11
f 40/64/15 51/85/13 39/62/13
f 41/87/17 52/88/15 40/64/15
f 42/69/19 53/89/17 41/66/17
f 42/69/19 55/90/21 54/91/19
f 43/71/21 56/92/23 55/90/21
f 45/76/25 56/93/23 44/73/23
f 46/78/27 57/94/25 45/76/25
f 47/95/29 58/96/27 46/78/27
f 47/81/29 60/97/28 59/98/29
f 37/56/8 60/97/28 48/80/28
f 50/99/11 61/100/8 49/84/8
f 51/85/13 62/101/11 50/86/11
f 52/88/15 63/102/13 51/85/13
f 53/103/17 64/104/15 52/88/15
f 54/91/19 65/105/17 53/89/17
f 54/91/19 67/106/21 66/107/19
f 55/90/21 68/108/23 67/106/21
f 57/94/25 68/109/23 56/93/23
f 57/94/25 70/110/27 69/111/25
f 59/112/29 70/110/27 58/96/27
f 60/97/28 71/113/29 59/98/29
f 49/84/8 72/114/28 60/97/28
f 62/115/11 73/116/8 61/100/8
f 63/102/13 74/117/11 62/101/11
f 63/102/13 76/118/15 75/119/13
f 65/120/17 76/118/15 64/104/15
f 65/105/17 78/121/19 77/122/17
f 67/106/21 78/121/19 66/107/19
f 68/108/23 79/123/21 67/106/21
f 69/111/25 80/124/23 68/109/23
f 69/111/25 82/125/27 81/126/25
f 71/127/29 82/125/27 70/110/27
f 72/114/28 83/128/29 71/113/29
f 61/100/8 84/129/28 72/114/28
f 74/130/11 85/131/8 73/116/8
f 74/117/11 87/132/13 86/133/11
f 76/118/15 87/132/13 75/119/13
f 76/118/15 89/134/17 88/135/15
f 78/121/19 89/136/17 77/122/17
f 78/121/19 91/137/21 90/138/19
f 80/139/23 91/137/21 79/123/21
f 81/126/25 92/140/23 80/124/23
f 82/125/27 93/141/25 81/126/25
f 82/125/27 95/142/29 94/143/27
f 84/129/28 95/144/29 83/128/29
f 73/116/8 96/145/28 84/129/28
f 86/146/11 97/147/31 85/131/8
f 86/133/11 99/148/32 98/149/33
f 88/135/15 99/148/32 87/132/13
f 89/134/17 100/150/34 88/135/15
f 90/138/19 101/151/35 89/136/17
f 91/137/21 102/152/36 90/138/19
f 92/153/23 103/154/37 91/137/21
f 92/140/23 105/155/38 104/156/39
f 93/141/25 106/157/40 105/155/38
f 95/142/29 106/157/40 94/143/27
f 96/145/28 107/158/41 95/144/29
f 96/145/28 97/147/31 108/159/42
f 33/160/22 29/161/14 25/162/9
f 100/163/34 104/164/39 108/165/42
f 110/166/7 121/167/43 109/168/9
f 111/169/10 122/170/33 110/171/7
f 112/172/12 123/173/32 111/169/10
f 113/174/14 124/175/34 112/172/12
f 113/176/14 126/177/36 125/178/35
f 115/179/18 126/177/36 114/180/16
f 116/181/20 127/182/37 115/179/18
f 116/183/20 129/184/38 128/185/39
f 118/186/24 129/184/38 117/187/22
f 119/188/26 130/189/40 118/186/24
f 120/190/30 131/191/41 119/192/26
f 120/190/30 121/167/43 132/193/42
f 117/194/22 113/195/14 109/196/9
f 124/197/34 128/198/39 132/199/42
s 0
f 134/200/44 137/201/44 133/202/44
f 135/203/45 138/204/45 134/205/45
f 136/206/46 139/207/46 135/208/46
f 133/209/47 140/210/47 136/211/47
f 138/212/48 140/213/48 137/214/48
f 135/215/49 133/216/49 136/217/49
f 142/218/50 145/219/50 141/220/50
f 142/221/45 147/222/45 146/223/45
f 144/224/51 147/225/51 143/226/51
f 141/227/47 148/228/47 144/229/47
f 146/230/52 148/231/52 145/232/52
f 144/233/53 142/234/53 141/235/53
f 2/1/1 6/236/1 5/2/1
f 3/4/2 7/237/2 6/5/2
f 3/7/3 4/238/3 8/8/3
f 1/10/4 5/239/4 8/11/4
f 6/13/5 7/240/5 8/14/5
f 3/16/6 2/241/6 1/17/6
f 10/19/1 14/242/1 13/20/1
f 10/22/54 11/243/54 15/23/54
f 11/25/3 12/244/3 16/26/3
f 12/28/4 9/245/4 13/29/4
f 14/31/5 15/246/5 16/32/5
f 11/34/6 10/247/6 9/35/6
f 17/37/55 18/248/55 22/38/55
f 19/40/2 23/249/2 22/41/2
f 19/43/3 20/250/3 24/44/3
f 17/46/4 21/251/4 24/47/4
f 22/49/5 23/252/5 24/50/5
f 19/52/6 18/253/6 17/53/6
s 1
f 26/55/7 38/83/11 37/56/8
f 27/58/10 39/62/13 38/59/11
f 28/61/12 40/64/15 39/62/13
f 29/63/14 41/87/17 40/64/15
f 30/65/16 42/69/19 41/66/17
f 31/68/18 43/71/21 42/69/19
f 32/70/20 44/254/23 43/71/21
f 33/72/22 45/76/25 44/73/23
f 34/75/24 46/78/27 45/76/25
f 35/77/26 47/95/29 46/78/27
f 35/79/26 36/82/30 48/80/28
f 25/57/9 37/56/8 48/80/28
f 38/83/11 50/99/11 49/84/8
f 38/59/11 39/62/13 51/85/13
f 40/64/15 52/88/15 51/85/13
f 41/87/17 53/103/17 52/88/15
f 42/69/19 54/91/19 53/89/17
f 42/69/19 43/71/21 55/90/21
f 43/71/21 44/254/23 56/92/23
f 45/76/25 57/94/25 56/93/23
f 46/78/27 58/96/27 57/94/25
f 47/95/29 59/112/29 58/96/27
f 47/81/29 48/80/28 60/97/28
f 37/56/8 49/84/8 60/97/28
f 50/99/11 62/115/11 61/100/8
f 51/85/13 63/102/13 62/101/11
f 52/88/15 64/104/15 63/102/13
f 53/103/17 65/120/17 64/104/15
f 54/91/19 66/107/19 65/105/17
f 54/91/19 55/90/21 67/106/21
f 55/90/21 56/92/23 68/108/23
f 57/94/25 69/111/25 68/109/23
f 57/94/25 58/96/27 70/110/27
f 59/112/29 71/127/29 70/110/27
f 60/97/28 72/114/28 71/113/29
f 49/84/8 61/100/8 72/114/28
f 62/115/11 74/130/11 73/116/8
f 63/102/13 75/119/13 74/117/11
f 63/102/13 64/104/15 76/118/15
f 65/120/17 77/255/17 76/118/15
f 65/105/17 66/107/19 78/121/19
f 67/106/21 79/123/21 78/121/19
f 68/108/23 80/139/23 79/123/21
f 69/111/25 81/126/25 80/124/23
f 69/111/25 70/110/27 82/125/27
f 71/127/29 83/256/29 82/125/27
f 72/114/28 84/129/28 83/128/29
f 61/100/8 73/116/8 84/129/28
f 74/130/11 86/146/11 85/131/8
f 74/117/11 75/119/13 87/132/13
f 76/118/15 88/135/15 87/132/13
f 76/118/15 77/255/17 89/134/17
f 78/121/19 90/138/19 89/136/17
f 78/121/19 79/123/21 91/137/21
f 80/139/23 92/153/23 91/137/21
f 81/126/25 93/141/25 92/140/23
f 82/125/27 94/143/27 93/141/25
f 82/125/27 83/256/29 95/142/29
f 84/129/28 96/145/28 95/144/29
f 73/116/8 85/131/8 96/145/28
f 86/146/11 98/257/33 97/147/31
f 86/133/11 87/132/13 99/148/32
f 88/135/15 100/150/34 99/148/32
f 89/134/17 101/258/35 100/150/34
f 90/138/19 102/152/36 101/151/35
f 91/137/21 103/154/37 102/152/36
f 92/153/23 104/259/39 103/154/37
f 92/140/23 93/141/25 105/155/38
f 93/141/25 94/143/27 106/157/40
f 95/142/29 107/260/41 106/157/40
f 96/145/28 108/159/42 107/158/41
f 96/145/28 85/131/8 97/147/31
f 25/162/9 36/261/30 35/262/26
f 35/262/26 34/263/24 33/160/22
f 33/160/22 32/264/20 31/265/18
f 31/265/18 30/266/16 29/161/14
f 29/161/14 28/267/12 27/268/10
f 27/268/10 26/269/7 25/162/9
f 25/162/9 35/262/26 33/160/22
f 33/160/22 31/265/18 29/161/14
f 29/161/14 27/268/10 25/162/9
f 108/165/42 97/270/31 98/271/33
f 98/271/33 99/272/32 100/163/34
f 100/163/34 101/273/35 102/274/36
f 102/274/36 103/275/37 104/164/39
f 104/164/39 105/276/38 106/277/40
f 106/277/40 107/278/41 108/165/42
f 108/165/42 98/271/33 100/163/34
f 100/163/34 102/274/36 104/164/39
f 104/164/39 106/277/40 108/165/42
f 110/166/7 122/279/33 121/167/43
f 111/169/10 123/173/32 122/170/33
f 112/172/12 124/175/34 123/173/32
f 113/174/14 125/280/35 124/175/34
f 113/176/14 114/180/16 126/177/36
f 115/179/18 127/182/37 126/177/36
f 116/181/20 128/281/39 127/182/37
f 116/183/20 117/187/22 129/184/38
f 118/186/24 130/189/40 129/184/38
f 119/188/26 131/282/41 130/189/40
f 120/190/30 132/193/42 131/191/41
f 120/190/30 109/168/9 121/167/43
f 109/196/9 120/283/30 119/284/26
f 119/284/26 118/285/24 117/194/22
f 117/194/22 116/286/20 115/287/18
f 115/287/18 114/288/16 113/195/14
f 113/195/14 112/289/12 111/290/10
f 111/290/10 110/291/7 109/196/9
f 109/196/9 119/284/26 117/194/22
f 117/194/22 115/287/18 113/195/14
f 113/195/14 111/290/10 109/196/9
f 132/199/42 121/292/43 122/293/33
f 122/293/33 123/294/32 124/197/34
f 124/197/34 125/295/35 126/296/36
f 126/296/36 127/297/37 128/198/39
f 128/198/39 129/298/38 130/299/40
f 130/299/40 131/300/41 132/199/42
f 132/199/42 122/293/33 124/197/34
f 124/197/34 126/296/36 128/198/39
f 128/198/39 130/299/40 132/199/42
s 0
f 134/200/44 138/301/44 137/201/44
f 135/203/45 139/302/45 138/204/45
f 136/206/46 140/303/46 139/207/46
f 133/209/47 137/304/47 140/210/47
f 138/212/48 139/305/48 140/213/48
f 135/215/49 134/306/49 133/216/49
f 142/218/50 146/307/50 145/219/50
f 142/221/45 143/308/45 147/222/45
f 144/224/51 148/309/51 147/225/51
f 141/227/47 145/310/47 148/228/47
f 146/230/52 147/311/52 148/231/52
f 144/233/53 143/312/53 142/234/53
