# Blender 4.3.2
# www.blender.org
o scrap_1
v 0.223490 0.128739 0.481261
v -0.243455 -0.163468 -0.525799
v -0.270672 -0.163468 -0.513179
v 0.196273 0.128739 0.493881
v 0.206356 0.283468 0.444310
v -0.260589 -0.008739 -0.562750
v -0.287805 -0.008739 -0.550131
v 0.179140 0.283468 0.456929
v 0.262664 0.266544 0.423112
v -0.204282 -0.025662 -0.583948
v -0.340365 -0.025662 -0.520850
v 0.126580 0.266544 0.486210
v 0.259987 0.290721 0.417338
v -0.206959 -0.001486 -0.589722
v -0.343042 -0.001486 -0.526624
v 0.123903 0.290721 0.480436
v 0.278726 0.121486 0.457754
v -0.188219 -0.170721 -0.549306
v -0.324302 -0.170721 -0.486208
v 0.142643 0.121486 0.520852
v 0.276049 0.145663 0.451981
v -0.190896 -0.146544 -0.555079
v -0.326979 -0.146544 -0.491982
v 0.139966 0.145663 0.515079
v 0.152911 0.145000 0.016881
v 0.133338 0.134952 -0.015106
v 0.119010 0.107500 -0.038522
v 0.113765 0.070000 -0.047092
v 0.119010 0.032500 -0.038522
v 0.133338 0.005048 -0.015106
v 0.152911 -0.005000 0.016881
v 0.172484 0.005048 0.048867
v 0.186813 0.032500 0.072283
v 0.192058 0.070000 0.080854
v 0.186813 0.107500 0.072283
v 0.172484 0.134952 0.048867
v 0.056641 0.145000 0.075790
v 0.037068 0.134952 0.043804
v 0.022740 0.107500 0.020388
v 0.017495 0.070000 0.011817
v 0.022740 0.032500 0.020388
v 0.037068 0.005048 0.043804
v 0.056641 -0.005000 0.075790
v 0.076214 0.005048 0.107777
v 0.090543 0.032500 0.131193
v 0.095788 0.070000 0.139763
v 0.090543 0.107500 0.131193
v 0.076214 0.134952 0.107777
v -0.039629 0.145000 0.134699
v -0.059202 0.134952 0.102713
v -0.073530 0.107500 0.079297
v -0.078775 0.070000 0.070726
v -0.073530 0.032500 0.079297
v -0.059202 0.005048 0.102713
v -0.039629 -0.005000 0.134699
v -0.020056 0.005048 0.166686
v -0.005727 0.032500 0.190102
v -0.000482 0.070000 0.198673
v -0.005727 0.107500 0.190102
v -0.020056 0.134952 0.166686
v -0.135899 0.145000 0.193609
v -0.155472 0.134952 0.161622
v -0.169800 0.107500 0.138206
v -0.175045 0.070000 0.129636
v -0.169800 0.032500 0.138206
v -0.155472 0.005048 0.161622
v -0.135899 -0.005000 0.193609
v -0.116326 0.005048 0.225595
v -0.101997 0.032500 0.249011
v -0.096752 0.070000 0.257582
v -0.101997 0.107500 0.249011
v -0.116326 0.134952 0.225595
v -0.232169 0.145000 0.252518
v -0.251742 0.134952 0.220532
v -0.266070 0.107500 0.197116
v -0.271315 0.070000 0.188545
v -0.266070 0.032500 0.197116
v -0.251742 0.005048 0.220532
v -0.232169 -0.005000 0.252518
v -0.212596 0.005048 0.284505
v -0.198267 0.032500 0.307921
v -0.193022 0.070000 0.316491
v -0.198267 0.107500 0.307921
v -0.212596 0.134952 0.284505
v -0.328439 0.145000 0.311427
v -0.348012 0.134952 0.279441
v -0.362341 0.107500 0.256025
v -0.367585 0.070000 0.247454
v -0.362341 0.032500 0.256025
v -0.348012 0.005048 0.279441
v -0.328439 -0.005000 0.311427
v -0.308866 0.005048 0.343414
v -0.294537 0.032500 0.366830
v -0.289292 0.070000 0.375401
v -0.294537 0.107500 0.366830
v -0.308866 0.134952 0.343414
v -0.424709 0.145000 0.370337
v -0.444282 0.134952 0.338350
v -0.458611 0.107500 0.314934
v -0.463855 0.070000 0.306364
v -0.458611 0.032500 0.314934
v -0.444282 0.005048 0.338350
v -0.424709 -0.005000 0.370337
v -0.405136 0.005048 0.402323
v -0.390807 0.032500 0.425739
v -0.385563 0.070000 0.434310
v -0.390807 0.107500 0.425739
v -0.405136 0.134952 0.402323
v -0.424709 0.165000 0.370337
v -0.449501 0.152272 0.329820
v -0.467651 0.117500 0.300160
v -0.474294 0.070000 0.289304
v -0.467651 0.022500 0.300160
v -0.449501 -0.012272 0.329820
v -0.424709 -0.025000 0.370337
v -0.399916 -0.012272 0.410853
v -0.381767 0.022500 0.440513
v -0.375124 0.070000 0.451370
v -0.381767 0.117500 0.440513
v -0.399916 0.152272 0.410853
v -0.458828 0.165000 0.391215
v -0.483621 0.152272 0.350699
v -0.501770 0.117500 0.321039
v -0.508413 0.070000 0.310182
v -0.501770 0.022500 0.321039
v -0.483621 -0.012272 0.350699
v -0.458828 -0.025000 0.391215
v -0.434035 -0.012272 0.431731
v -0.415886 0.022500 0.461391
v -0.409243 0.070000 0.472248
v -0.415886 0.117500 0.461391
v -0.434035 0.152272 0.431731
v -0.054134 0.014174 -0.312570
v -0.465479 0.014174 -0.130101
v -0.320553 -0.028922 0.196609
v 0.090792 -0.028922 0.014139
v -0.052435 0.048922 -0.308740
v -0.463780 0.048922 -0.126271
v -0.318854 0.005826 0.200439
v 0.092491 0.005826 0.017969
v -0.124088 -0.010544 -0.470268
v -0.535433 -0.010544 -0.287798
v -0.464857 0.208788 -0.128698
v -0.053512 0.208788 -0.311168
v -0.135205 0.011212 -0.495329
v -0.546550 0.011212 -0.312860
v -0.475974 0.230544 -0.153760
v -0.064629 0.230544 -0.336229
v 0.203469 -0.025170 -0.486290
v 0.189102 -0.040120 -0.481808
v 0.185560 -0.026398 -0.497593
v -0.071342 -0.040120 -0.423366
v -0.086246 -0.025170 -0.421281
v -0.074884 -0.026398 -0.439152
v -0.013097 -0.018268 -0.163797
v -0.010092 -0.002090 -0.150408
v -0.028002 -0.003318 -0.161711
v 0.247347 -0.018268 -0.222238
v 0.261714 -0.003318 -0.226721
v 0.250351 -0.002090 -0.208849
v 0.198685 0.240854 -0.507612
v 0.180776 0.239626 -0.518915
v 0.183780 0.255804 -0.505526
v -0.091031 0.240854 -0.442602
v -0.076664 0.255804 -0.447085
v -0.079668 0.239626 -0.460474
v -0.014877 0.263934 -0.171730
v -0.018419 0.277656 -0.187515
v -0.032786 0.262706 -0.183033
v 0.256930 0.262706 -0.248042
v 0.242025 0.277656 -0.245956
v 0.245567 0.263934 -0.230171
vn 0.9072 -0.0000 -0.4207
vn -0.4068 -0.2546 -0.8773
vn -0.9072 -0.0000 0.4207
vn 0.4068 0.2546 0.8773
vn -0.1071 0.9671 -0.2309
vn 0.1071 -0.9671 0.2309
vn 0.5572 0.7572 -0.3410
vn -0.2610 0.8660 -0.4265
vn -0.0000 1.0000 -0.0000
vn 0.2149 0.3786 -0.9003
vn 0.3596 0.6557 -0.6639
vn 0.1620 -0.0000 -0.9868
vn -0.4520 0.5000 -0.7387
vn 0.2149 -0.3786 -0.9003
vn -0.5220 -0.0000 -0.8530
vn -0.2610 -0.8660 -0.4265
vn -0.4520 -0.5000 -0.7387
vn 0.5572 -0.7572 -0.3409
vn 0.3596 -0.6557 -0.6639
vn 0.7548 -0.6557 -0.0180
vn -0.0000 -1.0000 -0.0000
vn 0.4520 -0.5000 0.7387
vn 0.2610 -0.8660 0.4265
vn 0.9524 -0.0000 0.3049
vn 0.8994 -0.3786 0.2184
vn 0.8994 0.3786 0.2184
vn 0.5220 -0.0000 0.8530
vn 0.7548 0.6557 -0.0180
vn 0.4520 0.5000 0.7387
vn 0.2610 0.8660 0.4265
vn -0.7548 0.6557 0.0180
vn -0.5572 0.7572 0.3410
vn -0.8994 0.3786 -0.2183
vn -0.9524 -0.0000 -0.3049
vn -0.8994 -0.3786 -0.2184
vn -0.7548 -0.6557 0.0180
vn -0.3596 -0.6557 0.6639
vn -0.5572 -0.7572 0.3410
vn -0.2150 -0.3786 0.9003
vn -0.1620 -0.0000 0.9868
vn -0.2149 0.3786 0.9003
vn -0.3596 0.6557 0.6639
vn 0.5572 0.7572 -0.3409
vn -0.8994 0.3786 -0.2184
vn -0.5572 -0.7572 0.3409
vn -0.2149 -0.3786 0.9003
vn -0.4026 0.1197 -0.9075
vn -0.9141 -0.0000 0.4055
vn 0.4026 -0.1197 0.9075
vn 0.9141 -0.0000 -0.4055
vn 0.0485 0.9928 0.1094
vn -0.0485 -0.9928 -0.1094
vn -0.2521 -0.7833 -0.5682
vn 0.2521 0.7833 0.5682
vn -0.3176 0.6216 -0.7160
vn 0.3176 -0.6216 0.7160
vn 0.0179 -0.9966 0.0799
vn 0.2182 0.0819 0.9725
vn -0.0179 0.9966 -0.0799
vn -0.2182 -0.0819 -0.9725
vn -0.9757 -0.0000 0.2189
vn 0.4477 -0.6227 -0.6417
vn -0.6790 -0.6227 -0.3889
vn -0.4270 -0.5281 0.7340
vn 0.6997 -0.5281 0.4812
vn 0.4270 0.5281 -0.7340
vn -0.6997 0.5281 -0.4812
vn -0.4477 0.6227 0.6417
vn 0.6790 0.6227 0.3889
vn 0.5357 -0.0579 -0.8425
vn -0.1416 -0.7626 -0.6312
vn -0.8442 -0.0579 -0.5328
vn -0.1670 0.6468 -0.7441
vn -0.6773 -0.7047 0.2113
vn -0.5357 0.0579 0.8425
vn -0.7026 0.7047 0.0983
vn 0.1670 -0.6468 0.7441
vn 0.8442 0.0579 0.5328
vn 0.1416 0.7626 0.6311
vn 0.7026 -0.7047 -0.0983
vn 0.6773 0.7047 -0.2113
vn 0.9757 -0.0000 -0.2189
vn -0.1416 -0.7626 -0.6311
vt 0.109025 0.343257
vt 0.061862 0.004899
vt 0.109025 0.004899
vt 0.916864 0.755286
vt 0.925683 0.709089
vt 0.925683 0.755145
vt 0.004899 0.343257
vt 0.052063 0.004899
vt 0.052063 0.343257
vt 0.898246 0.755145
vt 0.907065 0.709230
vt 0.907065 0.755286
vt 0.431040 0.335244
vt 0.422197 0.004899
vt 0.431040 0.004901
vt 0.412398 0.004899
vt 0.403555 0.335244
vt 0.403555 0.004901
vt 0.177698 0.343257
vt 0.170328 0.004899
vt 0.177698 0.004899
vt 0.738289 0.241730
vt 0.745484 0.285945
vt 0.738289 0.285831
vt 0.135992 0.343257
vt 0.143361 0.004899
vt 0.143361 0.343257
vt 0.480414 0.933908
vt 0.473219 0.889922
vt 0.480414 0.889807
vt 0.393756 0.335251
vt 0.349540 0.004899
vt 0.393756 0.004908
vt 0.231712 0.335242
vt 0.187496 0.004908
vt 0.231712 0.004899
vt 0.126193 0.004899
vt 0.118824 0.343257
vt 0.118824 0.004899
vt 0.588711 0.897674
vt 0.595906 0.941889
vt 0.588711 0.941774
vt 0.153160 0.343257
vt 0.160530 0.004899
vt 0.160530 0.343257
vt 0.366273 0.898167
vt 0.359078 0.942383
vt 0.359078 0.898282
vt 0.339741 0.335251
vt 0.295526 0.004899
vt 0.339741 0.004908
vt 0.285727 0.004899
vt 0.241511 0.335251
vt 0.241511 0.004908
vt 0.762809 0.766252
vt 0.751648 0.732997
vt 0.762809 0.732983
vt 0.743247 0.766307
vt 0.751648 0.766265
vt 0.753879 0.330485
vt 0.742951 0.363578
vt 0.742951 0.330340
vt 0.765042 0.330377
vt 0.753879 0.363724
vt 0.773447 0.363284
vt 0.765042 0.363616
vt 0.775729 0.204566
vt 0.786659 0.171279
vt 0.786659 0.204548
vt 0.764568 0.204553
vt 0.775729 0.171298
vt 0.756167 0.171243
vt 0.764568 0.171284
vt 0.713880 0.566640
vt 0.702952 0.600024
vt 0.702952 0.566785
vt 0.725043 0.566748
vt 0.713880 0.599879
vt 0.733449 0.567079
vt 0.725043 0.599986
vt 0.773740 0.733001
vt 0.773740 0.766270
vt 0.762809 0.699715
vt 0.743247 0.733038
vt 0.751648 0.699728
vt 0.742951 0.396817
vt 0.753879 0.396962
vt 0.765042 0.396854
vt 0.786659 0.138011
vt 0.775729 0.138029
vt 0.764568 0.138015
vt 0.702952 0.633263
vt 0.725043 0.633225
vt 0.713880 0.633117
vt 0.733449 0.600318
vt 0.773740 0.699733
vt 0.762809 0.666446
vt 0.743247 0.699769
vt 0.751648 0.666459
vt 0.742951 0.430056
vt 0.753879 0.430201
vt 0.773447 0.396523
vt 0.765042 0.430093
vt 0.775729 0.104760
vt 0.786659 0.104742
vt 0.756167 0.137974
vt 0.764568 0.104747
vt 0.702952 0.666501
vt 0.713880 0.666356
vt 0.733449 0.633557
vt 0.725043 0.666464
vt 0.773740 0.666464
vt 0.762809 0.633177
vt 0.743247 0.633232
vt 0.751648 0.633191
vt 0.742951 0.463295
vt 0.765042 0.463332
vt 0.753879 0.463440
vt 0.773447 0.429761
vt 0.786660 0.071474
vt 0.775729 0.071492
vt 0.756167 0.071437
vt 0.764568 0.071478
vt 0.702952 0.699740
vt 0.713880 0.699595
vt 0.733449 0.666796
vt 0.725043 0.699703
vt 0.773740 0.633195
vt 0.762809 0.599909
vt 0.751648 0.599922
vt 0.742951 0.496533
vt 0.753879 0.496678
vt 0.773447 0.463000
vt 0.765042 0.496571
vt 0.786660 0.038205
vt 0.764568 0.038209
vt 0.775729 0.038223
vt 0.702952 0.732979
vt 0.725043 0.732941
vt 0.713880 0.732834
vt 0.733449 0.700034
vt 0.773740 0.599927
vt 0.751648 0.566653
vt 0.762809 0.566640
vt 0.743247 0.599964
vt 0.742951 0.529772
vt 0.753879 0.529917
vt 0.773447 0.496239
vt 0.765042 0.529809
vt 0.786660 0.004936
vt 0.764568 0.004941
vt 0.775729 0.004954
vt 0.756167 0.004899
vt 0.702952 0.766217
vt 0.713880 0.766072
vt 0.733449 0.733273
vt 0.725043 0.766180
vt 0.773740 0.566658
vt 0.971023 0.264423
vt 0.934271 0.274204
vt 0.944119 0.237267
vt 0.971023 0.174358
vt 0.934271 0.184390
vt 0.944119 0.147386
vt 0.617598 0.945331
vt 0.605807 0.959454
vt 0.605807 0.945317
vt 0.617637 0.970110
vt 0.617598 0.959468
vt 0.285132 0.929773
vt 0.273035 0.943500
vt 0.273352 0.929660
vt 0.284814 0.957753
vt 0.284814 0.943613
vt 0.273352 0.968290
vt 0.273035 0.957639
vt 0.917620 0.987421
vt 0.929371 0.973561
vt 0.929411 0.987406
vt 0.917581 0.959439
vt 0.917581 0.973576
vt 0.917620 0.948797
vt 0.929371 0.959424
vt 0.955495 0.645507
vt 0.967592 0.659234
vt 0.955812 0.659347
vt 0.955495 0.631368
vt 0.967274 0.645394
vt 0.955812 0.620717
vt 0.967274 0.631254
vt 0.605846 0.931472
vt 0.617637 0.931486
vt 0.349279 0.932565
vt 0.302727 0.944953
vt 0.315201 0.898167
vt 0.681241 0.938696
vt 0.647163 0.972860
vt 0.634690 0.925988
vt 0.274946 0.787736
vt 0.285132 0.919715
vt 0.274946 0.919861
vt 0.652950 0.757598
vt 0.642633 0.651491
vt 0.652950 0.651491
vt 0.507555 0.926118
vt 0.497370 0.793847
vt 0.507555 0.793992
vt 0.796458 0.207622
vt 0.806775 0.313728
vt 0.796458 0.313729
vt 0.823766 0.699287
vt 0.928540 0.566643
vt 0.928540 0.699290
vt 0.823474 0.330048
vt 0.928248 0.462693
vt 0.823474 0.462696
vt 0.910964 0.004900
vt 0.918787 0.137547
vt 0.910964 0.137548
vt 0.248375 0.796019
vt 0.258692 0.878551
vt 0.248375 0.878552
vt 0.918787 0.279996
vt 0.910964 0.147347
vt 0.918787 0.147348
vt 0.223375 0.878552
vt 0.213059 0.796018
vt 0.223375 0.796019
vt 0.008311 0.790102
vt 0.070877 0.653204
vt 0.070877 0.785329
vt 0.080676 0.785329
vt 0.143242 0.657977
vt 0.143242 0.790102
vt 0.866671 0.911885
vt 0.788019 0.990491
vt 0.787993 0.911885
vt 0.384890 0.880878
vt 0.460383 0.803124
vt 0.460383 0.881744
vt 0.827928 0.555710
vt 0.906632 0.477104
vt 0.906607 0.555710
vt 0.089292 0.883106
vt 0.013799 0.805352
vt 0.089292 0.804485
vt 0.461590 0.979426
vt 0.384650 0.900474
vt 0.461590 0.900757
vt 0.013560 0.981471
vt 0.012635 0.985817
vt 0.008311 0.981412
vt 0.012553 0.888225
vt 0.008311 0.883855
vt 0.013799 0.883972
vt 0.383725 0.983638
vt 0.379402 0.979201
vt 0.384650 0.979143
vt 0.383644 0.885462
vt 0.379402 0.880995
vt 0.013560 0.902802
vt 0.008311 0.902743
vt 0.012635 0.898306
vt 0.008311 0.805235
vt 0.012553 0.800768
vt 0.379402 0.900532
vt 0.383725 0.896127
vt 0.379402 0.802374
vt 0.383644 0.798005
vt 0.384890 0.802257
vt 0.866697 0.990491
vt 0.787987 0.995101
vt 0.088046 0.799901
vt 0.460665 0.983921
vt 0.827954 0.477104
vt 0.823474 0.555519
vt 0.823499 0.476912
vt 0.459137 0.886329
vt 0.906600 0.472495
vt 0.783538 0.912077
vt 0.089574 0.898024
vt 0.090499 0.902519
vt 0.090499 0.981188
vt 0.061862 0.343257
vt 0.916864 0.709230
vt 0.004899 0.004899
vt 0.898246 0.709089
vt 0.422197 0.335242
vt 0.412398 0.335242
vt 0.170328 0.343257
vt 0.745484 0.241844
vt 0.135992 0.004899
vt 0.473219 0.934023
vt 0.349540 0.335242
vt 0.187496 0.335251
vt 0.126193 0.343257
vt 0.595906 0.897788
vt 0.153160 0.004899
vt 0.366273 0.942268
vt 0.295526 0.335242
vt 0.285727 0.335242
vt 0.773447 0.330045
vt 0.756167 0.204511
vt 0.743247 0.666501
vt 0.756167 0.104705
vt 0.756167 0.038168
vt 0.743247 0.566695
vt 0.773447 0.529478
vt 0.733449 0.766512
vt 0.955490 0.237306
vt 0.965337 0.243059
vt 0.971023 0.252985
vt 0.965337 0.274310
vt 0.955490 0.279996
vt 0.944119 0.279957
vt 0.928586 0.264278
vt 0.928586 0.252839
vt 0.934271 0.242952
vt 0.955490 0.147347
vt 0.965337 0.153032
vt 0.971023 0.162919
vt 0.965337 0.184283
vt 0.955490 0.190037
vt 0.944119 0.190076
vt 0.928586 0.174503
vt 0.928586 0.163065
vt 0.934271 0.153139
vt 0.605846 0.970096
vt 0.285132 0.968404
vt 0.929411 0.948783
vt 0.967592 0.620603
vt 0.329604 0.898216
vt 0.342077 0.905504
vt 0.349279 0.918076
vt 0.342077 0.945088
vt 0.329604 0.952290
vt 0.315201 0.952241
vt 0.295525 0.932381
vt 0.295525 0.917892
vt 0.302727 0.905369
vt 0.647163 0.918787
vt 0.661566 0.918836
vt 0.674040 0.926123
vt 0.681241 0.953185
vt 0.674040 0.965708
vt 0.661566 0.972910
vt 0.634690 0.965573
vt 0.627488 0.953000
vt 0.627488 0.938511
vt 0.285132 0.787590
vt 0.642633 0.757598
vt 0.497370 0.925972
vt 0.806775 0.207622
vt 0.823766 0.566640
vt 0.928248 0.330045
vt 0.918787 0.004899
vt 0.258692 0.796018
vt 0.910964 0.279994
vt 0.213059 0.878551
vt 0.008311 0.657977
vt 0.080676 0.653204
vt 0.866665 0.995101
vt 0.827922 0.472495
vt 0.783564 0.990683
s 0
f 2/1/1 5/2/1 1/3/1
f 3/4/2 6/5/2 2/6/2
f 3/7/3 8/8/3 7/9/3
f 1/10/4 8/11/4 4/12/4
f 6/13/5 8/14/5 5/15/5
f 4/16/6 2/17/6 1/18/6
f 10/19/1 13/20/1 9/21/1
f 11/22/2 14/23/2 10/24/2
f 11/25/3 16/26/3 15/27/3
f 9/28/4 16/29/4 12/30/4
f 14/31/5 16/32/5 13/33/5
f 11/34/6 9/35/6 12/36/6
f 17/37/1 22/38/1 21/39/1
f 19/40/2 22/41/2 18/42/2
f 19/43/3 24/44/3 23/45/3
f 20/46/4 21/47/4 24/48/4
f 22/49/5 24/50/5 21/51/5
f 20/52/6 18/53/6 17/54/6
s 1
f 25/55/7 38/56/8 37/57/9
f 27/58/10 38/56/8 26/59/11
f 28/60/12 39/61/13 27/62/10
f 29/63/14 40/64/15 28/60/12
f 29/63/14 42/65/16 41/66/17
f 31/67/18 42/68/16 30/69/19
f 32/70/20 43/71/21 31/67/18
f 32/70/20 45/72/22 44/73/23
f 34/74/24 45/75/22 33/76/25
f 35/77/26 46/78/27 34/74/24
f 36/79/28 47/80/29 35/77/26
f 25/55/7 48/81/30 36/82/28
f 38/56/8 49/83/9 37/57/9
f 39/84/13 50/85/8 38/56/8
f 40/64/15 51/86/13 39/61/13
f 41/66/17 52/87/15 40/64/15
f 42/65/16 53/88/17 41/66/17
f 43/71/21 54/89/16 42/68/16
f 44/73/23 55/90/21 43/71/21
f 45/72/22 56/91/23 44/73/23
f 46/78/27 57/92/22 45/75/22
f 46/78/27 59/93/29 58/94/27
f 48/95/30 59/93/29 47/80/29
f 48/81/30 49/83/9 60/96/30
f 50/85/8 61/97/9 49/83/9
f 51/98/13 62/99/8 50/85/8
f 52/87/15 63/100/13 51/86/13
f 53/88/17 64/101/15 52/87/15
f 54/102/16 65/103/17 53/88/17
f 54/89/16 67/104/21 66/105/16
f 56/91/23 67/104/21 55/90/21
f 57/106/22 68/107/23 56/91/23
f 58/94/27 69/108/22 57/92/22
f 59/93/29 70/109/27 58/94/27
f 60/110/30 71/111/29 59/93/29
f 49/83/9 72/112/30 60/96/30
f 62/99/8 73/113/9 61/97/9
f 62/99/8 75/114/13 74/115/8
f 64/101/15 75/116/13 63/100/13
f 64/101/15 77/117/17 76/118/15
f 66/119/16 77/117/17 65/103/17
f 67/104/21 78/120/16 66/105/16
f 68/107/23 79/121/21 67/104/21
f 68/107/23 81/122/22 80/123/23
f 70/109/27 81/124/22 69/108/22
f 71/111/29 82/125/27 70/109/27
f 72/126/30 83/127/29 71/111/29
f 61/97/9 84/128/30 72/112/30
f 74/115/8 85/129/9 73/113/9
f 75/114/13 86/130/8 74/115/8
f 76/118/15 87/131/13 75/116/13
f 77/117/17 88/132/15 76/118/15
f 78/133/16 89/134/17 77/117/17
f 79/121/21 90/135/16 78/120/16
f 79/121/21 92/136/23 91/137/21
f 81/122/22 92/136/23 80/123/23
f 82/125/27 93/138/22 81/124/22
f 82/125/27 95/139/29 94/140/27
f 84/141/30 95/139/29 83/127/29
f 73/113/9 96/142/30 84/128/30
f 85/129/9 98/143/31 97/144/32
f 87/145/13 98/143/31 86/130/8
f 88/132/15 99/146/33 87/131/13
f 89/134/17 100/147/34 88/132/15
f 90/148/16 101/149/35 89/134/17
f 91/137/21 102/150/36 90/135/16
f 91/137/21 104/151/37 103/152/38
f 92/136/23 105/153/39 104/151/37
f 94/140/27 105/154/39 93/138/22
f 95/139/29 106/155/40 94/140/27
f 96/156/30 107/157/41 95/139/29
f 85/129/9 108/158/42 96/142/30
f 33/159/25 29/160/14 25/161/7
f 100/162/34 104/163/37 108/164/42
f 109/165/43 122/166/31 121/167/32
f 111/168/10 122/166/31 110/169/11
f 111/170/10 124/171/34 123/172/44
f 113/173/14 124/171/34 112/174/12
f 113/173/14 126/175/36 125/176/35
f 114/177/19 127/178/45 126/179/36
f 116/180/20 127/178/45 115/181/18
f 117/182/25 128/183/37 116/180/20
f 118/184/24 129/185/46 117/186/25
f 119/187/26 130/188/40 118/184/24
f 120/189/28 131/190/41 119/187/26
f 109/165/43 132/191/42 120/192/28
f 117/193/25 113/194/14 109/195/43
f 124/196/34 128/197/37 132/198/42
s 0
f 134/199/47 137/200/47 133/201/47
f 135/202/48 138/203/48 134/204/48
f 136/205/49 139/206/49 135/207/49
f 133/208/50 140/209/50 136/210/50
f 137/211/51 139/212/51 140/213/51
f 135/214/52 133/215/52 136/216/52
f 142/217/53 145/218/53 141/219/53
f 143/220/48 146/221/48 142/222/48
f 144/223/54 147/224/54 143/225/54
f 141/226/50 148/227/50 144/228/50
f 145/229/55 147/230/55 148/231/55
f 144/232/56 142/233/56 141/234/56
f 155/235/57 150/236/57 158/237/57
f 160/238/58 167/239/58 156/240/58
f 165/241/59 171/242/59 163/243/59
f 151/244/60 166/245/60 162/246/60
f 153/247/61 169/248/61 164/249/61
f 149/250/62 150/251/62 151/252/62
f 152/253/63 153/254/63 154/255/63
f 155/256/64 156/257/64 157/258/64
f 158/259/65 159/260/65 160/238/65
f 161/261/66 162/262/66 163/263/66
f 164/264/67 165/265/67 166/245/67
f 167/266/68 168/267/68 169/248/68
f 170/268/69 171/269/69 172/270/69
f 161/261/70 151/252/70 162/262/70
f 152/271/71 151/272/71 150/236/71
f 164/264/72 154/255/72 153/254/72
f 163/273/73 166/245/73 165/265/73
f 155/256/74 153/247/74 152/274/74
f 167/266/75 157/258/75 156/257/75
f 168/275/76 164/276/76 169/277/76
f 158/259/77 156/240/77 155/278/77
f 170/268/78 160/238/78 159/260/78
f 168/275/79 172/279/79 171/242/79
f 150/236/80 159/280/80 158/237/80
f 171/281/81 161/261/81 163/263/81
f 149/250/82 170/282/82 159/283/82
f 2/1/1 6/284/1 5/2/1
f 3/4/2 7/285/2 6/5/2
f 3/7/3 4/286/3 8/8/3
f 1/10/4 5/287/4 8/11/4
f 6/13/5 7/288/5 8/14/5
f 4/16/6 3/289/6 2/17/6
f 10/19/1 14/290/1 13/20/1
f 11/22/2 15/291/2 14/23/2
f 11/25/3 12/292/3 16/26/3
f 9/28/4 13/293/4 16/29/4
f 14/31/5 15/294/5 16/32/5
f 11/34/6 10/295/6 9/35/6
f 17/37/1 18/296/1 22/38/1
f 19/40/2 23/297/2 22/41/2
f 19/43/3 20/298/3 24/44/3
f 20/46/4 17/299/4 21/47/4
f 22/49/5 23/300/5 24/50/5
f 20/52/6 19/301/6 18/53/6
s 1
f 25/55/7 26/59/11 38/56/8
f 27/58/10 39/84/13 38/56/8
f 28/60/12 40/64/15 39/61/13
f 29/63/14 41/66/17 40/64/15
f 29/63/14 30/302/19 42/65/16
f 31/67/18 43/71/21 42/68/16
f 32/70/20 44/73/23 43/71/21
f 32/70/20 33/303/25 45/72/22
f 34/74/24 46/78/27 45/75/22
f 35/77/26 47/80/29 46/78/27
f 36/79/28 48/95/30 47/80/29
f 25/55/7 37/57/9 48/81/30
f 38/56/8 50/85/8 49/83/9
f 39/84/13 51/98/13 50/85/8
f 40/64/15 52/87/15 51/86/13
f 41/66/17 53/88/17 52/87/15
f 42/65/16 54/102/16 53/88/17
f 43/71/21 55/90/21 54/89/16
f 44/73/23 56/91/23 55/90/21
f 45/72/22 57/106/22 56/91/23
f 46/78/27 58/94/27 57/92/22
f 46/78/27 47/80/29 59/93/29
f 48/95/30 60/110/30 59/93/29
f 48/81/30 37/57/9 49/83/9
f 50/85/8 62/99/8 61/97/9
f 51/98/13 63/304/13 62/99/8
f 52/87/15 64/101/15 63/100/13
f 53/88/17 65/103/17 64/101/15
f 54/102/16 66/119/16 65/103/17
f 54/89/16 55/90/21 67/104/21
f 56/91/23 68/107/23 67/104/21
f 57/106/22 69/305/22 68/107/23
f 58/94/27 70/109/27 69/108/22
f 59/93/29 71/111/29 70/109/27
f 60/110/30 72/126/30 71/111/29
f 49/83/9 61/97/9 72/112/30
f 62/99/8 74/115/8 73/113/9
f 62/99/8 63/304/13 75/114/13
f 64/101/15 76/118/15 75/116/13
f 64/101/15 65/103/17 77/117/17
f 66/119/16 78/133/16 77/117/17
f 67/104/21 79/121/21 78/120/16
f 68/107/23 80/123/23 79/121/21
f 68/107/23 69/305/22 81/122/22
f 70/109/27 82/125/27 81/124/22
f 71/111/29 83/127/29 82/125/27
f 72/126/30 84/141/30 83/127/29
f 61/97/9 73/113/9 84/128/30
f 74/115/8 86/130/8 85/129/9
f 75/114/13 87/145/13 86/130/8
f 76/118/15 88/132/15 87/131/13
f 77/117/17 89/134/17 88/132/15
f 78/133/16 90/148/16 89/134/17
f 79/121/21 91/137/21 90/135/16
f 79/121/21 80/123/23 92/136/23
f 81/122/22 93/306/22 92/136/23
f 82/125/27 94/140/27 93/138/22
f 82/125/27 83/127/29 95/139/29
f 84/141/30 96/156/30 95/139/29
f 73/113/9 85/129/9 96/142/30
f 85/129/9 86/130/8 98/143/31
f 87/145/13 99/307/33 98/143/31
f 88/132/15 100/147/34 99/146/33
f 89/134/17 101/149/35 100/147/34
f 90/148/16 102/308/36 101/149/35
f 91/137/21 103/152/38 102/150/36
f 91/137/21 92/136/23 104/151/37
f 92/136/23 93/306/22 105/153/39
f 94/140/27 106/155/40 105/154/39
f 95/139/29 107/157/41 106/155/40
f 96/156/30 108/309/42 107/157/41
f 85/129/9 97/144/32 108/158/42
f 25/161/7 36/310/28 35/311/26
f 35/311/26 34/312/24 33/159/25
f 33/159/25 32/313/20 31/314/18
f 31/314/18 30/315/19 29/160/14
f 29/160/14 28/316/12 27/317/10
f 27/317/10 26/318/11 25/161/7
f 25/161/7 35/311/26 33/159/25
f 33/159/25 31/314/18 29/160/14
f 29/160/14 27/317/10 25/161/7
f 108/164/42 97/319/32 98/320/31
f 98/320/31 99/321/33 100/162/34
f 100/162/34 101/322/35 102/323/36
f 102/323/36 103/324/38 104/163/37
f 104/163/37 105/325/39 106/326/40
f 106/326/40 107/327/41 108/164/42
f 108/164/42 98/320/31 100/162/34
f 100/162/34 102/323/36 104/163/37
f 104/163/37 106/326/40 108/164/42
f 109/165/43 110/169/11 122/166/31
f 111/168/10 123/328/44 122/166/31
f 111/170/10 112/174/12 124/171/34
f 113/173/14 125/176/35 124/171/34
f 113/173/14 114/329/19 126/175/36
f 114/177/19 115/181/18 127/178/45
f 116/180/20 128/183/37 127/178/45
f 117/182/25 129/330/46 128/183/37
f 118/184/24 130/188/40 129/185/46
f 119/187/26 131/190/41 130/188/40
f 120/189/28 132/331/42 131/190/41
f 109/165/43 121/167/32 132/191/42
f 109/195/43 120/332/28 119/333/26
f 119/333/26 118/334/24 117/193/25
f 117/193/25 116/335/20 115/336/18
f 115/336/18 114/337/19 113/194/14
f 113/194/14 112/338/12 111/339/10
f 111/339/10 110/340/11 109/195/43
f 109/195/43 119/333/26 117/193/25
f 117/193/25 115/336/18 113/194/14
f 113/194/14 111/339/10 109/195/43
f 132/198/42 121/341/32 122/342/31
f 122/342/31 123/343/44 124/196/34
f 124/196/34 125/344/35 126/345/36
f 126/345/36 127/346/45 128/197/37
f 128/197/37 129/347/46 130/348/40
f 130/348/40 131/349/41 132/198/42
f 132/198/42 122/342/31 124/196/34
f 124/196/34 126/345/36 128/197/37
f 128/197/37 130/348/40 132/198/42
s 0
f 134/199/47 138/350/47 137/200/47
f 135/202/48 139/351/48 138/203/48
f 136/205/49 140/352/49 139/206/49
f 133/208/50 137/353/50 140/209/50
f 137/211/51 138/354/51 139/212/51
f 135/214/52 134/355/52 133/215/52
f 142/217/53 146/356/53 145/218/53
f 143/220/48 147/357/48 146/221/48
f 144/223/54 148/358/54 147/224/54
f 141/226/50 145/359/50 148/227/50
f 145/229/55 146/360/55 147/230/55
f 144/232/56 143/361/56 142/233/56
f 155/235/57 152/271/57 150/236/57
f 160/238/58 172/270/58 167/239/58
f 165/241/59 168/275/59 171/242/59
f 151/244/60 154/255/60 166/245/60
f 153/247/61 157/258/61 169/248/61
f 161/261/70 149/250/70 151/252/70
f 152/271/83 154/362/83 151/272/83
f 164/264/72 166/245/72 154/255/72
f 163/273/73 162/246/73 166/245/73
f 155/256/74 157/258/74 153/247/74
f 167/266/75 169/248/75 157/258/75
f 168/275/76 165/241/76 164/276/76
f 158/259/77 160/238/77 156/240/77
f 170/268/78 172/270/78 160/238/78
f 168/275/79 167/363/79 172/279/79
f 150/236/80 149/364/80 159/280/80
f 171/281/81 170/282/81 161/261/81
f 149/250/82 161/261/82 170/282/82
