# Blender 4.3.2
# www.blender.org
o scrap_2
v -0.046906 0.141338 0.422136
v 0.337629 -0.173449 -0.462874
v 0.310114 -0.173449 -0.474829
v -0.074421 0.141338 0.410181
v -0.027132 0.293449 0.376625
v 0.357404 -0.021338 -0.508386
v 0.329889 -0.021338 -0.520341
v -0.054647 0.293449 0.364669
v 0.025735 0.276812 0.405513
v 0.410271 -0.037975 -0.479498
v 0.272696 -0.037975 -0.539274
v -0.111839 0.276812 0.345737
v 0.028825 0.300579 0.398402
v 0.413361 -0.014208 -0.486609
v 0.275786 -0.014208 -0.546385
v -0.108750 0.300579 0.338626
v 0.007197 0.134208 0.448180
v 0.391732 -0.180579 -0.436830
v 0.254157 -0.180579 -0.496607
v -0.130378 0.134208 0.388404
v 0.010286 0.157975 0.441069
v 0.394822 -0.156812 -0.443942
v 0.257247 -0.156812 -0.503718
v -0.127288 0.157975 0.381293
v 0.276074 -0.005000 0.066350
v 0.239770 0.005048 0.056957
v 0.213193 0.032500 0.050080
v 0.203465 0.070000 0.047564
v 0.213193 0.107500 0.050080
v 0.239770 0.134952 0.056957
v 0.276074 0.145000 0.066350
v 0.312379 0.134952 0.075743
v 0.338956 0.107500 0.082620
v 0.348683 0.070000 0.085136
v 0.338956 0.032500 0.082620
v 0.312379 0.005048 0.075743
v 0.303365 -0.005000 -0.039129
v 0.267061 0.005048 -0.048522
v 0.240484 0.032500 -0.055398
v 0.230756 0.070000 -0.057915
v 0.240484 0.107500 -0.055398
v 0.267061 0.134952 -0.048522
v 0.303365 0.145000 -0.039129
v 0.339670 0.134952 -0.029735
v 0.366247 0.107500 -0.022859
v 0.375974 0.070000 -0.020342
v 0.366247 0.032500 -0.022859
v 0.339670 0.005048 -0.029735
v 0.330656 -0.005000 -0.144607
v 0.294352 0.005048 -0.154001
v 0.267775 0.032500 -0.160877
v 0.258047 0.070000 -0.163394
v 0.267775 0.107500 -0.160877
v 0.294352 0.134952 -0.154001
v 0.330656 0.145000 -0.144607
v 0.366961 0.134952 -0.135214
v 0.393537 0.107500 -0.128338
v 0.403265 0.070000 -0.125821
v 0.393537 0.032500 -0.128338
v 0.366961 0.005048 -0.135214
v 0.357947 -0.005000 -0.250086
v 0.321643 0.005048 -0.259479
v 0.295066 0.032500 -0.266356
v 0.285338 0.070000 -0.268872
v 0.295066 0.107500 -0.266356
v 0.321643 0.134952 -0.259479
v 0.357947 0.145000 -0.250086
v 0.394252 0.134952 -0.240693
v 0.420828 0.107500 -0.233816
v 0.430556 0.070000 -0.231300
v 0.420828 0.032500 -0.233816
v 0.394252 0.005048 -0.240693
v 0.385238 -0.005000 -0.355565
v 0.348934 0.005048 -0.364958
v 0.322357 0.032500 -0.371834
v 0.312629 0.070000 -0.374351
v 0.322357 0.107500 -0.371834
v 0.348934 0.134952 -0.364958
v 0.385238 0.145000 -0.355565
v 0.421543 0.134952 -0.346171
v 0.448119 0.107500 -0.339295
v 0.457847 0.070000 -0.336778
v 0.448119 0.032500 -0.339295
v 0.421543 0.005048 -0.346171
v 0.412529 -0.005000 -0.461043
v 0.376225 0.005048 -0.470437
v 0.349648 0.032500 -0.477313
v 0.339920 0.070000 -0.479830
v 0.349648 0.107500 -0.477313
v 0.376225 0.134952 -0.470437
v 0.412529 0.145000 -0.461043
v 0.448834 0.134952 -0.451650
v 0.475410 0.107500 -0.444774
v 0.485138 0.070000 -0.442257
v 0.475410 0.032500 -0.444774
v 0.448834 0.005048 -0.451650
v 0.439820 -0.005000 -0.566522
v 0.403515 0.005048 -0.575915
v 0.376939 0.032500 -0.582791
v 0.367211 0.070000 -0.585308
v 0.376939 0.107500 -0.582791
v 0.403515 0.134952 -0.575915
v 0.439820 0.145000 -0.566522
v 0.476124 0.134952 -0.557129
v 0.502701 0.107500 -0.550252
v 0.512429 0.070000 -0.547736
v 0.502701 0.032500 -0.550252
v 0.476124 0.005048 -0.557129
v 0.439820 -0.025000 -0.566522
v 0.393834 -0.012272 -0.578420
v 0.360170 0.022500 -0.587130
v 0.347849 0.070000 -0.590318
v 0.360170 0.117500 -0.587130
v 0.393834 0.152272 -0.578420
v 0.439820 0.165000 -0.566522
v 0.485806 0.152272 -0.554624
v 0.519469 0.117500 -0.545914
v 0.531791 0.070000 -0.542726
v 0.519469 0.022500 -0.545914
v 0.485806 -0.012272 -0.554624
v 0.449839 -0.025000 -0.605247
v 0.403854 -0.012272 -0.617145
v 0.370190 0.022500 -0.625855
v 0.357868 0.070000 -0.629043
v 0.370190 0.117500 -0.625855
v 0.403854 0.152272 -0.617145
v 0.449839 0.165000 -0.605247
v 0.495825 0.152272 -0.593349
v 0.529489 0.117500 -0.584639
v 0.541811 0.070000 -0.581451
v 0.529489 0.022500 -0.584639
v 0.495825 -0.012272 -0.593349
v 0.109893 0.014174 -0.350181
v -0.027716 0.014174 0.078263
v 0.312574 -0.028922 0.187558
v 0.450183 -0.028922 -0.240885
v 0.113882 0.048922 -0.348900
v -0.023727 0.048922 0.079544
v 0.316563 0.005826 0.188839
v 0.454172 0.005826 -0.239604
v -0.054360 -0.010544 -0.402936
v -0.191968 -0.010544 0.025508
v -0.026255 0.208788 0.078732
v 0.111354 0.208788 -0.349712
v -0.080463 0.011212 -0.411320
v -0.218072 0.011212 0.017124
v -0.052358 0.230544 0.070348
v 0.085250 0.230544 -0.358096
v -0.362431 -0.028516 0.224552
v -0.352556 -0.043357 0.236051
v -0.366923 -0.030691 0.245170
v -0.222710 -0.043357 0.440626
v -0.216508 -0.028516 0.454456
v -0.237077 -0.030691 0.449745
v -0.020297 -0.008226 0.312152
v -0.009603 0.008790 0.305364
v -0.014095 0.006616 0.325982
v -0.150143 -0.008226 0.107577
v -0.160018 0.006616 0.096078
v -0.139449 0.008790 0.100789
v -0.392092 0.211227 0.243379
v -0.396584 0.209052 0.263996
v -0.385890 0.226068 0.257209
v -0.246169 0.211227 0.473282
v -0.256044 0.226068 0.461783
v -0.266738 0.209052 0.468571
v -0.039264 0.248533 0.324191
v -0.053631 0.261200 0.333309
v -0.043756 0.246358 0.344808
v -0.189679 0.246358 0.114905
v -0.183477 0.261200 0.128735
v -0.169110 0.248533 0.119616
vn 0.9172 -0.0000 0.3985
vn 0.3789 -0.3101 -0.8719
vn -0.9172 -0.0000 -0.3985
vn -0.3789 0.3101 0.8719
vn 0.1236 0.9507 -0.2844
vn -0.1236 -0.9507 0.2844
vn -0.5301 -0.6557 0.5376
vn -0.0000 -1.0000 -0.0000
vn -0.1636 -0.7572 0.6324
vn -0.7984 -0.3786 0.4682
vn -0.4841 -0.8660 -0.1252
vn -0.8966 -0.0000 0.4428
vn -0.8384 -0.5000 -0.2169
vn -0.7984 0.3786 0.4681
vn -0.9681 -0.0000 -0.2505
vn -0.5301 0.6557 0.5376
vn -0.8384 0.5000 -0.2169
vn -0.1636 0.7572 0.6324
vn -0.4841 0.8660 -0.1252
vn 0.2029 0.6557 0.7272
vn -0.0000 1.0000 -0.0000
vn 0.4712 0.3786 0.7967
vn 0.4841 0.8660 0.1252
vn 0.9681 -0.0000 0.2505
vn 0.8384 0.5000 0.2169
vn 0.4712 -0.3786 0.7967
vn 0.5694 -0.0000 0.8221
vn 0.4841 -0.8660 0.1252
vn 0.8384 -0.5000 0.2169
vn 0.2029 -0.6557 0.7272
vn 0.1636 -0.7572 -0.6324
vn -0.2029 -0.6557 -0.7272
vn -0.4712 -0.3786 -0.7967
vn -0.4712 0.3786 -0.7967
vn -0.5694 -0.0000 -0.8220
vn -0.2029 0.6557 -0.7272
vn 0.1636 0.7572 -0.6324
vn 0.7984 0.3786 -0.4682
vn 0.5301 0.6557 -0.5376
vn 0.8966 -0.0000 -0.4427
vn 0.7984 -0.3786 -0.4682
vn 0.5301 -0.6557 -0.5376
vn -0.7984 -0.3786 0.4681
vn -0.8967 -0.0000 0.4427
vn -0.4712 -0.3786 -0.7966
vn -0.4712 0.3786 -0.7966
vn -0.7985 0.3786 0.4681
vn 0.4712 0.3786 0.7966
vn 0.5301 0.6557 -0.5375
vn 0.8967 -0.0000 -0.4427
vn 0.4712 -0.3786 0.7966
vn 0.5301 -0.6557 -0.5375
vn -0.9452 0.1197 -0.3036
vn -0.3058 -0.0000 0.9521
vn 0.9452 -0.1197 0.3036
vn 0.3058 -0.0000 -0.9521
vn 0.1140 0.9928 0.0366
vn -0.1140 -0.9928 -0.0366
vn -0.5918 -0.7833 -0.1901
vn 0.5918 0.7833 0.1901
vn -0.7458 0.6216 -0.2395
vn 0.7458 -0.6216 0.2395
vn 0.1224 -0.9894 -0.0777
vn 0.8354 0.1450 -0.5302
vn -0.1224 0.9894 0.0777
vn -0.8354 -0.1450 0.5302
vn 0.5359 -0.0000 0.8443
vn -0.7210 -0.6550 -0.2262
vn -0.1022 -0.6550 0.7487
vn 0.8624 -0.4875 0.1365
vn 0.2436 -0.4875 -0.8384
vn -0.8624 0.4875 -0.1365
vn -0.2436 0.4875 0.8384
vn 0.7210 0.6550 0.2262
vn 0.1022 0.6550 -0.7487
vn -0.9696 -0.1025 -0.2221
vn -0.5041 -0.8022 0.3200
vn -0.2118 -0.1025 0.9719
vn -0.6773 0.5971 0.4299
vn 0.4655 -0.6996 0.5421
vn 0.9696 0.1025 0.2221
vn 0.2924 0.6996 0.6519
vn 0.6773 -0.5971 -0.4299
vn 0.2118 0.1025 -0.9719
vn 0.5041 0.8022 -0.3200
vn -0.2924 -0.6996 -0.6519
vn -0.4655 0.6996 -0.5421
vn -0.5359 -0.0000 -0.8443
vt 0.342652 0.345279
vt 0.295526 0.641956
vt 0.295526 0.345049
vt 0.861019 0.755933
vt 0.869834 0.709089
vt 0.869834 0.755840
vt 0.352451 0.345279
vt 0.399578 0.641956
vt 0.352451 0.642186
vt 0.879633 0.755840
vt 0.888448 0.709183
vt 0.888448 0.755933
vt 0.285727 0.345093
vt 0.276885 0.635183
vt 0.276885 0.345049
vt 0.666167 0.004899
vt 0.657325 0.295076
vt 0.657325 0.004943
vt 0.431040 0.641985
vt 0.423676 0.345043
vt 0.431040 0.345079
vt 0.955495 0.566640
vt 0.962799 0.610794
vt 0.955495 0.610717
vt 0.224349 0.345085
vt 0.231712 0.641956
vt 0.224349 0.641992
vt 0.907782 0.955962
vt 0.900478 0.911963
vt 0.907782 0.911885
vt 0.160530 0.643406
vt 0.116323 0.353056
vt 0.160530 0.353272
vt 0.052518 0.353056
vt 0.008311 0.643406
vt 0.008311 0.353272
vt 0.248874 0.641992
vt 0.241511 0.345049
vt 0.248874 0.345085
vt 0.955203 0.382596
vt 0.962507 0.426750
vt 0.955203 0.426673
vt 0.258673 0.345085
vt 0.266037 0.641956
vt 0.258673 0.641992
vt 0.772560 0.962659
vt 0.765255 0.918659
vt 0.772560 0.918582
vt 0.106524 0.643406
vt 0.062317 0.353056
vt 0.106524 0.353272
vt 0.214535 0.643190
vt 0.170328 0.353272
vt 0.214535 0.353056
vt 0.805344 0.330553
vt 0.794207 0.362772
vt 0.794207 0.330723
vt 0.813675 0.330045
vt 0.805344 0.362601
vt 0.673800 0.566876
vt 0.662749 0.599060
vt 0.662749 0.566956
vt 0.684857 0.566955
vt 0.673800 0.598980
vt 0.692957 0.567173
vt 0.684857 0.599060
vt 0.794499 0.566640
vt 0.783538 0.598902
vt 0.783538 0.566853
vt 0.805636 0.566810
vt 0.794499 0.598689
vt 0.813967 0.567317
vt 0.805636 0.598859
vt 0.796458 0.005116
vt 0.807510 0.037301
vt 0.796458 0.037221
vt 0.818566 0.005117
vt 0.807510 0.005197
vt 0.826666 0.037004
vt 0.818566 0.037221
vt 0.783246 0.362559
vt 0.783246 0.330510
vt 0.794207 0.394820
vt 0.813675 0.394143
vt 0.805344 0.394650
vt 0.662749 0.631164
vt 0.673800 0.631084
vt 0.692957 0.599277
vt 0.684857 0.631164
vt 0.783538 0.630950
vt 0.794499 0.630737
vt 0.813967 0.599366
vt 0.805636 0.630908
vt 0.796458 0.069325
vt 0.807510 0.069405
vt 0.818566 0.069326
vt 0.783246 0.394608
vt 0.794207 0.426869
vt 0.805344 0.426699
vt 0.662749 0.663269
vt 0.673800 0.663189
vt 0.692957 0.631382
vt 0.684857 0.663268
vt 0.794499 0.662786
vt 0.783538 0.662999
vt 0.813967 0.631415
vt 0.805636 0.662956
vt 0.796458 0.101430
vt 0.807510 0.101510
vt 0.826666 0.069108
vt 0.818566 0.101430
vt 0.783246 0.426656
vt 0.794207 0.458918
vt 0.813675 0.426192
vt 0.805344 0.458748
vt 0.662749 0.695373
vt 0.673800 0.695293
vt 0.692957 0.695590
vt 0.684857 0.695373
vt 0.783538 0.695048
vt 0.794499 0.694835
vt 0.813967 0.695513
vt 0.805636 0.695005
vt 0.796458 0.133534
vt 0.807510 0.133614
vt 0.826666 0.101213
vt 0.818566 0.133535
vt 0.783246 0.458705
vt 0.794207 0.490967
vt 0.813675 0.458240
vt 0.805344 0.490797
vt 0.662749 0.727478
vt 0.673800 0.727398
vt 0.692957 0.727695
vt 0.684857 0.727477
vt 0.783538 0.727097
vt 0.794499 0.726884
vt 0.805636 0.727054
vt 0.796458 0.165638
vt 0.807510 0.165719
vt 0.826666 0.133317
vt 0.818566 0.165639
vt 0.783246 0.490754
vt 0.794207 0.523016
vt 0.813675 0.490289
vt 0.805344 0.522846
vt 0.662749 0.759582
vt 0.684857 0.759582
vt 0.673800 0.759502
vt 0.783538 0.759146
vt 0.794499 0.758933
vt 0.813967 0.759610
vt 0.805636 0.759103
vt 0.796458 0.197743
vt 0.807510 0.197823
vt 0.826666 0.165421
vt 0.818566 0.197743
vt 0.783246 0.522803
vt 0.964608 0.330045
vt 0.974330 0.366972
vt 0.938047 0.357247
vt 0.950817 0.751785
vt 0.941095 0.714760
vt 0.977378 0.724850
vt 0.495791 0.946477
vt 0.507555 0.960766
vt 0.495791 0.960586
vt 0.495309 0.935916
vt 0.507555 0.946657
vt 0.100298 0.974957
vt 0.112286 0.988870
vt 0.100500 0.988955
vt 0.112084 0.960867
vt 0.112084 0.974873
vt 0.100298 0.960952
vt 0.112286 0.950606
vt 0.484984 0.943821
vt 0.473700 0.957879
vt 0.473219 0.944001
vt 0.485465 0.971808
vt 0.485465 0.957699
vt 0.484984 0.982369
vt 0.473700 0.971988
vt 0.141765 0.950691
vt 0.129776 0.964603
vt 0.129978 0.950606
vt 0.141563 0.978693
vt 0.141563 0.964688
vt 0.129978 0.988870
vt 0.129776 0.978609
vt 0.507074 0.974643
vt 0.495309 0.974464
vt 0.962230 0.004899
vt 0.974545 0.051673
vt 0.928586 0.039354
vt 0.710465 0.972867
vt 0.698150 0.925970
vt 0.744109 0.938751
vt 0.753491 0.908691
vt 0.743247 0.776143
vt 0.753491 0.776105
vt 0.183308 0.902052
vt 0.173155 0.796091
vt 0.183308 0.796018
vt 0.605807 0.651491
vt 0.616051 0.784114
vt 0.605807 0.784077
vt 0.193107 0.796018
vt 0.203260 0.902125
vt 0.193107 0.902052
vt 0.379402 0.655191
vt 0.485053 0.788206
vt 0.379402 0.787547
vt 0.153040 0.786219
vt 0.258692 0.653204
vt 0.258692 0.785560
vt 0.276885 0.777792
vt 0.285132 0.645025
vt 0.285132 0.777381
vt 0.470182 0.798005
vt 0.480414 0.880008
vt 0.470182 0.879836
vt 0.505616 0.784048
vt 0.497370 0.651282
vt 0.505616 0.651693
vt 0.109323 0.799901
vt 0.099091 0.881905
vt 0.099091 0.800073
vt 0.901165 0.137484
vt 0.836464 0.006471
vt 0.901165 0.004899
vt 0.901165 0.283011
vt 0.836464 0.148855
vt 0.901165 0.150426
vt 0.173155 0.916441
vt 0.242962 0.988186
vt 0.173155 0.987847
vt 0.301755 0.869825
vt 0.356456 0.814804
vt 0.356456 0.883154
vt 0.916431 0.477156
vt 0.986238 0.548225
vt 0.916431 0.548563
vt 0.532617 0.887875
vt 0.587318 0.806195
vt 0.587318 0.874545
vt 0.923820 0.934261
vt 0.977529 0.867745
vt 0.977529 0.938832
vt 0.923820 0.845219
vt 0.920906 0.849297
vt 0.917581 0.845179
vt 0.242962 0.916779
vt 0.243898 0.912262
vt 0.248219 0.916703
vt 0.920906 0.938984
vt 0.917581 0.934301
vt 0.298912 0.875039
vt 0.295526 0.869983
vt 0.923820 0.774132
vt 0.917581 0.774093
vt 0.920906 0.769409
vt 0.526388 0.819367
vt 0.529774 0.814311
vt 0.532617 0.819525
vt 0.917581 0.863214
vt 0.920906 0.859096
vt 0.923820 0.863174
vt 0.987174 0.552742
vt 0.991495 0.548300
vt 0.248219 0.988110
vt 0.526388 0.887717
vt 0.584475 0.800981
vt 0.174090 0.911924
vt 0.987174 0.472495
vt 0.986238 0.476818
vt 0.353613 0.888368
vt 0.295526 0.801633
vt 0.174090 0.992171
vt 0.917367 0.553080
vt 0.977529 0.769561
vt 0.977529 0.840648
vt 0.342652 0.642186
vt 0.861019 0.709183
vt 0.399578 0.345049
vt 0.879633 0.709089
vt 0.285727 0.635226
vt 0.666167 0.295033
vt 0.423676 0.641949
vt 0.962799 0.566717
vt 0.231712 0.345049
vt 0.900478 0.956040
vt 0.116323 0.643190
vt 0.052518 0.643190
vt 0.241511 0.641956
vt 0.962507 0.382673
vt 0.266037 0.345049
vt 0.765255 0.962736
vt 0.062317 0.643190
vt 0.170328 0.643406
vt 0.813675 0.362094
vt 0.826666 0.004899
vt 0.692957 0.663486
vt 0.813967 0.663464
vt 0.813967 0.727561
vt 0.813675 0.522338
vt 0.692957 0.759799
vt 0.826666 0.197526
vt 0.938047 0.345806
vt 0.943660 0.335871
vt 0.953382 0.330102
vt 0.974330 0.335717
vt 0.979943 0.345596
vt 0.979943 0.357036
vt 0.964608 0.372741
vt 0.953382 0.372797
vt 0.943660 0.367126
vt 0.977378 0.736291
vt 0.971765 0.746170
vt 0.962043 0.751841
vt 0.941095 0.746016
vt 0.935482 0.736080
vt 0.935482 0.724640
vt 0.950817 0.709089
vt 0.962043 0.709146
vt 0.971765 0.714915
vt 0.507074 0.936096
vt 0.100500 0.950691
vt 0.473219 0.982549
vt 0.141765 0.988955
vt 0.928586 0.024863
vt 0.935696 0.012278
vt 0.948011 0.004971
vt 0.974545 0.012083
vt 0.981655 0.024597
vt 0.981655 0.039088
vt 0.962230 0.058980
vt 0.948011 0.059052
vt 0.935696 0.051868
vt 0.744109 0.953242
vt 0.736999 0.965755
vt 0.724684 0.972939
vt 0.698150 0.965560
vt 0.691040 0.952975
vt 0.691040 0.938484
vt 0.710465 0.918787
vt 0.724684 0.918858
vt 0.736999 0.926165
vt 0.743247 0.908728
vt 0.173155 0.902125
vt 0.616051 0.651529
vt 0.203260 0.796091
vt 0.485053 0.655850
vt 0.153040 0.653864
vt 0.276885 0.645436
vt 0.480414 0.798177
vt 0.497370 0.783637
vt 0.109323 0.881733
vt 0.836464 0.139056
vt 0.836464 0.281440
vt 0.301755 0.801475
vt 0.917367 0.472833
vt 0.991495 0.476894
vt 0.243898 0.992509
s 0
f 1/1/1 6/2/1 5/3/1
f 3/4/2 6/5/2 2/6/2
f 4/7/3 7/8/3 3/9/3
f 1/10/4 8/11/4 4/12/4
f 5/13/5 7/14/5 8/15/5
f 4/16/6 2/17/6 1/18/6
f 10/19/1 13/20/1 9/21/1
f 11/22/2 14/23/2 10/24/2
f 12/25/3 15/26/3 11/27/3
f 9/28/4 16/29/4 12/30/4
f 14/31/5 16/32/5 13/33/5
f 12/34/6 10/35/6 9/36/6
f 18/37/1 21/38/1 17/39/1
f 19/40/2 22/41/2 18/42/2
f 20/43/3 23/44/3 19/45/3
f 17/46/4 24/47/4 20/48/4
f 22/49/5 24/50/5 21/51/5
f 19/52/6 17/53/6 20/54/6
s 1
f 26/55/7 37/56/8 25/57/9
f 27/58/10 38/59/11 26/55/7
f 28/60/12 39/61/13 27/62/10
f 29/63/14 40/64/15 28/60/12
f 30/65/16 41/66/17 29/63/14
f 31/67/18 42/68/19 30/69/16
f 32/70/20 43/71/21 31/67/18
f 33/72/22 44/73/23 32/70/20
f 33/74/22 46/75/24 45/76/25
f 35/77/26 46/75/24 34/78/27
f 35/77/26 48/79/28 47/80/29
f 25/57/9 48/81/28 36/82/30
f 38/59/11 49/83/8 37/56/8
f 38/59/11 51/84/13 50/85/11
f 40/64/15 51/86/13 39/61/13
f 41/66/17 52/87/15 40/64/15
f 42/88/19 53/89/17 41/66/17
f 43/71/21 54/90/19 42/68/19
f 44/73/23 55/91/21 43/71/21
f 45/92/25 56/93/23 44/73/23
f 46/75/24 57/94/25 45/76/25
f 47/80/29 58/95/24 46/75/24
f 48/79/28 59/96/29 47/80/29
f 48/81/28 49/83/8 60/97/28
f 50/85/11 61/98/8 49/83/8
f 51/84/13 62/99/11 50/85/11
f 52/87/15 63/100/13 51/86/13
f 53/89/17 64/101/15 52/87/15
f 54/102/19 65/103/17 53/89/17
f 54/90/19 67/104/21 66/105/19
f 56/93/23 67/104/21 55/91/21
f 57/106/25 68/107/23 56/93/23
f 58/95/24 69/108/25 57/94/25
f 59/96/29 70/109/24 58/95/24
f 60/110/28 71/111/29 59/96/29
f 49/83/8 72/112/28 60/97/28
f 62/99/11 73/113/8 61/98/8
f 63/114/13 74/115/11 62/99/11
f 64/101/15 75/116/13 63/100/13
f 65/103/17 76/117/15 64/101/15
f 65/103/17 78/118/19 77/119/17
f 67/104/21 78/120/19 66/105/19
f 68/107/23 79/121/21 67/104/21
f 68/107/23 81/122/25 80/123/23
f 70/109/24 81/124/25 69/108/25
f 71/111/29 82/125/24 70/109/24
f 72/126/28 83/127/29 71/111/29
f 61/98/8 84/128/28 72/112/28
f 74/115/11 85/129/8 73/113/8
f 75/130/13 86/131/11 74/115/11
f 76/117/15 87/132/13 75/116/13
f 77/119/17 88/133/15 76/117/15
f 77/119/17 90/134/19 89/135/17
f 79/121/21 90/136/19 78/120/19
f 80/123/23 91/137/21 79/121/21
f 81/122/25 92/138/23 80/123/23
f 82/125/24 93/139/25 81/124/25
f 83/127/29 94/140/24 82/125/24
f 84/141/28 95/142/29 83/127/29
f 84/128/28 85/129/8 96/143/28
f 86/131/11 97/144/31 85/129/8
f 87/145/13 98/146/32 86/131/11
f 88/133/15 99/147/33 87/132/13
f 88/133/15 101/148/34 100/149/35
f 90/134/19 101/148/34 89/135/17
f 91/137/21 102/150/36 90/136/19
f 92/138/23 103/151/37 91/137/21
f 92/138/23 105/152/38 104/153/39
f 94/140/24 105/154/38 93/139/25
f 95/142/29 106/155/40 94/140/24
f 96/156/28 107/157/41 95/142/29
f 85/129/8 108/158/42 96/143/28
f 33/159/22 29/160/14 25/161/9
f 100/162/35 104/163/39 108/164/42
f 110/165/7 121/166/31 109/167/9
f 111/168/43 122/169/32 110/165/7
f 112/170/44 123/171/45 111/172/43
f 112/170/44 125/173/46 124/174/35
f 113/175/47 126/176/36 125/173/46
f 114/177/16 127/178/37 126/179/36
f 116/180/20 127/178/37 115/181/18
f 117/182/48 128/183/49 116/180/20
f 117/184/48 130/185/50 129/186/38
f 119/187/51 130/185/50 118/188/27
f 119/187/51 132/189/52 131/190/41
f 109/167/9 132/191/52 120/192/30
f 117/193/48 113/194/47 109/195/9
f 124/196/35 128/197/49 132/198/52
s 0
f 134/199/53 137/200/53 133/201/53
f 135/202/54 138/203/54 134/204/54
f 136/205/55 139/206/55 135/207/55
f 133/208/56 140/209/56 136/210/56
f 138/211/57 140/212/57 137/213/57
f 136/214/58 134/215/58 133/216/58
f 141/217/59 146/218/59 145/219/59
f 143/220/54 146/221/54 142/222/54
f 144/223/60 147/224/60 143/225/60
f 144/226/56 145/227/56 148/228/56
f 146/229/61 148/230/61 145/231/61
f 143/232/62 141/233/62 144/234/62
f 155/235/63 150/236/63 158/237/63
f 160/238/64 167/239/64 156/240/64
f 165/241/65 171/242/65 163/243/65
f 154/244/66 162/245/66 151/246/66
f 157/247/67 164/248/67 153/249/67
f 149/250/68 150/251/68 151/252/68
f 152/253/69 153/254/69 154/255/69
f 155/256/70 156/257/70 157/247/70
f 158/258/71 159/259/71 160/238/71
f 161/260/72 162/261/72 163/262/72
f 164/263/73 165/264/73 166/265/73
f 167/266/74 168/267/74 169/268/74
f 170/269/75 171/242/75 172/270/75
f 149/250/76 162/261/76 161/260/76
f 152/253/77 151/271/77 150/236/77
f 153/272/78 166/265/78 154/244/78
f 163/273/79 166/265/79 165/264/79
f 152/253/80 157/274/80 153/254/80
f 156/257/81 169/268/81 157/247/81
f 165/241/82 169/275/82 168/276/82
f 158/258/83 156/240/83 155/277/83
f 170/278/84 160/238/84 159/259/84
f 168/276/85 172/270/85 171/242/85
f 150/236/86 159/279/86 158/237/86
f 171/242/87 161/280/87 163/243/87
f 149/250/88 170/281/88 159/282/88
f 1/1/1 2/283/1 6/2/1
f 3/4/2 7/284/2 6/5/2
f 4/7/3 8/285/3 7/8/3
f 1/10/4 5/286/4 8/11/4
f 5/13/5 6/287/5 7/14/5
f 4/16/6 3/288/6 2/17/6
f 10/19/1 14/289/1 13/20/1
f 11/22/2 15/290/2 14/23/2
f 12/25/3 16/291/3 15/26/3
f 9/28/4 13/292/4 16/29/4
f 14/31/5 15/293/5 16/32/5
f 12/34/6 11/294/6 10/35/6
f 18/37/1 22/295/1 21/38/1
f 19/40/2 23/296/2 22/41/2
f 20/43/3 24/297/3 23/44/3
f 17/46/4 21/298/4 24/47/4
f 22/49/5 23/299/5 24/50/5
f 19/52/6 18/300/6 17/53/6
s 1
f 26/55/7 38/59/11 37/56/8
f 27/58/10 39/301/13 38/59/11
f 28/60/12 40/64/15 39/61/13
f 29/63/14 41/66/17 40/64/15
f 30/65/16 42/88/19 41/66/17
f 31/67/18 43/71/21 42/68/19
f 32/70/20 44/73/23 43/71/21
f 33/72/22 45/92/25 44/73/23
f 33/74/22 34/78/27 46/75/24
f 35/77/26 47/80/29 46/75/24
f 35/77/26 36/302/30 48/79/28
f 25/57/9 37/56/8 48/81/28
f 38/59/11 50/85/11 49/83/8
f 38/59/11 39/301/13 51/84/13
f 40/64/15 52/87/15 51/86/13
f 41/66/17 53/89/17 52/87/15
f 42/88/19 54/102/19 53/89/17
f 43/71/21 55/91/21 54/90/19
f 44/73/23 56/93/23 55/91/21
f 45/92/25 57/106/25 56/93/23
f 46/75/24 58/95/24 57/94/25
f 47/80/29 59/96/29 58/95/24
f 48/79/28 60/110/28 59/96/29
f 48/81/28 37/56/8 49/83/8
f 50/85/11 62/99/11 61/98/8
f 51/84/13 63/114/13 62/99/11
f 52/87/15 64/101/15 63/100/13
f 53/89/17 65/103/17 64/101/15
f 54/102/19 66/303/19 65/103/17
f 54/90/19 55/91/21 67/104/21
f 56/93/23 68/107/23 67/104/21
f 57/106/25 69/304/25 68/107/23
f 58/95/24 70/109/24 69/108/25
f 59/96/29 71/111/29 70/109/24
f 60/110/28 72/126/28 71/111/29
f 49/83/8 61/98/8 72/112/28
f 62/99/11 74/115/11 73/113/8
f 63/114/13 75/130/13 74/115/11
f 64/101/15 76/117/15 75/116/13
f 65/103/17 77/119/17 76/117/15
f 65/103/17 66/303/19 78/118/19
f 67/104/21 79/121/21 78/120/19
f 68/107/23 80/123/23 79/121/21
f 68/107/23 69/304/25 81/122/25
f 70/109/24 82/125/24 81/124/25
f 71/111/29 83/127/29 82/125/24
f 72/126/28 84/141/28 83/127/29
f 61/98/8 73/113/8 84/128/28
f 74/115/11 86/131/11 85/129/8
f 75/130/13 87/145/13 86/131/11
f 76/117/15 88/133/15 87/132/13
f 77/119/17 89/135/17 88/133/15
f 77/119/17 78/118/19 90/134/19
f 79/121/21 91/137/21 90/136/19
f 80/123/23 92/138/23 91/137/21
f 81/122/25 93/305/25 92/138/23
f 82/125/24 94/140/24 93/139/25
f 83/127/29 95/142/29 94/140/24
f 84/141/28 96/156/28 95/142/29
f 84/128/28 73/113/8 85/129/8
f 86/131/11 98/146/32 97/144/31
f 87/145/13 99/306/33 98/146/32
f 88/133/15 100/149/35 99/147/33
f 88/133/15 89/135/17 101/148/34
f 90/134/19 102/307/36 101/148/34
f 91/137/21 103/151/37 102/150/36
f 92/138/23 104/153/39 103/151/37
f 92/138/23 93/305/25 105/152/38
f 94/140/24 106/155/40 105/154/38
f 95/142/29 107/157/41 106/155/40
f 96/156/28 108/308/42 107/157/41
f 85/129/8 97/144/31 108/158/42
f 25/161/9 36/309/30 35/310/26
f 35/310/26 34/311/27 33/159/22
f 33/159/22 32/312/20 31/313/18
f 31/313/18 30/314/16 29/160/14
f 29/160/14 28/315/12 27/316/10
f 27/316/10 26/317/7 25/161/9
f 25/161/9 35/310/26 33/159/22
f 33/159/22 31/313/18 29/160/14
f 29/160/14 27/316/10 25/161/9
f 108/164/42 97/318/31 98/319/32
f 98/319/32 99/320/33 100/162/35
f 100/162/35 101/321/34 102/322/36
f 102/322/36 103/323/37 104/163/39
f 104/163/39 105/324/38 106/325/40
f 106/325/40 107/326/41 108/164/42
f 108/164/42 98/319/32 100/162/35
f 100/162/35 102/322/36 104/163/39
f 104/163/39 106/325/40 108/164/42
f 110/165/7 122/169/32 121/166/31
f 111/168/43 123/327/45 122/169/32
f 112/170/44 124/174/35 123/171/45
f 112/170/44 113/175/47 125/173/46
f 113/175/47 114/328/16 126/176/36
f 114/177/16 115/181/18 127/178/37
f 116/180/20 128/183/49 127/178/37
f 117/182/48 129/329/38 128/183/49
f 117/184/48 118/188/27 130/185/50
f 119/187/51 131/190/41 130/185/50
f 119/187/51 120/330/30 132/189/52
f 109/167/9 121/166/31 132/191/52
f 109/195/9 120/331/30 119/332/51
f 119/332/51 118/333/27 117/193/48
f 117/193/48 116/334/20 115/335/18
f 115/335/18 114/336/16 113/194/47
f 113/194/47 112/337/44 111/338/43
f 111/338/43 110/339/7 109/195/9
f 109/195/9 119/332/51 117/193/48
f 117/193/48 115/335/18 113/194/47
f 113/194/47 111/338/43 109/195/9
f 132/198/52 121/340/31 122/341/32
f 122/341/32 123/342/45 124/196/35
f 124/196/35 125/343/46 126/344/36
f 126/344/36 127/345/37 128/197/49
f 128/197/49 129/346/38 130/347/50
f 130/347/50 131/348/41 132/198/52
f 132/198/52 122/341/32 124/196/35
f 124/196/35 126/344/36 128/197/49
f 128/197/49 130/347/50 132/198/52
s 0
f 134/199/53 138/349/53 137/200/53
f 135/202/54 139/350/54 138/203/54
f 136/205/55 140/351/55 139/206/55
f 133/208/56 137/352/56 140/209/56
f 138/211/57 139/353/57 140/212/57
f 136/214/58 135/354/58 134/215/58
f 141/217/59 142/355/59 146/218/59
f 143/220/54 147/356/54 146/221/54
f 144/223/60 148/357/60 147/224/60
f 144/226/56 141/358/56 145/227/56
f 146/229/61 147/359/61 148/230/61
f 143/232/62 142/360/62 141/233/62
f 155/235/63 152/253/63 150/236/63
f 160/238/64 172/361/64 167/239/64
f 165/241/65 168/276/65 171/242/65
f 154/244/66 166/265/66 162/245/66
f 157/247/67 169/268/67 164/248/67
f 149/250/76 151/252/76 162/261/76
f 152/253/77 154/255/77 151/271/77
f 153/272/78 164/263/78 166/265/78
f 163/273/79 162/245/79 166/265/79
f 152/253/80 155/235/80 157/274/80
f 156/257/81 167/266/81 169/268/81
f 165/241/82 164/362/82 169/275/82
f 158/258/83 160/238/83 156/240/83
f 170/278/84 172/361/84 160/238/84
f 168/276/85 167/363/85 172/270/85
f 150/236/86 149/364/86 159/279/86
f 171/242/87 170/269/87 161/280/87
f 149/250/88 161/260/88 170/281/88
