# Blender 4.3.2
# www.blender.org
o toxic_ore_1
v 0.438657 -0.041724 0.053147
v 0.435227 -0.051914 0.045036
v 0.437320 -0.042172 0.034904
v 0.178028 -0.089720 -0.423387
v 0.172018 -0.080950 -0.430851
v 0.186855 -0.078987 -0.421256
v -0.229714 -0.133576 -0.448137
v -0.239333 -0.124923 -0.446112
v -0.225255 -0.123681 -0.454965
v -0.410279 -0.143118 -0.017943
v -0.415157 -0.133764 -0.008690
v -0.415138 -0.134213 -0.027258
v -0.172958 -0.105121 0.553268
v -0.168409 -0.094915 0.558265
v -0.181842 -0.096409 0.552878
v 0.327874 -0.057007 0.326684
v 0.336105 -0.046590 0.322202
v 0.323396 -0.047668 0.335765
v 0.383223 0.088052 0.046420
v 0.381970 0.087407 0.028187
v 0.371920 0.096292 0.037353
v 0.141980 0.052699 -0.391228
v 0.143760 0.062755 -0.378184
v 0.156894 0.054323 -0.381734
v -0.228564 0.013005 -0.404046
v -0.217418 0.023906 -0.400107
v -0.214478 0.014358 -0.412865
v -0.386456 0.005040 -0.009383
v -0.377492 0.015448 -0.018734
v -0.386423 0.004663 -0.027951
v -0.163260 0.040224 0.500830
v -0.167081 0.049136 0.487707
v -0.176698 0.038624 0.495488
v 0.291390 0.083695 0.287352
v 0.276809 0.091780 0.286885
v 0.278660 0.082678 0.300899
v 0.449484 0.070216 -0.000068
v 0.448931 0.061363 -0.008649
v 0.450701 0.071384 -0.016602
v 0.195512 0.066690 -0.417075
v 0.189595 0.076124 -0.424945
v 0.204514 0.076559 -0.413371
v -0.179019 0.046511 -0.533267
v -0.188433 0.055112 -0.533281
v -0.171007 0.056695 -0.536816
v -0.459282 0.012325 -0.288584
v -0.464649 0.020915 -0.279658
v -0.459799 0.022011 -0.296366
v -0.364216 -0.001267 0.066063
v -0.364308 0.007576 0.077543
v -0.373516 0.007886 0.060317
v -0.138936 0.000069 0.323636
v -0.132381 0.009638 0.329239
v -0.148994 0.008853 0.323721
v 0.228385 0.031187 0.240783
v 0.237299 0.041184 0.239908
v 0.220791 0.039557 0.249578
v 0.381053 0.191466 -0.002412
v 0.382410 0.192385 -0.018941
v 0.370392 0.200521 -0.011339
v 0.152065 0.196538 -0.377654
v 0.152371 0.205105 -0.362714
v 0.167003 0.196913 -0.366104
v -0.180414 0.178232 -0.471737
v -0.169821 0.187745 -0.462669
v -0.163005 0.179562 -0.475400
v -0.422370 0.147800 -0.248258
v -0.410618 0.158373 -0.252442
v -0.417376 0.149328 -0.264859
v -0.333577 0.136067 0.065908
v -0.328831 0.146680 0.052667
v -0.342774 0.136420 0.048678
v -0.129000 0.138150 0.286267
v -0.135049 0.147829 0.274227
v -0.145618 0.137182 0.280810
v 0.195936 0.166137 0.206951
v 0.180912 0.174596 0.202959
v 0.179502 0.164284 0.216681
v 0.387531 0.136184 0.023845
v 0.383772 0.127607 0.014279
v 0.388148 0.137571 0.006027
v 0.225688 0.165321 -0.311647
v 0.221889 0.175744 -0.319015
v 0.236031 0.173861 -0.307596
v -0.043602 0.191143 -0.374856
v -0.052309 0.201378 -0.375335
v -0.034496 0.200329 -0.379195
v -0.291171 0.195388 -0.183347
v -0.295879 0.204773 -0.174881
v -0.290601 0.205464 -0.191002
v -0.213578 0.166857 0.104930
v -0.213338 0.175589 0.116966
v -0.222033 0.177620 0.099471
v 0.014964 0.126105 0.399790
v 0.022319 0.134725 0.404368
v 0.007334 0.136240 0.401673
v 0.248160 0.119703 0.250175
v 0.259396 0.128715 0.246735
v 0.245967 0.128585 0.260879
v 0.356823 0.256892 0.029732
v 0.357462 0.258190 0.011910
v 0.348092 0.267857 0.021120
v 0.209716 0.292148 -0.274841
v 0.211559 0.300429 -0.260375
v 0.223879 0.290059 -0.263500
v -0.032638 0.314788 -0.323662
v -0.020782 0.322708 -0.314912
v -0.014835 0.313680 -0.327549
v -0.246989 0.317379 -0.145988
v -0.234304 0.326369 -0.149740
v -0.241581 0.318371 -0.162033
v -0.173561 0.291525 0.112026
v -0.167303 0.301733 0.099183
v -0.182250 0.293575 0.094531
v 0.035291 0.255736 0.364710
v 0.030019 0.266548 0.353764
v 0.020276 0.256961 0.362111
v 0.244613 0.250351 0.224921
v 0.230984 0.261031 0.224828
v 0.231168 0.250359 0.239039
v 0.274895 0.298293 0.032396
v 0.270324 0.289184 0.022908
v 0.273625 0.300326 0.015050
v 0.131700 0.305160 -0.186737
v 0.127046 0.315842 -0.195490
v 0.142046 0.315491 -0.183942
v -0.035955 0.300524 -0.243142
v -0.046163 0.309996 -0.245023
v -0.028756 0.311533 -0.247907
v -0.250068 0.265799 -0.078179
v -0.258264 0.274278 -0.070756
v -0.251595 0.276679 -0.086748
v -0.226394 0.244155 0.113259
v -0.227241 0.252600 0.125338
v -0.236048 0.253967 0.108897
v -0.004324 0.236004 0.305577
v 0.002144 0.245404 0.313413
v -0.015211 0.244817 0.308961
v 0.152496 0.250958 0.270980
v 0.162000 0.261667 0.270084
v 0.147987 0.259311 0.281238
v 0.241700 0.422143 0.048287
v 0.240436 0.424153 0.030938
v 0.231970 0.432279 0.041269
v 0.106625 0.438244 -0.160266
v 0.108111 0.446554 -0.146047
v 0.121633 0.437846 -0.148731
v -0.050920 0.432818 -0.204533
v -0.041450 0.442417 -0.196365
v -0.033513 0.434368 -0.207413
v -0.243200 0.400314 -0.045538
v -0.232664 0.411406 -0.049045
v -0.236530 0.402715 -0.061530
v -0.214392 0.380602 0.132684
v -0.211543 0.392097 0.121749
v -0.223193 0.382023 0.116246
v -0.005365 0.374278 0.303124
v -0.012995 0.384809 0.293698
v -0.022713 0.373566 0.298683
v 0.139684 0.389048 0.263069
v 0.126713 0.398131 0.262876
v 0.125658 0.386772 0.274219
v 0.196896 0.387466 0.097929
v 0.192834 0.377629 0.089842
v 0.197655 0.386608 0.080992
v 0.079011 0.377100 -0.105874
v 0.074314 0.386846 -0.114486
v 0.089401 0.386105 -0.105147
v -0.059232 0.387529 -0.114684
v -0.069223 0.398018 -0.117367
v -0.051063 0.396304 -0.122476
v -0.237606 0.407570 0.010074
v -0.244225 0.418088 0.015270
v -0.236281 0.416788 -0.000523
v -0.233108 0.413508 0.140147
v -0.231187 0.423663 0.149835
v -0.240104 0.423527 0.134417
v -0.067941 0.405605 0.244889
v -0.059282 0.415081 0.251717
v -0.077694 0.416319 0.247174
v 0.091492 0.392445 0.231643
v 0.102017 0.401337 0.230688
v 0.086185 0.403074 0.239632
v 0.179852 0.473871 0.091906
v 0.180619 0.472971 0.074973
v 0.171891 0.483804 0.082441
v 0.069170 0.473248 -0.100063
v 0.072686 0.483342 -0.088139
v 0.084256 0.472523 -0.090721
v -0.059781 0.483238 -0.102028
v -0.047610 0.492418 -0.095806
v -0.041612 0.481605 -0.107123
v -0.216315 0.501410 0.017737
v -0.203325 0.509913 0.013105
v -0.208429 0.499939 0.001939
v -0.203819 0.506172 0.138338
v -0.199421 0.515067 0.125995
v -0.212678 0.506211 0.122895
v -0.049014 0.498430 0.229368
v -0.055305 0.508171 0.217387
v -0.067428 0.499646 0.224831
v 0.095677 0.486178 0.209688
v 0.083702 0.496697 0.205839
v 0.079854 0.487794 0.218662
v 0.299440 0.059096 0.178815
v 0.269844 0.093441 0.149770
v 0.223968 0.113153 0.169917
v 0.207687 0.098521 0.219110
v 0.237283 0.064176 0.248155
v 0.283159 0.044464 0.228008
v 0.448525 0.286499 0.295797
v 0.418929 0.320844 0.266751
v 0.373053 0.340556 0.286899
v 0.356772 0.325923 0.336092
v 0.386368 0.291579 0.365137
v 0.432244 0.271866 0.344990
v 0.460626 0.394645 0.361437
v -0.261042 0.214139 -0.265207
v -0.227819 0.256656 -0.226216
v -0.166027 0.275373 -0.242444
v -0.137459 0.251572 -0.297664
v -0.170683 0.209055 -0.336656
v -0.232474 0.190338 -0.320427
v -0.339532 0.377144 -0.376072
v -0.306309 0.419661 -0.337081
v -0.244517 0.438377 -0.353309
v -0.215949 0.414576 -0.408529
v -0.249173 0.372059 -0.447521
v -0.310964 0.353343 -0.431292
v -0.308265 0.459251 -0.435415
v -0.001565 0.301843 -0.179589
v 0.034224 0.286312 -0.199119
v 0.030517 0.258443 -0.232480
v -0.008978 0.246105 -0.246312
v -0.044767 0.261636 -0.226783
v -0.041060 0.289505 -0.193422
v -0.005919 0.513002 -0.355501
v 0.029869 0.497471 -0.375030
v 0.026162 0.469602 -0.408392
v -0.013333 0.457264 -0.422224
v -0.049121 0.472795 -0.402695
v -0.045415 0.500664 -0.369334
v -0.011320 0.567250 -0.457273
v -0.107074 0.068187 0.342329
v -0.047486 0.099769 0.323905
v -0.046378 0.143023 0.268993
v -0.104858 0.154696 0.232504
v -0.164446 0.123113 0.250927
v -0.165553 0.079859 0.305840
v -0.169427 0.284489 0.511452
v -0.109839 0.316072 0.493029
v -0.108732 0.359326 0.438116
v -0.167212 0.370998 0.401628
v -0.226799 0.339416 0.420051
v -0.227907 0.296161 0.474964
v -0.192568 0.411861 0.522310
v -0.081035 0.148079 -0.165740
v -0.032429 0.141466 -0.192201
v -0.029169 0.107795 -0.236495
v -0.074514 0.080736 -0.254330
v -0.123120 0.087349 -0.227869
v -0.126381 0.121020 -0.183574
v -0.128649 0.312619 -0.294324
v -0.080043 0.306006 -0.320785
v -0.076783 0.272334 -0.365079
v -0.122128 0.245275 -0.382914
v -0.170734 0.251888 -0.356453
v -0.173994 0.285560 -0.312158
v -0.143905 0.342935 -0.388624
vn 0.1056 -0.9942 0.0223
vn -0.9075 0.1858 -0.3768
vn -0.9110 0.1902 0.3659
vn 0.3571 0.3538 0.8645
vn -0.1056 0.9942 -0.0223
vn 0.8178 0.3247 -0.4752
vn 0.0269 0.2897 -0.9567
vn 0.9600 -0.2725 -0.0637
vn 0.5462 -0.2934 -0.7846
vn -0.4783 -0.3424 -0.8086
vn -0.8823 -0.4705 0.0105
vn -0.3275 -0.2937 0.8980
vn 0.7107 -0.2848 0.6433
vn 0.6239 0.7783 -0.0704
vn 0.3066 0.7332 -0.6070
vn -0.4403 0.6672 -0.6008
vn -0.7640 0.6450 -0.0145
vn -0.3239 0.7362 0.5943
vn 0.4208 0.7852 0.4543
vn 0.9183 0.3883 -0.0768
vn 0.7524 -0.5455 -0.3691
vn 0.4766 0.3466 -0.8079
vn 0.4510 0.8351 -0.3150
vn 0.1125 -0.5981 -0.7934
vn -0.5282 0.2852 -0.7998
vn -0.0487 0.7942 -0.6056
vn -0.6724 -0.6779 -0.2973
vn -0.9793 0.2025 -0.0059
vn -0.6310 0.7349 -0.2485
vn -0.6699 -0.6686 0.3228
vn -0.3808 0.3739 0.8457
vn -0.6361 0.7411 0.2150
vn 0.3896 -0.5392 0.7466
vn 0.6539 0.3967 0.6442
vn 0.1563 0.8377 0.5234
vn 0.8072 -0.5093 0.2984
vn 0.4708 0.8604 0.1950
vn 0.8601 0.3848 0.3348
vn 0.0714 -0.9958 -0.0573
vn -0.6346 0.3782 -0.6740
vn -0.9336 0.2468 0.2597
vn -0.7326 0.2331 0.6395
vn 0.1845 0.3073 0.9335
vn -0.0714 0.9958 0.0573
vn 0.7712 0.4261 -0.4730
vn 0.2482 0.4201 -0.8729
vn 0.9902 -0.1240 0.0641
vn 0.5967 -0.2594 -0.7594
vn -0.1778 -0.1962 -0.9643
vn -0.9176 -0.2776 -0.2846
vn -0.7567 -0.5208 0.3951
vn -0.2831 -0.3328 0.8995
vn 0.4960 -0.3736 0.7838
vn 0.5980 0.7960 0.0934
vn 0.3448 0.8112 -0.4723
vn -0.1856 0.7784 -0.5997
vn -0.6895 0.7102 -0.1421
vn -0.6183 0.7064 0.3445
vn -0.2635 0.6828 0.6814
vn 0.2677 0.7569 0.5962
vn 0.8658 0.4906 0.0984
vn 0.7346 -0.4966 -0.4623
vn 0.5398 0.4481 -0.7126
vn 0.4271 0.8679 -0.2537
vn 0.2804 -0.5051 -0.8162
vn -0.2167 0.4477 -0.8675
vn 0.1075 0.8615 -0.4962
vn -0.5071 -0.5561 -0.6585
vn -0.9022 0.3596 -0.2383
vn -0.4244 0.8261 -0.3707
vn -0.7433 -0.6458 0.1745
vn -0.8530 0.2457 0.4604
vn -0.6168 0.7627 0.1946
vn -0.5674 -0.6545 0.4997
vn -0.3129 0.3086 0.8982
vn -0.4946 0.7560 0.4287
vn 0.2239 -0.6022 0.7664
vn 0.4441 0.3631 0.8191
vn 0.0689 0.7941 0.6038
vn 0.6604 -0.5435 0.5182
vn 0.3587 0.8345 0.4182
vn 0.6665 0.3885 0.6363
vn -0.0771 -0.9940 -0.0776
vn -0.5497 0.4234 -0.7201
vn -0.9056 0.3224 0.2757
vn -0.7397 0.2799 0.6120
vn 0.5319 0.2117 0.8199
vn 0.0771 0.9940 0.0776
vn 0.8833 0.2442 -0.4002
vn 0.2458 0.3663 -0.8975
vn 0.9157 -0.4018 0.0004
vn 0.5667 -0.3277 -0.7559
vn -0.2190 -0.2307 -0.9481
vn -0.9316 -0.1850 -0.3129
vn -0.8145 -0.4618 0.3512
vn -0.1990 -0.3218 0.9256
vn 0.6116 -0.5428 0.5757
vn 0.7507 0.6564 0.0747
vn 0.4909 0.7276 -0.4791
vn -0.0827 0.7921 -0.6048
vn -0.6013 0.7840 -0.1542
vn -0.5305 0.7703 0.3537
vn -0.0676 0.6934 0.7174
vn 0.5303 0.6812 0.5047
vn 0.9684 0.2438 0.0525
vn 0.6717 -0.6247 -0.3981
vn 0.6186 0.3345 -0.7109
vn 0.6003 0.7740 -0.2016
vn 0.1439 -0.5357 -0.8321
vn -0.1665 0.4326 -0.8861
vn 0.1992 0.8393 -0.5058
vn -0.5385 -0.4902 -0.6853
vn -0.8588 0.4401 -0.2622
vn -0.2906 0.8715 -0.3950
vn -0.8144 -0.5566 0.1641
vn -0.8377 0.3067 0.4519
vn -0.5194 0.8253 0.2215
vn -0.6754 -0.5905 0.4418
vn -0.1360 0.3217 0.9370
vn -0.4160 0.7997 0.4329
vn 0.3886 -0.6684 0.6342
vn 0.7085 0.2071 0.6746
vn 0.3755 0.7434 0.5534
vn 0.6489 -0.6753 0.3504
vn 0.5750 0.7370 0.3553
vn 0.8481 0.1917 0.4940
vn 0.0679 -0.9904 -0.1204
vn -0.6173 0.2246 -0.7540
vn -0.9870 0.0915 0.1324
vn -0.6540 0.0223 0.7561
vn 0.2064 0.0898 0.9743
vn -0.0679 0.9904 0.1204
vn 0.8098 0.2830 -0.5139
vn 0.2955 0.3094 -0.9038
vn 0.9294 -0.3525 -0.1093
vn 0.5631 -0.3631 -0.7424
vn -0.1269 -0.3230 -0.9379
vn -0.8086 -0.4299 -0.4017
vn -0.7409 -0.5737 0.3492
vn -0.1904 -0.5480 0.8145
vn 0.5957 -0.4744 0.6482
vn 0.7107 0.7028 0.0297
vn 0.3996 0.7726 -0.4933
vn -0.1741 0.7321 -0.6585
vn -0.7411 0.6365 -0.2135
vn -0.6986 0.5764 0.4239
vn -0.2279 0.5525 0.8017
vn 0.4242 0.6198 0.6602
vn 0.9639 0.2634 -0.0397
vn 0.6786 -0.5469 -0.4904
vn 0.5840 0.3130 -0.7490
vn 0.4864 0.8348 -0.2580
vn 0.2834 -0.5310 -0.7986
vn -0.1817 0.3015 -0.9360
vn 0.1483 0.8470 -0.5105
vn -0.4274 -0.5957 -0.6801
vn -0.9171 0.1807 -0.3553
vn -0.4472 0.7931 -0.4135
vn -0.7149 -0.6992 0.0094
vn -0.8777 0.0608 0.4753
vn -0.6885 0.7062 0.1650
vn -0.4515 -0.7458 0.4898
vn -0.2499 0.0626 0.9662
vn -0.4745 0.6656 0.5761
vn 0.2158 -0.7085 0.6719
vn 0.6005 0.1485 0.7857
vn 0.0897 0.6995 0.7089
vn 0.7343 -0.6305 0.2516
vn 0.5294 0.7638 0.3692
vn 0.8779 0.1783 0.4444
vn -0.0782 -0.9958 0.0482
vn -0.5451 0.2066 -0.8125
vn -0.9482 0.3171 0.0183
vn -0.5043 0.2811 0.8165
vn 0.1004 0.2461 0.9640
vn 0.0782 0.9958 -0.0482
vn 0.8565 0.1342 -0.4985
vn 0.0753 0.1685 -0.9828
vn 0.9035 -0.4240 0.0620
vn 0.4513 -0.4588 -0.7654
vn -0.2794 -0.4789 -0.8322
vn -0.8517 -0.3380 -0.4005
vn -0.8242 -0.3014 0.4793
vn -0.2444 -0.4099 0.8788
vn 0.4158 -0.4046 0.8145
vn 0.7793 0.6266 0.0020
vn 0.4343 0.6203 -0.6532
vn -0.1416 0.6772 -0.7220
vn -0.5975 0.7141 -0.3648
vn -0.5764 0.7464 0.3325
vn -0.1143 0.7406 0.6621
vn 0.4104 0.6867 0.6000
vn 0.9801 0.1957 0.0340
vn 0.6250 -0.6919 -0.3616
vn 0.5247 0.1705 -0.8341
vn 0.5972 0.7220 -0.3493
vn -0.0023 -0.6628 -0.7488
vn -0.2481 0.1982 -0.9483
vn 0.0983 0.7451 -0.6597
vn -0.4934 -0.6248 -0.6051
vn -0.8434 0.2958 -0.4486
vn -0.3011 0.7754 -0.5550
vn -0.8329 -0.5508 0.0539
vn -0.8165 0.3362 0.4693
vn -0.5523 0.8334 -0.0189
vn -0.4608 -0.5654 0.6840
vn -0.2126 0.2774 0.9369
vn -0.2749 0.8238 0.4957
vn 0.0176 -0.5951 0.8035
vn 0.4972 0.2433 0.8328
vn 0.1150 0.7995 0.5896
vn 0.5887 -0.6443 0.4881
vn 0.5637 0.7600 0.3234
vn 0.8071 0.1980 0.5562
vn 0.6665 -0.0545 -0.7435
vn 0.8068 0.2379 -0.5408
vn -0.1428 0.5252 -0.8389
vn 0.0568 0.7752 -0.6292
vn -0.8093 0.5796 -0.0954
vn -0.5610 0.8257 0.0599
vn -0.6665 0.0545 0.7435
vn -0.4287 0.3389 0.8375
vn 0.1428 -0.5252 0.8389
vn 0.3214 -0.1983 0.9259
vn 0.8093 -0.5796 0.0954
vn 0.9392 -0.2488 0.2368
vn -0.5036 -0.7682 -0.3952
vn -0.7836 0.0441 0.6196
vn -0.8542 0.4761 0.2087
vn 0.0404 0.5751 0.8171
vn -0.1788 0.9115 0.3705
vn 0.8240 0.5311 0.1974
vn 0.4636 0.8753 -0.1374
vn 0.7836 -0.0441 -0.6196
vn 0.4305 0.4038 -0.8072
vn -0.0404 -0.5751 -0.8171
vn -0.2450 -0.0315 -0.9690
vn -0.8240 -0.5311 -0.1974
vn -0.8873 0.0047 -0.4611
vn 0.3699 -0.7682 0.5225
vn 0.5717 0.5321 0.6245
vn 0.5337 0.7577 0.3756
vn 0.9963 -0.0423 -0.0754
vn 0.9340 0.2162 -0.2844
vn 0.4246 -0.5743 -0.6999
vn 0.3950 -0.2855 -0.8732
vn -0.5717 -0.5321 -0.6245
vn -0.5443 -0.2456 -0.8021
vn -0.9963 0.0423 0.0754
vn -0.9446 0.2959 -0.1422
vn -0.4246 0.5743 0.6999
vn -0.4056 0.7975 0.4466
vn 0.0158 -0.7682 0.6400
vn 0.4738 -0.4536 0.7548
vn 0.3075 -0.0252 0.9512
vn 0.9750 0.1644 0.1492
vn 0.7461 0.5156 0.4212
vn 0.5012 0.6180 -0.6056
vn 0.3315 0.9126 -0.2394
vn -0.4738 0.4536 -0.7548
vn -0.5218 0.7687 -0.3699
vn -0.9750 -0.1644 -0.1492
vn -0.9604 0.2278 0.1601
vn -0.5012 -0.6180 0.6056
vn -0.5458 -0.1691 0.8207
vn 0.2215 -0.7682 -0.6007
vn 0.4359 0.6291 0.6436
vn 0.2657 0.9295 0.2558
vn 0.9732 0.2118 -0.0894
vn 0.7306 0.5684 -0.3783
vn 0.5373 -0.4173 -0.7329
vn 0.3534 0.0241 -0.9352
vn -0.4359 -0.6291 -0.6436
vn -0.4886 -0.1591 -0.8578
vn -0.9732 -0.2118 0.0894
vn -0.9535 0.2019 -0.2237
vn -0.5373 0.4173 0.7329
vn -0.5763 0.7462 0.3331
vn 0.2223 -0.7682 0.6003
vn 0.1125 -0.5982 -0.7934
vn -0.0487 0.7942 -0.6057
vn 0.2482 0.4202 -0.8729
vn 0.7346 -0.4967 -0.4623
vn -0.4244 0.8261 -0.3708
vn 0.2239 -0.6021 0.7664
vn 0.6186 0.3345 -0.7110
vn 0.5751 0.7369 0.3553
vn 0.0897 0.6996 0.7089
vn -0.8329 -0.5508 0.0540
vt 0.007632 0.197261
vt 0.081490 0.006387
vt 0.164038 0.153945
vt 0.837270 0.355701
vt 0.810066 0.268922
vt 0.838877 0.262868
vt 0.776584 0.502952
vt 0.746457 0.608278
vt 0.747849 0.506621
vt 0.512471 0.103559
vt 0.539271 0.206351
vt 0.511803 0.214306
vt 0.205629 0.137586
vt 0.228486 0.010228
vt 0.339725 0.107993
vt 0.286762 0.749953
vt 0.387354 0.778326
vt 0.291532 0.778326
vt 0.468214 0.649642
vt 0.509763 0.579646
vt 0.491179 0.647614
vt 0.283370 0.750217
vt 0.285304 0.748285
vt 0.394801 0.748285
vt 0.396598 0.750232
vt 0.393393 0.749953
vt 0.486955 0.572175
vt 0.488995 0.570623
vt 0.488926 0.573892
vt 0.838877 0.357173
vt 0.836912 0.359222
vt 0.776584 0.617437
vt 0.774517 0.618776
vt 0.775036 0.616024
vt 0.510496 0.102131
vt 0.512468 0.100054
vt 0.288147 0.778633
vt 0.290760 0.780737
vt 0.390544 0.778677
vt 0.387894 0.780737
vt 0.807631 0.268739
vt 0.809714 0.266173
vt 0.808279 0.355801
vt 0.806168 0.353265
vt 0.808622 0.352278
vt 0.342611 0.007541
vt 0.339725 0.008176
vt 0.340500 0.005455
vt 0.341171 0.110415
vt 0.342611 0.106915
vt 0.465697 0.649922
vt 0.838549 0.260115
vt 0.171363 0.071575
vt 0.203207 0.138047
vt 0.169389 0.072899
vt 0.468297 0.511124
vt 0.226175 0.009031
vt 0.009871 0.072411
vt 0.011499 0.071153
vt 0.745916 0.611023
vt 0.229606 0.007500
vt 0.509815 0.214910
vt 0.539871 0.106837
vt 0.509815 0.058781
vt 0.301544 0.146325
vt 0.304306 0.147426
vt 0.511817 0.058643
vt 0.539855 0.103330
vt 0.270699 0.308789
vt 0.133400 0.275626
vt 0.201622 0.157258
vt 0.176942 0.947484
vt 0.151418 0.887880
vt 0.178573 0.881379
vt 0.194461 0.683383
vt 0.141971 0.714291
vt 0.133057 0.687822
vt 0.198246 0.683376
vt 0.257344 0.713641
vt 0.199386 0.710398
vt 0.356051 0.687511
vt 0.422203 0.660053
vt 0.428879 0.686102
vt 0.111945 0.428651
vt 0.170616 0.530516
vt 0.052540 0.558663
vt 0.474646 0.291283
vt 0.506126 0.377218
vt 0.479769 0.386558
vt 0.474680 0.287696
vt 0.506648 0.240209
vt 0.501690 0.290269
vt 0.480238 0.389330
vt 0.478179 0.387901
vt 0.472905 0.289828
vt 0.675698 0.536628
vt 0.673818 0.538386
vt 0.673783 0.534741
vt 0.178573 0.949233
vt 0.176519 0.951004
vt 0.196769 0.681757
vt 0.266235 0.685645
vt 0.267859 0.687704
vt 0.264639 0.687091
vt 0.354074 0.689374
vt 0.352151 0.687531
vt 0.025719 0.441992
vt 0.028079 0.439566
vt 0.028578 0.442146
vt 0.503953 0.292786
vt 0.501643 0.293855
vt 0.173382 0.465754
vt 0.170616 0.465040
vt 0.171606 0.462574
vt 0.149662 0.949131
vt 0.147660 0.947077
vt 0.149993 0.945604
vt 0.111219 0.561674
vt 0.112673 0.558860
vt 0.115106 0.560781
vt 0.049821 0.559644
vt 0.052893 0.561483
vt 0.018371 0.498742
vt 0.021056 0.500234
vt 0.019081 0.502594
vt 0.506648 0.379972
vt 0.110447 0.426232
vt 0.690949 0.468217
vt 0.693527 0.467535
vt 0.656563 0.538137
vt 0.114232 0.426989
vt 0.693527 0.604241
vt 0.173382 0.530186
vt 0.198605 0.309388
vt 0.134022 0.277585
vt 0.195602 0.710414
vt 0.260554 0.714291
vt 0.429821 0.687909
vt 0.354690 0.661256
vt 0.291868 0.687941
vt 0.302477 0.660053
vt 0.676916 0.378848
vt 0.653383 0.511702
vt 0.553938 0.467939
vt 0.751691 0.377910
vt 0.776584 0.324423
vt 0.775885 0.370848
vt 0.729136 0.521454
vt 0.702167 0.478721
vt 0.726796 0.471205
vt 0.729164 0.525243
vt 0.702601 0.590941
vt 0.704249 0.526563
vt 0.790736 0.548016
vt 0.816903 0.595821
vt 0.791962 0.601661
vt 0.524813 0.670350
vt 0.555118 0.757742
vt 0.438841 0.768535
vt 0.162700 0.350567
vt 0.231326 0.370024
vt 0.168943 0.375250
vt 0.237279 0.344755
vt 0.268919 0.377910
vt 0.234861 0.370208
vt 0.159692 0.351301
vt 0.161449 0.349210
vt 0.235275 0.343025
vt 0.233739 0.344616
vt 0.614768 0.767445
vt 0.612975 0.765420
vt 0.616704 0.765472
vt 0.750564 0.323360
vt 0.752553 0.321501
vt 0.752489 0.324964
vt 0.730903 0.523790
vt 0.790268 0.602671
vt 0.792359 0.604241
vt 0.788990 0.546736
vt 0.790804 0.544340
vt 0.165939 0.376003
vt 0.168708 0.377910
vt 0.232469 0.372569
vt 0.562712 0.704877
vt 0.559986 0.703549
vt 0.561410 0.701446
vt 0.555775 0.760589
vt 0.557949 0.757907
vt 0.503064 0.776584
vt 0.504690 0.773821
vt 0.507050 0.776125
vt 0.436267 0.769141
vt 0.438378 0.771392
vt 0.815869 0.545160
vt 0.818113 0.547689
vt 0.815829 0.548838
vt 0.569192 0.395311
vt 0.552703 0.466026
vt 0.567381 0.396140
vt 0.666533 0.780737
vt 0.665989 0.778127
vt 0.614228 0.749282
vt 0.527417 0.669361
vt 0.557708 0.780737
vt 0.752699 0.274808
vt 0.704217 0.522774
vt 0.728959 0.599695
vt 0.702167 0.593514
vt 0.727287 0.598535
vt 0.726912 0.601126
vt 0.436267 0.722270
vt 0.438841 0.720447
vt 0.618261 0.373175
vt 0.620576 0.373985
vt 0.461053 0.678281
vt 0.437215 0.718451
vt 0.458497 0.678048
vt 0.818113 0.508091
vt 0.829651 0.754317
vt 0.821193 0.847183
vt 0.745643 0.817111
vt 0.896987 0.216555
vt 0.872951 0.262619
vt 0.870867 0.220722
vt 0.896840 0.299006
vt 0.872907 0.266194
vt 0.899249 0.266501
vt 0.392933 0.947399
vt 0.417608 0.892596
vt 0.418873 0.944387
vt 0.920704 0.344687
vt 0.944669 0.313932
vt 0.946851 0.340837
vt 0.132740 0.793392
vt 0.200348 0.766553
vt 0.208204 0.849558
vt 0.901289 0.861625
vt 0.927898 0.907634
vt 0.901652 0.910442
vt 0.901438 0.858021
vt 0.930240 0.836963
vt 0.927729 0.859954
vt 0.901925 0.913628
vt 0.899910 0.911645
vt 0.899527 0.860214
vt 0.894593 0.120994
vt 0.892280 0.122694
vt 0.892495 0.119090
vt 0.901170 0.264745
vt 0.899293 0.262926
vt 0.391534 0.948957
vt 0.393412 0.951004
vt 0.242942 0.921934
vt 0.241147 0.921248
vt 0.242942 0.918995
vt 0.916375 0.313348
vt 0.918198 0.311162
vt 0.918275 0.314739
vt 0.928175 0.910820
vt 0.930240 0.908400
vt 0.929898 0.862447
vt 0.927570 0.863557
vt 0.151434 0.764121
vt 0.150623 0.766553
vt 0.148243 0.765828
vt 0.870737 0.264390
vt 0.421515 0.945476
vt 0.419363 0.947991
vt 0.418018 0.889380
vt 0.420205 0.891828
vt 0.944576 0.310356
vt 0.946851 0.312417
vt 0.902466 0.091070
vt 0.905323 0.090843
vt 0.873091 0.119382
vt 0.131487 0.790977
vt 0.905323 0.172344
vt 0.199702 0.764121
vt 0.842389 0.815155
vt 0.823381 0.847041
vt 0.220101 0.794609
vt 0.218598 0.796881
vt 0.843030 0.811391
vt 0.841448 0.813206
vt 0.391534 0.890108
vt 0.391918 0.886890
vt 0.801822 0.739282
vt 0.829514 0.752277
vt 0.183543 0.863794
vt 0.181622 0.862012
vt 0.749555 0.765833
vt 0.798147 0.739340
vt 0.799875 0.740344
vt 0.136416 0.839232
vt 0.179853 0.863739
vt 0.136039 0.841660
vt 0.920235 0.269561
vt 0.909630 0.073865
vt 0.850431 0.074913
vt 0.868100 0.008522
vt 0.851336 0.902218
vt 0.832095 0.935281
vt 0.833715 0.904375
vt 0.847208 0.962892
vt 0.831814 0.938876
vt 0.849270 0.940551
vt 0.106091 0.984992
vt 0.088541 0.950762
vt 0.106091 0.948467
vt 0.544151 0.898397
vt 0.526700 0.925530
vt 0.526700 0.900411
vt 0.615084 0.884539
vt 0.626148 0.942303
vt 0.574881 0.937080
vt 0.487108 0.943565
vt 0.505975 0.984266
vt 0.488392 0.987558
vt 0.498515 0.894432
vt 0.509034 0.917382
vt 0.494294 0.919279
vt 0.489128 0.990456
vt 0.487108 0.988664
vt 0.491680 0.919911
vt 0.493129 0.921934
vt 0.496334 0.892515
vt 0.498643 0.890583
vt 0.851336 0.939073
vt 0.849515 0.936953
vt 0.107974 0.946852
vt 0.105991 0.944985
vt 0.107974 0.986156
vt 0.106007 0.988380
vt 0.546101 0.928608
vt 0.544116 0.930465
vt 0.544151 0.926752
vt 0.506720 0.987163
vt 0.508725 0.984617
vt 0.505334 0.941892
vt 0.507549 0.944302
vt 0.504832 0.945105
vt 0.631234 0.906334
vt 0.628986 0.904556
vt 0.630231 0.902686
vt 0.829894 0.937016
vt 0.604131 0.955157
vt 0.605949 0.952872
vt 0.607764 0.955147
vt 0.572010 0.937482
vt 0.574728 0.940211
vt 0.526640 0.929242
vt 0.524626 0.927104
vt 0.914210 0.012259
vt 0.869398 0.006798
vt 0.913252 0.010353
vt 0.487613 0.940352
vt 0.512763 0.895428
vt 0.491680 0.851727
vt 0.628525 0.942368
vt 0.088404 0.947285
vt 0.088453 0.986605
vt 0.546101 0.897530
vt 0.562394 0.911917
vt 0.560434 0.914154
vt 0.545279 0.959310
vt 0.574822 0.884392
vt 0.560356 0.910525
vt 0.572218 0.884253
vt 0.525957 0.954743
vt 0.915126 0.502496
vt 0.920678 0.447208
vt 0.926087 0.501572
vt 0.909717 0.448131
vt 0.913023 0.422422
vt 0.007244 0.049834
vt 0.016611 0.006976
vt 0.016611 0.045370
vt 0.840953 0.874409
vt 0.836078 0.882661
vt 0.825327 0.861743
vt 0.967040 0.674839
vt 0.977998 0.623388
vt 0.977998 0.674285
vt 0.825327 0.884558
vt 0.366940 0.876194
vt 0.377910 0.815888
vt 0.377910 0.876253
vt 0.366940 0.815829
vt 0.373183 0.791742
vt 0.589706 0.755820
vt 0.578702 0.707110
vt 0.589706 0.707230
vt 0.584378 0.682596
vt 0.978736 0.338170
vt 0.969947 0.379986
vt 0.968610 0.341640
vt 0.926087 0.442640
vt 0.959821 0.336643
vt 0.971285 0.324706
vt 0.943870 0.959287
vt 0.957234 0.915943
vt 0.957234 0.959310
vt 0.943870 0.915920
vt 0.948335 0.899168
vt 0.595935 0.193108
vt 0.582607 0.156615
vt 0.595935 0.158247
vt 0.919858 0.550254
vt 0.906983 0.546398
vt 0.919858 0.529309
vt 0.307639 0.959310
vt 0.317694 0.915073
vt 0.317694 0.957989
vt 0.901860 0.535762
vt 0.294672 0.958716
vt 0.307639 0.916394
vt 0.294672 0.915799
vt 0.304726 0.897789
vt 0.955157 0.068315
vt 0.941591 0.026004
vt 0.955157 0.025797
vt 0.947465 0.007050
vt 0.564789 0.202178
vt 0.551356 0.168918
vt 0.564789 0.167605
vt 0.556190 0.147793
vt 0.772292 0.279726
vt 0.786966 0.291442
vt 0.770651 0.303159
vt 0.973291 0.813960
vt 0.982151 0.766843
vt 0.982151 0.813392
vt 0.124254 0.970906
vt 0.119216 0.964968
vt 0.132891 0.950658
vt 0.005722 0.589706
vt 0.014535 0.540269
vt 0.014535 0.589029
vt 0.005722 0.540946
vt 0.008948 0.517855
vt 0.930240 0.254170
vt 0.923001 0.200811
vt 0.930240 0.199580
vt 0.922111 0.177485
vt 0.923001 0.255401
vt 0.914872 0.199945
vt 0.199183 0.534821
vt 0.207643 0.482466
vt 0.207643 0.535718
vt 0.199183 0.481568
vt 0.205853 0.458973
vt 0.971768 0.752692
vt 0.963433 0.700747
vt 0.971768 0.699696
vt 0.132891 0.971768
vt 0.562959 0.969692
vt 0.556978 0.955486
vt 0.568941 0.958201
vt 0.642510 0.933146
vt 0.664457 0.884907
vt 0.656641 0.934393
vt 0.650327 0.883661
vt 0.659680 0.858815
vt 0.984227 0.307311
vt 0.972556 0.249718
vt 0.984227 0.251989
vt 0.642510 0.876813
vt 0.959581 0.306689
vt 0.972556 0.305040
vt 0.703307 0.946697
vt 0.715198 0.954176
vt 0.695565 0.967616
vt 0.718444 0.933870
vt 0.707623 0.876934
vt 0.718444 0.876411
vt 0.716368 0.967616
vt 0.694131 0.934129
vt 0.707623 0.934393
vt 0.694131 0.876670
vt 0.704952 0.853802
vt 0.256292 0.939709
vt 0.269936 0.901812
vt 0.269936 0.942698
vt 0.256292 0.898823
vt 0.266793 0.876102
vt 0.663273 0.019047
vt 0.682698 0.006948
vt 0.679885 0.031146
vt 0.312602 0.602164
vt 0.323923 0.566596
vt 0.323923 0.601396
vt 0.764759 0.967408
vt 0.754003 0.969692
vt 0.754003 0.950454
vt 0.940682 0.642662
vt 0.959310 0.602725
vt 0.951583 0.643693
vt 0.948409 0.601694
vt 0.954588 0.582917
vt 0.697680 0.243222
vt 0.689121 0.202509
vt 0.697680 0.200713
vt 0.940682 0.597818
vt 0.689121 0.245019
vt 0.678331 0.201637
vt 0.686889 0.183309
vt 0.711455 0.459792
vt 0.722597 0.422940
vt 0.722597 0.460967
vt 0.711455 0.421765
vt 0.719079 0.402784
vt 0.730234 0.990456
vt 0.741285 0.946820
vt 0.741285 0.990001
vt 0.770355 0.958835
vt 0.879983 0.788543
vt 0.887462 0.770676
vt 0.894941 0.786588
vt 0.120243 0.197261
vt 0.155525 0.045269
vt 0.465697 0.511065
vt 0.169842 0.069529
vt 0.006070 0.196389
vt 0.539272 0.066247
vt 0.298554 0.173254
vt 0.307311 0.240934
vt 0.200771 0.308802
vt 0.133400 0.199373
vt 0.358586 0.661284
vt 0.480355 0.230401
vt 0.656564 0.534493
vt 0.691080 0.603852
vt 0.171497 0.533195
vt 0.292302 0.686152
vt 0.676916 0.455239
vt 0.589485 0.511840
vt 0.276165 0.353549
vt 0.617957 0.749343
vt 0.558053 0.778215
vt 0.776584 0.320962
vt 0.750718 0.274297
vt 0.569709 0.393326
vt 0.793366 0.502009
vt 0.765723 0.847183
vt 0.870737 0.295466
vt 0.904230 0.832461
vt 0.872879 0.122986
vt 0.902575 0.171961
vt 0.202814 0.765881
vt 0.831767 0.755165
vt 0.208472 0.852115
vt 0.749933 0.763762
vt 0.946416 0.272764
vt 0.926087 0.045683
vt 0.872742 0.089286
vt 0.850431 0.030599
vt 0.829994 0.958594
vt 0.088541 0.983218
vt 0.512878 0.891578
vt 0.617428 0.884253
vt 0.494285 0.852383
vt 0.849084 0.963463
vt 0.626580 0.945301
vt 0.543346 0.959209
vt 0.007244 0.011440
vt 0.967040 0.623942
vt 0.578702 0.755700
vt 0.980074 0.376517
vt 0.961159 0.328176
vt 0.980074 0.329703
vt 0.582607 0.191476
vt 0.941591 0.068522
vt 0.551356 0.203490
vt 0.766307 0.291442
vt 0.782622 0.279726
vt 0.780981 0.303159
vt 0.973291 0.767411
vt 0.914872 0.254535
vt 0.963433 0.753743
vt 0.568941 0.966767
vt 0.556977 0.964051
vt 0.562959 0.952561
vt 0.959581 0.251367
vt 0.667873 0.031146
vt 0.670686 0.006948
vt 0.687298 0.019047
vt 0.312602 0.567364
vt 0.678331 0.244146
vt 0.730234 0.947275
vt 0.887462 0.793196
vt 0.879983 0.777284
vt 0.894941 0.775329
s 0
f 13/1/1 7/2/1 2/3/1
f 12/4/2 25/5/2 8/6/2
f 11/7/3 33/8/3 28/9/3
f 18/10/4 31/11/4 14/12/4
f 23/13/5 29/14/5 35/15/5
f 3/16/6 24/17/6 20/18/6
f 5/19/7 27/20/7 22/21/7
f 1/22/8 2/23/8 3/16/8
f 4/24/9 5/25/9 6/26/9
f 7/27/10 8/28/10 9/29/10
f 10/30/11 11/31/11 12/4/11
f 13/32/12 14/33/12 15/34/12
f 16/35/13 17/36/13 18/10/13
f 19/37/14 20/18/14 21/38/14
f 22/39/15 23/40/15 24/17/15
f 25/5/16 26/41/16 27/42/16
f 28/43/17 29/44/17 30/45/17
f 31/46/18 32/47/18 33/48/18
f 34/49/19 35/15/19 36/50/19
f 19/37/20 3/16/20 20/18/20
f 4/24/21 3/16/21 2/23/21
f 22/39/22 6/26/22 5/25/22
f 23/40/23 20/18/23 24/17/23
f 7/27/24 5/19/24 4/51/24
f 8/6/25 27/42/25 9/52/25
f 26/53/26 22/54/26 27/55/26
f 7/27/27 12/56/27 8/28/27
f 11/31/28 30/45/28 12/4/28
f 26/53/29 30/57/29 29/14/29
f 13/1/30 11/58/30 10/59/30
f 31/60/31 15/34/31 14/33/31
f 32/47/32 28/61/32 33/48/32
f 13/62/33 18/10/33 14/12/33
f 17/36/34 36/63/34 18/10/34
f 32/47/35 36/50/35 35/15/35
f 2/64/36 17/36/36 16/35/36
f 21/65/37 34/49/37 19/66/37
f 1/67/38 34/68/38 17/36/38
f 52/69/39 46/70/39 40/71/39
f 48/72/40 64/73/40 44/74/40
f 51/75/41 67/76/41 47/77/41
f 50/78/42 75/79/42 70/80/42
f 57/81/43 73/82/43 53/83/43
f 62/84/44 68/85/44 74/86/44
f 42/87/45 59/88/45 39/89/45
f 41/90/46 66/91/46 61/92/46
f 37/93/47 38/94/47 39/89/47
f 40/95/48 41/90/48 42/87/48
f 43/96/49 44/97/49 45/98/49
f 46/99/50 47/100/50 48/72/50
f 49/101/51 50/78/51 51/75/51
f 52/102/52 53/103/52 54/104/52
f 55/105/53 56/106/53 57/81/53
f 58/107/54 59/108/54 60/109/54
f 61/92/55 62/110/55 63/111/55
f 64/112/56 65/113/56 66/114/56
f 67/115/57 68/116/57 69/117/57
f 70/118/58 71/119/58 72/120/58
f 73/121/59 74/86/59 75/122/59
f 76/123/60 77/124/60 78/125/60
f 58/126/61 39/89/61 59/88/61
f 38/94/62 42/87/62 39/89/62
f 61/92/63 42/87/63 41/90/63
f 60/109/64 63/127/64 62/84/64
f 43/96/65 41/128/65 40/129/65
f 64/130/66 45/98/66 44/97/66
f 65/113/67 61/131/67 66/114/67
f 46/132/68 44/97/68 43/96/68
f 47/100/69 69/117/69 48/72/69
f 68/85/70 64/112/70 69/133/70
f 46/70/71 51/134/71 47/135/71
f 50/78/72 72/136/72 51/75/72
f 68/85/73 72/120/73 71/119/73
f 52/102/74 50/78/74 49/101/74
f 73/137/75 54/104/75 53/103/75
f 74/86/76 70/118/76 75/122/76
f 52/138/77 57/81/77 53/83/77
f 76/139/78 57/81/78 56/106/78
f 74/86/79 78/125/79 77/124/79
f 38/140/80 56/106/80 55/105/80
f 60/109/81 76/123/81 58/107/81
f 56/106/82 58/141/82 76/139/82
f 94/142/83 88/143/83 82/144/83
f 86/145/84 111/146/84 106/147/84
f 93/148/85 109/149/85 89/150/85
f 92/151/86 117/152/86 112/153/86
f 99/154/87 115/155/87 95/156/87
f 104/157/88 110/158/88 116/159/88
f 81/160/89 105/161/89 101/162/89
f 83/163/90 108/164/90 103/165/90
f 79/166/91 80/167/91 81/160/91
f 82/168/92 83/163/92 84/169/92
f 85/170/93 86/171/93 87/172/93
f 88/173/94 89/174/94 90/175/94
f 91/176/95 92/151/95 93/148/95
f 94/177/96 95/156/96 96/178/96
f 97/179/97 98/180/97 99/154/97
f 100/181/98 101/162/98 102/182/98
f 103/165/99 104/183/99 105/161/99
f 106/184/100 107/185/100 108/186/100
f 109/187/101 110/158/101 111/188/101
f 112/189/102 113/190/102 114/191/102
f 115/192/103 116/159/103 117/193/103
f 118/194/104 119/195/104 120/196/104
f 100/181/105 81/160/105 101/162/105
f 80/197/106 84/198/106 81/199/106
f 103/165/107 84/169/107 83/163/107
f 102/182/108 105/161/108 104/183/108
f 82/200/109 87/172/109 83/201/109
f 106/202/110 87/172/110 86/171/110
f 107/185/111 103/203/111 108/186/111
f 88/204/112 86/171/112 85/170/112
f 89/174/113 111/146/113 90/175/113
f 110/158/114 106/184/114 111/188/114
f 88/173/115 93/205/115 89/174/115
f 92/151/116 114/206/116 93/148/116
f 110/158/117 114/191/117 113/190/117
f 94/207/118 92/151/118 91/176/118
f 115/208/119 96/209/119 95/210/119
f 116/159/120 112/189/120 117/193/120
f 94/177/121 99/154/121 95/156/121
f 98/180/122 120/196/122 99/154/122
f 116/159/123 120/211/123 119/212/123
f 80/197/124 98/213/124 97/214/124
f 102/215/125 118/216/125 100/217/125
f 98/180/126 100/218/126 118/194/126
f 136/219/127 130/220/127 124/221/127
f 128/222/128 153/223/128 148/224/128
f 135/225/129 151/226/129 131/227/129
f 134/228/130 159/229/130 154/230/130
f 137/231/131 162/232/131 157/233/131
f 146/234/132 152/235/132 158/236/132
f 126/237/133 143/238/133 123/239/133
f 125/240/134 150/241/134 145/242/134
f 121/243/135 122/244/135 123/239/135
f 124/245/136 125/240/136 126/237/136
f 127/246/137 128/247/137 129/248/137
f 130/249/138 131/227/138 132/250/138
f 133/251/139 134/228/139 135/252/139
f 136/253/140 137/254/140 138/255/140
f 139/256/141 140/257/141 141/258/141
f 142/259/142 143/238/142 144/260/142
f 145/242/143 146/261/143 147/262/143
f 148/263/144 149/264/144 150/265/144
f 151/226/145 152/266/145 153/223/145
f 154/230/146 155/267/146 156/268/146
f 157/269/147 158/270/147 159/229/147
f 160/271/148 161/272/148 162/232/148
f 142/259/149 123/239/149 143/238/149
f 122/244/150 126/237/150 123/239/150
f 145/242/151 126/237/151 125/240/151
f 144/260/152 147/262/152 146/261/152
f 127/246/153 125/273/153 124/274/153
f 128/247/154 150/275/154 129/248/154
f 149/264/155 145/276/155 150/265/155
f 130/277/156 128/247/156 127/246/156
f 131/227/157 153/223/157 132/250/157
f 152/235/158 148/263/158 153/278/158
f 130/220/159 135/279/159 131/280/159
f 134/228/160 156/268/160 135/252/160
f 152/235/161 156/281/161 155/282/161
f 136/219/162 134/283/162 133/284/162
f 157/269/163 138/285/163 137/286/163
f 158/270/164 154/230/164 159/229/164
f 136/219/165 141/287/165 137/288/165
f 140/257/166 162/232/166 141/258/166
f 158/236/167 162/289/167 161/290/167
f 122/291/168 140/292/168 139/293/168
f 144/294/169 160/295/169 142/296/169
f 121/297/170 160/271/170 140/257/170
f 178/298/171 172/299/171 166/300/171
f 170/301/172 195/302/172 190/303/172
f 177/304/173 193/305/173 173/306/173
f 180/307/174 196/308/174 176/309/174
f 179/310/175 204/311/175 199/312/175
f 188/313/176 194/314/176 200/315/176
f 168/316/177 185/317/177 165/318/177
f 171/319/178 187/320/178 167/321/178
f 163/322/179 164/323/179 165/318/179
f 166/324/180 167/321/180 168/325/180
f 169/326/181 170/327/181 171/319/181
f 172/328/182 173/306/182 174/329/182
f 175/330/183 176/309/183 177/331/183
f 178/332/184 179/333/184 180/307/184
f 181/334/185 182/335/185 183/336/185
f 184/337/186 185/317/186 186/338/186
f 187/339/187 188/340/187 189/341/187
f 190/342/188 191/343/188 192/344/188
f 193/305/189 194/345/189 195/302/189
f 196/346/190 197/347/190 198/348/190
f 199/349/191 200/315/191 201/350/191
f 202/351/192 203/352/192 204/311/192
f 184/337/193 165/318/193 185/317/193
f 164/353/194 168/354/194 165/355/194
f 167/356/195 189/341/195 168/316/195
f 186/338/196 189/341/196 188/340/196
f 166/324/197 171/319/197 167/321/197
f 170/327/198 192/357/198 171/319/198
f 188/313/199 192/344/199 191/343/199
f 172/358/200 170/327/200 169/326/200
f 193/305/201 174/329/201 173/306/201
f 194/314/202 190/342/202 195/359/202
f 172/328/203 177/304/203 173/306/203
f 176/309/204 198/360/204 177/331/204
f 194/314/205 198/348/205 197/347/205
f 175/330/206 180/307/206 176/309/206
f 199/361/207 180/307/207 179/333/207
f 197/347/208 201/350/208 200/315/208
f 181/334/209 179/310/209 178/362/209
f 202/351/210 183/336/210 182/335/210
f 203/363/211 199/349/211 204/364/211
f 164/365/212 182/335/212 181/334/212
f 186/366/213 202/367/213 184/368/213
f 182/335/214 184/369/214 202/351/214
f 206/370/215 211/371/215 205/372/215
f 211/371/216 212/373/216 217/374/216
f 207/375/217 212/376/217 206/377/217
f 212/378/218 213/379/218 217/380/218
f 208/381/219 213/382/219 207/383/219
f 213/379/220 214/384/220 217/380/220
f 209/385/221 214/386/221 208/387/221
f 214/386/222 215/388/222 217/389/222
f 209/390/223 216/391/223 215/392/223
f 215/392/224 216/391/224 217/393/224
f 205/394/225 216/395/225 210/396/225
f 216/397/226 211/371/226 217/374/226
f 209/398/227 207/399/227 205/394/227
f 219/400/228 224/401/228 218/402/228
f 224/401/229 225/403/229 230/404/229
f 219/405/230 226/406/230 225/407/230
f 225/408/231 226/409/231 230/410/231
f 221/411/232 226/412/232 220/413/232
f 226/409/233 227/414/233 230/410/233
f 222/415/234 227/416/234 221/411/234
f 227/416/235 228/417/235 230/418/235
f 222/419/236 229/420/236 228/421/236
f 228/421/237 229/420/237 230/422/237
f 223/423/238 224/424/238 229/425/238
f 229/425/239 224/424/239 230/426/239
f 222/427/240 220/428/240 218/429/240
f 232/430/241 237/431/241 231/432/241
f 237/433/242 238/434/242 243/435/242
f 233/436/243 238/437/243 232/438/243
f 238/437/244 239/439/244 243/440/244
f 233/441/245 240/442/245 239/443/245
f 239/443/246 240/442/246 243/444/246
f 234/445/247 241/446/247 240/442/247
f 240/442/248 241/446/248 243/444/248
f 236/447/249 241/448/249 235/449/249
f 241/448/250 242/450/250 243/451/250
f 236/452/251 237/453/251 242/454/251
f 242/455/252 237/433/252 243/435/252
f 235/456/253 233/457/253 231/458/253
f 245/459/254 250/460/254 244/461/254
f 250/460/255 251/462/255 256/463/255
f 245/464/256 252/465/256 251/466/256
f 251/462/257 252/467/257 256/463/257
f 247/468/258 252/465/258 246/469/258
f 252/470/259 253/471/259 256/472/259
f 247/473/260 254/474/260 253/475/260
f 253/471/261 254/476/261 256/472/261
f 249/477/262 254/474/262 248/478/262
f 254/474/263 255/479/263 256/480/263
f 244/481/264 255/482/264 249/483/264
f 255/482/265 250/484/265 256/485/265
f 248/486/266 246/487/266 244/488/266
f 258/489/267 263/490/267 257/491/267
f 263/492/268 264/493/268 269/494/268
f 259/495/269 264/496/269 258/497/269
f 264/496/270 265/498/270 269/499/270
f 259/500/271 266/501/271 265/502/271
f 265/498/272 266/503/272 269/499/272
f 260/504/273 267/505/273 266/501/273
f 266/501/274 267/505/274 269/506/274
f 262/507/275 267/508/275 261/509/275
f 267/508/276 268/510/276 269/511/276
f 257/512/277 268/513/277 262/514/277
f 268/515/278 263/492/278 269/494/278
f 261/516/279 259/517/279 257/518/279
f 2/3/1 16/519/1 13/1/1
f 13/1/1 10/59/1 7/2/1
f 7/2/1 4/520/1 2/3/1
f 12/4/2 30/45/2 25/5/2
f 11/7/3 15/34/3 33/8/3
f 18/10/4 36/63/4 31/11/4
f 35/15/5 21/65/5 23/13/5
f 23/13/5 26/53/5 29/14/5
f 29/14/5 32/47/5 35/15/5
f 3/16/6 6/26/6 24/17/6
f 5/19/7 9/29/7 27/20/7
f 19/37/20 1/22/20 3/16/20
f 4/24/21 6/26/21 3/16/21
f 22/39/22 24/17/22 6/26/22
f 23/40/23 21/38/23 20/18/23
f 7/27/280 9/29/280 5/19/280
f 8/6/25 25/5/25 27/42/25
f 26/53/281 23/13/281 22/54/281
f 7/27/27 10/521/27 12/56/27
f 11/31/28 28/43/28 30/45/28
f 26/53/29 25/522/29 30/57/29
f 13/1/30 15/523/30 11/58/30
f 31/60/31 33/8/31 15/34/31
f 32/47/32 29/14/32 28/61/32
f 13/62/33 16/35/33 18/10/33
f 17/36/34 34/68/34 36/63/34
f 32/47/35 31/46/35 36/50/35
f 2/64/36 1/67/36 17/36/36
f 21/65/37 35/15/37 34/49/37
f 1/67/38 19/524/38 34/68/38
f 38/525/39 55/526/39 52/69/39
f 52/69/39 49/527/39 46/70/39
f 46/70/39 43/528/39 40/71/39
f 40/71/39 38/525/39 52/69/39
f 48/72/40 69/117/40 64/73/40
f 51/75/41 72/136/41 67/76/41
f 50/78/42 54/104/42 75/79/42
f 57/81/43 78/529/43 73/82/43
f 77/124/44 60/109/44 62/84/44
f 62/84/44 65/113/44 68/85/44
f 68/85/44 71/119/44 74/86/44
f 74/86/44 77/124/44 62/84/44
f 42/87/45 63/111/45 59/88/45
f 41/90/282 45/530/282 66/91/282
f 58/126/61 37/93/61 39/89/61
f 38/94/283 40/95/283 42/87/283
f 61/92/63 63/111/63 42/87/63
f 60/109/64 59/108/64 63/127/64
f 43/96/65 45/98/65 41/128/65
f 64/130/66 66/531/66 45/98/66
f 65/113/67 62/84/67 61/131/67
f 46/132/68 48/532/68 44/97/68
f 47/100/69 67/115/69 69/117/69
f 68/85/284 65/113/284 64/112/284
f 46/70/71 49/527/71 51/134/71
f 50/78/72 70/80/72 72/136/72
f 68/85/73 67/533/73 72/120/73
f 52/102/74 54/104/74 50/78/74
f 73/137/75 75/79/75 54/104/75
f 74/86/76 71/119/76 70/118/76
f 52/138/285 55/105/285 57/81/285
f 76/139/78 78/529/78 57/81/78
f 74/86/79 73/121/79 78/125/79
f 38/140/80 37/534/80 56/106/80
f 60/109/81 77/124/81 76/123/81
f 56/106/82 37/534/82 58/141/82
f 80/197/83 97/214/83 94/142/83
f 94/142/83 91/535/83 88/143/83
f 88/143/83 85/536/83 82/144/83
f 82/144/83 80/197/83 94/142/83
f 86/145/84 90/175/84 111/146/84
f 93/148/85 114/206/85 109/149/85
f 92/151/86 96/209/86 117/152/86
f 99/154/87 120/196/87 115/155/87
f 119/212/88 102/215/88 104/157/88
f 104/157/88 107/185/88 110/158/88
f 110/158/88 113/190/88 116/159/88
f 116/159/88 119/212/88 104/157/88
f 81/160/89 84/169/89 105/161/89
f 83/163/90 87/537/90 108/164/90
f 100/181/105 79/166/105 81/160/105
f 80/197/106 82/144/106 84/198/106
f 103/165/286 105/161/286 84/169/286
f 102/182/108 101/162/108 105/161/108
f 82/200/109 85/170/109 87/172/109
f 106/202/110 108/538/110 87/172/110
f 107/185/111 104/157/111 103/203/111
f 88/204/112 90/539/112 86/171/112
f 89/174/113 109/540/113 111/146/113
f 110/158/114 107/185/114 106/184/114
f 88/173/115 91/541/115 93/205/115
f 92/151/116 112/153/116 114/206/116
f 110/158/117 109/187/117 114/191/117
f 94/207/118 96/209/118 92/151/118
f 115/208/119 117/152/119 96/209/119
f 116/159/120 113/190/120 112/189/120
f 94/177/121 97/179/121 99/154/121
f 98/180/122 118/194/122 120/196/122
f 116/159/123 115/192/123 120/211/123
f 80/197/124 79/542/124 98/213/124
f 102/215/287 119/212/287 118/216/287
f 98/180/126 79/543/126 100/218/126
f 122/291/127 139/293/127 136/219/127
f 136/219/127 133/284/127 130/220/127
f 130/220/127 127/544/127 124/221/127
f 124/221/127 122/291/127 136/219/127
f 128/222/128 132/250/128 153/223/128
f 135/225/129 156/545/129 151/226/129
f 134/228/130 138/285/130 159/229/130
f 137/231/131 141/258/131 162/232/131
f 161/290/132 144/294/132 146/234/132
f 146/234/132 149/264/132 152/235/132
f 152/235/132 155/282/132 158/236/132
f 158/236/132 161/290/132 146/234/132
f 126/237/133 147/262/133 143/238/133
f 125/240/134 129/546/134 150/241/134
f 142/259/149 121/243/149 123/239/149
f 122/244/150 124/245/150 126/237/150
f 145/242/151 147/262/151 126/237/151
f 144/260/152 143/238/152 147/262/152
f 127/246/153 129/248/153 125/273/153
f 128/247/154 148/547/154 150/275/154
f 149/264/155 146/234/155 145/276/155
f 130/277/156 132/548/156 128/247/156
f 131/227/157 151/226/157 153/223/157
f 152/235/158 149/264/158 148/263/158
f 130/220/159 133/284/159 135/279/159
f 134/228/160 154/230/160 156/268/160
f 152/235/161 151/549/161 156/281/161
f 136/219/162 138/550/162 134/283/162
f 157/269/163 159/229/163 138/285/163
f 158/270/164 155/267/164 154/230/164
f 136/219/165 139/293/165 141/287/165
f 140/257/166 160/271/166 162/232/166
f 158/236/288 157/551/288 162/289/288
f 122/291/168 121/552/168 140/292/168
f 144/294/169 161/290/169 160/295/169
f 121/297/170 142/553/170 160/271/170
f 164/353/171 181/554/171 178/298/171
f 178/298/171 175/555/171 172/299/171
f 172/299/171 169/556/171 166/300/171
f 166/300/171 164/353/171 178/298/171
f 170/301/172 174/329/172 195/302/172
f 177/304/173 198/557/173 193/305/173
f 180/307/174 201/558/174 196/308/174
f 179/310/175 183/336/175 204/311/175
f 203/363/176 186/366/176 188/313/176
f 188/313/176 191/343/176 194/314/176
f 194/314/176 197/347/176 200/315/176
f 200/315/176 203/363/176 188/313/176
f 168/316/177 189/341/177 185/317/177
f 171/319/178 192/357/178 187/320/178
f 184/337/193 163/322/193 165/318/193
f 164/353/194 166/300/194 168/354/194
f 167/356/195 187/339/195 189/341/195
f 186/338/196 185/317/196 189/341/196
f 166/324/197 169/326/197 171/319/197
f 170/327/198 190/559/198 192/357/198
f 188/313/199 187/560/199 192/344/199
f 172/358/200 174/561/200 170/327/200
f 193/305/201 195/302/201 174/329/201
f 194/314/202 191/343/202 190/342/202
f 172/328/289 175/562/289 177/304/289
f 176/309/204 196/308/204 198/360/204
f 194/314/205 193/563/205 198/348/205
f 175/330/206 178/332/206 180/307/206
f 199/361/207 201/558/207 180/307/207
f 197/347/208 196/346/208 201/350/208
f 181/334/209 183/336/209 179/310/209
f 202/351/210 204/311/210 183/336/210
f 203/363/211 200/315/211 199/349/211
f 164/365/212 163/564/212 182/335/212
f 186/366/213 203/363/213 202/367/213
f 182/335/214 163/564/214 184/369/214
f 206/370/215 212/373/215 211/371/215
f 207/375/217 213/565/217 212/376/217
f 208/381/219 214/566/219 213/382/219
f 209/385/221 215/388/221 214/386/221
f 209/390/223 210/567/223 216/391/223
f 205/394/225 211/568/225 216/395/225
f 205/394/227 210/396/227 209/398/227
f 209/398/227 208/569/227 207/399/227
f 207/399/227 206/570/227 205/394/227
f 219/400/228 225/403/228 224/401/228
f 219/405/230 220/571/230 226/406/230
f 221/411/232 227/416/232 226/412/232
f 222/415/234 228/417/234 227/416/234
f 222/419/236 223/572/236 229/420/236
f 223/423/238 218/573/238 224/424/238
f 218/429/240 223/574/240 222/427/240
f 222/427/240 221/575/240 220/428/240
f 220/428/240 219/576/240 218/429/240
f 232/430/241 238/577/241 237/431/241
f 233/436/243 239/439/243 238/437/243
f 233/441/245 234/445/245 240/442/245
f 234/445/247 235/578/247 241/446/247
f 236/447/249 242/450/249 241/448/249
f 236/452/251 231/579/251 237/453/251
f 231/458/253 236/580/253 235/456/253
f 235/456/253 234/581/253 233/457/253
f 233/457/253 232/582/253 231/458/253
f 245/459/254 251/462/254 250/460/254
f 245/464/256 246/469/256 252/465/256
f 247/468/258 253/583/258 252/465/258
f 247/473/260 248/478/260 254/474/260
f 249/477/262 255/479/262 254/474/262
f 244/481/264 250/484/264 255/482/264
f 244/488/266 249/584/266 248/486/266
f 248/486/266 247/585/266 246/487/266
f 246/487/266 245/586/266 244/488/266
f 258/489/267 264/587/267 263/490/267
f 259/495/269 265/498/269 264/496/269
f 259/500/271 260/504/271 266/501/271
f 260/504/273 261/588/273 267/505/273
f 262/507/275 268/510/275 267/508/275
f 257/512/277 263/589/277 268/513/277
f 257/518/279 262/590/279 261/516/279
f 261/516/279 260/591/279 259/517/279
f 259/517/279 258/592/279 257/518/279
