# Blender 4.3.2
# www.blender.org
o toxic_ore_3
v 0.363519 -0.092999 0.044207
v 0.358954 -0.103072 0.035433
v 0.362657 -0.094146 0.025303
v 0.213297 -0.123817 -0.321991
v 0.207514 -0.114610 -0.328763
v 0.221537 -0.114245 -0.320987
v -0.218140 -0.117228 -0.249573
v -0.227855 -0.107520 -0.248262
v -0.212318 -0.108198 -0.258294
v -0.466163 -0.093636 0.121302
v -0.468259 -0.083709 0.128724
v -0.468958 -0.084586 0.112266
v -0.224017 -0.077165 0.415967
v -0.216343 -0.067248 0.421806
v -0.232921 -0.067701 0.415106
v 0.258083 -0.082580 0.367437
v 0.266416 -0.073273 0.363810
v 0.253303 -0.072523 0.374530
v 0.318124 0.046501 0.039027
v 0.317253 0.045383 0.020123
v 0.307335 0.055556 0.029544
v 0.180223 0.027436 -0.289543
v 0.182256 0.037742 -0.277382
v 0.194234 0.027862 -0.281749
v -0.201640 0.033721 -0.218020
v -0.188327 0.043402 -0.215179
v -0.186105 0.033031 -0.228054
v -0.411252 0.054828 0.113031
v -0.401431 0.063672 0.103483
v -0.412040 0.053734 0.096598
v -0.189621 0.068967 0.369425
v -0.193616 0.077808 0.356373
v -0.206147 0.068779 0.362623
v 0.233547 0.063684 0.317401
v 0.220708 0.073154 0.314666
v 0.220452 0.064361 0.328146
v 0.435132 0.043285 0.105698
v 0.431769 0.034499 0.095424
v 0.436338 0.043524 0.085926
v 0.400434 0.038578 -0.236890
v 0.395815 0.047334 -0.243522
v 0.406577 0.047399 -0.229694
v 0.115098 0.039613 -0.327474
v 0.105434 0.048349 -0.330982
v 0.124980 0.048317 -0.329502
v -0.245367 0.038822 -0.271318
v -0.252312 0.047307 -0.266131
v -0.238335 0.047594 -0.277427
v -0.382554 0.034087 0.110405
v -0.381442 0.042741 0.120173
v -0.384732 0.042738 0.102326
v -0.178094 0.031028 0.363672
v -0.172514 0.039717 0.372738
v -0.187688 0.039842 0.360177
v 0.092254 0.029316 0.509027
v 0.101067 0.037996 0.510348
v 0.082768 0.038100 0.509993
v 0.372176 0.031133 0.367632
v 0.379322 0.040133 0.360629
v 0.368140 0.039731 0.375443
v 0.372349 0.165053 0.103847
v 0.373551 0.165300 0.084074
v 0.359796 0.174090 0.093302
v 0.338319 0.168854 -0.186738
v 0.334776 0.177348 -0.172045
v 0.349298 0.168458 -0.173124
v 0.098561 0.169646 -0.258150
v 0.107247 0.178173 -0.244277
v 0.118105 0.169652 -0.256647
v -0.195574 0.169029 -0.203041
v -0.180705 0.177540 -0.199419
v -0.181729 0.169031 -0.214485
v -0.300644 0.164859 0.115519
v -0.290139 0.173764 0.105082
v -0.303641 0.165300 0.097656
v -0.127722 0.162323 0.323528
v -0.126840 0.171321 0.307363
v -0.142877 0.162499 0.310947
v 0.098287 0.161114 0.435435
v 0.089079 0.169953 0.423453
v 0.079993 0.161007 0.435208
v 0.326996 0.162491 0.311014
v 0.312191 0.171402 0.310754
v 0.315628 0.162525 0.325651
v 0.354152 0.150146 0.061462
v 0.355957 0.141836 0.049986
v 0.359408 0.150464 0.043306
v 0.316966 0.154266 -0.156128
v 0.311213 0.163457 -0.163595
v 0.322942 0.162089 -0.149460
v 0.048157 0.168279 -0.272755
v 0.038290 0.177457 -0.274739
v 0.057400 0.176689 -0.273715
v -0.275652 0.172263 -0.178573
v -0.283363 0.180719 -0.175165
v -0.267136 0.181215 -0.185904
v -0.409313 0.166275 -0.000818
v -0.409379 0.174384 0.009061
v -0.408607 0.175108 -0.008603
v -0.227993 0.143806 0.314708
v -0.224383 0.151698 0.324016
v -0.237110 0.153037 0.308836
v -0.093103 0.133932 0.424946
v -0.083076 0.142552 0.425823
v -0.100418 0.142624 0.425326
v 0.196512 0.135663 0.244377
v 0.206405 0.144426 0.241592
v 0.191492 0.144193 0.254635
v 0.287874 0.254820 0.067251
v 0.292446 0.256216 0.049154
v 0.278250 0.264558 0.056773
v 0.252106 0.266285 -0.118018
v 0.248030 0.274192 -0.102973
v 0.263539 0.265432 -0.103655
v 0.030215 0.277294 -0.207257
v 0.038709 0.285104 -0.193790
v 0.049300 0.276858 -0.206009
v -0.230406 0.280509 -0.124975
v -0.214119 0.288214 -0.120253
v -0.214550 0.280305 -0.136065
v -0.330953 0.274894 0.024860
v -0.317790 0.283570 0.017619
v -0.329841 0.276054 0.007264
v -0.179977 0.256731 0.280278
v -0.176315 0.266038 0.263808
v -0.192828 0.257777 0.265220
v -0.065007 0.248582 0.361250
v -0.071892 0.258395 0.349147
v -0.082192 0.249573 0.360193
v 0.170070 0.250259 0.210874
v 0.153912 0.259744 0.208363
v 0.155201 0.249898 0.223955
v 0.299040 0.265534 -0.018262
v 0.294807 0.255976 -0.028482
v 0.299255 0.264871 -0.038014
v 0.258257 0.249436 -0.241422
v 0.253050 0.258321 -0.248187
v 0.265160 0.258770 -0.236648
v -0.077134 0.246949 -0.279849
v -0.086001 0.256261 -0.277345
v -0.070628 0.255920 -0.285272
v -0.196188 0.252645 -0.074433
v -0.203765 0.262109 -0.066957
v -0.197175 0.261581 -0.085525
v -0.235227 0.259915 0.172802
v -0.233233 0.269207 0.180376
v -0.240355 0.268923 0.164770
v -0.045918 0.263989 0.283413
v -0.036306 0.273364 0.287044
v -0.054952 0.273044 0.284543
v 0.249742 0.262942 0.209413
v 0.256935 0.272042 0.204008
v 0.245031 0.272368 0.216629
v 0.256679 0.361956 -0.015792
v 0.256832 0.361433 -0.035540
v 0.244340 0.370847 -0.025539
v 0.216532 0.356057 -0.211025
v 0.214864 0.365572 -0.197263
v 0.228684 0.356396 -0.199527
v -0.068023 0.354069 -0.234079
v -0.055698 0.363566 -0.228263
v -0.052588 0.354061 -0.241860
v -0.166599 0.359005 -0.056794
v -0.151876 0.368168 -0.062316
v -0.160011 0.358470 -0.075363
v -0.189588 0.365355 0.150590
v -0.183420 0.374042 0.137446
v -0.196902 0.364648 0.135116
v -0.023772 0.368507 0.239275
v -0.030988 0.377323 0.226511
v -0.042374 0.368523 0.236605
v 0.221831 0.367342 0.168168
v 0.207921 0.376476 0.166715
v 0.209923 0.367679 0.180785
v 0.220257 0.345546 -0.023955
v 0.217409 0.335875 -0.032263
v 0.221501 0.344653 -0.041422
v 0.087484 0.333256 -0.296093
v 0.083593 0.342512 -0.304179
v 0.097837 0.342160 -0.292539
v -0.040850 0.341765 -0.327472
v -0.050359 0.351967 -0.328742
v -0.032485 0.350209 -0.332562
v -0.280530 0.369242 -0.146783
v -0.284741 0.379426 -0.140018
v -0.279541 0.378240 -0.155966
v -0.233301 0.373189 0.011004
v -0.233066 0.383258 0.022055
v -0.241578 0.383034 0.004184
v -0.086619 0.372179 0.226906
v -0.079162 0.381226 0.230392
v -0.094125 0.382301 0.226563
v 0.110975 0.351617 0.121114
v 0.122146 0.360057 0.117428
v 0.107647 0.361786 0.130374
v 0.182463 0.470483 -0.035561
v 0.183737 0.469489 -0.053018
v 0.173760 0.480166 -0.045665
v 0.070129 0.468243 -0.266223
v 0.071971 0.478114 -0.252362
v 0.084416 0.467487 -0.254704
v -0.038917 0.475688 -0.284814
v -0.027630 0.484718 -0.276716
v -0.021011 0.474286 -0.288508
v -0.228264 0.497969 -0.130047
v -0.215266 0.506229 -0.135260
v -0.223058 0.496798 -0.145994
v -0.185593 0.501003 0.002019
v -0.178419 0.509309 -0.012158
v -0.194086 0.500826 -0.015860
v -0.059253 0.499337 0.169649
v -0.063638 0.508518 0.156789
v -0.074246 0.500236 0.165910
v 0.104469 0.482018 0.076833
v 0.090560 0.492471 0.074231
v 0.089961 0.483809 0.089759
v 0.021149 0.266780 -0.219453
v 0.058946 0.275851 -0.198701
v 0.096528 0.257254 -0.212242
v 0.096312 0.229587 -0.246535
v 0.058514 0.220516 -0.267288
v 0.020933 0.239113 -0.253747
v 0.051455 0.415567 -0.339681
v 0.089252 0.424638 -0.318929
v 0.126833 0.406041 -0.332470
v 0.126617 0.378374 -0.366764
v 0.088820 0.369303 -0.387516
v 0.051239 0.387900 -0.373975
v 0.100822 0.454832 -0.399978
v 0.226227 0.266312 0.067245
v 0.194135 0.293821 0.057668
v 0.164955 0.304446 0.087900
v 0.167867 0.287562 0.127710
v 0.199958 0.260052 0.137287
v 0.229138 0.249428 0.107054
v 0.393533 0.490303 0.150010
v 0.361441 0.517812 0.140433
v 0.332261 0.528437 0.170666
v 0.335173 0.511552 0.210475
v 0.367265 0.484043 0.220052
v 0.396445 0.473418 0.189820
v 0.429417 0.588035 0.212429
v 0.121221 0.201540 0.205605
v 0.122558 0.177146 0.240854
v 0.157607 0.154037 0.249622
v 0.191319 0.155321 0.223141
v 0.189981 0.179715 0.187891
v 0.154932 0.202824 0.179123
v 0.195477 0.352810 0.307471
v 0.196815 0.328417 0.342720
v 0.231864 0.305307 0.351488
v 0.265575 0.306591 0.325007
v 0.264238 0.330985 0.289758
v 0.229189 0.354094 0.280989
v 0.259404 0.388528 0.355853
vn -0.0052 -0.9982 0.0600
vn -0.7938 0.2646 -0.5477
vn -0.7290 0.3655 0.5787
vn 0.0980 0.3404 0.9352
vn 0.0052 0.9982 -0.0600
vn 0.8850 0.2740 -0.3765
vn -0.1574 0.2346 -0.9593
vn 0.9163 -0.4000 -0.0175
vn 0.4665 -0.3150 -0.8265
vn -0.5082 -0.4059 -0.7596
vn -0.9680 -0.2449 0.0541
vn -0.3565 -0.2536 0.8992
vn 0.6050 -0.2465 0.7571
vn 0.6787 0.7307 -0.0745
vn 0.3356 0.6902 -0.6411
vn -0.3702 0.6912 -0.6206
vn -0.6779 0.7350 -0.0164
vn -0.2533 0.7632 0.5945
vn 0.4449 0.7462 0.4952
vn 0.9498 0.3068 -0.0619
vn 0.7439 -0.6123 -0.2676
vn 0.4536 0.3171 -0.8329
vn 0.5519 0.7888 -0.2707
vn -0.1365 -0.6412 -0.7551
vn -0.5140 0.2698 -0.8143
vn -0.0948 0.7672 -0.6343
vn -0.6718 -0.6169 -0.4100
vn -0.9239 0.3823 0.0188
vn -0.4904 0.7853 -0.3779
vn -0.6326 -0.5450 0.5503
vn -0.3534 0.3954 0.8478
vn -0.4444 0.8373 0.3184
vn 0.0775 -0.5497 0.8317
vn 0.5979 0.3822 0.7046
vn 0.0644 0.8353 0.5461
vn 0.7673 -0.5821 0.2691
vn 0.5718 0.8110 0.1237
vn 0.9156 0.3076 0.2592
vn 0.0003 -0.9999 -0.0123
vn -0.1340 0.5045 -0.8529
vn -0.8049 0.5217 -0.2828
vn -0.6828 0.4730 0.5569
vn -0.4168 0.4656 0.7807
vn 0.3919 0.4847 0.7820
vn -0.0003 0.9999 0.0123
vn 0.8866 0.4559 -0.0780
vn 0.2624 0.5076 -0.8207
vn 0.9115 -0.4081 0.0506
vn 0.7883 -0.0486 -0.6133
vn 0.0715 -0.3026 -0.9504
vn -0.6276 -0.0384 -0.7776
vn -0.9804 -0.0780 0.1808
vn -0.5956 -0.3645 0.7158
vn -0.0200 -0.1306 0.9912
vn 0.7892 -0.1666 0.5911
vn 0.5589 0.8280 0.0443
vn 0.4689 0.8090 -0.3546
vn 0.0414 0.8394 -0.5419
vn -0.3632 0.8216 -0.4394
vn -0.5726 0.8116 0.1161
vn -0.3555 0.8248 0.4397
vn -0.0121 0.8002 0.5996
vn 0.4750 0.7998 0.3670
vn 0.8869 0.4582 0.0596
vn 0.8492 -0.5209 -0.0865
vn 0.6572 0.5512 -0.5141
vn 0.5196 0.8535 -0.0385
vn 0.2620 -0.4910 -0.8308
vn 0.0655 0.5164 -0.8538
vn 0.1514 0.8711 -0.4671
vn -0.1329 -0.4925 -0.8601
vn -0.5228 0.5715 -0.6325
vn -0.0777 0.8703 -0.4863
vn -0.8199 -0.4873 -0.3007
vn -0.8217 0.5494 0.1514
vn -0.4620 0.8732 -0.1552
vn -0.6692 -0.5167 0.5340
vn -0.5583 0.4765 0.6791
vn -0.3970 0.8561 0.3308
vn -0.4066 -0.5216 0.7501
vn -0.0136 0.5195 0.8543
vn -0.2428 0.8532 0.4617
vn 0.3899 -0.5123 0.7652
vn 0.6818 0.5058 0.5284
vn 0.2265 0.8588 0.4595
vn 0.8330 -0.5245 0.1759
vn 0.5102 0.8513 0.1222
vn 0.8703 0.4517 0.1961
vn -0.0282 -0.9981 -0.0549
vn -0.2304 0.5321 -0.8147
vn -0.6566 0.5868 -0.4739
vn -0.7344 0.5011 0.4577
vn -0.5231 0.5066 0.6854
vn 0.4848 0.3932 0.7813
vn 0.0282 0.9981 0.0549
vn 0.8350 0.5357 -0.1257
vn 0.3580 0.5426 -0.7599
vn 0.9476 -0.1689 0.2713
vn 0.7670 -0.0401 -0.6403
vn 0.0462 -0.1633 -0.9855
vn -0.5412 -0.1609 -0.8253
vn -0.9982 0.0429 -0.0419
vn -0.7322 -0.3525 0.5828
vn -0.0288 -0.0679 0.9973
vn 0.5904 -0.4545 0.6669
vn 0.5757 0.7911 0.2065
vn 0.4565 0.8325 -0.3139
vn 0.0538 0.8487 -0.5261
vn -0.2846 0.8605 -0.4227
vn -0.5421 0.8401 0.0211
vn -0.3858 0.8373 0.3874
vn 0.0063 0.7785 0.6276
vn 0.3923 0.7921 0.4677
vn 0.8247 0.5085 0.2476
vn 0.8517 -0.4882 -0.1906
vn 0.6499 0.5874 -0.4824
vn 0.4901 0.8707 -0.0402
vn 0.3331 -0.4601 -0.8230
vn 0.0668 0.5624 -0.8241
vn 0.2222 0.8866 -0.4057
vn -0.2536 -0.4569 -0.8526
vn -0.4612 0.5817 -0.6700
vn -0.1175 0.8894 -0.4417
vn -0.7148 -0.4293 -0.5520
vn -0.7877 0.6160 -0.0092
vn -0.3579 0.9027 -0.2387
vn -0.7661 -0.4992 0.4047
vn -0.6365 0.5100 0.5786
vn -0.4071 0.8643 0.2955
vn -0.5677 -0.5061 0.6493
vn -0.0223 0.5228 0.8522
vn -0.2830 0.8606 0.4234
vn 0.4349 -0.5762 0.6920
vn 0.5981 0.4059 0.6910
vn 0.3013 0.8173 0.4912
vn 0.6459 -0.5665 0.5118
vn 0.4253 0.8237 0.3750
vn 0.6988 0.4100 0.5862
vn 0.0040 -0.9995 0.0300
vn -0.8035 0.3581 -0.4756
vn -0.9167 0.3680 -0.1556
vn -0.4586 0.4462 0.7685
vn 0.2224 0.4139 0.8827
vn -0.0040 0.9995 -0.0300
vn 0.9011 0.4002 -0.1670
vn 0.1021 0.3867 -0.9165
vn 0.9042 -0.4263 0.0241
vn 0.6856 -0.1419 -0.7140
vn -0.4527 -0.1973 -0.8695
vn -0.8455 -0.4500 -0.2873
vn -0.8993 -0.1437 0.4131
vn -0.1248 -0.2445 0.9616
vn 0.7157 -0.1623 0.6792
vn 0.5932 0.8049 -0.0167
vn 0.4304 0.7660 -0.4775
vn -0.2979 0.7491 -0.5918
vn -0.5745 0.7866 -0.2264
vn -0.5826 0.7766 0.2399
vn -0.0852 0.7967 0.5984
vn 0.4671 0.7781 0.4200
vn 0.9155 0.4023 -0.0035
vn 0.8272 -0.5478 -0.1252
vn 0.5996 0.4703 -0.6476
vn 0.5359 0.8361 -0.1177
vn 0.0980 -0.5659 -0.8186
vn -0.4060 0.4311 -0.8058
vn 0.0584 0.8244 -0.5630
vn -0.7153 -0.5739 -0.3987
vn -0.8728 0.3684 -0.3202
vn -0.4868 0.8186 -0.3049
vn -0.8171 -0.5654 -0.1124
vn -0.8035 0.4756 0.3580
vn -0.5550 0.8243 -0.1119
vn -0.4239 -0.5159 0.7445
vn -0.1259 0.4583 0.8798
vn -0.2740 0.8565 0.4375
vn 0.2043 -0.5286 0.8239
vn 0.6499 0.4654 0.6009
vn 0.1312 0.8488 0.5121
vn 0.8198 -0.5464 0.1713
vn 0.5415 0.8371 0.0781
vn 0.9053 0.3936 0.1600
vn -0.0778 -0.9958 0.0482
vn -0.5453 0.3248 -0.7727
vn -0.8813 0.3985 0.2538
vn -0.7593 0.3942 0.5177
vn 0.4712 0.3393 0.8142
vn 0.0778 0.9958 -0.0482
vn 0.8734 0.2241 -0.4323
vn 0.2452 0.3042 -0.9205
vn 0.9339 -0.3474 0.0843
vn 0.5782 -0.3852 -0.7192
vn -0.2282 -0.3268 -0.9171
vn -0.9368 -0.1941 -0.2910
vn -0.8194 -0.4150 0.3955
vn -0.2554 -0.1570 0.9540
vn 0.5659 -0.4461 0.6933
vn 0.7357 0.6771 0.0152
vn 0.4799 0.6832 -0.5504
vn -0.0851 0.7221 -0.6866
vn -0.5885 0.7693 -0.2487
vn -0.5049 0.8315 0.2316
vn -0.1023 0.7928 0.6009
vn 0.4854 0.7554 0.4401
vn 0.9544 0.2936 0.0529
vn 0.6782 -0.6579 -0.3275
vn 0.6102 0.2881 -0.7380
vn 0.5872 0.7531 -0.2967
vn 0.1487 -0.6144 -0.7749
vn -0.1639 0.3435 -0.9247
vn 0.1954 0.7864 -0.5860
vn -0.5336 -0.5746 -0.6205
vn -0.8484 0.4301 -0.3086
vn -0.2879 0.8133 -0.5056
vn -0.8201 -0.5107 0.2582
vn -0.8291 0.4006 0.3899
vn -0.4953 0.8594 0.1267
vn -0.7119 -0.5115 0.4812
vn -0.1862 0.4740 0.8606
vn -0.4213 0.8592 0.2902
vn 0.3412 -0.5694 0.7479
vn 0.6515 0.3229 0.6865
vn 0.3360 0.8170 0.4687
vn 0.6220 -0.6075 0.4940
vn 0.5388 0.7899 0.2928
vn 0.7998 0.2907 0.5252
vn -0.4896 0.6062 0.6268
vn -0.3660 0.8879 0.2786
vn 0.4981 0.4814 0.7213
vn 0.5150 0.7766 0.3628
vn 0.9877 -0.1248 0.0945
vn 0.9518 0.2358 -0.1963
vn 0.4896 -0.6062 -0.6268
vn 0.5075 -0.1935 -0.8397
vn -0.4981 -0.4814 -0.7213
vn -0.3736 -0.0822 -0.9239
vn -0.9877 0.1248 -0.0945
vn -0.8103 0.4585 -0.3648
vn -0.1565 -0.7682 0.6208
vn 0.3499 0.0834 -0.9331
vn 0.5125 0.3206 -0.7966
vn -0.4663 0.5914 -0.6579
vn -0.2624 0.8028 -0.5354
vn -0.8162 0.5080 0.2752
vn -0.5946 0.7237 0.3504
vn -0.3499 -0.0834 0.9331
vn -0.1519 0.1622 0.9750
vn 0.4663 -0.5914 0.6579
vn 0.6230 -0.3200 0.7138
vn 0.8162 -0.5080 -0.2752
vn 0.9552 -0.2408 -0.1720
vn -0.5738 -0.7682 -0.2839
vn -0.9256 0.2938 0.2385
vn -0.6683 0.5996 0.4403
vn -0.4358 -0.3457 0.8310
vn -0.2275 0.0242 0.9735
vn 0.4898 -0.6395 0.5926
vn 0.6053 -0.2401 0.7589
vn 0.9256 -0.2938 -0.2385
vn 0.9974 0.0709 0.0112
vn 0.4358 0.3457 -0.8310
vn 0.5567 0.6463 -0.5219
vn -0.4898 0.6395 -0.5926
vn -0.2762 0.9106 -0.3074
vn -0.3771 -0.7682 -0.5173
vn -0.7661 -0.4993 0.4047
vn 0.9155 0.4023 -0.0036
vn 0.5873 0.7531 -0.2967
vn -0.5337 -0.5746 -0.6205
vt 0.012358 0.283778
vt 0.146388 0.307655
vt 0.069370 0.414247
vt 0.221264 0.422744
vt 0.160638 0.398627
vt 0.223538 0.395170
vt 0.412303 0.010629
vt 0.364978 0.045681
vt 0.354476 0.016750
vt 0.508559 0.016304
vt 0.418948 0.040275
vt 0.415881 0.010615
vt 0.638719 0.234286
vt 0.582217 0.365149
vt 0.519180 0.247549
vt 0.362069 0.615784
vt 0.424161 0.647846
vt 0.361785 0.645222
vt 0.224959 0.422697
vt 0.301765 0.396801
vt 0.310378 0.424617
vt 0.358195 0.615796
vt 0.360119 0.613958
vt 0.311036 0.426706
vt 0.312502 0.424848
vt 0.223256 0.424732
vt 0.682028 0.333754
vt 0.680060 0.335401
vt 0.679985 0.332030
vt 0.414150 0.008792
vt 0.452656 0.520040
vt 0.454543 0.518212
vt 0.454738 0.521670
vt 0.357912 0.645229
vt 0.359797 0.647427
vt 0.641616 0.234330
vt 0.639589 0.231789
vt 0.640133 0.313644
vt 0.638719 0.311001
vt 0.641616 0.310165
vt 0.581035 0.367528
vt 0.584348 0.367104
vt 0.417639 0.042537
vt 0.415376 0.040347
vt 0.518603 0.245131
vt 0.516897 0.248146
vt 0.433974 0.617065
vt 0.303886 0.397019
vt 0.575172 0.217759
vt 0.695200 0.259745
vt 0.697680 0.259395
vt 0.656570 0.334624
vt 0.695272 0.395469
vt 0.524307 0.335140
vt 0.524740 0.332333
vt 0.432197 0.601672
vt 0.429518 0.602164
vt 0.502108 0.045681
vt 0.510801 0.016728
vt 0.522400 0.332059
vt 0.432269 0.461337
vt 0.571367 0.218255
vt 0.573224 0.220021
vt 0.301328 0.647846
vt 0.293230 0.618801
vt 0.381274 0.080015
vt 0.497305 0.149825
vt 0.434531 0.237692
vt 0.215813 0.747292
vt 0.151124 0.727009
vt 0.207857 0.725050
vt 0.262869 0.466563
vt 0.285383 0.532442
vt 0.267677 0.545256
vt 0.459006 0.345688
vt 0.425820 0.312912
vt 0.451584 0.297713
vt 0.459316 0.349209
vt 0.433932 0.401419
vt 0.432185 0.355494
vt 0.451605 0.457852
vt 0.433655 0.405099
vt 0.461234 0.409338
vt 0.288697 0.532361
vt 0.328015 0.438488
vt 0.413652 0.464557
vt 0.707653 0.334756
vt 0.734731 0.281204
vt 0.733877 0.333901
vt 0.337502 0.580362
vt 0.390213 0.561812
vt 0.395104 0.580362
vt 0.707662 0.338788
vt 0.705944 0.336675
vt 0.707047 0.268587
vt 0.708926 0.267197
vt 0.708700 0.270089
vt 0.217524 0.749148
vt 0.219451 0.747310
vt 0.144563 0.751667
vt 0.142763 0.750125
vt 0.146231 0.749694
vt 0.231233 0.448746
vt 0.233193 0.450448
vt 0.229512 0.450492
vt 0.460769 0.347807
vt 0.463044 0.407579
vt 0.461464 0.405650
vt 0.403543 0.058576
vt 0.401627 0.056867
vt 0.405342 0.056834
vt 0.413363 0.508186
vt 0.412472 0.512049
vt 0.410544 0.509140
vt 0.390577 0.558485
vt 0.393118 0.559879
vt 0.339488 0.560912
vt 0.342186 0.558485
vt 0.343377 0.561812
vt 0.287423 0.535483
vt 0.283054 0.464986
vt 0.284725 0.467328
vt 0.281460 0.468221
vt 0.328542 0.435635
vt 0.324878 0.437124
vt 0.431540 0.402737
vt 0.416324 0.465711
vt 0.414950 0.462206
vt 0.733884 0.337933
vt 0.735056 0.278354
vt 0.265783 0.751667
vt 0.265257 0.749701
vt 0.211493 0.725062
vt 0.269758 0.548268
vt 0.156043 0.439878
vt 0.155119 0.437750
vt 0.228944 0.469273
vt 0.284627 0.440028
vt 0.431863 0.351976
vt 0.376642 0.429374
vt 0.375322 0.426867
vt 0.464093 0.068305
vt 0.465120 0.070599
vt 0.708732 0.390526
vt 0.735056 0.382897
vt 0.708941 0.393483
vt 0.358210 0.068126
vt 0.734754 0.379977
vt 0.140653 0.560575
vt 0.249358 0.562879
vt 0.267978 0.652137
vt 0.487300 0.440992
vt 0.469815 0.500045
vt 0.469054 0.448095
vt 0.126662 0.666586
vt 0.100848 0.698824
vt 0.108165 0.666142
vt 0.711570 0.090387
vt 0.678651 0.058376
vt 0.699964 0.043734
vt 0.712113 0.093553
vt 0.690574 0.121789
vt 0.688433 0.098964
vt 0.700954 0.174037
vt 0.690399 0.125282
vt 0.714442 0.125976
vt 0.105035 0.664289
vt 0.042058 0.707468
vt 0.008262 0.648054
vt 0.875722 0.375757
vt 0.900779 0.344752
vt 0.898812 0.376183
vt 0.098039 0.599988
vt 0.045473 0.590588
vt 0.048939 0.573876
vt 0.875854 0.379433
vt 0.874079 0.377127
vt 0.876732 0.334733
vt 0.878706 0.333141
vt 0.878202 0.336109
vt 0.489243 0.439175
vt 0.487541 0.437400
vt 0.490249 0.507902
vt 0.488616 0.509684
vt 0.488249 0.505817
vt 0.859641 0.213638
vt 0.857554 0.215160
vt 0.858464 0.211680
vt 0.856327 0.281549
vt 0.854523 0.283069
vt 0.854405 0.279680
vt 0.716368 0.124079
vt 0.714826 0.122489
vt 0.209164 0.328258
vt 0.207223 0.326296
vt 0.211272 0.326246
vt 0.012865 0.608636
vt 0.014999 0.605603
vt 0.015327 0.608949
vt 0.043374 0.593286
vt 0.041828 0.590620
vt 0.087340 0.614314
vt 0.083867 0.614821
vt 0.084706 0.611453
vt 0.107833 0.662205
vt 0.098335 0.701250
vt 0.097406 0.698364
vt 0.040370 0.710033
vt 0.044298 0.710138
vt 0.688144 0.123265
vt 0.006171 0.645686
vt 0.006093 0.649715
vt 0.898709 0.379854
vt 0.494172 0.396551
vt 0.496266 0.395912
vt 0.100628 0.602887
vt 0.126200 0.662646
vt 0.496266 0.546101
vt 0.114861 0.710138
vt 0.117446 0.707752
vt 0.859641 0.307311
vt 0.015797 0.701850
vt 0.015778 0.704772
vt 0.278241 0.332229
vt 0.276760 0.330011
vt 0.678651 0.166275
vt 0.700050 0.176496
vt 0.160421 0.329975
vt 0.878940 0.415286
vt 0.901170 0.408440
vt 0.797145 0.376413
vt 0.838877 0.443889
vt 0.752482 0.492114
vt 0.832935 0.501705
vt 0.855335 0.536487
vt 0.836866 0.536718
vt 0.687898 0.824635
vt 0.701615 0.780730
vt 0.703909 0.819664
vt 0.827471 0.671929
vt 0.851336 0.703240
vt 0.830760 0.711497
vt 0.827467 0.668086
vt 0.851336 0.621756
vt 0.848541 0.666729
vt 0.085688 0.864811
vt 0.016235 0.825363
vt 0.049711 0.771992
vt 0.862037 0.151977
vt 0.840720 0.184680
vt 0.841436 0.151009
vt 0.836956 0.540229
vt 0.853821 0.589297
vt 0.834950 0.599522
vt 0.862024 0.147940
vt 0.863794 0.150117
vt 0.862865 0.193838
vt 0.860893 0.195184
vt 0.861170 0.192761
vt 0.835014 0.538649
vt 0.685804 0.826414
vt 0.687892 0.828396
vt 0.682849 0.776257
vt 0.684301 0.774448
vt 0.685128 0.777623
vt 0.825727 0.670199
vt 0.853448 0.380433
vt 0.851693 0.382213
vt 0.851566 0.378682
vt 0.099669 0.830450
vt 0.099074 0.834385
vt 0.097066 0.831625
vt 0.085401 0.867947
vt 0.088208 0.866076
vt 0.027453 0.862787
vt 0.030304 0.861707
vt 0.030312 0.864860
vt 0.013262 0.824103
vt 0.013997 0.828027
vt 0.015228 0.782009
vt 0.016235 0.784501
vt 0.013262 0.784847
vt 0.850831 0.668583
vt 0.848620 0.670567
vt 0.098502 0.792621
vt 0.095847 0.792091
vt 0.096509 0.789700
vt 0.841453 0.146974
vt 0.840420 0.187094
vt 0.832935 0.600088
vt 0.855488 0.539998
vt 0.682849 0.867947
vt 0.685132 0.867179
vt 0.700861 0.777569
vt 0.829219 0.712215
vt 0.047558 0.769927
vt 0.865363 0.325971
vt 0.867947 0.325039
vt 0.861110 0.102728
vt 0.840420 0.107039
vt 0.860836 0.100211
vt 0.051379 0.770040
vt 0.865239 0.418656
vt 0.840696 0.109555
vt 0.394901 0.875590
vt 0.405060 0.790141
vt 0.484589 0.807177
vt 0.884059 0.675039
vt 0.909476 0.728365
vt 0.885887 0.731392
vt 0.925431 0.612103
vt 0.908049 0.582353
vt 0.927819 0.582252
vt 0.944570 0.749533
vt 0.922850 0.784980
vt 0.919173 0.756213
vt 0.944606 0.822266
vt 0.922803 0.788139
vt 0.949151 0.788589
vt 0.815626 0.920427
vt 0.753397 0.932889
vt 0.745459 0.867443
vt 0.886977 0.842604
vt 0.857513 0.886109
vt 0.860670 0.844376
vt 0.884044 0.755478
vt 0.909429 0.732073
vt 0.908072 0.748066
vt 0.886866 0.839038
vt 0.888711 0.840811
vt 0.884582 0.895404
vt 0.882563 0.897017
vt 0.883047 0.894566
vt 0.883850 0.733301
vt 0.885773 0.735109
vt 0.930240 0.581223
vt 0.928836 0.579160
vt 0.927627 0.613886
vt 0.925369 0.615868
vt 0.951004 0.787115
vt 0.949159 0.785429
vt 0.244759 0.506666
vt 0.242637 0.508729
vt 0.242601 0.504741
vt 0.860537 0.840811
vt 0.858304 0.842859
vt 0.817014 0.923319
vt 0.818113 0.919822
vt 0.800659 0.938546
vt 0.801535 0.935554
vt 0.804121 0.937162
vt 0.750696 0.933856
vt 0.753417 0.935930
vt 0.742713 0.907142
vt 0.745459 0.908312
vt 0.743333 0.911059
vt 0.920590 0.786596
vt 0.783300 0.862437
vt 0.781136 0.864029
vt 0.779349 0.861899
vt 0.476234 0.866704
vt 0.485884 0.808967
vt 0.477932 0.865625
vt 0.856947 0.888534
vt 0.809071 0.874722
vt 0.881938 0.755820
vt 0.881938 0.674367
vt 0.909064 0.579261
vt 0.906159 0.605991
vt 0.930240 0.660304
vt 0.742713 0.867495
vt 0.249171 0.462102
vt 0.246773 0.462610
vt 0.224430 0.505903
vt 0.249171 0.544024
vt 0.809487 0.872461
vt 0.882350 0.810597
vt 0.856947 0.818202
vt 0.292797 0.591334
vt 0.301082 0.557969
vt 0.301082 0.592982
vt 0.192098 0.956714
vt 0.200765 0.959120
vt 0.192098 0.971768
vt 0.285596 0.593858
vt 0.292797 0.556322
vt 0.203490 0.966862
vt 0.124586 0.631234
vt 0.115595 0.592918
vt 0.124586 0.593056
vt 0.120541 0.576082
vt 0.534809 0.020945
vt 0.525310 0.042840
vt 0.526490 0.018103
vt 0.926087 0.937593
vt 0.921630 0.941303
vt 0.915405 0.924615
vt 0.917138 0.977998
vt 0.926087 0.977067
vt 0.912681 0.942234
vt 0.971201 0.211796
vt 0.980074 0.175143
vt 0.980074 0.211154
vt 0.971201 0.175784
vt 0.976976 0.164650
vt 0.525310 0.011113
vt 0.540768 0.009805
vt 0.968044 0.977762
vt 0.975921 0.931128
vt 0.975921 0.980074
vt 0.458369 0.568860
vt 0.454336 0.563504
vt 0.464731 0.546736
vt 0.411601 0.593859
vt 0.425668 0.549106
vt 0.420358 0.593736
vt 0.416910 0.549229
vt 0.422423 0.526729
vt 0.494190 0.099669
vt 0.485444 0.060238
vt 0.494190 0.061317
vt 0.411601 0.544207
vt 0.549712 0.876107
vt 0.558559 0.820037
vt 0.558559 0.876253
vt 0.549712 0.819891
vt 0.554516 0.795559
vt 0.719972 0.863794
vt 0.728826 0.804940
vt 0.728826 0.863751
vt 0.719972 0.804984
vt 0.724165 0.780851
vt 0.463163 0.614623
vt 0.467196 0.569600
vt 0.239037 0.957783
vt 0.251248 0.959834
vt 0.245142 0.971768
vt 0.512645 0.646723
vt 0.521183 0.614675
vt 0.521183 0.647846
vt 0.984227 0.018179
vt 0.979935 0.023084
vt 0.973843 0.006461
vt 0.975511 0.056064
vt 0.984227 0.055266
vt 0.971220 0.023881
vt 0.412751 0.759973
vt 0.421515 0.720554
vt 0.421515 0.759935
vt 0.412751 0.720592
vt 0.416975 0.703692
vt 0.933953 0.564789
vt 0.942698 0.528570
vt 0.942698 0.564522
vt 0.933953 0.528837
vt 0.937811 0.511317
vt 0.443416 0.658759
vt 0.450585 0.634363
vt 0.450585 0.662381
vt 0.982151 0.465703
vt 0.977564 0.470797
vt 0.971662 0.454216
vt 0.973446 0.502496
vt 0.982151 0.501891
vt 0.968859 0.471402
vt 0.064335 0.973845
vt 0.052159 0.966684
vt 0.061414 0.959523
vt 0.005825 0.382597
vt 0.079985 0.245022
vt 0.146388 0.397078
vt 0.149186 0.426706
vt 0.499870 0.045243
vt 0.433622 0.618793
vt 0.227232 0.395125
vt 0.656532 0.331254
vt 0.697680 0.395560
vt 0.429518 0.460958
vt 0.377842 0.242942
vt 0.333004 0.197178
vt 0.344596 0.135521
vt 0.464086 0.083095
vt 0.497305 0.211009
vt 0.425820 0.444580
vt 0.232628 0.469161
vt 0.285509 0.437750
vt 0.378897 0.427933
vt 0.357185 0.070599
vt 0.219351 0.668610
vt 0.149625 0.668610
vt 0.138102 0.634905
vt 0.183011 0.544199
vt 0.283432 0.612173
vt 0.687957 0.095783
vt 0.679581 0.163827
vt 0.901170 0.341741
vt 0.494254 0.545478
vt 0.857569 0.306745
vt 0.013440 0.702178
vt 0.158657 0.332229
vt 0.738319 0.450274
vt 0.739833 0.400791
vt 0.838877 0.392712
vt 0.821396 0.489174
vt 0.852083 0.507517
vt 0.830831 0.613945
vt 0.703902 0.823425
vt 0.867947 0.419439
vt 0.440551 0.880406
vt 0.394901 0.822241
vt 0.466460 0.787129
vt 0.908007 0.683087
vt 0.919173 0.815039
vt 0.811716 0.875225
vt 0.906104 0.609758
vt 0.927844 0.659837
vt 0.224475 0.509890
vt 0.744825 0.865202
vt 0.246705 0.543166
vt 0.285596 0.558846
vt 0.115595 0.631097
vt 0.533629 0.045681
vt 0.541948 0.016796
vt 0.532450 0.006964
vt 0.968044 0.928816
vt 0.485444 0.098589
vt 0.454336 0.613882
vt 0.239037 0.966423
vt 0.245142 0.954488
vt 0.251248 0.968474
vt 0.512645 0.613552
vt 0.443416 0.630742
vt 0.066446 0.966684
vt 0.057192 0.973845
vt 0.054270 0.959523
s 0
f 13/1/1 7/2/1 2/3/1
f 8/4/2 30/5/2 25/6/2
f 15/7/3 28/8/3 11/9/3
f 18/10/4 31/11/4 14/12/4
f 23/13/5 29/14/5 35/15/5
f 3/16/6 24/17/6 20/18/6
f 9/19/7 22/20/7 5/21/7
f 1/22/8 2/23/8 3/16/8
f 4/24/9 5/21/9 6/25/9
f 7/26/10 8/4/10 9/19/10
f 10/27/11 11/28/11 12/29/11
f 13/30/12 14/12/12 15/7/12
f 16/31/13 17/32/13 18/33/13
f 19/34/14 20/18/14 21/35/14
f 22/36/15 23/13/15 24/37/15
f 25/38/16 26/39/16 27/40/16
f 28/41/17 29/14/17 30/42/17
f 31/11/18 32/43/18 33/44/18
f 34/45/19 35/15/19 36/46/19
f 1/22/20 20/18/20 19/34/20
f 4/47/21 3/16/21 2/23/21
f 5/21/22 24/48/22 6/25/22
f 23/13/23 20/49/23 24/37/23
f 4/24/24 9/19/24 5/21/24
f 25/6/25 9/19/25 8/4/25
f 23/13/26 27/40/26 26/39/26
f 10/27/27 8/50/27 7/51/27
f 28/52/28 12/29/28 11/28/28
f 29/14/29 25/38/29 30/42/29
f 10/27/30 15/53/30 11/28/30
f 14/12/31 33/44/31 15/7/31
f 29/14/32 33/54/32 32/55/32
f 16/31/33 14/56/33 13/57/33
f 34/58/34 18/10/34 17/59/34
f 35/15/35 31/60/35 36/46/35
f 16/31/36 1/61/36 17/32/36
f 35/15/37 19/62/37 21/63/37
f 1/22/38 34/64/38 17/65/38
f 49/66/39 43/67/39 38/68/39
f 44/69/40 72/70/40 67/71/40
f 51/72/41 70/73/41 47/74/41
f 54/75/42 73/76/42 50/77/42
f 53/78/43 81/79/43 76/80/43
f 60/81/44 79/82/44 56/83/44
f 71/84/45 77/85/45 83/86/45
f 39/87/46 66/88/46 62/89/46
f 45/90/47 64/91/47 41/92/47
f 37/93/48 38/94/48 39/87/48
f 40/95/49 41/96/49 42/97/49
f 43/98/50 44/69/50 45/99/50
f 46/100/51 47/101/51 48/102/51
f 49/103/52 50/104/52 51/105/52
f 52/106/53 53/78/53 54/75/53
f 55/107/54 56/83/54 57/108/54
f 58/109/55 59/110/55 60/111/55
f 61/112/56 62/113/56 63/114/56
f 64/91/57 65/115/57 66/116/57
f 67/117/58 68/118/58 69/119/58
f 70/73/59 71/84/59 72/120/59
f 73/121/60 74/122/60 75/123/60
f 76/124/61 77/85/61 78/125/61
f 79/82/62 80/126/62 81/79/62
f 82/127/63 83/86/63 84/128/63
f 37/93/64 62/89/64 61/129/64
f 40/95/65 39/87/65 38/94/65
f 64/130/66 42/97/66 41/96/66
f 65/115/67 62/113/67 66/116/67
f 40/131/68 45/99/68 41/132/68
f 44/69/69 69/133/69 45/99/69
f 65/115/70 69/119/70 68/118/70
f 46/100/71 44/69/71 43/98/71
f 70/73/72 48/134/72 47/74/72
f 71/84/73 67/117/73 72/120/73
f 49/103/74 47/135/74 46/136/74
f 50/104/75 75/137/75 51/105/75
f 71/84/76 75/123/76 74/122/76
f 49/103/77 54/138/77 50/104/77
f 53/78/78 78/139/78 54/75/78
f 74/122/79 78/125/79 77/85/79
f 55/107/80 53/78/80 52/106/80
f 79/82/81 57/108/81 56/83/81
f 80/140/82 76/124/82 81/141/82
f 58/109/83 56/142/83 55/143/83
f 59/144/84 84/145/84 60/146/84
f 80/140/85 84/128/85 83/86/85
f 58/109/86 37/147/86 59/110/86
f 83/86/87 61/112/87 63/114/87
f 37/93/88 82/148/88 59/144/88
f 97/149/89 91/150/89 86/151/89
f 92/152/90 120/153/90 115/154/90
f 95/155/91 123/156/91 118/157/91
f 102/158/92 121/159/92 98/160/92
f 101/161/93 129/162/93 124/163/93
f 108/164/94 127/165/94 104/166/94
f 119/167/95 125/168/95 131/169/95
f 87/170/96 114/171/96 110/172/96
f 93/173/97 112/174/97 89/175/97
f 85/176/98 86/177/98 87/170/98
f 88/178/99 89/179/99 90/180/99
f 91/181/100 92/152/100 93/182/100
f 94/183/101 95/184/101 96/185/101
f 97/186/102 98/187/102 99/188/102
f 100/189/103 101/190/103 102/191/103
f 103/192/104 104/166/104 105/193/104
f 106/194/105 107/195/105 108/196/105
f 109/197/106 110/198/106 111/199/106
f 112/174/107 113/200/107 114/201/107
f 115/202/108 116/203/108 117/204/108
f 118/157/109 119/167/109 120/205/109
f 121/206/110 122/207/110 123/156/110
f 124/208/111 125/168/111 126/209/111
f 127/165/112 128/210/112 129/162/112
f 130/211/113 131/169/113 132/212/113
f 85/176/114 110/172/114 109/213/114
f 86/177/115 90/180/115 87/170/115
f 89/179/116 114/171/116 90/180/116
f 113/200/117 110/198/117 114/201/117
f 91/181/118 89/214/118 88/215/118
f 92/216/119 117/204/119 93/173/119
f 113/200/120 117/204/120 116/203/120
f 91/181/121 96/185/121 92/152/121
f 118/157/122 96/217/122 95/155/122
f 119/167/123 115/202/123 120/205/123
f 97/218/124 95/184/124 94/183/124
f 98/219/125 123/156/125 99/220/125
f 122/207/126 118/157/126 123/156/126
f 97/186/127 102/191/127 98/187/127
f 124/163/128 102/158/128 101/161/128
f 122/207/129 126/209/129 125/168/129
f 103/221/130 101/190/130 100/189/130
f 104/166/131 129/162/131 105/193/131
f 128/222/132 124/208/132 129/223/132
f 103/224/133 108/196/133 104/225/133
f 130/226/134 108/164/134 107/227/134
f 128/222/135 132/212/135 131/169/135
f 106/194/136 85/228/136 107/195/136
f 111/199/137 130/211/137 109/197/137
f 107/229/138 109/213/138 130/230/138
f 148/231/139 142/232/139 136/233/139
f 144/234/140 160/235/140 140/236/140
f 143/237/141 168/238/141 163/239/141
f 150/240/142 166/241/142 146/242/142
f 149/243/143 174/244/143 169/245/143
f 158/246/144 164/247/144 170/248/144
f 135/249/145 159/250/145 155/251/145
f 141/252/146 157/253/146 137/254/146
f 133/255/147 134/256/147 135/249/147
f 136/257/148 137/258/148 138/259/148
f 139/260/149 140/236/149 141/252/149
f 142/261/150 143/237/150 144/262/150
f 145/263/151 146/264/151 147/265/151
f 148/266/152 149/243/152 150/240/152
f 151/267/153 152/268/153 153/269/153
f 154/270/154 155/271/154 156/272/154
f 157/273/155 158/246/155 159/274/155
f 160/275/156 161/276/156 162/277/156
f 163/278/157 164/247/157 165/279/157
f 166/280/158 167/281/158 168/282/158
f 169/245/159 170/283/159 171/284/159
f 172/285/160 173/286/160 174/287/160
f 133/255/161 155/251/161 154/288/161
f 136/257/162 135/249/162 134/256/162
f 157/289/163 138/259/163 137/258/163
f 158/246/164 155/271/164 159/274/164
f 136/290/165 141/252/165 137/254/165
f 140/236/166 162/291/166 141/252/166
f 158/246/167 162/277/167 161/276/167
f 139/292/168 144/262/168 140/293/168
f 163/239/169 144/262/169 143/237/169
f 161/276/170 165/279/170 164/247/170
f 145/263/171 143/237/171 142/261/171
f 166/294/172 147/265/172 146/264/172
f 167/281/173 163/278/173 168/282/173
f 145/295/174 150/240/174 146/242/174
f 149/243/175 171/284/175 150/240/175
f 167/281/176 171/296/176 170/248/176
f 151/267/177 149/297/177 148/298/177
f 152/299/178 174/300/178 153/301/178
f 173/286/179 169/302/179 174/287/179
f 151/267/180 133/303/180 152/268/180
f 173/286/181 154/270/181 156/272/181
f 133/255/182 172/304/182 152/299/182
f 190/305/183 184/306/183 178/307/183
f 186/308/184 202/309/184 182/310/184
f 189/311/185 205/312/185 185/313/185
f 188/314/186 213/315/186 208/316/186
f 195/317/187 211/318/187 191/319/187
f 200/320/188 206/321/188 212/322/188
f 177/323/189 201/324/189 197/325/189
f 179/326/190 204/327/190 199/328/190
f 175/329/191 176/330/191 177/323/191
f 178/331/192 179/332/192 180/333/192
f 181/334/193 182/310/193 183/335/193
f 184/336/194 185/313/194 186/337/194
f 187/338/195 188/339/195 189/311/195
f 190/340/196 191/319/196 192/341/196
f 193/342/197 194/343/197 195/344/197
f 196/345/198 197/325/198 198/346/198
f 199/347/199 200/320/199 201/348/199
f 202/349/200 203/350/200 204/351/200
f 205/352/201 206/321/201 207/353/201
f 208/354/202 209/355/202 210/356/202
f 211/318/203 212/357/203 213/315/203
f 214/358/204 215/359/204 216/360/204
f 196/345/205 177/323/205 197/325/205
f 176/361/206 180/362/206 177/363/206
f 199/364/207 180/333/207 179/332/207
f 198/365/208 201/348/208 200/320/208
f 178/366/209 183/335/209 179/326/209
f 182/310/210 204/327/210 183/335/210
f 203/350/211 199/347/211 204/351/211
f 184/367/212 182/310/212 181/334/212
f 185/313/213 207/368/213 186/337/213
f 206/321/214 202/349/214 207/353/214
f 184/336/215 189/311/215 185/313/215
f 188/339/216 210/369/216 189/311/216
f 206/321/217 210/356/217 209/355/217
f 190/370/218 188/339/218 187/338/218
f 211/318/219 192/341/219 191/319/219
f 212/322/220 208/354/220 213/371/220
f 190/372/221 195/344/221 191/373/221
f 194/343/222 216/374/222 195/344/222
f 212/322/223 216/360/223 215/359/223
f 176/375/224 194/343/224 193/342/224
f 198/365/225 214/358/225 196/376/225
f 194/377/226 196/345/226 214/378/226
f 218/379/227 223/380/227 217/381/227
f 223/382/228 224/383/228 229/384/228
f 219/385/229 224/386/229 218/379/229
f 224/383/230 225/387/230 229/384/230
f 219/388/231 226/389/231 225/390/231
f 225/390/232 226/389/232 229/391/232
f 221/392/233 226/393/233 220/394/233
f 226/395/234 227/396/234 229/397/234
f 222/398/235 227/396/235 221/399/235
f 227/396/236 228/400/236 229/397/236
f 217/401/237 228/402/237 222/403/237
f 228/402/238 223/404/238 229/405/238
f 221/392/239 219/406/239 217/407/239
f 231/408/240 236/409/240 230/410/240
f 236/411/241 237/412/241 242/413/241
f 232/414/242 237/415/242 231/416/242
f 237/415/243 238/417/243 242/418/243
f 232/419/244 239/420/244 238/421/244
f 238/417/245 239/422/245 242/418/245
f 234/423/246 239/424/246 233/425/246
f 239/424/247 240/426/247 242/427/247
f 235/428/248 240/429/248 234/430/248
f 240/429/249 241/431/249 242/432/249
f 235/433/250 236/411/250 241/434/250
f 241/434/251 236/411/251 242/413/251
f 234/435/252 232/436/252 230/437/252
f 244/438/253 249/439/253 243/440/253
f 249/441/254 250/442/254 255/443/254
f 245/444/255 250/442/255 244/445/255
f 250/442/256 251/446/256 255/443/256
f 246/447/257 251/448/257 245/449/257
f 251/448/258 252/450/258 255/451/258
f 247/452/259 252/453/259 246/454/259
f 252/453/260 253/455/260 255/456/260
f 248/457/261 253/458/261 247/459/261
f 253/460/262 254/461/262 255/462/262
f 243/463/263 254/461/263 248/464/263
f 254/461/264 249/465/264 255/462/264
f 247/466/265 245/467/265 243/468/265
f 2/3/1 16/469/1 13/1/1
f 13/1/1 10/470/1 7/2/1
f 7/2/1 4/471/1 2/3/1
f 8/4/2 12/472/2 30/5/2
f 15/7/3 33/44/3 28/8/3
f 18/10/4 36/473/4 31/11/4
f 35/15/5 21/63/5 23/13/5
f 23/13/5 26/39/5 29/14/5
f 29/14/5 32/55/5 35/15/5
f 3/16/6 6/474/6 24/17/6
f 9/19/7 27/475/7 22/20/7
f 1/22/20 3/16/20 20/18/20
f 4/47/21 6/474/21 3/16/21
f 5/21/22 22/20/22 24/48/22
f 23/13/23 21/63/23 20/49/23
f 4/24/24 7/26/24 9/19/24
f 25/6/25 27/475/25 9/19/25
f 23/13/26 22/36/26 27/40/26
f 10/27/27 12/29/27 8/50/27
f 28/52/28 30/476/28 12/29/28
f 29/14/29 26/39/29 25/38/29
f 10/27/30 13/477/30 15/53/30
f 14/12/31 31/11/31 33/44/31
f 29/14/32 28/41/32 33/54/32
f 16/31/33 18/33/33 14/56/33
f 34/58/34 36/473/34 18/10/34
f 35/15/35 32/55/35 31/60/35
f 16/31/36 2/478/36 1/61/36
f 35/15/37 34/45/37 19/62/37
f 1/22/38 19/34/38 34/64/38
f 38/68/39 58/479/39 55/480/39
f 55/480/39 52/481/39 49/66/39
f 49/66/39 46/482/39 43/67/39
f 43/67/39 40/483/39 38/68/39
f 38/68/39 55/480/39 49/66/39
f 44/69/40 48/102/40 72/70/40
f 51/72/41 75/123/41 70/73/41
f 54/75/42 78/139/42 73/76/42
f 53/78/43 57/108/43 81/79/43
f 60/81/44 84/484/44 79/82/44
f 83/86/45 63/114/45 65/115/45
f 65/115/45 68/118/45 71/84/45
f 71/84/45 74/122/45 77/85/45
f 77/85/45 80/140/45 83/86/45
f 83/86/45 65/115/45 71/84/45
f 39/87/46 42/97/46 66/88/46
f 45/90/47 69/119/47 64/91/47
f 37/93/64 39/87/64 62/89/64
f 40/95/65 42/97/65 39/87/65
f 64/130/66 66/88/66 42/97/66
f 65/115/67 63/114/67 62/113/67
f 40/131/68 43/98/68 45/99/68
f 44/69/69 67/71/69 69/133/69
f 65/115/70 64/91/70 69/119/70
f 46/100/71 48/102/71 44/69/71
f 70/73/72 72/120/72 48/134/72
f 71/84/73 68/118/73 67/117/73
f 49/103/74 51/105/74 47/135/74
f 50/104/75 73/485/75 75/137/75
f 71/84/76 70/73/76 75/123/76
f 49/103/77 52/486/77 54/138/77
f 53/78/78 76/80/78 78/139/78
f 74/122/79 73/121/79 78/125/79
f 55/107/80 57/108/80 53/78/80
f 79/82/81 81/79/81 57/108/81
f 80/140/82 77/85/82 76/124/82
f 58/109/83 60/111/83 56/142/83
f 59/144/84 82/148/84 84/145/84
f 80/140/85 79/487/85 84/128/85
f 58/109/86 38/488/86 37/147/86
f 83/86/87 82/127/87 61/112/87
f 37/93/88 61/129/88 82/148/88
f 86/151/89 106/489/89 103/490/89
f 103/490/89 100/491/89 97/149/89
f 97/149/89 94/492/89 91/150/89
f 91/150/89 88/493/89 86/151/89
f 86/151/89 103/490/89 97/149/89
f 92/152/90 96/185/90 120/153/90
f 95/155/91 99/220/91 123/156/91
f 102/158/92 126/494/92 121/159/92
f 101/161/93 105/193/93 129/162/93
f 108/164/94 132/495/94 127/165/94
f 131/169/95 111/199/95 113/200/95
f 113/200/95 116/203/95 119/167/95
f 119/167/95 122/207/95 125/168/95
f 125/168/95 128/222/95 131/169/95
f 131/169/95 113/200/95 119/167/95
f 87/170/96 90/180/96 114/171/96
f 93/173/97 117/204/97 112/174/97
f 85/176/114 87/170/114 110/172/114
f 86/177/115 88/178/115 90/180/115
f 89/179/116 112/496/116 114/171/116
f 113/200/117 111/199/117 110/198/117
f 91/181/118 93/182/118 89/214/118
f 92/216/119 115/202/119 117/204/119
f 113/200/120 112/174/120 117/204/120
f 91/181/121 94/183/121 96/185/121
f 118/157/122 120/205/122 96/217/122
f 119/167/123 116/203/123 115/202/123
f 97/218/124 99/497/124 95/184/124
f 98/219/125 121/206/125 123/156/125
f 122/207/126 119/167/126 118/157/126
f 97/186/266 100/189/266 102/191/266
f 124/163/128 126/494/128 102/158/128
f 122/207/129 121/206/129 126/209/129
f 103/221/130 105/498/130 101/190/130
f 104/166/131 127/165/131 129/162/131
f 128/222/132 125/168/132 124/208/132
f 103/224/133 106/194/133 108/196/133
f 130/226/134 132/495/134 108/164/134
f 128/222/135 127/499/135 132/212/135
f 106/194/136 86/500/136 85/228/136
f 111/199/137 131/169/137 130/211/137
f 107/229/138 85/176/138 109/213/138
f 134/501/139 151/502/139 148/231/139
f 148/231/139 145/503/139 142/232/139
f 142/232/139 139/504/139 136/233/139
f 136/233/139 134/501/139 148/231/139
f 144/234/140 165/505/140 160/235/140
f 143/237/141 147/265/141 168/238/141
f 150/240/142 171/284/142 166/241/142
f 149/243/143 153/506/143 174/244/143
f 173/286/144 156/272/144 158/246/144
f 158/246/144 161/276/144 164/247/144
f 164/247/144 167/281/144 170/248/144
f 170/248/144 173/286/144 158/246/144
f 135/249/145 138/259/145 159/250/145
f 141/252/146 162/291/146 157/253/146
f 133/255/267 135/249/267 155/251/267
f 136/257/162 138/259/162 135/249/162
f 157/289/163 159/250/163 138/259/163
f 158/246/164 156/272/164 155/271/164
f 136/290/165 139/260/165 141/252/165
f 140/236/166 160/235/166 162/291/166
f 158/246/167 157/273/167 162/277/167
f 139/292/168 142/261/168 144/262/168
f 163/239/169 165/507/169 144/262/169
f 161/276/170 160/275/170 165/279/170
f 145/263/171 147/265/171 143/237/171
f 166/294/172 168/238/172 147/265/172
f 167/281/173 164/247/173 163/278/173
f 145/295/174 148/266/174 150/240/174
f 149/243/175 169/245/175 171/284/175
f 167/281/176 166/280/176 171/296/176
f 151/267/177 153/269/177 149/297/177
f 152/299/178 172/304/178 174/300/178
f 173/286/179 170/248/179 169/302/179
f 151/267/180 134/508/180 133/303/180
f 173/286/181 172/285/181 154/270/181
f 133/255/182 154/288/182 172/304/182
f 176/361/183 193/509/183 190/305/183
f 190/305/183 187/510/183 184/306/183
f 184/306/183 181/511/183 178/307/183
f 178/307/183 176/361/183 190/305/183
f 186/308/184 207/512/184 202/309/184
f 189/311/185 210/369/185 205/312/185
f 188/314/186 192/341/186 213/315/186
f 195/317/187 216/513/187 211/318/187
f 215/359/188 198/365/188 200/320/188
f 200/320/188 203/350/188 206/321/188
f 206/321/188 209/355/188 212/322/188
f 212/322/188 215/359/188 200/320/188
f 177/323/189 180/333/189 201/324/189
f 179/326/190 183/335/190 204/327/190
f 196/345/205 175/329/205 177/323/205
f 176/361/206 178/307/206 180/362/206
f 199/364/207 201/324/207 180/333/207
f 198/365/268 197/514/268 201/348/268
f 178/366/209 181/334/209 183/335/209
f 182/310/210 202/309/210 204/327/210
f 203/350/211 200/320/211 199/347/211
f 184/367/269 186/308/269 182/310/269
f 185/313/213 205/312/213 207/368/213
f 206/321/214 203/350/214 202/349/214
f 184/336/215 187/338/215 189/311/215
f 188/339/216 208/515/216 210/369/216
f 206/321/217 205/352/217 210/356/217
f 190/370/218 192/516/218 188/339/218
f 211/318/219 213/315/219 192/341/219
f 212/322/220 209/355/220 208/354/220
f 190/372/221 193/342/221 195/344/221
f 194/343/222 214/517/222 216/374/222
f 212/322/223 211/518/223 216/360/223
f 176/375/224 175/519/224 194/343/224
f 198/365/225 215/359/225 214/358/225
f 194/377/226 175/329/226 196/345/226
f 218/379/227 224/386/227 223/380/227
f 219/385/229 225/520/229 224/386/229
f 219/388/231 220/521/231 226/389/231
f 221/392/233 227/522/233 226/393/233
f 222/398/235 228/400/235 227/396/235
f 217/401/237 223/404/237 228/402/237
f 217/407/239 222/523/239 221/392/239
f 221/392/239 220/394/239 219/406/239
f 219/406/239 218/524/239 217/407/239
f 231/408/240 237/525/240 236/409/240
f 232/414/242 238/417/242 237/415/242
f 232/419/244 233/526/244 239/420/244
f 234/423/246 240/426/246 239/424/246
f 235/428/248 241/431/248 240/429/248
f 235/433/250 230/527/250 236/411/250
f 230/437/252 235/528/252 234/435/252
f 234/435/252 233/529/252 232/436/252
f 232/436/252 231/530/252 230/437/252
f 244/438/253 250/531/253 249/439/253
f 245/444/255 251/446/255 250/442/255
f 246/447/257 252/450/257 251/448/257
f 247/452/259 253/455/259 252/453/259
f 248/457/261 254/532/261 253/458/261
f 243/463/263 249/465/263 254/461/263
f 243/468/265 248/533/265 247/466/265
f 247/466/265 246/534/265 245/467/265
f 245/467/265 244/535/265 243/468/265
