# Blender 4.3.2
# www.blender.org
o toxic_ore_2
v 0.402389 -0.082088 0.045979
v 0.400309 -0.090632 0.037419
v 0.401938 -0.080178 0.029559
v 0.115913 -0.060455 -0.331177
v 0.109885 -0.050481 -0.337751
v 0.125966 -0.050895 -0.328118
v -0.235102 -0.065186 -0.386358
v -0.243371 -0.056340 -0.383228
v -0.229071 -0.055049 -0.391037
v -0.383313 -0.105980 -0.040189
v -0.385592 -0.097593 -0.029419
v -0.387214 -0.095932 -0.047259
v -0.160205 -0.135945 0.308884
v -0.154758 -0.127162 0.317013
v -0.170245 -0.126516 0.307510
v 0.179029 -0.129011 0.339720
v 0.187561 -0.119348 0.339466
v 0.171375 -0.120496 0.346658
v 0.337067 0.054343 0.053369
v 0.336803 0.055862 0.036928
v 0.326181 0.064192 0.045805
v 0.086377 0.081358 -0.276278
v 0.089205 0.089337 -0.261332
v 0.102498 0.080725 -0.266747
v -0.214920 0.076279 -0.313547
v -0.202796 0.085402 -0.307236
v -0.200636 0.077490 -0.321398
v -0.335287 0.040747 -0.011101
v -0.326057 0.051475 -0.019340
v -0.336791 0.042734 -0.028898
v -0.137106 0.015799 0.284144
v -0.140147 0.026506 0.271534
v -0.152622 0.016214 0.274695
v 0.155078 0.022779 0.301993
v 0.142167 0.032276 0.297196
v 0.138935 0.021442 0.309236
v 0.440826 0.045707 0.039288
v 0.437147 0.035303 0.032281
v 0.439555 0.044063 0.022758
v 0.198627 0.004790 -0.256991
v 0.191651 0.013680 -0.264903
v 0.208121 0.014456 -0.257921
v -0.137010 0.005065 -0.231693
v -0.146947 0.014634 -0.232142
v -0.130511 0.013944 -0.240620
v -0.329173 0.027077 0.001450
v -0.332953 0.037534 0.008758
v -0.332008 0.035832 -0.007616
v -0.097542 0.065008 0.365411
v -0.092651 0.075431 0.372688
v -0.107915 0.074386 0.362360
v 0.205534 0.072543 0.420445
v 0.214391 0.082115 0.418773
v 0.199189 0.082686 0.425681
v 0.394932 0.178625 0.028625
v 0.393673 0.176948 0.012098
v 0.384638 0.187381 0.020082
v 0.173245 0.150014 -0.242262
v 0.177553 0.160889 -0.231067
v 0.189706 0.150855 -0.235269
v -0.126866 0.151033 -0.212387
v -0.114034 0.161129 -0.209089
v -0.110444 0.150247 -0.220879
v -0.290665 0.171240 0.001523
v -0.280736 0.180224 -0.006837
v -0.289674 0.169682 -0.014859
v -0.076848 0.204970 0.323739
v -0.079465 0.213184 0.309420
v -0.092132 0.203752 0.313477
v 0.195134 0.210750 0.363470
v 0.183500 0.219721 0.357170
v 0.179927 0.211354 0.370365
v 0.256247 0.203816 0.076994
v 0.253994 0.194025 0.068534
v 0.255467 0.203137 0.058358
v 0.098945 0.166491 -0.263401
v 0.092796 0.174749 -0.270417
v 0.107032 0.176777 -0.259419
v 0.007759 0.157095 -0.277552
v -0.004591 0.165117 -0.280668
v 0.014962 0.166730 -0.282495
v -0.315706 0.129747 -0.168476
v -0.325008 0.138171 -0.165106
v -0.310915 0.139218 -0.177372
v -0.414321 0.127758 0.033880
v -0.417123 0.137147 0.043046
v -0.417624 0.136303 0.024942
v -0.262237 0.153011 0.312728
v -0.258784 0.162878 0.321022
v -0.272666 0.161133 0.307909
v -0.076127 0.174341 0.398989
v -0.067998 0.184414 0.401879
v -0.086724 0.182598 0.400771
v 0.158148 0.194207 0.321535
v 0.165614 0.203988 0.316234
v 0.152427 0.203106 0.329004
v 0.211814 0.281910 0.072290
v 0.211138 0.281048 0.053665
v 0.199604 0.289620 0.062777
v 0.065670 0.256196 -0.237775
v 0.065848 0.265867 -0.223574
v 0.080057 0.257770 -0.226959
v -0.020793 0.247243 -0.246525
v -0.012114 0.257834 -0.235672
v -0.001325 0.249293 -0.248171
v -0.305162 0.223623 -0.143023
v -0.291444 0.234217 -0.141479
v -0.291135 0.224386 -0.155363
v -0.386117 0.222587 0.042054
v -0.376309 0.232505 0.032663
v -0.386532 0.221982 0.023947
v -0.244792 0.245683 0.288699
v -0.245123 0.254289 0.273195
v -0.258706 0.243744 0.275662
v -0.075095 0.264892 0.359739
v -0.084797 0.272664 0.347505
v -0.093813 0.262987 0.358676
v 0.132011 0.282062 0.282943
v 0.117015 0.289777 0.280783
v 0.118759 0.281330 0.295649
v 0.182779 0.250260 0.013076
v 0.180591 0.241091 0.003537
v 0.185635 0.250900 -0.004297
v 0.077113 0.255639 -0.279075
v 0.072140 0.265609 -0.284933
v 0.085743 0.264944 -0.277116
v -0.178297 0.261272 -0.231645
v -0.187492 0.271030 -0.228628
v -0.172897 0.271013 -0.239429
v -0.273700 0.256692 -0.049436
v -0.276853 0.266043 -0.039940
v -0.276933 0.266736 -0.057806
v -0.151399 0.243719 0.180730
v -0.145028 0.252903 0.187392
v -0.159816 0.253628 0.180320
v 0.072426 0.238836 0.137840
v 0.082881 0.248176 0.137114
v 0.066701 0.248284 0.146820
v 0.142162 0.391145 0.010303
v 0.145029 0.391746 -0.007070
v 0.134374 0.401399 0.000381
v 0.051920 0.403696 -0.231942
v 0.054117 0.412682 -0.218810
v 0.065539 0.402922 -0.224167
v -0.157109 0.407956 -0.185050
v -0.143733 0.417046 -0.182069
v -0.142504 0.407985 -0.195837
v -0.227632 0.403805 -0.032394
v -0.217675 0.413496 -0.040847
v -0.227687 0.404567 -0.050256
v -0.119958 0.393225 0.149487
v -0.122864 0.403439 0.137584
v -0.134746 0.393951 0.142414
v 0.063745 0.389509 0.107668
v 0.050651 0.399654 0.104334
v 0.047571 0.389570 0.117384
v -0.056778 0.076903 -0.226344
v -0.029639 0.097893 -0.202961
v 0.011098 0.094266 -0.210122
v 0.024696 0.069648 -0.240667
v -0.002443 0.048658 -0.264051
v -0.043180 0.052285 -0.256890
v -0.066198 0.241824 -0.363456
v -0.039058 0.262815 -0.340072
v 0.001679 0.259188 -0.347233
v 0.015277 0.234570 -0.377778
v -0.011863 0.213579 -0.401162
v -0.052600 0.217206 -0.394001
v -0.029124 0.302333 -0.423938
v 0.212690 0.062580 0.039448
v 0.172632 0.076328 0.089510
v 0.182838 0.048852 0.148168
v 0.233103 0.007628 0.156764
v 0.273161 -0.006120 0.106703
v 0.262955 0.021356 0.048045
v 0.402135 0.310960 0.122831
v 0.362076 0.324708 0.172893
v 0.372283 0.297232 0.231551
v 0.422548 0.256008 0.240147
v 0.462606 0.242260 0.190086
v 0.452400 0.269736 0.131428
v 0.486014 0.380076 0.213916
v 0.101763 0.131841 0.154381
v 0.075014 0.107227 0.209600
v 0.109503 0.065104 0.247105
v 0.170742 0.047594 0.229391
v 0.197491 0.072208 0.174171
v 0.163001 0.114331 0.136666
v 0.185229 0.304840 0.271927
v 0.158480 0.280226 0.327146
v 0.192970 0.238103 0.364651
v 0.254208 0.220593 0.346937
v 0.280957 0.245207 0.291718
v 0.246468 0.287330 0.254213
v 0.252178 0.329994 0.355145
vn 0.0298 -0.9941 -0.1044
vn -0.8720 0.3609 -0.3308
vn -0.8123 0.2241 0.5384
vn -0.0928 0.2340 0.9678
vn -0.0298 0.9941 0.1044
vn 0.7453 0.3863 -0.5434
vn 0.1338 0.4383 -0.8888
vn 0.9806 -0.1896 -0.0490
vn 0.4926 -0.2515 -0.8331
vn -0.4666 -0.1264 -0.8754
vn -0.9433 -0.3273 0.0553
vn -0.4896 -0.4091 0.7700
vn 0.4025 -0.3330 0.8527
vn 0.6465 0.7606 0.0599
vn 0.3229 0.8081 -0.4926
vn -0.3411 0.7975 -0.4976
vn -0.6962 0.7046 0.1375
vn -0.3785 0.6586 0.6504
vn 0.2500 0.6854 0.6839
vn 0.9022 0.4306 0.0253
vn 0.6575 -0.5156 -0.5495
vn 0.4696 0.4405 -0.7651
vn 0.4429 0.8544 -0.2718
vn 0.1423 -0.4834 -0.8638
vn -0.4517 0.4890 -0.7463
vn 0.0636 0.8753 -0.4794
vn -0.7387 -0.5555 -0.3817
vn -0.9383 0.3259 0.1157
vn -0.5488 0.8245 -0.1378
vn -0.6629 -0.6523 0.3677
vn -0.4984 0.2522 0.8294
vn -0.5216 0.7546 0.3982
vn -0.0546 -0.6598 0.7495
vn 0.3667 0.3146 0.8755
vn -0.0750 0.7512 0.6558
vn 0.6839 -0.5927 0.4254
vn 0.4324 0.7990 0.4179
vn 0.7433 0.3242 0.5852
vn 0.0067 -0.9950 0.0994
vn -0.7464 0.2017 -0.6342
vn -0.8215 0.2865 0.4930
vn -0.1750 0.3666 0.9138
vn -0.0067 0.9950 -0.0994
vn 0.7442 0.2060 -0.6354
vn -0.0741 0.1536 -0.9853
vn 0.9506 -0.3075 -0.0425
vn 0.3680 -0.4402 -0.8190
vn -0.4197 -0.4722 -0.7752
vn -0.9448 -0.3271 -0.0205
vn -0.5174 -0.3132 0.7964
vn 0.3977 -0.2121 0.8927
vn 0.7008 0.7023 -0.1247
vn 0.2744 0.6348 -0.7223
vn -0.3275 0.6425 -0.6928
vn -0.7158 0.6898 -0.1089
vn -0.4028 0.7602 0.5097
vn 0.2878 0.7716 0.5673
vn 0.9427 0.3171 -0.1040
vn 0.6186 -0.6500 -0.4415
vn 0.3743 0.2009 -0.9053
vn 0.4640 0.7556 -0.4623
vn -0.0551 -0.6876 -0.7240
vn -0.4435 0.1921 -0.8754
vn -0.0511 0.7261 -0.6857
vn -0.6117 -0.6560 -0.4422
vn -0.9513 0.2962 -0.0857
vn -0.4727 0.7513 -0.4606
vn -0.6616 -0.5753 0.4810
vn -0.5406 0.3543 0.7631
vn -0.5256 0.8133 0.2497
vn -0.1398 -0.5219 0.8415
vn 0.3897 0.4124 0.8234
vn -0.1138 0.8527 0.5099
vn 0.6889 -0.5564 0.4645
vn 0.5144 0.8268 0.2276
vn 0.8262 0.3223 0.4621
vn 0.0967 -0.9946 0.0373
vn -0.3273 0.3070 -0.8937
vn -0.8570 0.3062 -0.4146
vn -0.8457 0.3119 0.4330
vn -0.4236 0.3906 0.8173
vn 0.2417 0.4668 0.8507
vn -0.0967 0.9946 -0.0373
vn 0.8028 0.4320 -0.4108
vn 0.1004 0.3988 -0.9115
vn 0.9800 -0.1962 -0.0339
vn 0.6170 -0.1894 -0.7638
vn -0.0492 -0.4266 -0.9031
vn -0.5941 -0.3702 -0.7141
vn -0.9457 -0.3224 0.0412
vn -0.6122 -0.3722 0.6976
vn -0.0329 -0.2510 0.9674
vn 0.6932 -0.1466 0.7057
vn 0.5652 0.8229 -0.0586
vn 0.3177 0.7819 -0.5364
vn -0.1338 0.7606 -0.6352
vn -0.4884 0.7070 -0.5115
vn -0.7143 0.6998 -0.0070
vn -0.5048 0.7502 0.4272
vn -0.1147 0.7948 0.5959
vn 0.3641 0.8275 0.4275
vn 0.8693 0.4913 -0.0543
vn 0.7997 -0.5002 -0.3321
vn 0.5006 0.4605 -0.7330
vn 0.4270 0.8627 -0.2710
vn 0.1831 -0.5537 -0.8123
vn -0.1163 0.3616 -0.9250
vn 0.0022 0.8265 -0.5629
vn -0.2055 -0.6128 -0.7631
vn -0.6339 0.3282 -0.7003
vn -0.2561 0.7862 -0.5624
vn -0.6957 -0.6300 -0.3452
vn -0.9399 0.3412 0.0102
vn -0.5693 0.7766 -0.2698
vn -0.6704 -0.6110 0.4210
vn -0.6628 0.3668 0.6528
vn -0.5681 0.7876 0.2385
vn -0.2982 -0.5509 0.7795
vn -0.0965 0.4550 0.8852
vn -0.3110 0.8281 0.4663
vn 0.3113 -0.4856 0.8169
vn 0.5770 0.5177 0.6317
vn 0.0864 0.8705 0.4845
vn 0.8290 -0.4624 0.3144
vn 0.4327 0.8867 0.1633
vn 0.8183 0.4842 0.3097
vn -0.0296 -0.9987 -0.0406
vn -0.8414 0.3243 -0.4324
vn -0.8424 0.2756 0.4631
vn 0.1881 0.2247 0.9561
vn 0.0296 0.9987 0.0406
vn 0.9118 0.2566 -0.3206
vn -0.1651 0.3322 -0.9286
vn 0.9213 -0.3635 0.1380
vn 0.4715 -0.2599 -0.8427
vn -0.5680 -0.2981 -0.7671
vn -0.9499 -0.3123 -0.0079
vn -0.4212 -0.3227 0.8476
vn 0.4567 -0.4517 0.7664
vn 0.7173 0.6822 0.1420
vn 0.3654 0.7386 -0.5665
vn -0.3928 0.7517 -0.5298
vn -0.6825 0.7302 0.0333
vn -0.2833 0.6925 0.6634
vn 0.3754 0.6885 0.6206
vn 0.9467 0.2762 0.1658
vn 0.7302 -0.6143 -0.2990
vn 0.4756 0.3750 -0.7957
vn 0.5906 0.7876 -0.1757
vn -0.1633 -0.5590 -0.8129
vn -0.5544 0.3616 -0.7496
vn -0.0844 0.8289 -0.5531
vn -0.7265 -0.5626 -0.3945
vn -0.9419 0.3356 0.0172
vn -0.5071 0.8264 -0.2447
vn -0.7212 -0.5981 0.3495
vn -0.3987 0.3049 0.8649
vn -0.5102 0.7999 0.3162
vn 0.1311 -0.6401 0.7570
vn 0.5004 0.2410 0.8316
vn 0.1367 0.7680 0.6257
vn 0.6041 -0.6392 0.4758
vn 0.4916 0.7689 0.4088
vn 0.7560 0.2300 0.6128
vn -0.7555 0.3928 0.5243
vn -0.7113 0.6646 0.2289
vn 0.1883 0.6342 0.7499
vn 0.1556 0.8864 0.4361
vn 0.9438 0.2414 0.2256
vn 0.8495 0.5256 -0.0455
vn 0.7555 -0.3928 -0.5243
vn 0.6766 -0.0568 -0.7342
vn -0.1883 -0.6342 -0.7499
vn -0.1903 -0.2786 -0.9414
vn -0.9438 -0.2414 -0.2256
vn -0.8842 0.0821 -0.4598
vn 0.0439 -0.7682 0.6387
vn -0.5324 0.6049 -0.5921
vn -0.2440 0.8675 -0.4335
vn -0.7953 0.4840 0.3651
vn -0.4836 0.7573 0.4389
vn -0.2628 -0.1209 0.9572
vn 0.0016 0.2060 0.9785
vn 0.5324 -0.6049 0.5921
vn 0.7264 -0.2351 0.6458
vn 0.7953 -0.4840 -0.3651
vn 0.9660 -0.1249 -0.2266
vn 0.2628 0.1209 -0.9572
vn 0.4807 0.4264 -0.7662
vn -0.5859 -0.7682 -0.2579
vn -0.8360 0.5208 -0.1728
vn -0.4969 0.8563 0.1410
vn -0.7684 -0.0620 0.6369
vn -0.4404 0.3684 0.8187
vn 0.0676 -0.5828 0.8098
vn 0.2594 -0.0675 0.9634
vn 0.8360 -0.5208 0.1728
vn 0.9026 -0.0155 0.4303
vn 0.7684 0.0620 -0.6369
vn 0.8460 0.4723 -0.2475
vn -0.0676 0.5828 -0.8098
vn 0.1462 0.9082 -0.3922
vn -0.3706 -0.7682 -0.5220
vn -0.7387 -0.5554 -0.3817
vn -0.8569 0.3062 -0.4146
vn -0.9399 0.3412 0.0101
vn 0.4326 0.8867 0.1633
vt 0.289439 0.368013
vt 0.364251 0.246244
vt 0.414247 0.393981
vt 0.133352 0.931283
vt 0.103566 0.863798
vt 0.133352 0.856338
vt 0.895355 0.515512
vt 0.866013 0.442472
vt 0.895355 0.435220
vt 0.275877 0.704367
vt 0.335289 0.731091
vt 0.283466 0.732979
vt 0.556023 0.051460
vt 0.653654 0.039859
vt 0.617326 0.148913
vt 0.540036 0.480894
vt 0.510562 0.399438
vt 0.538969 0.389331
vt 0.540049 0.484624
vt 0.510416 0.529354
vt 0.511433 0.480901
vt 0.319770 0.151599
vt 0.317488 0.150558
vt 0.318921 0.148418
vt 0.541948 0.482690
vt 0.134968 0.855169
vt 0.132939 0.853570
vt 0.134968 0.932390
vt 0.132977 0.934393
vt 0.897017 0.517309
vt 0.895087 0.519107
vt 0.338910 0.700244
vt 0.340715 0.702109
vt 0.337103 0.702137
vt 0.555264 0.133448
vt 0.553250 0.130745
vt 0.556023 0.130580
vt 0.554671 0.048981
vt 0.553250 0.052517
vt 0.598873 0.005903
vt 0.597637 0.008119
vt 0.595574 0.006380
vt 0.103261 0.930415
vt 0.101145 0.927862
vt 0.103566 0.927295
vt 0.865697 0.514166
vt 0.863621 0.511694
vt 0.866013 0.510579
vt 0.615891 0.151579
vt 0.619416 0.150779
vt 0.510416 0.397049
vt 0.540848 0.388332
vt 0.540703 0.541948
vt 0.654258 0.037285
vt 0.897017 0.434123
vt 0.662381 0.109346
vt 0.659901 0.110058
vt 0.275224 0.702563
vt 0.338898 0.731102
vt 0.661046 0.112787
vt 0.319770 0.221130
vt 0.317488 0.222178
vt 0.390637 0.732979
vt 0.569986 0.543239
vt 0.669351 0.614551
vt 0.552906 0.670686
vt 0.334498 0.952135
vt 0.362852 0.898814
vt 0.362852 0.949701
vt 0.323481 0.795740
vt 0.350873 0.872743
vt 0.323481 0.879740
vt 0.868982 0.983663
vt 0.894941 0.929569
vt 0.894941 0.976301
vt 0.833688 0.220492
vt 0.738684 0.263507
vt 0.743560 0.145439
vt 0.084105 0.724607
vt 0.017505 0.757528
vt 0.010000 0.729738
vt 0.130815 0.732519
vt 0.086215 0.753101
vt 0.087504 0.724716
vt 0.652763 0.215324
vt 0.654864 0.216973
vt 0.652853 0.218669
vt 0.085401 0.722881
vt 0.333009 0.952975
vt 0.334913 0.955157
vt 0.333009 0.892912
vt 0.335051 0.891187
vt 0.334498 0.894292
vt 0.321524 0.793945
vt 0.323488 0.792038
vt 0.866829 0.929069
vt 0.868713 0.927162
vt 0.868982 0.930549
vt 0.822053 0.153672
vt 0.824441 0.155950
vt 0.822143 0.156638
vt 0.083924 0.755381
vt 0.082814 0.753005
vt 0.365451 0.950191
vt 0.363247 0.952725
vt 0.363375 0.895704
vt 0.365451 0.898086
vt 0.714317 0.189853
vt 0.716311 0.192352
vt 0.713889 0.193520
vt 0.743992 0.142548
vt 0.740924 0.144044
vt 0.014939 0.758099
vt 0.672235 0.270974
vt 0.017616 0.759973
vt 0.629623 0.670686
vt 0.669883 0.616776
vt 0.631751 0.670658
vt 0.794062 0.263706
vt 0.791893 0.263069
vt 0.657591 0.554021
vt 0.670686 0.613086
vt 0.321524 0.880406
vt 0.350916 0.794938
vt 0.866829 0.984227
vt 0.672291 0.133074
vt 0.674839 0.132841
vt 0.648962 0.139815
vt 0.766202 0.736109
vt 0.660946 0.757046
vt 0.645261 0.671565
vt 0.260027 0.814220
vt 0.233965 0.771485
vt 0.251285 0.766113
vt 0.260065 0.817776
vt 0.236709 0.855138
vt 0.241657 0.817496
vt 0.794762 0.662131
vt 0.813960 0.715615
vt 0.796637 0.721506
vt 0.794774 0.658213
vt 0.813960 0.627219
vt 0.812360 0.659331
vt 0.961943 0.565365
vt 0.977998 0.520824
vt 0.977998 0.562690
vt 0.805487 0.009129
vt 0.832771 0.088272
vt 0.766385 0.119367
vt 0.302163 0.797578
vt 0.286063 0.862648
vt 0.284942 0.802857
vt 0.302317 0.881994
vt 0.285916 0.866301
vt 0.303382 0.868953
vt 0.071400 0.222539
vt 0.069468 0.224400
vt 0.067650 0.222409
vt 0.305235 0.867244
vt 0.303432 0.865285
vt 0.303987 0.882522
vt 0.301951 0.884558
vt 0.261630 0.816528
vt 0.255634 0.862147
vt 0.253444 0.863794
vt 0.254433 0.860620
vt 0.792982 0.660087
vt 0.959975 0.566914
vt 0.961821 0.568941
vt 0.959975 0.516318
vt 0.961808 0.514373
vt 0.961943 0.517761
vt 0.730798 0.089566
vt 0.729312 0.086129
vt 0.732244 0.086534
vt 0.731041 0.021233
vt 0.732244 0.023531
vt 0.729312 0.024386
vt 0.746291 0.012555
vt 0.745630 0.014936
vt 0.742544 0.013847
vt 0.239125 0.816186
vt 0.241680 0.813941
vt 0.235769 0.858328
vt 0.233965 0.855445
vt 0.834042 0.091416
vt 0.835491 0.087909
vt 0.808770 0.118247
vt 0.809516 0.114929
vt 0.812143 0.116519
vt 0.763788 0.121291
vt 0.767340 0.122509
vt 0.284724 0.800050
vt 0.005408 0.236713
vt 0.284999 0.877526
vt 0.730384 0.764990
vt 0.662920 0.758680
vt 0.804222 0.006935
vt 0.794957 0.722597
vt 0.836257 0.033805
vt 0.796598 0.621617
vt 0.121556 0.234182
vt 0.122509 0.236713
vt 0.117860 0.221898
vt 0.650934 0.789953
vt 0.627133 0.870997
vt 0.574813 0.800741
vt 0.226483 0.943606
vt 0.199014 0.907030
vt 0.228732 0.904260
vt 0.992787 0.392198
vt 0.963692 0.437064
vt 0.963692 0.398166
vt 0.944904 0.130749
vt 0.916011 0.094090
vt 0.944614 0.087085
vt 0.013833 0.886948
vt 0.078511 0.901916
vt 0.037209 0.948416
vt 0.992533 0.086566
vt 0.961695 0.134319
vt 0.963041 0.091652
vt 0.228646 0.900949
vt 0.194816 0.879225
vt 0.223476 0.870079
vt 0.887123 0.604889
vt 0.889102 0.606785
vt 0.886922 0.608483
vt 0.992533 0.141795
vt 0.990468 0.143274
vt 0.990841 0.140183
vt 0.230484 0.903026
vt 0.228085 0.944995
vt 0.225995 0.946851
vt 0.994609 0.442619
vt 0.992603 0.444356
vt 0.992787 0.441210
vt 0.946851 0.132466
vt 0.944905 0.134517
vt 0.013000 0.937173
vt 0.011229 0.934057
vt 0.013833 0.934422
vt 0.961299 0.137405
vt 0.959359 0.135120
vt 0.196675 0.906177
vt 0.198918 0.903719
vt 0.196766 0.941325
vt 0.194816 0.938705
vt 0.197240 0.938078
vt 0.073096 0.945413
vt 0.072852 0.942625
vt 0.075437 0.943027
vt 0.034895 0.950280
vt 0.038683 0.951004
vt 0.863902 0.603426
vt 0.863707 0.607021
vt 0.897017 0.660304
vt 0.011229 0.887036
vt 0.574813 0.862233
vt 0.625501 0.872100
vt 0.575306 0.863691
vt 0.053154 0.877888
vt 0.054392 0.880121
vt 0.056715 0.878926
vt 0.079736 0.899729
vt 0.994609 0.391402
vt 0.080981 0.903145
vt 0.946545 0.086308
vt 0.916232 0.132405
vt 0.894433 0.576598
vt 0.897017 0.576153
vt 0.916011 0.153949
vt 0.672586 0.951004
vt 0.681068 0.909848
vt 0.681068 0.950909
vt 0.672586 0.909943
vt 0.677061 0.896516
vt 0.616699 0.199337
vt 0.608380 0.164516
vt 0.616699 0.165590
vt 0.014535 0.969692
vt 0.006317 0.967604
vt 0.014535 0.951500
vt 0.436050 0.292776
vt 0.428518 0.251675
vt 0.436050 0.253400
vt 0.448509 0.917669
vt 0.443735 0.921799
vt 0.438242 0.903685
vt 0.440098 0.959310
vt 0.448509 0.958875
vt 0.435324 0.922234
vt 0.455076 0.252468
vt 0.459670 0.280318
vt 0.451238 0.280318
vt 0.888711 0.159958
vt 0.885645 0.163937
vt 0.879152 0.146152
vt 0.880344 0.203490
vt 0.888711 0.202356
vt 0.877278 0.165071
vt 0.454020 0.241109
vt 0.467196 0.246788
vt 0.946469 0.234953
vt 0.959310 0.177983
vt 0.959310 0.236713
vt 0.862500 0.637442
vt 0.875351 0.638526
vt 0.862500 0.660304
vt 0.951004 0.421458
vt 0.939304 0.355243
vt 0.951004 0.356377
vt 0.882482 0.649258
vt 0.927792 0.421515
vt 0.939304 0.420324
vt 0.668610 0.305235
vt 0.656242 0.305235
vt 0.662836 0.277056
vt 0.535719 0.874308
vt 0.524402 0.812638
vt 0.535719 0.810693
vt 0.523841 0.784272
vt 0.524402 0.876253
vt 0.512525 0.810956
vt 0.855530 0.797774
vt 0.867947 0.736978
vt 0.867947 0.799425
vt 0.855530 0.735327
vt 0.866108 0.708349
vt 0.622928 0.701338
vt 0.603650 0.706783
vt 0.613289 0.685825
vt 0.640617 0.992533
vt 0.654075 0.949542
vt 0.654075 0.992068
vt 0.786670 0.955381
vt 0.799425 0.952961
vt 0.799425 0.971768
vt 0.461994 0.946792
vt 0.475502 0.901447
vt 0.475502 0.946851
vt 0.461994 0.901388
vt 0.469059 0.881841
vt 0.954128 0.872100
vt 0.967616 0.834543
vt 0.967616 0.871614
vt 0.954128 0.835028
vt 0.960162 0.813446
vt 0.937547 0.500419
vt 0.951004 0.454566
vt 0.951004 0.500277
vt 0.937547 0.454708
vt 0.943221 0.435495
vt 0.937596 0.734958
vt 0.951004 0.688947
vt 0.951004 0.734973
vt 0.937596 0.688932
vt 0.942851 0.671146
vt 0.929442 0.735056
vt 0.780815 0.967141
vt 0.883980 0.541418
vt 0.883166 0.564789
vt 0.868160 0.553103
vt 0.340571 0.415286
vt 0.296932 0.283751
vt 0.414247 0.298923
vt 0.511468 0.477177
vt 0.538848 0.541846
vt 0.538905 0.386913
vt 0.103170 0.861026
vt 0.656243 0.040372
vt 0.401789 0.704325
vt 0.521823 0.583817
vt 0.350873 0.798637
vt 0.124353 0.759973
vt 0.007432 0.730303
vt 0.674839 0.270879
vt 0.834724 0.222283
vt 0.659362 0.554794
vt 0.735957 0.263706
vt 0.894665 0.926182
vt 0.631731 0.212390
vt 0.684953 0.633069
vt 0.735110 0.639109
vt 0.762153 0.671264
vt 0.645261 0.746495
vt 0.812306 0.663246
vt 0.301986 0.794759
vt 0.006323 0.234196
vt 0.284724 0.880114
vt 0.728678 0.766202
vt 0.838877 0.035009
vt 0.794955 0.620503
vt 0.977858 0.566269
vt 0.977832 0.517430
vt 0.073697 0.211646
vt 0.604992 0.782527
vt 0.658228 0.842694
vt 0.916241 0.128638
vt 0.894563 0.660148
vt 0.013297 0.884597
vt 0.963508 0.440209
vt 0.944624 0.161961
vt 0.608380 0.198264
vt 0.428518 0.291051
vt 0.463508 0.252468
vt 0.450332 0.246788
vt 0.462452 0.241109
vt 0.946469 0.176224
vt 0.927792 0.356434
vt 0.512525 0.874571
vt 0.622928 0.689181
vt 0.613289 0.710138
vt 0.603650 0.694626
vt 0.640617 0.950007
vt 0.929442 0.689030
vt 0.873704 0.541418
vt 0.888711 0.553103
vt 0.872890 0.564789
s 0
f 13/1/1 7/2/1 2/3/1
f 12/4/2 25/5/2 8/6/2
f 15/7/3 28/8/3 11/9/3
f 14/10/4 36/11/4 31/12/4
f 23/13/5 29/14/5 35/15/5
f 6/16/6 20/17/6 3/18/6
f 5/19/7 27/20/7 22/21/7
f 1/22/8 2/23/8 3/24/8
f 4/25/9 5/19/9 6/16/9
f 7/26/10 8/6/10 9/27/10
f 10/28/11 11/29/11 12/4/11
f 13/30/12 14/31/12 15/7/12
f 16/32/13 17/33/13 18/34/13
f 19/35/14 20/36/14 21/37/14
f 22/38/15 23/13/15 24/39/15
f 25/40/16 26/41/16 27/42/16
f 28/43/17 29/44/17 30/45/17
f 31/46/18 32/47/18 33/48/18
f 34/49/19 35/15/19 36/50/19
f 19/51/20 3/18/20 20/17/20
f 2/52/21 6/16/21 3/18/21
f 22/21/22 6/16/22 5/19/22
f 21/37/23 24/39/23 23/13/23
f 7/53/24 5/19/24 4/25/24
f 25/5/25 9/27/25 8/6/25
f 26/41/26 22/38/26 27/42/26
f 7/26/27 12/4/27 8/6/27
f 11/29/28 30/45/28 12/4/28
f 26/41/29 30/54/29 29/14/29
f 10/55/30 15/7/30 11/9/30
f 31/46/31 15/7/31 14/31/31
f 29/14/32 33/56/32 32/57/32
f 13/58/33 18/34/33 14/10/33
f 34/59/34 18/34/34 17/33/34
f 35/15/35 31/60/35 36/50/35
f 2/23/36 17/61/36 16/62/36
f 21/37/37 34/49/37 19/35/37
f 17/33/38 19/63/38 34/59/38
f 49/64/39 43/65/39 38/66/39
f 44/67/40 66/68/40 61/69/40
f 51/70/41 64/71/41 47/72/41
f 50/73/42 72/74/42 67/75/42
f 59/76/43 65/77/43 71/78/43
f 42/79/44 56/80/44 39/81/44
f 45/82/45 58/83/45 41/84/45
f 37/85/46 38/86/46 39/87/46
f 40/88/47 41/84/47 42/79/47
f 43/89/48 44/67/48 45/90/48
f 46/91/49 47/92/49 48/93/49
f 49/94/50 50/95/50 51/70/50
f 52/96/51 53/97/51 54/98/51
f 55/99/52 56/100/52 57/101/52
f 58/83/53 59/102/53 60/103/53
f 61/69/54 62/104/54 63/105/54
f 64/106/55 65/107/55 66/68/55
f 67/108/56 68/109/56 69/110/56
f 70/111/57 71/78/57 72/112/57
f 55/113/58 39/81/58 56/80/58
f 38/86/59 42/114/59 39/87/59
f 41/84/60 60/103/60 42/79/60
f 57/115/61 60/103/61 59/102/61
f 40/116/62 45/117/62 41/118/62
f 61/69/63 45/90/63 44/67/63
f 59/76/64 63/119/64 62/120/64
f 46/121/65 44/122/65 43/65/65
f 47/92/66 66/68/66 48/93/66
f 65/107/67 61/69/67 66/68/67
f 46/123/68 51/70/68 47/72/68
f 67/124/69 51/70/69 50/95/69
f 65/77/70 69/110/70 68/109/70
f 52/96/71 50/73/71 49/125/71
f 53/97/72 72/74/72 54/98/72
f 71/78/73 67/108/73 72/112/73
f 38/86/74 53/126/74 52/127/74
f 71/78/75 55/99/75 57/101/75
f 37/85/76 70/128/76 53/126/76
f 85/129/77 79/130/77 74/131/77
f 84/132/78 103/133/78 80/134/78
f 83/135/79 111/136/79 106/137/79
f 90/138/80 109/139/80 86/140/80
f 89/141/81 117/142/81 112/143/81
f 92/144/82 120/145/82 115/146/82
f 107/147/83 113/148/83 119/149/83
f 75/150/84 102/151/84 98/152/84
f 81/153/85 100/154/85 77/155/85
f 73/156/86 74/157/86 75/158/86
f 76/159/87 77/155/87 78/160/87
f 79/161/88 80/162/88 81/153/88
f 82/163/89 83/135/89 84/132/89
f 85/164/90 86/165/90 87/166/90
f 88/167/91 89/141/91 90/138/91
f 91/168/92 92/144/92 93/169/92
f 94/170/93 95/171/93 96/172/93
f 97/173/94 98/174/94 99/175/94
f 100/176/95 101/177/95 102/178/95
f 103/179/96 104/180/96 105/181/96
f 106/137/97 107/182/97 108/183/97
f 109/184/98 110/185/98 111/136/98
f 112/186/99 113/148/99 114/187/99
f 115/188/100 116/189/100 117/190/100
f 118/191/101 119/149/101 120/192/101
f 97/193/102 75/150/102 98/152/102
f 76/194/103 75/158/103 74/157/103
f 100/154/104 78/160/104 77/155/104
f 101/177/105 98/174/105 102/178/105
f 76/159/106 81/153/106 77/155/106
f 80/162/107 105/195/107 81/153/107
f 101/177/108 105/181/108 104/180/108
f 82/196/109 80/197/109 79/130/109
f 106/137/110 84/132/110 83/135/110
f 107/147/111 103/179/111 108/198/111
f 85/164/112 83/135/112 82/163/112
f 86/165/113 111/136/113 87/166/113
f 110/185/114 106/137/114 111/136/114
f 85/199/115 90/138/115 86/140/115
f 112/143/116 90/138/116 89/141/116
f 110/200/117 114/187/117 113/148/117
f 88/167/118 93/201/118 89/141/118
f 115/146/119 93/169/119 92/144/119
f 116/189/120 112/186/120 117/190/120
f 94/170/121 92/144/121 91/168/121
f 95/171/122 120/145/122 96/172/122
f 119/149/123 115/188/123 120/192/123
f 74/157/124 95/202/124 94/203/124
f 119/149/125 97/173/125 99/175/125
f 73/156/126 118/204/126 95/202/126
f 133/205/127 127/206/127 122/207/127
f 132/208/128 145/209/128 128/210/128
f 131/211/129 153/212/129 148/213/129
f 138/214/130 151/215/130 134/216/130
f 143/217/131 149/218/131 155/219/131
f 123/220/132 144/221/132 140/222/132
f 129/223/133 142/224/133 125/225/133
f 121/226/134 122/227/134 123/228/134
f 124/229/135 125/230/135 126/231/135
f 127/232/136 128/210/136 129/223/136
f 130/233/137 131/234/137 132/208/137
f 133/235/138 134/236/138 135/237/138
f 136/238/139 137/239/139 138/214/139
f 139/240/140 140/241/140 141/242/140
f 142/243/141 143/244/141 144/221/141
f 145/209/142 146/245/142 147/246/142
f 148/247/143 149/248/143 150/249/143
f 151/250/144 152/251/144 153/252/144
f 154/253/145 155/219/145 156/254/145
f 139/255/146 123/228/146 140/256/146
f 124/257/147 123/228/147 122/227/147
f 142/243/148 126/231/148 125/230/148
f 143/217/149 140/241/149 144/258/149
f 124/259/150 129/260/150 125/261/150
f 128/210/151 147/246/151 129/223/151
f 143/217/152 147/262/152 146/263/152
f 130/233/153 128/210/153 127/232/153
f 131/234/154 150/249/154 132/208/154
f 149/218/155 145/264/155 150/265/155
f 133/235/156 131/211/156 130/266/156
f 134/236/157 153/212/157 135/237/157
f 152/251/158 148/267/158 153/252/158
f 133/268/159 138/214/159 134/216/159
f 154/269/160 138/214/160 137/239/160
f 152/251/161 156/254/161 155/219/161
f 122/227/162 137/270/162 136/271/162
f 141/242/163 154/253/163 139/240/163
f 137/239/164 139/272/164 154/269/164
f 158/273/165 163/274/165 157/275/165
f 163/274/166 164/276/166 169/277/166
f 158/278/167 165/279/167 164/280/167
f 164/281/168 165/282/168 169/283/168
f 159/284/169 166/285/169 165/286/169
f 165/287/170 166/288/170 169/289/170
f 161/290/171 166/288/171 160/291/171
f 166/288/172 167/292/172 169/289/172
f 161/293/173 168/294/173 167/295/173
f 167/296/174 168/297/174 169/298/174
f 157/299/175 168/297/175 162/300/175
f 168/297/176 163/301/176 169/298/176
f 161/293/177 159/302/177 157/303/177
f 171/304/178 176/305/178 170/306/178
f 176/307/179 177/308/179 182/309/179
f 171/310/180 178/311/180 177/312/180
f 177/308/181 178/313/181 182/309/181
f 173/314/182 178/311/182 172/315/182
f 178/316/183 179/317/183 182/318/183
f 173/319/184 180/320/184 179/321/184
f 179/321/185 180/320/185 182/322/185
f 174/323/186 181/324/186 180/320/186
f 180/320/187 181/324/187 182/322/187
f 170/325/188 181/326/188 175/327/188
f 181/326/189 176/328/189 182/329/189
f 174/330/190 172/331/190 170/332/190
f 184/333/191 189/334/191 183/335/191
f 189/336/192 190/337/192 195/338/192
f 185/339/193 190/340/193 184/341/193
f 190/340/194 191/342/194 195/343/194
f 186/344/195 191/345/195 185/346/195
f 191/345/196 192/347/196 195/348/196
f 187/349/197 192/350/197 186/351/197
f 192/350/198 193/352/198 195/353/198
f 188/354/199 193/355/199 187/356/199
f 193/355/200 194/357/200 195/358/200
f 183/359/201 194/357/201 188/354/201
f 194/360/202 189/336/202 195/338/202
f 187/361/203 185/362/203 183/363/203
f 2/3/1 16/364/1 13/1/1
f 13/1/1 10/365/1 7/2/1
f 7/2/1 4/366/1 2/3/1
f 12/4/2 30/45/2 25/5/2
f 15/7/3 33/48/3 28/8/3
f 14/10/4 18/34/4 36/11/4
f 35/15/5 21/37/5 23/13/5
f 23/13/5 26/41/5 29/14/5
f 29/14/5 32/57/5 35/15/5
f 6/16/6 24/367/6 20/17/6
f 5/19/7 9/368/7 27/20/7
f 19/51/20 1/369/20 3/18/20
f 2/52/21 4/25/21 6/16/21
f 22/21/22 24/367/22 6/16/22
f 21/37/23 20/36/23 24/39/23
f 7/53/24 9/368/24 5/19/24
f 25/5/25 27/370/25 9/27/25
f 26/41/26 23/13/26 22/38/26
f 7/26/204 10/28/204 12/4/204
f 11/29/28 28/43/28 30/45/28
f 26/41/29 25/40/29 30/54/29
f 10/55/30 13/30/30 15/7/30
f 31/46/31 33/48/31 15/7/31
f 29/14/32 28/371/32 33/56/32
f 13/58/33 16/32/33 18/34/33
f 34/59/34 36/11/34 18/34/34
f 35/15/35 32/57/35 31/60/35
f 2/23/36 1/22/36 17/61/36
f 21/37/37 35/15/37 34/49/37
f 17/33/38 1/372/38 19/63/38
f 38/66/39 52/373/39 49/64/39
f 49/64/39 46/121/39 43/65/39
f 43/65/39 40/116/39 38/66/39
f 44/67/40 48/93/40 66/68/40
f 51/70/41 69/374/41 64/71/41
f 50/73/42 54/98/42 72/74/42
f 71/78/43 57/101/43 59/76/43
f 59/76/43 62/120/43 65/77/43
f 65/77/43 68/109/43 71/78/43
f 42/79/44 60/103/44 56/80/44
f 45/82/45 63/375/45 58/83/45
f 55/113/58 37/376/58 39/81/58
f 38/86/59 40/377/59 42/114/59
f 41/84/60 58/83/60 60/103/60
f 57/115/61 56/80/61 60/103/61
f 40/116/62 43/65/62 45/117/62
f 61/69/63 63/105/63 45/90/63
f 59/76/64 58/378/64 63/119/64
f 46/121/65 48/379/65 44/122/65
f 47/92/66 64/106/66 66/68/66
f 65/107/67 62/104/67 61/69/67
f 46/123/68 49/94/68 51/70/68
f 67/124/69 69/374/69 51/70/69
f 65/77/70 64/380/70 69/110/70
f 52/96/71 54/98/71 50/73/71
f 53/97/72 70/381/72 72/74/72
f 71/78/73 68/109/73 67/108/73
f 38/86/74 37/85/74 53/126/74
f 71/78/75 70/111/75 55/99/75
f 37/85/76 55/382/76 70/128/76
f 74/131/77 94/383/77 91/384/77
f 91/384/77 88/385/77 85/129/77
f 85/129/77 82/196/77 79/130/77
f 79/130/77 76/386/77 74/131/77
f 74/131/77 91/384/77 85/129/77
f 84/132/78 108/183/78 103/133/78
f 83/135/205 87/166/205 111/136/205
f 90/138/80 114/387/80 109/139/80
f 89/141/81 93/201/81 117/142/81
f 92/144/82 96/172/82 120/145/82
f 119/149/83 99/175/83 101/177/83
f 101/177/83 104/180/83 107/147/83
f 107/147/83 110/200/83 113/148/83
f 113/148/83 116/189/83 119/149/83
f 119/149/83 101/177/83 107/147/83
f 75/150/84 78/160/84 102/151/84
f 81/153/85 105/195/85 100/154/85
f 97/193/102 73/388/102 75/150/102
f 76/194/103 78/389/103 75/158/103
f 100/154/104 102/151/104 78/160/104
f 101/177/105 99/175/105 98/174/105
f 76/159/106 79/161/106 81/153/106
f 80/162/107 103/390/107 105/195/107
f 101/177/108 100/176/108 105/181/108
f 82/196/109 84/391/109 80/197/109
f 106/137/110 108/183/110 84/132/110
f 107/147/111 104/180/111 103/179/111
f 85/164/112 87/166/112 83/135/112
f 86/165/206 109/184/206 111/136/206
f 110/185/114 107/182/114 106/137/114
f 85/199/115 88/167/115 90/138/115
f 112/143/116 114/387/116 90/138/116
f 110/200/117 109/392/117 114/187/117
f 88/167/118 91/393/118 93/201/118
f 115/146/119 117/394/119 93/169/119
f 116/189/120 113/148/120 112/186/120
f 94/170/121 96/172/121 92/144/121
f 95/171/122 118/395/122 120/145/122
f 119/149/123 116/189/123 115/188/123
f 74/157/124 73/156/124 95/202/124
f 119/149/207 118/191/207 97/173/207
f 73/156/126 97/396/126 118/204/126
f 122/207/127 136/397/127 133/205/127
f 133/205/127 130/398/127 127/206/127
f 127/206/127 124/259/127 122/207/127
f 132/208/128 150/249/128 145/209/128
f 131/211/129 135/237/129 153/212/129
f 138/214/130 156/399/130 151/215/130
f 155/219/131 141/242/131 143/217/131
f 143/217/131 146/263/131 149/218/131
f 149/218/131 152/251/131 155/219/131
f 123/220/132 126/231/132 144/221/132
f 129/223/133 147/246/133 142/224/133
f 139/255/146 121/226/146 123/228/146
f 124/257/147 126/400/147 123/228/147
f 142/243/148 144/221/148 126/231/148
f 143/217/149 141/242/149 140/241/149
f 124/259/150 127/206/150 129/260/150
f 128/210/151 145/209/151 147/246/151
f 143/217/152 142/401/152 147/262/152
f 130/233/153 132/208/153 128/210/153
f 131/234/154 148/247/154 150/249/154
f 149/218/155 146/263/155 145/264/155
f 133/235/156 135/237/156 131/211/156
f 134/236/157 151/402/157 153/212/157
f 152/251/158 149/218/158 148/267/158
f 133/268/159 136/238/159 138/214/159
f 154/269/160 156/399/160 138/214/160
f 152/251/161 151/250/161 156/254/161
f 122/227/162 121/226/162 137/270/162
f 141/242/163 155/219/163 154/253/163
f 137/239/164 121/403/164 139/272/164
f 158/273/165 164/276/165 163/274/165
f 158/278/167 159/404/167 165/279/167
f 159/284/169 160/405/169 166/285/169
f 161/290/171 167/292/171 166/288/171
f 161/293/173 162/406/173 168/294/173
f 157/299/175 163/301/175 168/297/175
f 157/303/177 162/406/177 161/293/177
f 161/293/177 160/407/177 159/302/177
f 159/302/177 158/408/177 157/303/177
f 171/304/178 177/409/178 176/305/178
f 171/310/180 172/315/180 178/311/180
f 173/314/182 179/410/182 178/311/182
f 173/319/184 174/323/184 180/320/184
f 174/323/186 175/411/186 181/324/186
f 170/325/188 176/328/188 181/326/188
f 170/332/190 175/412/190 174/330/190
f 174/330/190 173/413/190 172/331/190
f 172/331/190 171/414/190 170/332/190
f 184/333/191 190/415/191 189/334/191
f 185/339/193 191/342/193 190/340/193
f 186/344/195 192/347/195 191/345/195
f 187/349/197 193/352/197 192/350/197
f 188/354/199 194/357/199 193/355/199
f 183/359/201 189/416/201 194/357/201
f 183/363/203 188/417/203 187/361/203
f 187/361/203 186/418/203 185/362/203
f 185/362/203 184/419/203 183/363/203
